# Blender 3.3.0
# www.blender.org
mtllib table.mtl
o Cube
v 1.485046 0.766119 -1.070490
v 1.485046 0.650816 -1.070490
v 1.485046 0.766119 1.070490
v 1.485046 0.650816 1.070490
v -1.485046 0.766119 -1.070490
v -1.485046 0.650816 -1.070490
v -1.485046 0.766119 1.070490
v -1.485046 0.650816 1.070490
v -1.336542 0.650816 -1.070490
v -1.336542 0.766119 1.070490
v -1.336542 0.650816 1.070490
v -1.336542 0.766119 -1.070490
v 1.343967 0.650816 1.070490
v 1.343967 0.766119 -1.070490
v 1.343967 0.650816 -1.070490
v 1.343967 0.766119 1.070490
v -1.485046 0.650816 0.963441
v 1.485046 0.766119 0.963441
v -1.485046 0.766119 0.963441
v 1.485046 0.650816 0.963441
v -1.336542 0.650816 0.963441
v -1.336542 0.766119 0.963441
v 1.343967 0.766119 0.963441
v 1.343967 0.650816 0.963441
v -1.485046 0.766119 -0.968794
v 1.485046 0.650816 -0.968794
v -1.485046 0.650816 -0.968794
v 1.485046 0.766119 -0.968794
v -1.336542 0.650816 -0.968794
v -1.336542 0.766119 -0.968794
v 1.343967 0.766119 -0.968794
v 1.343967 0.650816 -0.968794
v -1.485046 -0.000924 0.963441
v -1.485046 -0.000924 1.070490
v -1.336542 -0.000924 -1.070490
v -1.485046 -0.000924 -1.070490
v 1.343967 -0.000924 1.070490
v 1.485046 -0.000924 1.070490
v 1.485046 -0.000924 -0.968794
v 1.485046 -0.000924 -1.070490
v -1.336542 -0.000924 1.070490
v -1.336542 -0.000924 0.963441
v 1.343967 -0.000924 -1.070490
v 1.343967 -0.000924 0.963441
v 1.485046 -0.000924 0.963441
v -1.485046 -0.000924 -0.968794
v -1.336542 -0.000924 -0.968794
v 1.343967 -0.000924 -0.968794
vn -0.0000 1.0000 -0.0000
vn -0.0000 -0.0000 1.0000
vn -1.0000 -0.0000 -0.0000
vn 1.0000 -0.0000 -0.0000
vn -0.0000 -0.0000 -1.0000
vn -0.0000 -1.0000 -0.0000
vt 0.625000 0.500000
vt 0.375000 0.500000
vt 0.625000 0.750000
vt 0.375000 0.750000
vt 0.625000 0.250000
vt 0.875000 0.500000
vt 0.375000 0.250000
vt 0.875000 0.750000
vt 0.625000 1.000000
vt 0.625000 0.000000
vt 0.375000 1.000000
vt 0.375000 0.000000
vt 0.375000 0.262500
vt 0.137500 0.500000
vt 0.625000 0.987500
vt 0.862500 0.750000
vt 0.137500 0.750000
vt 0.375000 0.987500
vt 0.625000 0.262500
vt 0.862500 0.500000
vt 0.375000 0.761875
vt 0.363125 0.750000
vt 0.625000 0.488125
vt 0.636875 0.500000
vt 0.363125 0.500000
vt 0.375000 0.488125
vt 0.636875 0.750000
vt 0.625000 0.761875
vt 0.125000 0.737500
vt 0.375000 0.012500
vt 0.625000 0.737500
vt 0.875000 0.737500
vt 0.625000 0.012500
vt 0.375000 0.737500
vt 0.137500 0.737500
vt 0.862500 0.737500
vt 0.636875 0.737500
vt 0.363125 0.737500
vt 0.875000 0.511875
vt 0.625000 0.238125
vt 0.375000 0.511875
vt 0.375000 0.238125
vt 0.125000 0.511875
vt 0.625000 0.511875
vt 0.137500 0.511875
vt 0.862500 0.511875
vt 0.636875 0.511875
vt 0.363125 0.511875
vt 0.125000 0.737500
vt 0.375000 0.012500
vt 0.125000 0.750000
vt 0.375000 1.000000
vt 0.375000 0.000000
vt 0.375000 0.262500
vt 0.137500 0.500000
vt 0.125000 0.500000
vt 0.375000 0.250000
vt 0.375000 0.761875
vt 0.363125 0.750000
vt 0.375000 0.750000
vt 0.375000 0.511875
vt 0.375000 0.500000
vt 0.137500 0.750000
vt 0.375000 0.987500
vt 0.137500 0.737500
vt 0.363125 0.500000
vt 0.375000 0.488125
vt 0.363125 0.737500
vt 0.375000 0.737500
vt 0.375000 0.238125
vt 0.125000 0.511875
vt 0.137500 0.511875
vt 0.363125 0.511875
s 0
usemtl Material.001
f 22/36/1 19/32/1 7/8/1 10/16/1
f 11/18/2 10/15/2 7/9/2 8/11/2
f 27/42/3 25/40/3 5/5/3 6/7/3
f 20/34/4 4/4/4 38/60/4 45/69/4
f 20/34/4 18/31/4 3/3/4 4/4/4
f 15/26/5 14/23/5 1/1/5 2/2/5
f 6/7/5 5/5/5 12/19/5 9/13/5
f 26/41/2 32/48/2 48/73/2 39/61/2
f 13/21/2 16/28/2 10/15/2 11/18/2
f 23/37/1 22/36/1 10/16/1 16/27/1
f 18/31/1 23/37/1 16/27/1 3/3/1
f 4/4/2 3/3/2 16/28/2 13/21/2
f 9/13/5 12/19/5 14/23/5 15/26/5
f 21/35/6 24/38/6 13/22/6 11/17/6
f 29/45/6 32/48/6 24/38/6 21/35/6
f 28/44/1 31/47/1 23/37/1 18/31/1
f 31/47/1 30/46/1 22/36/1 23/37/1
f 27/43/6 29/45/6 21/35/6 17/29/6
f 26/41/4 28/44/4 18/31/4 20/34/4
f 32/48/6 26/41/6 20/34/6 24/38/6
f 8/12/3 7/10/3 19/33/3 17/30/3
f 30/46/1 25/39/1 19/32/1 22/36/1
f 12/20/1 5/6/1 25/39/1 30/46/1
f 6/7/5 9/13/5 35/54/5 36/57/5
f 2/2/4 1/1/4 28/44/4 26/41/4
f 4/4/2 13/21/2 37/58/2 38/60/2
f 14/24/1 12/20/1 30/46/1 31/47/1
f 1/1/1 14/24/1 31/47/1 28/44/1
f 9/14/6 15/25/6 32/48/6 29/45/6
f 17/30/3 19/33/3 25/40/3 27/42/3
f 44/68/6 45/69/6 38/60/6 37/59/6
f 33/49/6 42/65/6 41/63/6 34/51/6
f 43/66/6 40/62/6 39/61/6 48/73/6
f 36/56/6 35/55/6 47/72/6 46/71/6
f 27/42/3 6/7/3 36/57/3 46/70/3
f 17/29/5 21/35/5 42/65/5 33/49/5
f 21/35/4 11/17/4 41/63/4 42/65/4
f 29/45/2 27/43/2 46/71/2 47/72/2
f 2/2/4 26/41/4 39/61/4 40/62/4
f 9/14/4 29/45/4 47/72/4 35/55/4
f 24/38/5 20/34/5 45/69/5 44/68/5
f 13/22/3 24/38/3 44/68/3 37/59/3
f 32/48/3 15/25/3 43/66/3 48/73/3
f 11/18/2 8/11/2 34/52/2 41/64/2
f 15/26/5 2/2/5 40/62/5 43/67/5
f 8/12/3 17/30/3 33/50/3 34/53/3
