<?xml version="1.0" encoding="utf-8" standalone="no"?>
<!DOCTYPE svg PUBLIC "-//W3C//DTD SVG 1.1//EN"
  "http://www.w3.org/Graphics/SVG/1.1/DTD/svg11.dtd">
<svg xmlns:xlink="http://www.w3.org/1999/xlink" width="1080pt" height="360pt" viewBox="0 0 1080 360" xmlns="http://www.w3.org/2000/svg" version="1.1">
 <metadata>
  <rdf:RDF xmlns:dc="http://purl.org/dc/elements/1.1/" xmlns:cc="http://creativecommons.org/ns#" xmlns:rdf="http://www.w3.org/1999/02/22-rdf-syntax-ns#">
   <cc:Work>
    <dc:type rdf:resource="http://purl.org/dc/dcmitype/StillImage"/>
    <dc:date>2023-11-28T16:22:32.218884</dc:date>
    <dc:format>image/svg+xml</dc:format>
    <dc:creator>
     <cc:Agent>
      <dc:title>Matplotlib v3.8.2, https://matplotlib.org/</dc:title>
     </cc:Agent>
    </dc:creator>
   </cc:Work>
  </rdf:RDF>
 </metadata>
 <defs>
  <style type="text/css">*{stroke-linejoin: round; stroke-linecap: butt}</style>
 </defs>
 <g id="figure_1">
  <g id="patch_1">
   <path d="M 0 360 
L 1080 360 
L 1080 0 
L 0 0 
z
" style="fill: #ffffff"/>
  </g>
  <g id="axes_1">
   <g id="patch_2">
    <path d="M 50.92 134.32 
L 369.973333 134.32 
L 369.973333 38.48 
L 50.92 38.48 
z
" style="fill: #ffffff"/>
   </g>
   <g id="matplotlib.axis_1">
    <g id="xtick_1">
     <g id="line2d_1">
      <path d="M 65.422424 134.32 
L 65.422424 38.48 
" clip-path="url(#pfe3a44c18a)" style="fill: none; stroke: #e6e6e6; stroke-linecap: square"/>
     </g>
     <g id="line2d_2">
      <defs>
       <path id="m2f2d94c0df" d="M 0 0 
L 0 3.5 
" style="stroke: #000000; stroke-width: 0.8"/>
      </defs>
      <g>
       <use xlink:href="#m2f2d94c0df" x="65.422424" y="134.32" style="stroke: #000000; stroke-width: 0.8"/>
      </g>
     </g>
     <g id="text_1">
      <!-- 0 -->
      <g transform="translate(61.604924 150.438125) scale(0.12 -0.12)">
       <defs>
        <path id="DejaVuSans-30" d="M 2034 4250 
Q 1547 4250 1301 3770 
Q 1056 3291 1056 2328 
Q 1056 1369 1301 889 
Q 1547 409 2034 409 
Q 2525 409 2770 889 
Q 3016 1369 3016 2328 
Q 3016 3291 2770 3770 
Q 2525 4250 2034 4250 
z
M 2034 4750 
Q 2819 4750 3233 4129 
Q 3647 3509 3647 2328 
Q 3647 1150 3233 529 
Q 2819 -91 2034 -91 
Q 1250 -91 836 529 
Q 422 1150 422 2328 
Q 422 3509 836 4129 
Q 1250 4750 2034 4750 
z
" transform="scale(0.015625)"/>
       </defs>
       <use xlink:href="#DejaVuSans-30"/>
      </g>
     </g>
    </g>
    <g id="xtick_2">
     <g id="line2d_3">
      <path d="M 123.490189 134.32 
L 123.490189 38.48 
" clip-path="url(#pfe3a44c18a)" style="fill: none; stroke: #e6e6e6; stroke-linecap: square"/>
     </g>
     <g id="line2d_4">
      <g>
       <use xlink:href="#m2f2d94c0df" x="123.490189" y="134.32" style="stroke: #000000; stroke-width: 0.8"/>
      </g>
     </g>
     <g id="text_2">
      <!-- 2 -->
      <g transform="translate(119.672689 150.438125) scale(0.12 -0.12)">
       <defs>
        <path id="DejaVuSans-32" d="M 1228 531 
L 3431 531 
L 3431 0 
L 469 0 
L 469 531 
Q 828 903 1448 1529 
Q 2069 2156 2228 2338 
Q 2531 2678 2651 2914 
Q 2772 3150 2772 3378 
Q 2772 3750 2511 3984 
Q 2250 4219 1831 4219 
Q 1534 4219 1204 4116 
Q 875 4013 500 3803 
L 500 4441 
Q 881 4594 1212 4672 
Q 1544 4750 1819 4750 
Q 2544 4750 2975 4387 
Q 3406 4025 3406 3419 
Q 3406 3131 3298 2873 
Q 3191 2616 2906 2266 
Q 2828 2175 2409 1742 
Q 1991 1309 1228 531 
z
" transform="scale(0.015625)"/>
       </defs>
       <use xlink:href="#DejaVuSans-32"/>
      </g>
     </g>
    </g>
    <g id="xtick_3">
     <g id="line2d_5">
      <path d="M 181.557954 134.32 
L 181.557954 38.48 
" clip-path="url(#pfe3a44c18a)" style="fill: none; stroke: #e6e6e6; stroke-linecap: square"/>
     </g>
     <g id="line2d_6">
      <g>
       <use xlink:href="#m2f2d94c0df" x="181.557954" y="134.32" style="stroke: #000000; stroke-width: 0.8"/>
      </g>
     </g>
     <g id="text_3">
      <!-- 4 -->
      <g transform="translate(177.740454 150.438125) scale(0.12 -0.12)">
       <defs>
        <path id="DejaVuSans-34" d="M 2419 4116 
L 825 1625 
L 2419 1625 
L 2419 4116 
z
M 2253 4666 
L 3047 4666 
L 3047 1625 
L 3713 1625 
L 3713 1100 
L 3047 1100 
L 3047 0 
L 2419 0 
L 2419 1100 
L 313 1100 
L 313 1709 
L 2253 4666 
z
" transform="scale(0.015625)"/>
       </defs>
       <use xlink:href="#DejaVuSans-34"/>
      </g>
     </g>
    </g>
    <g id="xtick_4">
     <g id="line2d_7">
      <path d="M 239.625718 134.32 
L 239.625718 38.48 
" clip-path="url(#pfe3a44c18a)" style="fill: none; stroke: #e6e6e6; stroke-linecap: square"/>
     </g>
     <g id="line2d_8">
      <g>
       <use xlink:href="#m2f2d94c0df" x="239.625718" y="134.32" style="stroke: #000000; stroke-width: 0.8"/>
      </g>
     </g>
     <g id="text_4">
      <!-- 6 -->
      <g transform="translate(235.808218 150.438125) scale(0.12 -0.12)">
       <defs>
        <path id="DejaVuSans-36" d="M 2113 2584 
Q 1688 2584 1439 2293 
Q 1191 2003 1191 1497 
Q 1191 994 1439 701 
Q 1688 409 2113 409 
Q 2538 409 2786 701 
Q 3034 994 3034 1497 
Q 3034 2003 2786 2293 
Q 2538 2584 2113 2584 
z
M 3366 4563 
L 3366 3988 
Q 3128 4100 2886 4159 
Q 2644 4219 2406 4219 
Q 1781 4219 1451 3797 
Q 1122 3375 1075 2522 
Q 1259 2794 1537 2939 
Q 1816 3084 2150 3084 
Q 2853 3084 3261 2657 
Q 3669 2231 3669 1497 
Q 3669 778 3244 343 
Q 2819 -91 2113 -91 
Q 1303 -91 875 529 
Q 447 1150 447 2328 
Q 447 3434 972 4092 
Q 1497 4750 2381 4750 
Q 2619 4750 2861 4703 
Q 3103 4656 3366 4563 
z
" transform="scale(0.015625)"/>
       </defs>
       <use xlink:href="#DejaVuSans-36"/>
      </g>
     </g>
    </g>
    <g id="xtick_5">
     <g id="line2d_9">
      <path d="M 297.693483 134.32 
L 297.693483 38.48 
" clip-path="url(#pfe3a44c18a)" style="fill: none; stroke: #e6e6e6; stroke-linecap: square"/>
     </g>
     <g id="line2d_10">
      <g>
       <use xlink:href="#m2f2d94c0df" x="297.693483" y="134.32" style="stroke: #000000; stroke-width: 0.8"/>
      </g>
     </g>
     <g id="text_5">
      <!-- 8 -->
      <g transform="translate(293.875983 150.438125) scale(0.12 -0.12)">
       <defs>
        <path id="DejaVuSans-38" d="M 2034 2216 
Q 1584 2216 1326 1975 
Q 1069 1734 1069 1313 
Q 1069 891 1326 650 
Q 1584 409 2034 409 
Q 2484 409 2743 651 
Q 3003 894 3003 1313 
Q 3003 1734 2745 1975 
Q 2488 2216 2034 2216 
z
M 1403 2484 
Q 997 2584 770 2862 
Q 544 3141 544 3541 
Q 544 4100 942 4425 
Q 1341 4750 2034 4750 
Q 2731 4750 3128 4425 
Q 3525 4100 3525 3541 
Q 3525 3141 3298 2862 
Q 3072 2584 2669 2484 
Q 3125 2378 3379 2068 
Q 3634 1759 3634 1313 
Q 3634 634 3220 271 
Q 2806 -91 2034 -91 
Q 1263 -91 848 271 
Q 434 634 434 1313 
Q 434 1759 690 2068 
Q 947 2378 1403 2484 
z
M 1172 3481 
Q 1172 3119 1398 2916 
Q 1625 2713 2034 2713 
Q 2441 2713 2670 2916 
Q 2900 3119 2900 3481 
Q 2900 3844 2670 4047 
Q 2441 4250 2034 4250 
Q 1625 4250 1398 4047 
Q 1172 3844 1172 3481 
z
" transform="scale(0.015625)"/>
       </defs>
       <use xlink:href="#DejaVuSans-38"/>
      </g>
     </g>
    </g>
    <g id="xtick_6">
     <g id="line2d_11">
      <path d="M 355.761248 134.32 
L 355.761248 38.48 
" clip-path="url(#pfe3a44c18a)" style="fill: none; stroke: #e6e6e6; stroke-linecap: square"/>
     </g>
     <g id="line2d_12">
      <g>
       <use xlink:href="#m2f2d94c0df" x="355.761248" y="134.32" style="stroke: #000000; stroke-width: 0.8"/>
      </g>
     </g>
     <g id="text_6">
      <!-- 10 -->
      <g transform="translate(348.126248 150.438125) scale(0.12 -0.12)">
       <defs>
        <path id="DejaVuSans-31" d="M 794 531 
L 1825 531 
L 1825 4091 
L 703 3866 
L 703 4441 
L 1819 4666 
L 2450 4666 
L 2450 531 
L 3481 531 
L 3481 0 
L 794 0 
L 794 531 
z
" transform="scale(0.015625)"/>
       </defs>
       <use xlink:href="#DejaVuSans-31"/>
       <use xlink:href="#DejaVuSans-30" x="63.623047"/>
      </g>
     </g>
    </g>
    <g id="text_7">
     <!-- time (s) -->
     <g transform="translate(187.176979 166.051875) scale(0.12 -0.12)">
      <defs>
       <path id="DejaVuSans-74" d="M 1172 4494 
L 1172 3500 
L 2356 3500 
L 2356 3053 
L 1172 3053 
L 1172 1153 
Q 1172 725 1289 603 
Q 1406 481 1766 481 
L 2356 481 
L 2356 0 
L 1766 0 
Q 1100 0 847 248 
Q 594 497 594 1153 
L 594 3053 
L 172 3053 
L 172 3500 
L 594 3500 
L 594 4494 
L 1172 4494 
z
" transform="scale(0.015625)"/>
       <path id="DejaVuSans-69" d="M 603 3500 
L 1178 3500 
L 1178 0 
L 603 0 
L 603 3500 
z
M 603 4863 
L 1178 4863 
L 1178 4134 
L 603 4134 
L 603 4863 
z
" transform="scale(0.015625)"/>
       <path id="DejaVuSans-6d" d="M 3328 2828 
Q 3544 3216 3844 3400 
Q 4144 3584 4550 3584 
Q 5097 3584 5394 3201 
Q 5691 2819 5691 2113 
L 5691 0 
L 5113 0 
L 5113 2094 
Q 5113 2597 4934 2840 
Q 4756 3084 4391 3084 
Q 3944 3084 3684 2787 
Q 3425 2491 3425 1978 
L 3425 0 
L 2847 0 
L 2847 2094 
Q 2847 2600 2669 2842 
Q 2491 3084 2119 3084 
Q 1678 3084 1418 2786 
Q 1159 2488 1159 1978 
L 1159 0 
L 581 0 
L 581 3500 
L 1159 3500 
L 1159 2956 
Q 1356 3278 1631 3431 
Q 1906 3584 2284 3584 
Q 2666 3584 2933 3390 
Q 3200 3197 3328 2828 
z
" transform="scale(0.015625)"/>
       <path id="DejaVuSans-65" d="M 3597 1894 
L 3597 1613 
L 953 1613 
Q 991 1019 1311 708 
Q 1631 397 2203 397 
Q 2534 397 2845 478 
Q 3156 559 3463 722 
L 3463 178 
Q 3153 47 2828 -22 
Q 2503 -91 2169 -91 
Q 1331 -91 842 396 
Q 353 884 353 1716 
Q 353 2575 817 3079 
Q 1281 3584 2069 3584 
Q 2775 3584 3186 3129 
Q 3597 2675 3597 1894 
z
M 3022 2063 
Q 3016 2534 2758 2815 
Q 2500 3097 2075 3097 
Q 1594 3097 1305 2825 
Q 1016 2553 972 2059 
L 3022 2063 
z
" transform="scale(0.015625)"/>
       <path id="DejaVuSans-20" transform="scale(0.015625)"/>
       <path id="DejaVuSans-28" d="M 1984 4856 
Q 1566 4138 1362 3434 
Q 1159 2731 1159 2009 
Q 1159 1288 1364 580 
Q 1569 -128 1984 -844 
L 1484 -844 
Q 1016 -109 783 600 
Q 550 1309 550 2009 
Q 550 2706 781 3412 
Q 1013 4119 1484 4856 
L 1984 4856 
z
" transform="scale(0.015625)"/>
       <path id="DejaVuSans-73" d="M 2834 3397 
L 2834 2853 
Q 2591 2978 2328 3040 
Q 2066 3103 1784 3103 
Q 1356 3103 1142 2972 
Q 928 2841 928 2578 
Q 928 2378 1081 2264 
Q 1234 2150 1697 2047 
L 1894 2003 
Q 2506 1872 2764 1633 
Q 3022 1394 3022 966 
Q 3022 478 2636 193 
Q 2250 -91 1575 -91 
Q 1294 -91 989 -36 
Q 684 19 347 128 
L 347 722 
Q 666 556 975 473 
Q 1284 391 1588 391 
Q 1994 391 2212 530 
Q 2431 669 2431 922 
Q 2431 1156 2273 1281 
Q 2116 1406 1581 1522 
L 1381 1569 
Q 847 1681 609 1914 
Q 372 2147 372 2553 
Q 372 3047 722 3315 
Q 1072 3584 1716 3584 
Q 2034 3584 2315 3537 
Q 2597 3491 2834 3397 
z
" transform="scale(0.015625)"/>
       <path id="DejaVuSans-29" d="M 513 4856 
L 1013 4856 
Q 1481 4119 1714 3412 
Q 1947 2706 1947 2009 
Q 1947 1309 1714 600 
Q 1481 -109 1013 -844 
L 513 -844 
Q 928 -128 1133 580 
Q 1338 1288 1338 2009 
Q 1338 2731 1133 3434 
Q 928 4138 513 4856 
z
" transform="scale(0.015625)"/>
      </defs>
      <use xlink:href="#DejaVuSans-74"/>
      <use xlink:href="#DejaVuSans-69" x="39.208984"/>
      <use xlink:href="#DejaVuSans-6d" x="66.992188"/>
      <use xlink:href="#DejaVuSans-65" x="164.404297"/>
      <use xlink:href="#DejaVuSans-20" x="225.927734"/>
      <use xlink:href="#DejaVuSans-28" x="257.714844"/>
      <use xlink:href="#DejaVuSans-73" x="296.728516"/>
      <use xlink:href="#DejaVuSans-29" x="348.828125"/>
     </g>
    </g>
   </g>
   <g id="matplotlib.axis_2">
    <g id="ytick_1">
     <g id="line2d_13">
      <path d="M 50.92 118.78439 
L 369.973333 118.78439 
" clip-path="url(#pfe3a44c18a)" style="fill: none; stroke: #e6e6e6; stroke-linecap: square"/>
     </g>
     <g id="line2d_14"/>
     <g id="text_8">
      <!-- 0.4 -->
      <g transform="translate(28.33625 123.343453) scale(0.12 -0.12)">
       <defs>
        <path id="DejaVuSans-2e" d="M 684 794 
L 1344 794 
L 1344 0 
L 684 0 
L 684 794 
z
" transform="scale(0.015625)"/>
       </defs>
       <use xlink:href="#DejaVuSans-30"/>
       <use xlink:href="#DejaVuSans-2e" x="63.623047"/>
       <use xlink:href="#DejaVuSans-34" x="95.410156"/>
      </g>
     </g>
    </g>
    <g id="ytick_2">
     <g id="line2d_15">
      <path d="M 50.92 70.402669 
L 369.973333 70.402669 
" clip-path="url(#pfe3a44c18a)" style="fill: none; stroke: #e6e6e6; stroke-linecap: square"/>
     </g>
     <g id="line2d_16"/>
     <g id="text_9">
      <!-- 0.5 -->
      <g transform="translate(28.33625 74.961731) scale(0.12 -0.12)">
       <defs>
        <path id="DejaVuSans-35" d="M 691 4666 
L 3169 4666 
L 3169 4134 
L 1269 4134 
L 1269 2991 
Q 1406 3038 1543 3061 
Q 1681 3084 1819 3084 
Q 2600 3084 3056 2656 
Q 3513 2228 3513 1497 
Q 3513 744 3044 326 
Q 2575 -91 1722 -91 
Q 1428 -91 1123 -41 
Q 819 9 494 109 
L 494 744 
Q 775 591 1075 516 
Q 1375 441 1709 441 
Q 2250 441 2565 725 
Q 2881 1009 2881 1497 
Q 2881 1984 2565 2268 
Q 2250 2553 1709 2553 
Q 1456 2553 1204 2497 
Q 953 2441 691 2322 
L 691 4666 
z
" transform="scale(0.015625)"/>
       </defs>
       <use xlink:href="#DejaVuSans-30"/>
       <use xlink:href="#DejaVuSans-2e" x="63.623047"/>
       <use xlink:href="#DejaVuSans-35" x="95.410156"/>
      </g>
     </g>
    </g>
    <g id="text_10">
     <!-- EEF -->
     <g transform="translate(21.840625 97.433437) rotate(-90) scale(0.12 -0.12)">
      <defs>
       <path id="DejaVuSans-45" d="M 628 4666 
L 3578 4666 
L 3578 4134 
L 1259 4134 
L 1259 2753 
L 3481 2753 
L 3481 2222 
L 1259 2222 
L 1259 531 
L 3634 531 
L 3634 0 
L 628 0 
L 628 4666 
z
" transform="scale(0.015625)"/>
       <path id="DejaVuSans-46" d="M 628 4666 
L 3309 4666 
L 3309 4134 
L 1259 4134 
L 1259 2759 
L 3109 2759 
L 3109 2228 
L 1259 2228 
L 1259 0 
L 628 0 
L 628 4666 
z
" transform="scale(0.015625)"/>
      </defs>
      <use xlink:href="#DejaVuSans-45"/>
      <use xlink:href="#DejaVuSans-45" x="63.183594"/>
      <use xlink:href="#DejaVuSans-46" x="126.367188"/>
     </g>
    </g>
   </g>
   <g id="PathCollection_1">
    <defs>
     <path id="ma39f35e5cf" d="M -3 3 
L 3 -3 
M -3 -3 
L 3 3 
" style="stroke: #008000; stroke-width: 1.5"/>
    </defs>
    <g clip-path="url(#pfe3a44c18a)">
     <use xlink:href="#ma39f35e5cf" x="355.470909" y="118.540701" style="fill: #008000; stroke: #008000; stroke-width: 1.5"/>
    </g>
   </g>
   <g id="line2d_17">
    <path d="M 65.422424 44.034857 
L 66.003102 43.957475 
L 67.454796 43.681256 
L 68.90649 43.646017 
L 70.358184 43.856288 
L 71.809878 44.312729 
L 73.261572 45.013698 
L 74.713267 45.955589 
L 76.164961 47.132993 
L 77.906994 48.846601 
L 79.649027 50.873561 
L 81.681398 53.609317 
L 83.71377 56.711248 
L 86.036481 60.653373 
L 88.64953 65.514578 
L 91.843257 71.921953 
L 97.069356 83.002146 
L 102.876132 95.192942 
L 106.06986 101.412727 
L 108.682909 106.074042 
L 111.00562 109.813001 
L 113.037991 112.724028 
L 115.070363 115.2619 
L 116.812396 117.117091 
L 118.554429 118.659473 
L 120.296462 119.875558 
L 121.748156 120.632019 
L 123.19985 121.150071 
L 124.651544 121.426819 
L 126.103238 121.460962 
L 127.554933 121.252816 
L 129.006627 120.804325 
L 130.458321 120.119056 
L 131.910015 119.202174 
L 133.652048 117.805752 
L 135.394081 116.1 
L 137.136114 114.102261 
L 139.168485 111.429347 
L 141.491196 107.96753 
L 144.104245 103.625359 
L 147.007634 98.353007 
L 150.782038 91.00802 
L 162.68593 67.430953 
L 165.879657 61.810039 
L 168.492707 57.653933 
L 170.815417 54.363237 
L 172.847789 51.837982 
L 174.880161 49.676702 
L 176.622194 48.135888 
L 178.364227 46.900021 
L 179.815921 46.113338 
L 181.267615 45.555206 
L 182.719309 45.231309 
L 184.171003 45.145981 
L 185.622697 45.302119 
L 187.074391 45.701094 
L 188.526085 46.342692 
L 189.97778 47.225055 
L 191.429474 48.344661 
L 193.171507 49.993904 
L 194.91354 51.96504 
L 196.945911 54.650633 
L 198.978283 57.722891 
L 201.300994 61.661409 
L 203.914043 66.56324 
L 207.10777 73.092057 
L 211.172514 81.959972 
L 219.882678 101.133142 
L 223.076405 107.563502 
L 225.689455 112.363117 
L 227.721827 115.652638 
L 229.46386 118.087028 
L 231.205893 120.166632 
L 232.947926 121.897466 
L 234.689958 123.290272 
L 236.431991 124.360134 
L 238.174024 125.126043 
L 239.916057 125.610418 
L 241.65809 125.838596 
L 243.400123 125.838294 
L 245.432495 125.588673 
L 247.464867 125.117419 
L 250.077916 124.266853 
L 253.852321 122.754231 
L 259.659097 120.404712 
L 262.562486 119.476367 
L 265.175535 118.886289 
L 267.498246 118.597665 
L 269.820956 118.540701 
L 355.470909 118.540701 
L 355.470909 118.540701 
" clip-path="url(#pfe3a44c18a)" style="fill: none; stroke: #e1b8a0; stroke-width: 1.5; stroke-linecap: square"/>
   </g>
   <g id="line2d_18">
    <path d="M 65.422424 44.034857 
L 66.003102 43.930311 
L 68.035474 43.286495 
L 69.777507 42.953113 
L 71.51954 42.836364 
L 73.261572 42.944181 
L 75.003605 43.283089 
L 76.745638 43.859127 
L 78.487671 44.676518 
L 80.229704 45.737722 
L 81.971737 47.043478 
L 84.004109 48.87422 
L 86.036481 51.030442 
L 88.068852 53.502108 
L 90.391563 56.694034 
L 93.004612 60.717611 
L 95.908001 65.660559 
L 99.101728 71.555541 
L 103.45681 80.109144 
L 113.32833 99.716381 
L 117.102735 106.619979 
L 120.006123 111.492035 
L 122.619173 115.440555 
L 124.941883 118.535962 
L 126.974255 120.887076 
L 129.006627 122.895715 
L 130.74866 124.337241 
L 132.490693 125.507149 
L 134.232725 126.397412 
L 135.974758 127.009959 
L 137.426453 127.31178 
L 138.878147 127.41812 
L 140.329841 127.326376 
L 141.781535 127.036212 
L 143.233229 126.548985 
L 144.975262 125.707911 
L 146.717295 124.592886 
L 148.459328 123.210839 
L 150.201361 121.56878 
L 152.233733 119.332491 
L 154.266104 116.755804 
L 156.298476 113.839461 
L 158.621187 110.082996 
L 161.814914 104.355652 
L 166.460335 95.524387 
L 181.267615 66.888112 
L 184.461342 61.475821 
L 187.074391 57.472663 
L 189.397102 54.305226 
L 191.429474 51.882962 
L 193.461845 49.828069 
L 195.203878 48.389362 
L 196.655573 47.436998 
L 198.107267 46.723804 
L 199.558961 46.263228 
L 201.010655 46.067764 
L 202.17201 46.10982 
L 203.333365 46.333626 
L 204.494721 46.743271 
L 205.946415 47.520481 
L 207.398109 48.591991 
L 208.849803 49.955042 
L 210.301497 51.604751 
L 212.04353 53.956803 
L 213.785563 56.699395 
L 215.817935 60.359061 
L 218.140645 65.084088 
L 220.753695 70.975176 
L 223.947422 78.768868 
L 235.270636 106.974524 
L 237.593347 112.022987 
L 239.625718 115.973018 
L 241.65809 119.430626 
L 243.400123 121.984379 
L 245.142156 124.157106 
L 246.884189 125.955021 
L 248.626222 127.391067 
L 250.077916 128.324538 
L 251.52961 129.032564 
L 252.981304 129.52996 
L 254.723337 129.871581 
L 256.46537 129.962724 
L 258.207403 129.833984 
L 260.239775 129.447056 
L 262.562486 128.751453 
L 265.175535 127.727017 
L 268.659601 126.109639 
L 279.692476 120.812238 
L 283.176542 119.461877 
L 286.660608 118.359508 
L 289.854335 117.578251 
L 293.048062 117.012013 
L 296.532128 116.621802 
L 300.306533 116.433419 
L 304.371276 116.451703 
L 309.597375 116.715427 
L 317.726862 117.393136 
L 329.050076 118.307734 
L 336.598886 118.688769 
L 344.728373 118.867221 
L 354.890231 118.846776 
L 355.470909 118.840554 
L 355.470909 118.840554 
" clip-path="url(#pfe3a44c18a)" style="fill: none; stroke: #116496; stroke-width: 1.5; stroke-linecap: square"/>
   </g>
   <g id="patch_3">
    <path d="M 50.92 134.32 
L 369.973333 134.32 
" style="fill: none; stroke: #000000; stroke-width: 0.8; stroke-linejoin: miter; stroke-linecap: square"/>
   </g>
   <g id="text_11">
    <!-- x-axis -->
    <g transform="translate(190.539792 32.48) scale(0.12 -0.12)">
     <defs>
      <path id="DejaVuSans-Bold-78" d="M 1422 1791 
L 159 3500 
L 1344 3500 
L 2059 2463 
L 2784 3500 
L 3969 3500 
L 2706 1797 
L 4031 0 
L 2847 0 
L 2059 1106 
L 1281 0 
L 97 0 
L 1422 1791 
z
" transform="scale(0.015625)"/>
      <path id="DejaVuSans-Bold-2d" d="M 347 2297 
L 2309 2297 
L 2309 1388 
L 347 1388 
L 347 2297 
z
" transform="scale(0.015625)"/>
      <path id="DejaVuSans-Bold-61" d="M 2106 1575 
Q 1756 1575 1579 1456 
Q 1403 1338 1403 1106 
Q 1403 894 1545 773 
Q 1688 653 1941 653 
Q 2256 653 2472 879 
Q 2688 1106 2688 1447 
L 2688 1575 
L 2106 1575 
z
M 3816 1997 
L 3816 0 
L 2688 0 
L 2688 519 
Q 2463 200 2181 54 
Q 1900 -91 1497 -91 
Q 953 -91 614 226 
Q 275 544 275 1050 
Q 275 1666 698 1953 
Q 1122 2241 2028 2241 
L 2688 2241 
L 2688 2328 
Q 2688 2594 2478 2717 
Q 2269 2841 1825 2841 
Q 1466 2841 1156 2769 
Q 847 2697 581 2553 
L 581 3406 
Q 941 3494 1303 3539 
Q 1666 3584 2028 3584 
Q 2975 3584 3395 3211 
Q 3816 2838 3816 1997 
z
" transform="scale(0.015625)"/>
      <path id="DejaVuSans-Bold-69" d="M 538 3500 
L 1656 3500 
L 1656 0 
L 538 0 
L 538 3500 
z
M 538 4863 
L 1656 4863 
L 1656 3950 
L 538 3950 
L 538 4863 
z
" transform="scale(0.015625)"/>
      <path id="DejaVuSans-Bold-73" d="M 3272 3391 
L 3272 2541 
Q 2913 2691 2578 2766 
Q 2244 2841 1947 2841 
Q 1628 2841 1473 2761 
Q 1319 2681 1319 2516 
Q 1319 2381 1436 2309 
Q 1553 2238 1856 2203 
L 2053 2175 
Q 2913 2066 3209 1816 
Q 3506 1566 3506 1031 
Q 3506 472 3093 190 
Q 2681 -91 1863 -91 
Q 1516 -91 1145 -36 
Q 775 19 384 128 
L 384 978 
Q 719 816 1070 734 
Q 1422 653 1784 653 
Q 2113 653 2278 743 
Q 2444 834 2444 1013 
Q 2444 1163 2330 1236 
Q 2216 1309 1875 1350 
L 1678 1375 
Q 931 1469 631 1722 
Q 331 1975 331 2491 
Q 331 3047 712 3315 
Q 1094 3584 1881 3584 
Q 2191 3584 2531 3537 
Q 2872 3491 3272 3391 
z
" transform="scale(0.015625)"/>
     </defs>
     <use xlink:href="#DejaVuSans-Bold-78"/>
     <use xlink:href="#DejaVuSans-Bold-2d" x="64.501953"/>
     <use xlink:href="#DejaVuSans-Bold-61" x="106.005859"/>
     <use xlink:href="#DejaVuSans-Bold-78" x="173.486328"/>
     <use xlink:href="#DejaVuSans-Bold-69" x="237.988281"/>
     <use xlink:href="#DejaVuSans-Bold-73" x="272.265625"/>
    </g>
   </g>
  </g>
  <g id="axes_2">
   <g id="patch_4">
    <path d="M 403.933333 134.32 
L 722.986667 134.32 
L 722.986667 38.48 
L 403.933333 38.48 
z
" style="fill: #ffffff"/>
   </g>
   <g id="matplotlib.axis_3">
    <g id="xtick_7">
     <g id="line2d_19">
      <path d="M 418.435758 134.32 
L 418.435758 38.48 
" clip-path="url(#p7a6b13ef6a)" style="fill: none; stroke: #e6e6e6; stroke-linecap: square"/>
     </g>
     <g id="line2d_20">
      <g>
       <use xlink:href="#m2f2d94c0df" x="418.435758" y="134.32" style="stroke: #000000; stroke-width: 0.8"/>
      </g>
     </g>
     <g id="text_12">
      <!-- 0 -->
      <g transform="translate(414.618258 150.438125) scale(0.12 -0.12)">
       <use xlink:href="#DejaVuSans-30"/>
      </g>
     </g>
    </g>
    <g id="xtick_8">
     <g id="line2d_21">
      <path d="M 476.503522 134.32 
L 476.503522 38.48 
" clip-path="url(#p7a6b13ef6a)" style="fill: none; stroke: #e6e6e6; stroke-linecap: square"/>
     </g>
     <g id="line2d_22">
      <g>
       <use xlink:href="#m2f2d94c0df" x="476.503522" y="134.32" style="stroke: #000000; stroke-width: 0.8"/>
      </g>
     </g>
     <g id="text_13">
      <!-- 2 -->
      <g transform="translate(472.686022 150.438125) scale(0.12 -0.12)">
       <use xlink:href="#DejaVuSans-32"/>
      </g>
     </g>
    </g>
    <g id="xtick_9">
     <g id="line2d_23">
      <path d="M 534.571287 134.32 
L 534.571287 38.48 
" clip-path="url(#p7a6b13ef6a)" style="fill: none; stroke: #e6e6e6; stroke-linecap: square"/>
     </g>
     <g id="line2d_24">
      <g>
       <use xlink:href="#m2f2d94c0df" x="534.571287" y="134.32" style="stroke: #000000; stroke-width: 0.8"/>
      </g>
     </g>
     <g id="text_14">
      <!-- 4 -->
      <g transform="translate(530.753787 150.438125) scale(0.12 -0.12)">
       <use xlink:href="#DejaVuSans-34"/>
      </g>
     </g>
    </g>
    <g id="xtick_10">
     <g id="line2d_25">
      <path d="M 592.639052 134.32 
L 592.639052 38.48 
" clip-path="url(#p7a6b13ef6a)" style="fill: none; stroke: #e6e6e6; stroke-linecap: square"/>
     </g>
     <g id="line2d_26">
      <g>
       <use xlink:href="#m2f2d94c0df" x="592.639052" y="134.32" style="stroke: #000000; stroke-width: 0.8"/>
      </g>
     </g>
     <g id="text_15">
      <!-- 6 -->
      <g transform="translate(588.821552 150.438125) scale(0.12 -0.12)">
       <use xlink:href="#DejaVuSans-36"/>
      </g>
     </g>
    </g>
    <g id="xtick_11">
     <g id="line2d_27">
      <path d="M 650.706817 134.32 
L 650.706817 38.48 
" clip-path="url(#p7a6b13ef6a)" style="fill: none; stroke: #e6e6e6; stroke-linecap: square"/>
     </g>
     <g id="line2d_28">
      <g>
       <use xlink:href="#m2f2d94c0df" x="650.706817" y="134.32" style="stroke: #000000; stroke-width: 0.8"/>
      </g>
     </g>
     <g id="text_16">
      <!-- 8 -->
      <g transform="translate(646.889317 150.438125) scale(0.12 -0.12)">
       <use xlink:href="#DejaVuSans-38"/>
      </g>
     </g>
    </g>
    <g id="xtick_12">
     <g id="line2d_29">
      <path d="M 708.774581 134.32 
L 708.774581 38.48 
" clip-path="url(#p7a6b13ef6a)" style="fill: none; stroke: #e6e6e6; stroke-linecap: square"/>
     </g>
     <g id="line2d_30">
      <g>
       <use xlink:href="#m2f2d94c0df" x="708.774581" y="134.32" style="stroke: #000000; stroke-width: 0.8"/>
      </g>
     </g>
     <g id="text_17">
      <!-- 10 -->
      <g transform="translate(701.139581 150.438125) scale(0.12 -0.12)">
       <use xlink:href="#DejaVuSans-31"/>
       <use xlink:href="#DejaVuSans-30" x="63.623047"/>
      </g>
     </g>
    </g>
    <g id="text_18">
     <!-- time (s) -->
     <g transform="translate(540.190313 166.051875) scale(0.12 -0.12)">
      <use xlink:href="#DejaVuSans-74"/>
      <use xlink:href="#DejaVuSans-69" x="39.208984"/>
      <use xlink:href="#DejaVuSans-6d" x="66.992188"/>
      <use xlink:href="#DejaVuSans-65" x="164.404297"/>
      <use xlink:href="#DejaVuSans-20" x="225.927734"/>
      <use xlink:href="#DejaVuSans-28" x="257.714844"/>
      <use xlink:href="#DejaVuSans-73" x="296.728516"/>
      <use xlink:href="#DejaVuSans-29" x="348.828125"/>
     </g>
    </g>
   </g>
   <g id="matplotlib.axis_4">
    <g id="ytick_3">
     <g id="line2d_31">
      <path d="M 403.933333 129.963636 
L 722.986667 129.963636 
" clip-path="url(#p7a6b13ef6a)" style="fill: none; stroke: #e6e6e6; stroke-linecap: square"/>
     </g>
     <g id="line2d_32"/>
     <g id="text_19">
      <!-- 0.0 -->
      <g transform="translate(381.349583 134.522699) scale(0.12 -0.12)">
       <use xlink:href="#DejaVuSans-30"/>
       <use xlink:href="#DejaVuSans-2e" x="63.623047"/>
       <use xlink:href="#DejaVuSans-30" x="95.410156"/>
      </g>
     </g>
    </g>
    <g id="ytick_4">
     <g id="line2d_33">
      <path d="M 403.933333 86.859309 
L 722.986667 86.859309 
" clip-path="url(#p7a6b13ef6a)" style="fill: none; stroke: #e6e6e6; stroke-linecap: square"/>
     </g>
     <g id="line2d_34"/>
     <g id="text_20">
      <!-- 0.2 -->
      <g transform="translate(381.349583 91.418371) scale(0.12 -0.12)">
       <use xlink:href="#DejaVuSans-30"/>
       <use xlink:href="#DejaVuSans-2e" x="63.623047"/>
       <use xlink:href="#DejaVuSans-32" x="95.410156"/>
      </g>
     </g>
    </g>
    <g id="ytick_5">
     <g id="line2d_35">
      <path d="M 403.933333 43.754981 
L 722.986667 43.754981 
" clip-path="url(#p7a6b13ef6a)" style="fill: none; stroke: #e6e6e6; stroke-linecap: square"/>
     </g>
     <g id="line2d_36"/>
     <g id="text_21">
      <!-- 0.4 -->
      <g transform="translate(381.349583 48.314043) scale(0.12 -0.12)">
       <use xlink:href="#DejaVuSans-30"/>
       <use xlink:href="#DejaVuSans-2e" x="63.623047"/>
       <use xlink:href="#DejaVuSans-34" x="95.410156"/>
      </g>
     </g>
    </g>
   </g>
   <g id="PathCollection_2">
    <g clip-path="url(#p7a6b13ef6a)">
     <use xlink:href="#ma39f35e5cf" x="708.484242" y="42.836364" style="fill: #008000; stroke: #008000; stroke-width: 1.5"/>
    </g>
   </g>
   <g id="line2d_37">
    <path d="M 418.435758 129.963636 
L 418.726096 129.959145 
L 422.79084 127.94761 
L 441.662863 118.421424 
L 465.470647 106.410197 
L 475.632506 101.560918 
L 484.923348 97.376936 
L 495.085207 93.056837 
L 517.441296 83.673438 
L 524.409428 80.41557 
L 531.087221 77.038625 
L 538.345692 73.105534 
L 547.926873 67.633025 
L 565.637541 57.478085 
L 572.896012 53.599584 
L 578.993127 50.591082 
L 582.767532 48.96215 
L 586.541936 47.585406 
L 590.316341 46.442731 
L 594.381085 45.447255 
L 598.736167 44.614328 
L 603.671927 43.910586 
L 609.188365 43.36178 
L 615.28548 42.987388 
L 621.382595 42.838015 
L 650.416478 42.836364 
L 708.484242 42.836364 
L 708.484242 42.836364 
" clip-path="url(#p7a6b13ef6a)" style="fill: none; stroke: #e1b8a0; stroke-width: 1.5; stroke-linecap: square"/>
   </g>
   <g id="line2d_38">
    <path d="M 418.435758 129.963636 
L 418.726096 129.959146 
L 423.081179 127.866357 
L 452.115061 113.911148 
L 473.890473 103.881047 
L 484.633009 99.144064 
L 492.762496 95.796627 
L 500.020967 93.033385 
L 509.311809 89.767441 
L 522.377056 85.082591 
L 528.474172 82.704064 
L 533.700271 80.435325 
L 538.636031 78.046219 
L 543.281452 75.555233 
L 548.217212 72.654438 
L 554.023988 68.967956 
L 567.669913 60.171351 
L 573.186351 56.950657 
L 578.122111 54.326602 
L 582.767532 52.11171 
L 587.703292 50.024716 
L 591.768035 48.533464 
L 595.832779 47.284647 
L 599.897522 46.272182 
L 604.252605 45.424429 
L 608.898026 44.754117 
L 614.124125 44.23327 
L 620.511579 43.838368 
L 629.221744 43.548633 
L 646.061395 43.262909 
L 678.289005 42.927031 
L 708.484242 42.847179 
L 708.484242 42.847179 
" clip-path="url(#p7a6b13ef6a)" style="fill: none; stroke: #116496; stroke-width: 1.5; stroke-linecap: square"/>
   </g>
   <g id="patch_5">
    <path d="M 403.933333 134.32 
L 722.986667 134.32 
" style="fill: none; stroke: #000000; stroke-width: 0.8; stroke-linejoin: miter; stroke-linecap: square"/>
   </g>
   <g id="text_22">
    <!-- y-axis -->
    <g transform="translate(543.511875 32.48) scale(0.12 -0.12)">
     <defs>
      <path id="DejaVuSans-Bold-79" d="M 78 3500 
L 1197 3500 
L 2138 1125 
L 2938 3500 
L 4056 3500 
L 2584 -331 
Q 2363 -916 2067 -1148 
Q 1772 -1381 1288 -1381 
L 641 -1381 
L 641 -647 
L 991 -647 
Q 1275 -647 1404 -556 
Q 1534 -466 1606 -231 
L 1638 -134 
L 78 3500 
z
" transform="scale(0.015625)"/>
     </defs>
     <use xlink:href="#DejaVuSans-Bold-79"/>
     <use xlink:href="#DejaVuSans-Bold-2d" x="65.185547"/>
     <use xlink:href="#DejaVuSans-Bold-61" x="106.689453"/>
     <use xlink:href="#DejaVuSans-Bold-78" x="174.169922"/>
     <use xlink:href="#DejaVuSans-Bold-69" x="238.671875"/>
     <use xlink:href="#DejaVuSans-Bold-73" x="272.949219"/>
    </g>
   </g>
  </g>
  <g id="axes_3">
   <g id="patch_6">
    <path d="M 756.946667 134.32 
L 1076 134.32 
L 1076 38.48 
L 756.946667 38.48 
z
" style="fill: #ffffff"/>
   </g>
   <g id="matplotlib.axis_5">
    <g id="xtick_13">
     <g id="line2d_39">
      <path d="M 771.449091 134.32 
L 771.449091 38.48 
" clip-path="url(#p9571293991)" style="fill: none; stroke: #e6e6e6; stroke-linecap: square"/>
     </g>
     <g id="line2d_40">
      <g>
       <use xlink:href="#m2f2d94c0df" x="771.449091" y="134.32" style="stroke: #000000; stroke-width: 0.8"/>
      </g>
     </g>
     <g id="text_23">
      <!-- 0 -->
      <g transform="translate(767.631591 150.438125) scale(0.12 -0.12)">
       <use xlink:href="#DejaVuSans-30"/>
      </g>
     </g>
    </g>
    <g id="xtick_14">
     <g id="line2d_41">
      <path d="M 829.516856 134.32 
L 829.516856 38.48 
" clip-path="url(#p9571293991)" style="fill: none; stroke: #e6e6e6; stroke-linecap: square"/>
     </g>
     <g id="line2d_42">
      <g>
       <use xlink:href="#m2f2d94c0df" x="829.516856" y="134.32" style="stroke: #000000; stroke-width: 0.8"/>
      </g>
     </g>
     <g id="text_24">
      <!-- 2 -->
      <g transform="translate(825.699356 150.438125) scale(0.12 -0.12)">
       <use xlink:href="#DejaVuSans-32"/>
      </g>
     </g>
    </g>
    <g id="xtick_15">
     <g id="line2d_43">
      <path d="M 887.58462 134.32 
L 887.58462 38.48 
" clip-path="url(#p9571293991)" style="fill: none; stroke: #e6e6e6; stroke-linecap: square"/>
     </g>
     <g id="line2d_44">
      <g>
       <use xlink:href="#m2f2d94c0df" x="887.58462" y="134.32" style="stroke: #000000; stroke-width: 0.8"/>
      </g>
     </g>
     <g id="text_25">
      <!-- 4 -->
      <g transform="translate(883.76712 150.438125) scale(0.12 -0.12)">
       <use xlink:href="#DejaVuSans-34"/>
      </g>
     </g>
    </g>
    <g id="xtick_16">
     <g id="line2d_45">
      <path d="M 945.652385 134.32 
L 945.652385 38.48 
" clip-path="url(#p9571293991)" style="fill: none; stroke: #e6e6e6; stroke-linecap: square"/>
     </g>
     <g id="line2d_46">
      <g>
       <use xlink:href="#m2f2d94c0df" x="945.652385" y="134.32" style="stroke: #000000; stroke-width: 0.8"/>
      </g>
     </g>
     <g id="text_26">
      <!-- 6 -->
      <g transform="translate(941.834885 150.438125) scale(0.12 -0.12)">
       <use xlink:href="#DejaVuSans-36"/>
      </g>
     </g>
    </g>
    <g id="xtick_17">
     <g id="line2d_47">
      <path d="M 1003.72015 134.32 
L 1003.72015 38.48 
" clip-path="url(#p9571293991)" style="fill: none; stroke: #e6e6e6; stroke-linecap: square"/>
     </g>
     <g id="line2d_48">
      <g>
       <use xlink:href="#m2f2d94c0df" x="1003.72015" y="134.32" style="stroke: #000000; stroke-width: 0.8"/>
      </g>
     </g>
     <g id="text_27">
      <!-- 8 -->
      <g transform="translate(999.90265 150.438125) scale(0.12 -0.12)">
       <use xlink:href="#DejaVuSans-38"/>
      </g>
     </g>
    </g>
    <g id="xtick_18">
     <g id="line2d_49">
      <path d="M 1061.787915 134.32 
L 1061.787915 38.48 
" clip-path="url(#p9571293991)" style="fill: none; stroke: #e6e6e6; stroke-linecap: square"/>
     </g>
     <g id="line2d_50">
      <g>
       <use xlink:href="#m2f2d94c0df" x="1061.787915" y="134.32" style="stroke: #000000; stroke-width: 0.8"/>
      </g>
     </g>
     <g id="text_28">
      <!-- 10 -->
      <g transform="translate(1054.152915 150.438125) scale(0.12 -0.12)">
       <use xlink:href="#DejaVuSans-31"/>
       <use xlink:href="#DejaVuSans-30" x="63.623047"/>
      </g>
     </g>
    </g>
    <g id="text_29">
     <!-- time (s) -->
     <g transform="translate(893.203646 166.051875) scale(0.12 -0.12)">
      <use xlink:href="#DejaVuSans-74"/>
      <use xlink:href="#DejaVuSans-69" x="39.208984"/>
      <use xlink:href="#DejaVuSans-6d" x="66.992188"/>
      <use xlink:href="#DejaVuSans-65" x="164.404297"/>
      <use xlink:href="#DejaVuSans-20" x="225.927734"/>
      <use xlink:href="#DejaVuSans-28" x="257.714844"/>
      <use xlink:href="#DejaVuSans-73" x="296.728516"/>
      <use xlink:href="#DejaVuSans-29" x="348.828125"/>
     </g>
    </g>
   </g>
   <g id="matplotlib.axis_6">
    <g id="ytick_6">
     <g id="line2d_51">
      <path d="M 756.946667 93.049045 
L 1076 93.049045 
" clip-path="url(#p9571293991)" style="fill: none; stroke: #e6e6e6; stroke-linecap: square"/>
     </g>
     <g id="line2d_52"/>
     <g id="text_30">
      <!-- 0.5 -->
      <g transform="translate(734.362917 97.608108) scale(0.12 -0.12)">
       <use xlink:href="#DejaVuSans-30"/>
       <use xlink:href="#DejaVuSans-2e" x="63.623047"/>
       <use xlink:href="#DejaVuSans-35" x="95.410156"/>
      </g>
     </g>
    </g>
    <g id="ytick_7">
     <g id="line2d_53">
      <path d="M 756.946667 45.343085 
L 1076 45.343085 
" clip-path="url(#p9571293991)" style="fill: none; stroke: #e6e6e6; stroke-linecap: square"/>
     </g>
     <g id="line2d_54"/>
     <g id="text_31">
      <!-- 0.6 -->
      <g transform="translate(734.362917 49.902147) scale(0.12 -0.12)">
       <use xlink:href="#DejaVuSans-30"/>
       <use xlink:href="#DejaVuSans-2e" x="63.623047"/>
       <use xlink:href="#DejaVuSans-36" x="95.410156"/>
      </g>
     </g>
    </g>
   </g>
   <g id="PathCollection_3">
    <g clip-path="url(#p9571293991)">
     <use xlink:href="#ma39f35e5cf" x="1061.497576" y="78.979433" style="fill: #008000; stroke: #008000; stroke-width: 1.5"/>
    </g>
   </g>
   <g id="line2d_55">
    <path d="M 771.449091 82.793091 
L 771.73943 82.807191 
L 773.191124 85.790458 
L 777.546206 94.631989 
L 780.739933 100.652487 
L 783.352983 105.149772 
L 785.675693 108.744885 
L 787.708065 111.532051 
L 789.740437 113.94778 
L 791.48247 115.699325 
L 793.224503 117.138658 
L 794.676197 118.089497 
L 796.127891 118.807317 
L 797.579585 119.287068 
L 799.031279 119.525199 
L 800.482973 119.519686 
L 801.934667 119.270054 
L 803.386362 118.777391 
L 804.838056 118.044345 
L 806.28975 117.075126 
L 808.031783 115.608528 
L 809.773816 113.823059 
L 811.515849 111.734663 
L 813.54822 108.940769 
L 815.870931 105.319711 
L 818.48398 100.77272 
L 821.387369 95.247069 
L 825.161773 87.555296 
L 835.033293 67.179431 
L 837.936682 61.799239 
L 840.549731 57.426783 
L 842.872442 53.995387 
L 844.904813 51.393695 
L 846.646846 49.488981 
L 848.388879 47.903868 
L 850.130912 46.653157 
L 851.582606 45.874585 
L 853.0343 45.340732 
L 854.485994 45.054433 
L 855.937689 45.016758 
L 857.389383 45.227042 
L 858.841077 45.682929 
L 860.292771 46.38045 
L 861.744465 47.314105 
L 863.486498 48.736349 
L 865.228531 50.47417 
L 866.970564 52.510742 
L 869.002936 55.238994 
L 871.325646 58.780724 
L 873.938696 63.240906 
L 876.842084 68.690885 
L 880.32615 75.754399 
L 885.26191 86.335304 
L 892.52038 101.874039 
L 896.004446 108.786556 
L 898.907835 114.048803 
L 901.230545 117.842976 
L 903.553256 121.204022 
L 905.585627 123.747883 
L 907.32766 125.608277 
L 909.069693 127.155125 
L 910.811726 128.374054 
L 912.26342 129.130945 
L 913.715115 129.647022 
L 915.166809 129.91876 
L 916.618503 129.944195 
L 918.070197 129.722962 
L 919.521891 129.256317 
L 920.973585 128.54714 
L 922.425279 127.599944 
L 924.167312 126.157866 
L 925.909345 124.395577 
L 927.651378 122.329937 
L 929.68375 119.563461 
L 932.00646 115.980957 
L 936.651882 108.242652 
L 941.87798 99.648877 
L 944.781369 95.269325 
L 947.394418 91.704776 
L 949.717129 88.8915 
L 952.039839 86.443708 
L 954.072211 84.613391 
L 956.104583 83.0746 
L 958.136955 81.819669 
L 960.169326 80.833411 
L 962.201698 80.093873 
L 964.23407 79.573165 
L 966.55678 79.203613 
L 969.16983 79.008604 
L 972.944235 78.968202 
L 990.654903 78.979433 
L 1061.497576 78.979433 
L 1061.497576 78.979433 
" clip-path="url(#p9571293991)" style="fill: none; stroke: #e1b8a0; stroke-width: 1.5; stroke-linecap: square"/>
   </g>
   <g id="line2d_56">
    <path d="M 771.449091 82.793091 
L 771.73943 82.807167 
L 773.481463 85.779861 
L 780.449594 97.597209 
L 784.223999 103.596095 
L 787.417726 108.282927 
L 790.321114 112.137971 
L 792.643825 114.88759 
L 794.966536 117.296351 
L 796.998907 119.094379 
L 799.031279 120.577589 
L 800.773312 121.581933 
L 802.515345 122.327788 
L 804.257378 122.806748 
L 805.709072 122.997134 
L 807.160766 122.994707 
L 808.61246 122.797725 
L 810.064154 122.405047 
L 811.806187 121.676431 
L 813.54822 120.670492 
L 815.290253 119.393297 
L 817.032286 117.853361 
L 819.064658 115.739273 
L 821.09703 113.281021 
L 823.129402 110.489203 
L 825.452112 106.931752 
L 828.065162 102.5274 
L 831.258889 96.696786 
L 835.613971 88.237563 
L 847.227524 65.313254 
L 850.421251 59.651373 
L 853.0343 55.463853 
L 855.357011 52.14676 
L 857.389383 49.598276 
L 859.421754 47.413359 
L 861.163787 45.853547 
L 862.90582 44.603485 
L 864.357514 43.81298 
L 865.809209 43.259391 
L 867.260903 42.935055 
L 868.712597 42.836364 
L 870.164291 42.957685 
L 871.615985 43.290688 
L 873.067679 43.83045 
L 874.809712 44.746266 
L 876.551745 45.947235 
L 878.293778 47.423897 
L 880.32615 49.480179 
L 882.358522 51.876179 
L 884.681232 55.000908 
L 887.003943 58.501297 
L 889.616992 62.836314 
L 892.52038 68.07063 
L 896.294785 75.380874 
L 901.811223 86.656411 
L 908.779355 100.825807 
L 912.26342 107.396598 
L 915.166809 112.389068 
L 917.489519 115.977801 
L 919.521891 118.774785 
L 921.554263 121.203323 
L 923.296296 122.958689 
L 925.038329 124.387139 
L 926.490023 125.312844 
L 927.941717 125.98775 
L 929.393411 126.405018 
L 930.845105 126.560707 
L 932.296799 126.454015 
L 933.748493 126.087605 
L 935.200187 125.469798 
L 936.651882 124.605601 
L 938.103576 123.491015 
L 939.845609 121.836311 
L 941.587642 119.864777 
L 943.620013 117.220827 
L 946.233063 113.417631 
L 950.007467 107.474831 
L 956.68526 96.929824 
L 959.878987 92.358153 
L 962.492037 88.995486 
L 964.814747 86.335638 
L 967.137458 84.00543 
L 969.460169 82.01036 
L 971.49254 80.535548 
L 973.524912 79.304103 
L 975.557284 78.302715 
L 977.879995 77.418879 
L 980.202705 76.786334 
L 982.525416 76.375197 
L 985.138465 76.139023 
L 988.041853 76.106937 
L 991.525919 76.311667 
L 995.881002 76.814095 
L 1004.591166 78.120508 
L 1011.559298 79.044268 
L 1017.075736 79.555222 
L 1022.592173 79.846216 
L 1028.689289 79.939684 
L 1036.238098 79.817209 
L 1053.368089 79.220787 
L 1061.497576 79.011149 
L 1061.497576 79.011149 
" clip-path="url(#p9571293991)" style="fill: none; stroke: #116496; stroke-width: 1.5; stroke-linecap: square"/>
   </g>
   <g id="patch_7">
    <path d="M 756.946667 134.32 
L 1076 134.32 
" style="fill: none; stroke: #000000; stroke-width: 0.8; stroke-linejoin: miter; stroke-linecap: square"/>
   </g>
   <g id="text_32">
    <!-- z-axis -->
    <g transform="translate(896.944271 32.48) scale(0.12 -0.12)">
     <defs>
      <path id="DejaVuSans-Bold-7a" d="M 366 3500 
L 3419 3500 
L 3419 2719 
L 1575 800 
L 3419 800 
L 3419 0 
L 288 0 
L 288 781 
L 2131 2700 
L 366 2700 
L 366 3500 
z
" transform="scale(0.015625)"/>
     </defs>
     <use xlink:href="#DejaVuSans-Bold-7a"/>
     <use xlink:href="#DejaVuSans-Bold-2d" x="58.203125"/>
     <use xlink:href="#DejaVuSans-Bold-61" x="99.707031"/>
     <use xlink:href="#DejaVuSans-Bold-78" x="167.1875"/>
     <use xlink:href="#DejaVuSans-Bold-69" x="231.689453"/>
     <use xlink:href="#DejaVuSans-Bold-73" x="265.966797"/>
    </g>
   </g>
  </g>
  <g id="axes_4">
   <g id="patch_8">
    <path d="M 50.92 292.08 
L 369.973333 292.08 
L 369.973333 196.24 
L 50.92 196.24 
z
" style="fill: #ffffff"/>
   </g>
   <g id="matplotlib.axis_7">
    <g id="xtick_19">
     <g id="line2d_57">
      <path d="M 65.422424 292.08 
L 65.422424 196.24 
" clip-path="url(#pcb2b322b6f)" style="fill: none; stroke: #e6e6e6; stroke-linecap: square"/>
     </g>
     <g id="line2d_58">
      <g>
       <use xlink:href="#m2f2d94c0df" x="65.422424" y="292.08" style="stroke: #000000; stroke-width: 0.8"/>
      </g>
     </g>
     <g id="text_33">
      <!-- 0 -->
      <g transform="translate(61.604924 308.198125) scale(0.12 -0.12)">
       <use xlink:href="#DejaVuSans-30"/>
      </g>
     </g>
    </g>
    <g id="xtick_20">
     <g id="line2d_59">
      <path d="M 123.490189 292.08 
L 123.490189 196.24 
" clip-path="url(#pcb2b322b6f)" style="fill: none; stroke: #e6e6e6; stroke-linecap: square"/>
     </g>
     <g id="line2d_60">
      <g>
       <use xlink:href="#m2f2d94c0df" x="123.490189" y="292.08" style="stroke: #000000; stroke-width: 0.8"/>
      </g>
     </g>
     <g id="text_34">
      <!-- 2 -->
      <g transform="translate(119.672689 308.198125) scale(0.12 -0.12)">
       <use xlink:href="#DejaVuSans-32"/>
      </g>
     </g>
    </g>
    <g id="xtick_21">
     <g id="line2d_61">
      <path d="M 181.557954 292.08 
L 181.557954 196.24 
" clip-path="url(#pcb2b322b6f)" style="fill: none; stroke: #e6e6e6; stroke-linecap: square"/>
     </g>
     <g id="line2d_62">
      <g>
       <use xlink:href="#m2f2d94c0df" x="181.557954" y="292.08" style="stroke: #000000; stroke-width: 0.8"/>
      </g>
     </g>
     <g id="text_35">
      <!-- 4 -->
      <g transform="translate(177.740454 308.198125) scale(0.12 -0.12)">
       <use xlink:href="#DejaVuSans-34"/>
      </g>
     </g>
    </g>
    <g id="xtick_22">
     <g id="line2d_63">
      <path d="M 239.625718 292.08 
L 239.625718 196.24 
" clip-path="url(#pcb2b322b6f)" style="fill: none; stroke: #e6e6e6; stroke-linecap: square"/>
     </g>
     <g id="line2d_64">
      <g>
       <use xlink:href="#m2f2d94c0df" x="239.625718" y="292.08" style="stroke: #000000; stroke-width: 0.8"/>
      </g>
     </g>
     <g id="text_36">
      <!-- 6 -->
      <g transform="translate(235.808218 308.198125) scale(0.12 -0.12)">
       <use xlink:href="#DejaVuSans-36"/>
      </g>
     </g>
    </g>
    <g id="xtick_23">
     <g id="line2d_65">
      <path d="M 297.693483 292.08 
L 297.693483 196.24 
" clip-path="url(#pcb2b322b6f)" style="fill: none; stroke: #e6e6e6; stroke-linecap: square"/>
     </g>
     <g id="line2d_66">
      <g>
       <use xlink:href="#m2f2d94c0df" x="297.693483" y="292.08" style="stroke: #000000; stroke-width: 0.8"/>
      </g>
     </g>
     <g id="text_37">
      <!-- 8 -->
      <g transform="translate(293.875983 308.198125) scale(0.12 -0.12)">
       <use xlink:href="#DejaVuSans-38"/>
      </g>
     </g>
    </g>
    <g id="xtick_24">
     <g id="line2d_67">
      <path d="M 355.761248 292.08 
L 355.761248 196.24 
" clip-path="url(#pcb2b322b6f)" style="fill: none; stroke: #e6e6e6; stroke-linecap: square"/>
     </g>
     <g id="line2d_68">
      <g>
       <use xlink:href="#m2f2d94c0df" x="355.761248" y="292.08" style="stroke: #000000; stroke-width: 0.8"/>
      </g>
     </g>
     <g id="text_38">
      <!-- 10 -->
      <g transform="translate(348.126248 308.198125) scale(0.12 -0.12)">
       <use xlink:href="#DejaVuSans-31"/>
       <use xlink:href="#DejaVuSans-30" x="63.623047"/>
      </g>
     </g>
    </g>
    <g id="text_39">
     <!-- time (s) -->
     <g transform="translate(187.176979 323.811875) scale(0.12 -0.12)">
      <use xlink:href="#DejaVuSans-74"/>
      <use xlink:href="#DejaVuSans-69" x="39.208984"/>
      <use xlink:href="#DejaVuSans-6d" x="66.992188"/>
      <use xlink:href="#DejaVuSans-65" x="164.404297"/>
      <use xlink:href="#DejaVuSans-20" x="225.927734"/>
      <use xlink:href="#DejaVuSans-28" x="257.714844"/>
      <use xlink:href="#DejaVuSans-73" x="296.728516"/>
      <use xlink:href="#DejaVuSans-29" x="348.828125"/>
     </g>
    </g>
   </g>
   <g id="matplotlib.axis_8">
    <g id="ytick_8">
     <g id="line2d_69">
      <path d="M 50.92 284.313802 
L 369.973333 284.313802 
" clip-path="url(#pcb2b322b6f)" style="fill: none; stroke: #e6e6e6; stroke-linecap: square"/>
     </g>
     <g id="line2d_70"/>
     <g id="text_40">
      <!-- 0.2 -->
      <g transform="translate(28.33625 288.872864) scale(0.12 -0.12)">
       <use xlink:href="#DejaVuSans-30"/>
       <use xlink:href="#DejaVuSans-2e" x="63.623047"/>
       <use xlink:href="#DejaVuSans-32" x="95.410156"/>
      </g>
     </g>
    </g>
    <g id="ytick_9">
     <g id="line2d_71">
      <path d="M 50.92 251.5563 
L 369.973333 251.5563 
" clip-path="url(#pcb2b322b6f)" style="fill: none; stroke: #e6e6e6; stroke-linecap: square"/>
     </g>
     <g id="line2d_72"/>
     <g id="text_41">
      <!-- 0.4 -->
      <g transform="translate(28.33625 256.115362) scale(0.12 -0.12)">
       <use xlink:href="#DejaVuSans-30"/>
       <use xlink:href="#DejaVuSans-2e" x="63.623047"/>
       <use xlink:href="#DejaVuSans-34" x="95.410156"/>
      </g>
     </g>
    </g>
    <g id="ytick_10">
     <g id="line2d_73">
      <path d="M 50.92 218.798798 
L 369.973333 218.798798 
" clip-path="url(#pcb2b322b6f)" style="fill: none; stroke: #e6e6e6; stroke-linecap: square"/>
     </g>
     <g id="line2d_74"/>
     <g id="text_42">
      <!-- 0.6 -->
      <g transform="translate(28.33625 223.35786) scale(0.12 -0.12)">
       <use xlink:href="#DejaVuSans-30"/>
       <use xlink:href="#DejaVuSans-2e" x="63.623047"/>
       <use xlink:href="#DejaVuSans-36" x="95.410156"/>
      </g>
     </g>
    </g>
    <g id="text_43">
     <!-- EEF -->
     <g transform="translate(21.840625 255.193438) rotate(-90) scale(0.12 -0.12)">
      <use xlink:href="#DejaVuSans-45"/>
      <use xlink:href="#DejaVuSans-45" x="63.183594"/>
      <use xlink:href="#DejaVuSans-46" x="126.367188"/>
     </g>
    </g>
   </g>
   <g id="PathCollection_4">
    <g clip-path="url(#pcb2b322b6f)">
     <use xlink:href="#ma39f35e5cf" x="355.470909" y="251.473803" style="fill: #008000; stroke: #008000; stroke-width: 1.5"/>
    </g>
   </g>
   <g id="line2d_75">
    <path d="M 65.451458 292.08 
L 65.451458 196.24 
" clip-path="url(#pcb2b322b6f)" style="fill: none; stroke-dasharray: 3.7,1.6; stroke-dashoffset: 0; stroke: #000000"/>
   </g>
   <g id="line2d_76">
    <path d="M 210.62087 292.08 
L 210.62087 196.24 
" clip-path="url(#pcb2b322b6f)" style="fill: none; stroke-dasharray: 3.7,1.6; stroke-dashoffset: 0; stroke: #000000"/>
   </g>
   <g id="line2d_77">
    <path d="M 65.422424 226.251206 
L 67.164457 226.143771 
L 69.487168 226.138039 
L 71.809878 226.345275 
L 74.132589 226.764208 
L 76.745638 227.481262 
L 79.358688 228.444848 
L 81.971737 229.635187 
L 84.875125 231.193156 
L 88.359191 233.333384 
L 92.714274 236.305284 
L 106.360198 245.857931 
L 109.844264 247.903831 
L 112.747653 249.371367 
L 115.651041 250.584617 
L 118.26409 251.434547 
L 120.87714 252.037729 
L 123.19985 252.357158 
L 125.522561 252.467642 
L 127.845271 252.368053 
L 130.167982 252.06086 
L 132.781031 251.474785 
L 135.394081 250.647548 
L 138.00713 249.598117 
L 140.910518 248.200219 
L 144.394584 246.252516 
L 148.459328 243.700879 
L 154.846782 239.373719 
L 161.814914 234.719217 
L 165.879657 232.26867 
L 169.363723 230.427818 
L 172.267111 229.124944 
L 175.1705 228.06727 
L 177.783549 227.348834 
L 180.396598 226.869858 
L 182.719309 226.656243 
L 185.04202 226.649221 
L 187.36473 226.852162 
L 189.687441 227.264977 
L 192.010151 227.883933 
L 194.623201 228.817252 
L 197.23625 229.985812 
L 200.139638 231.533544 
L 203.333365 233.49598 
L 207.10777 236.087992 
L 212.624208 240.188103 
L 220.173017 245.785868 
L 223.947422 248.316852 
L 226.85081 250.038832 
L 229.46386 251.32022 
L 232.076909 252.331771 
L 234.689958 253.081684 
L 237.303008 253.585922 
L 239.916057 253.867127 
L 242.819446 253.952292 
L 246.013173 253.821101 
L 250.077916 253.412288 
L 265.756213 251.558931 
L 269.530617 251.473803 
L 355.470909 251.473803 
L 355.470909 251.473803 
" clip-path="url(#pcb2b322b6f)" style="fill: none; stroke: #e1b8a0; stroke-width: 1.5; stroke-linecap: square"/>
   </g>
   <g id="line2d_78">
    <path d="M 65.422424 226.251206 
L 66.003102 226.172548 
L 66.58378 225.884778 
L 67.164457 225.394498 
L 67.745135 224.6671 
L 68.325812 223.671089 
L 69.196829 221.614789 
L 70.067845 218.826972 
L 73.551911 206.51529 
L 74.713267 203.397323 
L 75.584283 201.765444 
L 76.164961 201.081424 
L 76.745638 200.708822 
L 77.326316 200.596364 
L 77.906994 200.743619 
L 79.068349 201.545806 
L 80.810382 202.661351 
L 81.971737 203.154342 
L 82.842754 203.326201 
L 83.71377 203.273898 
L 84.875125 202.86207 
L 86.32682 202.516576 
L 88.068852 202.34233 
L 90.101224 202.366307 
L 92.133596 202.607649 
L 94.165968 203.07235 
L 96.19834 203.779881 
L 98.230711 204.755305 
L 99.972744 205.826225 
L 101.714777 207.137275 
L 103.45681 208.709849 
L 105.198843 210.558542 
L 107.231215 213.07637 
L 109.263587 215.985869 
L 111.295958 219.276532 
L 113.909008 223.943094 
L 117.102735 230.118177 
L 121.167478 238.493114 
L 127.554933 252.20274 
L 131.910015 261.332432 
L 134.813403 266.955227 
L 137.426453 271.567067 
L 139.749163 275.264488 
L 142.071874 278.55456 
L 144.104245 281.072369 
L 146.136617 283.223773 
L 147.87865 284.754229 
L 149.620683 285.978208 
L 151.072377 286.755133 
L 152.524071 287.306044 
L 153.975765 287.628792 
L 155.42746 287.723636 
L 156.879154 287.593155 
L 158.330848 287.242085 
L 159.782542 286.677073 
L 161.524575 285.728411 
L 163.266608 284.498806 
L 165.008641 283.003571 
L 167.041013 280.934522 
L 169.073384 278.51175 
L 170.815417 276.12069 
L 172.55745 273.361485 
L 174.009144 270.675777 
L 175.460838 267.497303 
L 176.912533 263.689515 
L 178.654565 258.355702 
L 181.557954 249.407608 
L 183.299987 244.920661 
L 184.751681 241.730915 
L 186.203375 238.982477 
L 187.945408 236.191095 
L 189.687441 233.878283 
L 191.429474 231.967129 
L 193.171507 230.402282 
L 194.91354 229.162153 
L 196.655573 228.235261 
L 198.107267 227.699732 
L 199.558961 227.381092 
L 201.010655 227.282022 
L 202.462349 227.404105 
L 203.914043 227.746162 
L 205.365737 228.302492 
L 207.10777 229.236753 
L 208.849803 230.433465 
L 210.882175 232.109486 
L 211.753191 233.007122 
L 212.624208 234.1689 
L 213.495224 235.634845 
L 215.817935 239.967282 
L 216.97929 241.614818 
L 217.850307 242.472873 
L 228.302504 249.586622 
L 230.915554 250.997224 
L 233.528603 252.165082 
L 236.141653 253.088543 
L 238.754702 253.77634 
L 241.367751 254.245194 
L 244.27114 254.53683 
L 247.464867 254.620726 
L 250.948933 254.488058 
L 255.304015 254.091376 
L 262.272147 253.191821 
L 272.143667 251.945039 
L 278.531121 251.376638 
L 284.918575 251.042981 
L 291.886707 250.914923 
L 300.596871 250.991043 
L 337.469902 251.562816 
L 355.470909 251.520286 
L 355.470909 251.520286 
" clip-path="url(#pcb2b322b6f)" style="fill: none; stroke: #116496; stroke-width: 1.5; stroke-linecap: square"/>
   </g>
   <g id="patch_9">
    <path d="M 50.92 292.08 
L 369.973333 292.08 
" style="fill: none; stroke: #000000; stroke-width: 0.8; stroke-linejoin: miter; stroke-linecap: square"/>
   </g>
  </g>
  <g id="axes_5">
   <g id="patch_10">
    <path d="M 403.933333 292.08 
L 722.986667 292.08 
L 722.986667 196.24 
L 403.933333 196.24 
z
" style="fill: #ffffff"/>
   </g>
   <g id="matplotlib.axis_9">
    <g id="xtick_25">
     <g id="line2d_79">
      <path d="M 418.435758 292.08 
L 418.435758 196.24 
" clip-path="url(#pbf2953c108)" style="fill: none; stroke: #e6e6e6; stroke-linecap: square"/>
     </g>
     <g id="line2d_80">
      <g>
       <use xlink:href="#m2f2d94c0df" x="418.435758" y="292.08" style="stroke: #000000; stroke-width: 0.8"/>
      </g>
     </g>
     <g id="text_44">
      <!-- 0 -->
      <g transform="translate(414.618258 308.198125) scale(0.12 -0.12)">
       <use xlink:href="#DejaVuSans-30"/>
      </g>
     </g>
    </g>
    <g id="xtick_26">
     <g id="line2d_81">
      <path d="M 476.503522 292.08 
L 476.503522 196.24 
" clip-path="url(#pbf2953c108)" style="fill: none; stroke: #e6e6e6; stroke-linecap: square"/>
     </g>
     <g id="line2d_82">
      <g>
       <use xlink:href="#m2f2d94c0df" x="476.503522" y="292.08" style="stroke: #000000; stroke-width: 0.8"/>
      </g>
     </g>
     <g id="text_45">
      <!-- 2 -->
      <g transform="translate(472.686022 308.198125) scale(0.12 -0.12)">
       <use xlink:href="#DejaVuSans-32"/>
      </g>
     </g>
    </g>
    <g id="xtick_27">
     <g id="line2d_83">
      <path d="M 534.571287 292.08 
L 534.571287 196.24 
" clip-path="url(#pbf2953c108)" style="fill: none; stroke: #e6e6e6; stroke-linecap: square"/>
     </g>
     <g id="line2d_84">
      <g>
       <use xlink:href="#m2f2d94c0df" x="534.571287" y="292.08" style="stroke: #000000; stroke-width: 0.8"/>
      </g>
     </g>
     <g id="text_46">
      <!-- 4 -->
      <g transform="translate(530.753787 308.198125) scale(0.12 -0.12)">
       <use xlink:href="#DejaVuSans-34"/>
      </g>
     </g>
    </g>
    <g id="xtick_28">
     <g id="line2d_85">
      <path d="M 592.639052 292.08 
L 592.639052 196.24 
" clip-path="url(#pbf2953c108)" style="fill: none; stroke: #e6e6e6; stroke-linecap: square"/>
     </g>
     <g id="line2d_86">
      <g>
       <use xlink:href="#m2f2d94c0df" x="592.639052" y="292.08" style="stroke: #000000; stroke-width: 0.8"/>
      </g>
     </g>
     <g id="text_47">
      <!-- 6 -->
      <g transform="translate(588.821552 308.198125) scale(0.12 -0.12)">
       <use xlink:href="#DejaVuSans-36"/>
      </g>
     </g>
    </g>
    <g id="xtick_29">
     <g id="line2d_87">
      <path d="M 650.706817 292.08 
L 650.706817 196.24 
" clip-path="url(#pbf2953c108)" style="fill: none; stroke: #e6e6e6; stroke-linecap: square"/>
     </g>
     <g id="line2d_88">
      <g>
       <use xlink:href="#m2f2d94c0df" x="650.706817" y="292.08" style="stroke: #000000; stroke-width: 0.8"/>
      </g>
     </g>
     <g id="text_48">
      <!-- 8 -->
      <g transform="translate(646.889317 308.198125) scale(0.12 -0.12)">
       <use xlink:href="#DejaVuSans-38"/>
      </g>
     </g>
    </g>
    <g id="xtick_30">
     <g id="line2d_89">
      <path d="M 708.774581 292.08 
L 708.774581 196.24 
" clip-path="url(#pbf2953c108)" style="fill: none; stroke: #e6e6e6; stroke-linecap: square"/>
     </g>
     <g id="line2d_90">
      <g>
       <use xlink:href="#m2f2d94c0df" x="708.774581" y="292.08" style="stroke: #000000; stroke-width: 0.8"/>
      </g>
     </g>
     <g id="text_49">
      <!-- 10 -->
      <g transform="translate(701.139581 308.198125) scale(0.12 -0.12)">
       <use xlink:href="#DejaVuSans-31"/>
       <use xlink:href="#DejaVuSans-30" x="63.623047"/>
      </g>
     </g>
    </g>
    <g id="text_50">
     <!-- time (s) -->
     <g transform="translate(540.190313 323.811875) scale(0.12 -0.12)">
      <use xlink:href="#DejaVuSans-74"/>
      <use xlink:href="#DejaVuSans-69" x="39.208984"/>
      <use xlink:href="#DejaVuSans-6d" x="66.992188"/>
      <use xlink:href="#DejaVuSans-65" x="164.404297"/>
      <use xlink:href="#DejaVuSans-20" x="225.927734"/>
      <use xlink:href="#DejaVuSans-28" x="257.714844"/>
      <use xlink:href="#DejaVuSans-73" x="296.728516"/>
      <use xlink:href="#DejaVuSans-29" x="348.828125"/>
     </g>
    </g>
   </g>
   <g id="matplotlib.axis_10">
    <g id="ytick_11">
     <g id="line2d_91">
      <path d="M 403.933333 287.723636 
L 722.986667 287.723636 
" clip-path="url(#pbf2953c108)" style="fill: none; stroke: #e6e6e6; stroke-linecap: square"/>
     </g>
     <g id="line2d_92"/>
     <g id="text_51">
      <!-- 0.0 -->
      <g transform="translate(381.349583 292.282699) scale(0.12 -0.12)">
       <use xlink:href="#DejaVuSans-30"/>
       <use xlink:href="#DejaVuSans-2e" x="63.623047"/>
       <use xlink:href="#DejaVuSans-30" x="95.410156"/>
      </g>
     </g>
    </g>
    <g id="ytick_12">
     <g id="line2d_93">
      <path d="M 403.933333 244.619309 
L 722.986667 244.619309 
" clip-path="url(#pbf2953c108)" style="fill: none; stroke: #e6e6e6; stroke-linecap: square"/>
     </g>
     <g id="line2d_94"/>
     <g id="text_52">
      <!-- 0.2 -->
      <g transform="translate(381.349583 249.178371) scale(0.12 -0.12)">
       <use xlink:href="#DejaVuSans-30"/>
       <use xlink:href="#DejaVuSans-2e" x="63.623047"/>
       <use xlink:href="#DejaVuSans-32" x="95.410156"/>
      </g>
     </g>
    </g>
    <g id="ytick_13">
     <g id="line2d_95">
      <path d="M 403.933333 201.514981 
L 722.986667 201.514981 
" clip-path="url(#pbf2953c108)" style="fill: none; stroke: #e6e6e6; stroke-linecap: square"/>
     </g>
     <g id="line2d_96"/>
     <g id="text_53">
      <!-- 0.4 -->
      <g transform="translate(381.349583 206.074043) scale(0.12 -0.12)">
       <use xlink:href="#DejaVuSans-30"/>
       <use xlink:href="#DejaVuSans-2e" x="63.623047"/>
       <use xlink:href="#DejaVuSans-34" x="95.410156"/>
      </g>
     </g>
    </g>
   </g>
   <g id="PathCollection_5">
    <g clip-path="url(#pbf2953c108)">
     <use xlink:href="#ma39f35e5cf" x="708.484242" y="200.596364" style="fill: #008000; stroke: #008000; stroke-width: 1.5"/>
    </g>
   </g>
   <g id="line2d_97">
    <path d="M 418.464791 292.08 
L 418.464791 196.24 
" clip-path="url(#pbf2953c108)" style="fill: none; stroke-dasharray: 3.7,1.6; stroke-dashoffset: 0; stroke: #000000"/>
   </g>
   <g id="line2d_98">
    <path d="M 563.634203 292.08 
L 563.634203 196.24 
" clip-path="url(#pbf2953c108)" style="fill: none; stroke-dasharray: 3.7,1.6; stroke-dashoffset: 0; stroke: #000000"/>
   </g>
   <g id="line2d_99">
    <path d="M 418.435758 287.723636 
L 418.726096 287.719145 
L 422.79084 285.70761 
L 441.662863 276.181424 
L 465.470647 264.170197 
L 475.632506 259.320918 
L 484.923348 255.136936 
L 495.085207 250.816837 
L 517.441296 241.433438 
L 524.409428 238.17557 
L 531.087221 234.798625 
L 538.345692 230.865534 
L 547.926873 225.393025 
L 565.637541 215.238085 
L 572.896012 211.359584 
L 578.993127 208.351082 
L 582.767532 206.72215 
L 586.541936 205.345406 
L 590.316341 204.202731 
L 594.381085 203.207255 
L 598.736167 202.374328 
L 603.671927 201.670586 
L 609.188365 201.12178 
L 615.28548 200.747388 
L 621.382595 200.598015 
L 650.416478 200.596364 
L 708.484242 200.596364 
L 708.484242 200.596364 
" clip-path="url(#pbf2953c108)" style="fill: none; stroke: #e1b8a0; stroke-width: 1.5; stroke-linecap: square"/>
   </g>
   <g id="line2d_100">
    <path d="M 418.435758 287.723636 
L 418.726096 287.719146 
L 421.919823 286.150487 
L 424.532873 284.664433 
L 426.855583 283.079934 
L 432.66236 278.855766 
L 436.727103 276.031346 
L 442.243541 271.675281 
L 453.857094 262.53665 
L 457.631499 259.877511 
L 461.115565 257.691579 
L 464.599631 255.765897 
L 486.95572 243.963454 
L 493.052835 240.244062 
L 498.569273 236.978995 
L 502.924355 234.670701 
L 507.279438 232.621656 
L 511.344181 230.94537 
L 515.118586 229.613834 
L 518.892991 228.52186 
L 523.248073 227.521385 
L 527.022478 226.623684 
L 528.764511 226.001372 
L 530.216205 225.272367 
L 531.958238 224.141162 
L 536.603659 220.976305 
L 542.991113 217.127617 
L 549.378567 213.14736 
L 554.895005 209.771524 
L 558.088732 208.077855 
L 560.99212 206.78765 
L 563.895508 205.733846 
L 564.766525 205.570231 
L 565.637541 205.674049 
L 566.218219 205.920946 
L 567.089235 206.574043 
L 568.540929 207.640075 
L 569.411946 208.036781 
L 570.282962 208.143484 
L 570.86364 208.011665 
L 574.347706 206.485462 
L 577.831772 205.427912 
L 582.477193 204.26669 
L 587.122614 203.331596 
L 592.058374 202.563509 
L 597.284473 201.971378 
L 603.381588 201.513907 
L 610.640059 201.202935 
L 621.092256 200.998237 
L 648.964784 200.767098 
L 687.579847 200.608832 
L 708.484242 200.599945 
L 708.484242 200.599945 
" clip-path="url(#pbf2953c108)" style="fill: none; stroke: #116496; stroke-width: 1.5; stroke-linecap: square"/>
   </g>
   <g id="patch_11">
    <path d="M 403.933333 292.08 
L 722.986667 292.08 
" style="fill: none; stroke: #000000; stroke-width: 0.8; stroke-linejoin: miter; stroke-linecap: square"/>
   </g>
  </g>
  <g id="axes_6">
   <g id="patch_12">
    <path d="M 756.946667 292.08 
L 1076 292.08 
L 1076 196.24 
L 756.946667 196.24 
z
" style="fill: #ffffff"/>
   </g>
   <g id="matplotlib.axis_11">
    <g id="xtick_31">
     <g id="line2d_101">
      <path d="M 771.449091 292.08 
L 771.449091 196.24 
" clip-path="url(#p79adeee97c)" style="fill: none; stroke: #e6e6e6; stroke-linecap: square"/>
     </g>
     <g id="line2d_102">
      <g>
       <use xlink:href="#m2f2d94c0df" x="771.449091" y="292.08" style="stroke: #000000; stroke-width: 0.8"/>
      </g>
     </g>
     <g id="text_54">
      <!-- 0 -->
      <g transform="translate(767.631591 308.198125) scale(0.12 -0.12)">
       <use xlink:href="#DejaVuSans-30"/>
      </g>
     </g>
    </g>
    <g id="xtick_32">
     <g id="line2d_103">
      <path d="M 829.516856 292.08 
L 829.516856 196.24 
" clip-path="url(#p79adeee97c)" style="fill: none; stroke: #e6e6e6; stroke-linecap: square"/>
     </g>
     <g id="line2d_104">
      <g>
       <use xlink:href="#m2f2d94c0df" x="829.516856" y="292.08" style="stroke: #000000; stroke-width: 0.8"/>
      </g>
     </g>
     <g id="text_55">
      <!-- 2 -->
      <g transform="translate(825.699356 308.198125) scale(0.12 -0.12)">
       <use xlink:href="#DejaVuSans-32"/>
      </g>
     </g>
    </g>
    <g id="xtick_33">
     <g id="line2d_105">
      <path d="M 887.58462 292.08 
L 887.58462 196.24 
" clip-path="url(#p79adeee97c)" style="fill: none; stroke: #e6e6e6; stroke-linecap: square"/>
     </g>
     <g id="line2d_106">
      <g>
       <use xlink:href="#m2f2d94c0df" x="887.58462" y="292.08" style="stroke: #000000; stroke-width: 0.8"/>
      </g>
     </g>
     <g id="text_56">
      <!-- 4 -->
      <g transform="translate(883.76712 308.198125) scale(0.12 -0.12)">
       <use xlink:href="#DejaVuSans-34"/>
      </g>
     </g>
    </g>
    <g id="xtick_34">
     <g id="line2d_107">
      <path d="M 945.652385 292.08 
L 945.652385 196.24 
" clip-path="url(#p79adeee97c)" style="fill: none; stroke: #e6e6e6; stroke-linecap: square"/>
     </g>
     <g id="line2d_108">
      <g>
       <use xlink:href="#m2f2d94c0df" x="945.652385" y="292.08" style="stroke: #000000; stroke-width: 0.8"/>
      </g>
     </g>
     <g id="text_57">
      <!-- 6 -->
      <g transform="translate(941.834885 308.198125) scale(0.12 -0.12)">
       <use xlink:href="#DejaVuSans-36"/>
      </g>
     </g>
    </g>
    <g id="xtick_35">
     <g id="line2d_109">
      <path d="M 1003.72015 292.08 
L 1003.72015 196.24 
" clip-path="url(#p79adeee97c)" style="fill: none; stroke: #e6e6e6; stroke-linecap: square"/>
     </g>
     <g id="line2d_110">
      <g>
       <use xlink:href="#m2f2d94c0df" x="1003.72015" y="292.08" style="stroke: #000000; stroke-width: 0.8"/>
      </g>
     </g>
     <g id="text_58">
      <!-- 8 -->
      <g transform="translate(999.90265 308.198125) scale(0.12 -0.12)">
       <use xlink:href="#DejaVuSans-38"/>
      </g>
     </g>
    </g>
    <g id="xtick_36">
     <g id="line2d_111">
      <path d="M 1061.787915 292.08 
L 1061.787915 196.24 
" clip-path="url(#p79adeee97c)" style="fill: none; stroke: #e6e6e6; stroke-linecap: square"/>
     </g>
     <g id="line2d_112">
      <g>
       <use xlink:href="#m2f2d94c0df" x="1061.787915" y="292.08" style="stroke: #000000; stroke-width: 0.8"/>
      </g>
     </g>
     <g id="text_59">
      <!-- 10 -->
      <g transform="translate(1054.152915 308.198125) scale(0.12 -0.12)">
       <use xlink:href="#DejaVuSans-31"/>
       <use xlink:href="#DejaVuSans-30" x="63.623047"/>
      </g>
     </g>
    </g>
    <g id="text_60">
     <!-- time (s) -->
     <g transform="translate(893.203646 323.811875) scale(0.12 -0.12)">
      <use xlink:href="#DejaVuSans-74"/>
      <use xlink:href="#DejaVuSans-69" x="39.208984"/>
      <use xlink:href="#DejaVuSans-6d" x="66.992188"/>
      <use xlink:href="#DejaVuSans-65" x="164.404297"/>
      <use xlink:href="#DejaVuSans-20" x="225.927734"/>
      <use xlink:href="#DejaVuSans-28" x="257.714844"/>
      <use xlink:href="#DejaVuSans-73" x="296.728516"/>
      <use xlink:href="#DejaVuSans-29" x="348.828125"/>
     </g>
    </g>
   </g>
   <g id="matplotlib.axis_12">
    <g id="ytick_14">
     <g id="line2d_113">
      <path d="M 756.946667 256.93922 
L 1076 256.93922 
" clip-path="url(#p79adeee97c)" style="fill: none; stroke: #e6e6e6; stroke-linecap: square"/>
     </g>
     <g id="line2d_114"/>
     <g id="text_61">
      <!-- 0.4 -->
      <g transform="translate(734.362917 261.498282) scale(0.12 -0.12)">
       <use xlink:href="#DejaVuSans-30"/>
       <use xlink:href="#DejaVuSans-2e" x="63.623047"/>
       <use xlink:href="#DejaVuSans-34" x="95.410156"/>
      </g>
     </g>
    </g>
    <g id="ytick_15">
     <g id="line2d_115">
      <path d="M 756.946667 221.337614 
L 1076 221.337614 
" clip-path="url(#p79adeee97c)" style="fill: none; stroke: #e6e6e6; stroke-linecap: square"/>
     </g>
     <g id="line2d_116"/>
     <g id="text_62">
      <!-- 0.6 -->
      <g transform="translate(734.362917 225.896676) scale(0.12 -0.12)">
       <use xlink:href="#DejaVuSans-30"/>
       <use xlink:href="#DejaVuSans-2e" x="63.623047"/>
       <use xlink:href="#DejaVuSans-36" x="95.410156"/>
      </g>
     </g>
    </g>
   </g>
   <g id="PathCollection_6">
    <g clip-path="url(#p79adeee97c)">
     <use xlink:href="#ma39f35e5cf" x="1061.497576" y="233.88854" style="fill: #008000; stroke: #008000; stroke-width: 1.5"/>
    </g>
   </g>
   <g id="line2d_117">
    <path d="M 771.478125 292.08 
L 771.478125 196.24 
" clip-path="url(#p79adeee97c)" style="fill: none; stroke-dasharray: 3.7,1.6; stroke-dashoffset: 0; stroke: #000000"/>
   </g>
   <g id="line2d_118">
    <path d="M 916.647537 292.08 
L 916.647537 196.24 
" clip-path="url(#p79adeee97c)" style="fill: none; stroke-dasharray: 3.7,1.6; stroke-dashoffset: 0; stroke: #000000"/>
   </g>
   <g id="line2d_119">
    <path d="M 771.449091 235.311553 
L 771.73943 235.316814 
L 773.771801 236.880563 
L 778.707562 240.567243 
L 782.481966 243.112668 
L 785.675693 244.995097 
L 788.579082 246.439079 
L 791.192131 247.489055 
L 793.514842 248.20492 
L 795.837552 248.703236 
L 798.160263 248.975179 
L 800.482973 249.015561 
L 802.805684 248.822948 
L 805.128394 248.399718 
L 807.451105 247.752062 
L 809.773816 246.889946 
L 812.386865 245.680842 
L 815.290253 244.069703 
L 818.48398 242.020397 
L 822.258385 239.311526 
L 827.774823 235.038624 
L 834.452616 229.907102 
L 838.22702 227.287747 
L 841.420747 225.346215 
L 844.324136 223.857583 
L 846.937185 222.777573 
L 849.259896 222.0439 
L 851.582606 221.535936 
L 853.905317 221.261514 
L 856.228027 221.22416 
L 858.550738 221.423132 
L 860.873449 221.853604 
L 863.196159 222.50698 
L 865.809209 223.493459 
L 868.422258 224.725472 
L 871.325646 226.351679 
L 874.519373 228.408395 
L 878.293778 231.125823 
L 883.229538 234.989547 
L 894.262413 243.74679 
L 898.036818 246.406008 
L 901.230545 248.389921 
L 904.133933 249.929961 
L 906.746983 251.068744 
L 909.360032 251.949048 
L 911.682743 252.499587 
L 914.005453 252.822038 
L 916.328164 252.910788 
L 918.650875 252.764062 
L 920.973585 252.384028 
L 923.296296 251.776831 
L 925.619006 250.952571 
L 928.232056 249.783348 
L 931.135444 248.214019 
L 935.780865 245.355921 
L 942.748997 241.095858 
L 946.523402 239.063569 
L 949.717129 237.587088 
L 952.910856 236.367652 
L 955.814244 235.492037 
L 958.717632 234.833273 
L 961.911359 234.338535 
L 965.395425 234.031059 
L 969.750507 233.892045 
L 981.654399 233.88854 
L 1061.497576 233.88854 
L 1061.497576 233.88854 
" clip-path="url(#p79adeee97c)" style="fill: none; stroke: #e1b8a0; stroke-width: 1.5; stroke-linecap: square"/>
   </g>
   <g id="line2d_120">
    <path d="M 771.449091 235.311553 
L 771.73943 235.316934 
L 772.900785 235.878709 
L 773.771801 236.112037 
L 774.642818 236.145282 
L 775.513834 235.926166 
L 776.384851 235.406246 
L 777.546206 234.701828 
L 778.126884 234.725368 
L 778.707562 235.099195 
L 779.288239 235.740112 
L 780.449594 237.494556 
L 781.901289 239.746658 
L 783.062644 241.330708 
L 784.223999 243.48212 
L 785.966032 246.816223 
L 787.417726 249.109652 
L 788.86942 251.029917 
L 790.611453 252.970959 
L 792.934164 255.642293 
L 798.450602 262.447714 
L 810.064154 276.822836 
L 813.257882 280.388429 
L 815.580592 282.689777 
L 817.612964 284.421897 
L 819.354997 285.645209 
L 821.09703 286.600038 
L 822.839063 287.270145 
L 824.290757 287.602376 
L 825.742451 287.723636 
L 827.194145 287.630887 
L 828.645839 287.322607 
L 830.097533 286.795698 
L 831.549227 286.037225 
L 833.000922 285.045416 
L 834.742954 283.550873 
L 836.484987 281.731359 
L 838.22702 279.582595 
L 840.259392 276.674434 
L 842.291764 273.354944 
L 844.614474 269.092446 
L 847.227524 263.771297 
L 850.130912 257.333684 
L 854.195656 247.724686 
L 862.615482 227.663627 
L 865.809209 220.701145 
L 868.422258 215.508913 
L 870.744969 211.367484 
L 872.77734 208.167809 
L 874.519373 205.779487 
L 876.261406 203.757058 
L 877.7131 202.387756 
L 878.874456 201.530825 
L 880.035811 200.923571 
L 880.906827 200.662486 
L 881.777844 200.599276 
L 882.64886 200.766997 
L 883.519877 201.195245 
L 884.390893 201.894422 
L 885.552249 203.208697 
L 887.003943 205.29739 
L 889.907331 210.055022 
L 894.262413 217.12682 
L 897.45614 221.841171 
L 900.940206 226.573567 
L 904.424272 230.930014 
L 908.198677 235.282302 
L 911.392404 238.655832 
L 914.005453 241.139411 
L 916.328164 243.068123 
L 919.231552 245.390432 
L 920.683246 246.546153 
L 921.554263 246.976939 
L 922.425279 247.211659 
L 923.296296 247.263103 
L 924.167312 247.134014 
L 926.199684 246.726413 
L 929.68375 246.057987 
L 932.296799 245.325651 
L 935.200187 244.288216 
L 939.264931 242.572381 
L 950.878484 237.496171 
L 954.652889 236.152006 
L 958.427293 235.049874 
L 961.911359 234.256789 
L 965.685764 233.631173 
L 969.750507 233.201398 
L 974.10559 232.974964 
L 979.331689 232.943414 
L 986.29982 233.152342 
L 1010.688282 234.081434 
L 1021.430818 234.153083 
L 1039.141486 234.006246 
L 1061.497576 233.861779 
L 1061.497576 233.861779 
" clip-path="url(#p79adeee97c)" style="fill: none; stroke: #116496; stroke-width: 1.5; stroke-linecap: square"/>
   </g>
   <g id="patch_13">
    <path d="M 756.946667 292.08 
L 1076 292.08 
" style="fill: none; stroke: #000000; stroke-width: 0.8; stroke-linejoin: miter; stroke-linecap: square"/>
   </g>
  </g>
  <g id="text_63">
   <!-- Movement in Task Space using ANDPS -->
   <g transform="translate(367.5225 19.3575) scale(0.16 -0.16)">
    <defs>
     <path id="DejaVuSans-Bold-4d" d="M 588 4666 
L 2119 4666 
L 3181 2169 
L 4250 4666 
L 5778 4666 
L 5778 0 
L 4641 0 
L 4641 3413 
L 3566 897 
L 2803 897 
L 1728 3413 
L 1728 0 
L 588 0 
L 588 4666 
z
" transform="scale(0.015625)"/>
     <path id="DejaVuSans-Bold-6f" d="M 2203 2784 
Q 1831 2784 1636 2517 
Q 1441 2250 1441 1747 
Q 1441 1244 1636 976 
Q 1831 709 2203 709 
Q 2569 709 2762 976 
Q 2956 1244 2956 1747 
Q 2956 2250 2762 2517 
Q 2569 2784 2203 2784 
z
M 2203 3584 
Q 3106 3584 3614 3096 
Q 4122 2609 4122 1747 
Q 4122 884 3614 396 
Q 3106 -91 2203 -91 
Q 1297 -91 786 396 
Q 275 884 275 1747 
Q 275 2609 786 3096 
Q 1297 3584 2203 3584 
z
" transform="scale(0.015625)"/>
     <path id="DejaVuSans-Bold-76" d="M 97 3500 
L 1216 3500 
L 2088 1081 
L 2956 3500 
L 4078 3500 
L 2700 0 
L 1472 0 
L 97 3500 
z
" transform="scale(0.015625)"/>
     <path id="DejaVuSans-Bold-65" d="M 4031 1759 
L 4031 1441 
L 1416 1441 
Q 1456 1047 1700 850 
Q 1944 653 2381 653 
Q 2734 653 3104 758 
Q 3475 863 3866 1075 
L 3866 213 
Q 3469 63 3072 -14 
Q 2675 -91 2278 -91 
Q 1328 -91 801 392 
Q 275 875 275 1747 
Q 275 2603 792 3093 
Q 1309 3584 2216 3584 
Q 3041 3584 3536 3087 
Q 4031 2591 4031 1759 
z
M 2881 2131 
Q 2881 2450 2695 2645 
Q 2509 2841 2209 2841 
Q 1884 2841 1681 2658 
Q 1478 2475 1428 2131 
L 2881 2131 
z
" transform="scale(0.015625)"/>
     <path id="DejaVuSans-Bold-6d" d="M 3781 2919 
Q 3994 3244 4286 3414 
Q 4578 3584 4928 3584 
Q 5531 3584 5847 3212 
Q 6163 2841 6163 2131 
L 6163 0 
L 5038 0 
L 5038 1825 
Q 5041 1866 5042 1909 
Q 5044 1953 5044 2034 
Q 5044 2406 4934 2573 
Q 4825 2741 4581 2741 
Q 4263 2741 4089 2478 
Q 3916 2216 3909 1719 
L 3909 0 
L 2784 0 
L 2784 1825 
Q 2784 2406 2684 2573 
Q 2584 2741 2328 2741 
Q 2006 2741 1831 2477 
Q 1656 2213 1656 1722 
L 1656 0 
L 531 0 
L 531 3500 
L 1656 3500 
L 1656 2988 
Q 1863 3284 2130 3434 
Q 2397 3584 2719 3584 
Q 3081 3584 3359 3409 
Q 3638 3234 3781 2919 
z
" transform="scale(0.015625)"/>
     <path id="DejaVuSans-Bold-6e" d="M 4056 2131 
L 4056 0 
L 2931 0 
L 2931 347 
L 2931 1631 
Q 2931 2084 2911 2256 
Q 2891 2428 2841 2509 
Q 2775 2619 2662 2680 
Q 2550 2741 2406 2741 
Q 2056 2741 1856 2470 
Q 1656 2200 1656 1722 
L 1656 0 
L 538 0 
L 538 3500 
L 1656 3500 
L 1656 2988 
Q 1909 3294 2193 3439 
Q 2478 3584 2822 3584 
Q 3428 3584 3742 3212 
Q 4056 2841 4056 2131 
z
" transform="scale(0.015625)"/>
     <path id="DejaVuSans-Bold-74" d="M 1759 4494 
L 1759 3500 
L 2913 3500 
L 2913 2700 
L 1759 2700 
L 1759 1216 
Q 1759 972 1856 886 
Q 1953 800 2241 800 
L 2816 800 
L 2816 0 
L 1856 0 
Q 1194 0 917 276 
Q 641 553 641 1216 
L 641 2700 
L 84 2700 
L 84 3500 
L 641 3500 
L 641 4494 
L 1759 4494 
z
" transform="scale(0.015625)"/>
     <path id="DejaVuSans-Bold-20" transform="scale(0.015625)"/>
     <path id="DejaVuSans-Bold-54" d="M 31 4666 
L 4331 4666 
L 4331 3756 
L 2784 3756 
L 2784 0 
L 1581 0 
L 1581 3756 
L 31 3756 
L 31 4666 
z
" transform="scale(0.015625)"/>
     <path id="DejaVuSans-Bold-6b" d="M 538 4863 
L 1656 4863 
L 1656 2216 
L 2944 3500 
L 4244 3500 
L 2534 1894 
L 4378 0 
L 3022 0 
L 1656 1459 
L 1656 0 
L 538 0 
L 538 4863 
z
" transform="scale(0.015625)"/>
     <path id="DejaVuSans-Bold-53" d="M 3834 4519 
L 3834 3531 
Q 3450 3703 3084 3790 
Q 2719 3878 2394 3878 
Q 1963 3878 1756 3759 
Q 1550 3641 1550 3391 
Q 1550 3203 1689 3098 
Q 1828 2994 2194 2919 
L 2706 2816 
Q 3484 2659 3812 2340 
Q 4141 2022 4141 1434 
Q 4141 663 3683 286 
Q 3225 -91 2284 -91 
Q 1841 -91 1394 -6 
Q 947 78 500 244 
L 500 1259 
Q 947 1022 1364 901 
Q 1781 781 2169 781 
Q 2563 781 2772 912 
Q 2981 1044 2981 1288 
Q 2981 1506 2839 1625 
Q 2697 1744 2272 1838 
L 1806 1941 
Q 1106 2091 782 2419 
Q 459 2747 459 3303 
Q 459 4000 909 4375 
Q 1359 4750 2203 4750 
Q 2588 4750 2994 4692 
Q 3400 4634 3834 4519 
z
" transform="scale(0.015625)"/>
     <path id="DejaVuSans-Bold-70" d="M 1656 506 
L 1656 -1331 
L 538 -1331 
L 538 3500 
L 1656 3500 
L 1656 2988 
Q 1888 3294 2169 3439 
Q 2450 3584 2816 3584 
Q 3463 3584 3878 3070 
Q 4294 2556 4294 1747 
Q 4294 938 3878 423 
Q 3463 -91 2816 -91 
Q 2450 -91 2169 54 
Q 1888 200 1656 506 
z
M 2400 2772 
Q 2041 2772 1848 2508 
Q 1656 2244 1656 1747 
Q 1656 1250 1848 986 
Q 2041 722 2400 722 
Q 2759 722 2948 984 
Q 3138 1247 3138 1747 
Q 3138 2247 2948 2509 
Q 2759 2772 2400 2772 
z
" transform="scale(0.015625)"/>
     <path id="DejaVuSans-Bold-63" d="M 3366 3391 
L 3366 2478 
Q 3138 2634 2908 2709 
Q 2678 2784 2431 2784 
Q 1963 2784 1702 2511 
Q 1441 2238 1441 1747 
Q 1441 1256 1702 982 
Q 1963 709 2431 709 
Q 2694 709 2930 787 
Q 3166 866 3366 1019 
L 3366 103 
Q 3103 6 2833 -42 
Q 2563 -91 2291 -91 
Q 1344 -91 809 395 
Q 275 881 275 1747 
Q 275 2613 809 3098 
Q 1344 3584 2291 3584 
Q 2566 3584 2833 3536 
Q 3100 3488 3366 3391 
z
" transform="scale(0.015625)"/>
     <path id="DejaVuSans-Bold-75" d="M 500 1363 
L 500 3500 
L 1625 3500 
L 1625 3150 
Q 1625 2866 1622 2436 
Q 1619 2006 1619 1863 
Q 1619 1441 1641 1255 
Q 1663 1069 1716 984 
Q 1784 875 1895 815 
Q 2006 756 2150 756 
Q 2500 756 2700 1025 
Q 2900 1294 2900 1772 
L 2900 3500 
L 4019 3500 
L 4019 0 
L 2900 0 
L 2900 506 
Q 2647 200 2364 54 
Q 2081 -91 1741 -91 
Q 1134 -91 817 281 
Q 500 653 500 1363 
z
" transform="scale(0.015625)"/>
     <path id="DejaVuSans-Bold-67" d="M 2919 594 
Q 2688 288 2409 144 
Q 2131 0 1766 0 
Q 1125 0 706 504 
Q 288 1009 288 1791 
Q 288 2575 706 3076 
Q 1125 3578 1766 3578 
Q 2131 3578 2409 3434 
Q 2688 3291 2919 2981 
L 2919 3500 
L 4044 3500 
L 4044 353 
Q 4044 -491 3511 -936 
Q 2978 -1381 1966 -1381 
Q 1638 -1381 1331 -1331 
Q 1025 -1281 716 -1178 
L 716 -306 
Q 1009 -475 1290 -558 
Q 1572 -641 1856 -641 
Q 2406 -641 2662 -400 
Q 2919 -159 2919 353 
L 2919 594 
z
M 2181 2772 
Q 1834 2772 1640 2515 
Q 1447 2259 1447 1791 
Q 1447 1309 1634 1061 
Q 1822 813 2181 813 
Q 2531 813 2725 1069 
Q 2919 1325 2919 1791 
Q 2919 2259 2725 2515 
Q 2531 2772 2181 2772 
z
" transform="scale(0.015625)"/>
     <path id="DejaVuSans-Bold-41" d="M 3419 850 
L 1538 850 
L 1241 0 
L 31 0 
L 1759 4666 
L 3194 4666 
L 4922 0 
L 3713 0 
L 3419 850 
z
M 1838 1716 
L 3116 1716 
L 2478 3572 
L 1838 1716 
z
" transform="scale(0.015625)"/>
     <path id="DejaVuSans-Bold-4e" d="M 588 4666 
L 1931 4666 
L 3628 1466 
L 3628 4666 
L 4769 4666 
L 4769 0 
L 3425 0 
L 1728 3200 
L 1728 0 
L 588 0 
L 588 4666 
z
" transform="scale(0.015625)"/>
     <path id="DejaVuSans-Bold-44" d="M 1791 3756 
L 1791 909 
L 2222 909 
Q 2959 909 3348 1275 
Q 3738 1641 3738 2338 
Q 3738 3031 3350 3393 
Q 2963 3756 2222 3756 
L 1791 3756 
z
M 588 4666 
L 1856 4666 
Q 2919 4666 3439 4514 
Q 3959 4363 4331 4000 
Q 4659 3684 4818 3271 
Q 4978 2859 4978 2338 
Q 4978 1809 4818 1395 
Q 4659 981 4331 666 
Q 3956 303 3431 151 
Q 2906 0 1856 0 
L 588 0 
L 588 4666 
z
" transform="scale(0.015625)"/>
     <path id="DejaVuSans-Bold-50" d="M 588 4666 
L 2584 4666 
Q 3475 4666 3951 4270 
Q 4428 3875 4428 3144 
Q 4428 2409 3951 2014 
Q 3475 1619 2584 1619 
L 1791 1619 
L 1791 0 
L 588 0 
L 588 4666 
z
M 1791 3794 
L 1791 2491 
L 2456 2491 
Q 2806 2491 2997 2661 
Q 3188 2831 3188 3144 
Q 3188 3456 2997 3625 
Q 2806 3794 2456 3794 
L 1791 3794 
z
" transform="scale(0.015625)"/>
    </defs>
    <use xlink:href="#DejaVuSans-Bold-4d"/>
    <use xlink:href="#DejaVuSans-Bold-6f" x="99.511719"/>
    <use xlink:href="#DejaVuSans-Bold-76" x="168.212891"/>
    <use xlink:href="#DejaVuSans-Bold-65" x="233.398438"/>
    <use xlink:href="#DejaVuSans-Bold-6d" x="301.220703"/>
    <use xlink:href="#DejaVuSans-Bold-65" x="405.419922"/>
    <use xlink:href="#DejaVuSans-Bold-6e" x="473.242188"/>
    <use xlink:href="#DejaVuSans-Bold-74" x="544.433594"/>
    <use xlink:href="#DejaVuSans-Bold-20" x="592.236328"/>
    <use xlink:href="#DejaVuSans-Bold-69" x="627.050781"/>
    <use xlink:href="#DejaVuSans-Bold-6e" x="661.328125"/>
    <use xlink:href="#DejaVuSans-Bold-20" x="732.519531"/>
    <use xlink:href="#DejaVuSans-Bold-54" x="767.333984"/>
    <use xlink:href="#DejaVuSans-Bold-61" x="822.671875"/>
    <use xlink:href="#DejaVuSans-Bold-73" x="890.152344"/>
    <use xlink:href="#DejaVuSans-Bold-6b" x="949.673828"/>
    <use xlink:href="#DejaVuSans-Bold-20" x="1016.177734"/>
    <use xlink:href="#DejaVuSans-Bold-53" x="1050.992188"/>
    <use xlink:href="#DejaVuSans-Bold-70" x="1123.013672"/>
    <use xlink:href="#DejaVuSans-Bold-61" x="1194.595703"/>
    <use xlink:href="#DejaVuSans-Bold-63" x="1262.076172"/>
    <use xlink:href="#DejaVuSans-Bold-65" x="1321.353516"/>
    <use xlink:href="#DejaVuSans-Bold-20" x="1389.175781"/>
    <use xlink:href="#DejaVuSans-Bold-75" x="1423.990234"/>
    <use xlink:href="#DejaVuSans-Bold-73" x="1495.181641"/>
    <use xlink:href="#DejaVuSans-Bold-69" x="1554.703125"/>
    <use xlink:href="#DejaVuSans-Bold-6e" x="1588.980469"/>
    <use xlink:href="#DejaVuSans-Bold-67" x="1660.171875"/>
    <use xlink:href="#DejaVuSans-Bold-20" x="1731.753906"/>
    <use xlink:href="#DejaVuSans-Bold-41" x="1766.568359"/>
    <use xlink:href="#DejaVuSans-Bold-4e" x="1843.960938"/>
    <use xlink:href="#DejaVuSans-Bold-44" x="1927.652344"/>
    <use xlink:href="#DejaVuSans-Bold-50" x="2010.660156"/>
    <use xlink:href="#DejaVuSans-Bold-53" x="2083.951172"/>
   </g>
  </g>
  <g id="legend_1">
   <g id="patch_14">
    <path d="M 237.581563 355.82 
L 846.418438 355.82 
Q 848.818438 355.82 848.818438 353.42 
L 848.818438 337.00625 
Q 848.818438 334.60625 846.418438 334.60625 
L 237.581563 334.60625 
Q 235.181563 334.60625 235.181563 337.00625 
L 235.181563 353.42 
Q 235.181563 355.82 237.581563 355.82 
z
" style="fill: #4d4d4d; opacity: 0.5; stroke: #4d4d4d; stroke-linejoin: miter"/>
   </g>
   <g id="patch_15">
    <path d="M 235.581563 353.82 
L 844.418438 353.82 
Q 846.818438 353.82 846.818438 351.42 
L 846.818438 335.00625 
Q 846.818438 332.60625 844.418438 332.60625 
L 235.581563 332.60625 
Q 233.181563 332.60625 233.181563 335.00625 
L 233.181563 351.42 
Q 233.181563 353.82 235.581563 353.82 
z
" style="fill: #ffffff; stroke: #cccccc; stroke-linejoin: miter"/>
   </g>
   <g id="line2d_121">
    <path d="M 237.981563 342.324375 
L 249.981563 342.324375 
L 261.981563 342.324375 
" style="fill: none; stroke-dasharray: 3.7,1.6; stroke-dashoffset: 0; stroke: #000000"/>
   </g>
   <g id="text_64">
    <!-- Time of force application -->
    <g transform="translate(271.581563 346.524375) scale(0.12 -0.12)">
     <defs>
      <path id="DejaVuSans-54" d="M -19 4666 
L 3928 4666 
L 3928 4134 
L 2272 4134 
L 2272 0 
L 1638 0 
L 1638 4134 
L -19 4134 
L -19 4666 
z
" transform="scale(0.015625)"/>
      <path id="DejaVuSans-6f" d="M 1959 3097 
Q 1497 3097 1228 2736 
Q 959 2375 959 1747 
Q 959 1119 1226 758 
Q 1494 397 1959 397 
Q 2419 397 2687 759 
Q 2956 1122 2956 1747 
Q 2956 2369 2687 2733 
Q 2419 3097 1959 3097 
z
M 1959 3584 
Q 2709 3584 3137 3096 
Q 3566 2609 3566 1747 
Q 3566 888 3137 398 
Q 2709 -91 1959 -91 
Q 1206 -91 779 398 
Q 353 888 353 1747 
Q 353 2609 779 3096 
Q 1206 3584 1959 3584 
z
" transform="scale(0.015625)"/>
      <path id="DejaVuSans-66" d="M 2375 4863 
L 2375 4384 
L 1825 4384 
Q 1516 4384 1395 4259 
Q 1275 4134 1275 3809 
L 1275 3500 
L 2222 3500 
L 2222 3053 
L 1275 3053 
L 1275 0 
L 697 0 
L 697 3053 
L 147 3053 
L 147 3500 
L 697 3500 
L 697 3744 
Q 697 4328 969 4595 
Q 1241 4863 1831 4863 
L 2375 4863 
z
" transform="scale(0.015625)"/>
      <path id="DejaVuSans-72" d="M 2631 2963 
Q 2534 3019 2420 3045 
Q 2306 3072 2169 3072 
Q 1681 3072 1420 2755 
Q 1159 2438 1159 1844 
L 1159 0 
L 581 0 
L 581 3500 
L 1159 3500 
L 1159 2956 
Q 1341 3275 1631 3429 
Q 1922 3584 2338 3584 
Q 2397 3584 2469 3576 
Q 2541 3569 2628 3553 
L 2631 2963 
z
" transform="scale(0.015625)"/>
      <path id="DejaVuSans-63" d="M 3122 3366 
L 3122 2828 
Q 2878 2963 2633 3030 
Q 2388 3097 2138 3097 
Q 1578 3097 1268 2742 
Q 959 2388 959 1747 
Q 959 1106 1268 751 
Q 1578 397 2138 397 
Q 2388 397 2633 464 
Q 2878 531 3122 666 
L 3122 134 
Q 2881 22 2623 -34 
Q 2366 -91 2075 -91 
Q 1284 -91 818 406 
Q 353 903 353 1747 
Q 353 2603 823 3093 
Q 1294 3584 2113 3584 
Q 2378 3584 2631 3529 
Q 2884 3475 3122 3366 
z
" transform="scale(0.015625)"/>
      <path id="DejaVuSans-61" d="M 2194 1759 
Q 1497 1759 1228 1600 
Q 959 1441 959 1056 
Q 959 750 1161 570 
Q 1363 391 1709 391 
Q 2188 391 2477 730 
Q 2766 1069 2766 1631 
L 2766 1759 
L 2194 1759 
z
M 3341 1997 
L 3341 0 
L 2766 0 
L 2766 531 
Q 2569 213 2275 61 
Q 1981 -91 1556 -91 
Q 1019 -91 701 211 
Q 384 513 384 1019 
Q 384 1609 779 1909 
Q 1175 2209 1959 2209 
L 2766 2209 
L 2766 2266 
Q 2766 2663 2505 2880 
Q 2244 3097 1772 3097 
Q 1472 3097 1187 3025 
Q 903 2953 641 2809 
L 641 3341 
Q 956 3463 1253 3523 
Q 1550 3584 1831 3584 
Q 2591 3584 2966 3190 
Q 3341 2797 3341 1997 
z
" transform="scale(0.015625)"/>
      <path id="DejaVuSans-70" d="M 1159 525 
L 1159 -1331 
L 581 -1331 
L 581 3500 
L 1159 3500 
L 1159 2969 
Q 1341 3281 1617 3432 
Q 1894 3584 2278 3584 
Q 2916 3584 3314 3078 
Q 3713 2572 3713 1747 
Q 3713 922 3314 415 
Q 2916 -91 2278 -91 
Q 1894 -91 1617 61 
Q 1341 213 1159 525 
z
M 3116 1747 
Q 3116 2381 2855 2742 
Q 2594 3103 2138 3103 
Q 1681 3103 1420 2742 
Q 1159 2381 1159 1747 
Q 1159 1113 1420 752 
Q 1681 391 2138 391 
Q 2594 391 2855 752 
Q 3116 1113 3116 1747 
z
" transform="scale(0.015625)"/>
      <path id="DejaVuSans-6c" d="M 603 4863 
L 1178 4863 
L 1178 0 
L 603 0 
L 603 4863 
z
" transform="scale(0.015625)"/>
      <path id="DejaVuSans-6e" d="M 3513 2113 
L 3513 0 
L 2938 0 
L 2938 2094 
Q 2938 2591 2744 2837 
Q 2550 3084 2163 3084 
Q 1697 3084 1428 2787 
Q 1159 2491 1159 1978 
L 1159 0 
L 581 0 
L 581 3500 
L 1159 3500 
L 1159 2956 
Q 1366 3272 1645 3428 
Q 1925 3584 2291 3584 
Q 2894 3584 3203 3211 
Q 3513 2838 3513 2113 
z
" transform="scale(0.015625)"/>
     </defs>
     <use xlink:href="#DejaVuSans-54"/>
     <use xlink:href="#DejaVuSans-69" x="57.958984"/>
     <use xlink:href="#DejaVuSans-6d" x="85.742188"/>
     <use xlink:href="#DejaVuSans-65" x="183.154297"/>
     <use xlink:href="#DejaVuSans-20" x="244.677734"/>
     <use xlink:href="#DejaVuSans-6f" x="276.464844"/>
     <use xlink:href="#DejaVuSans-66" x="337.646484"/>
     <use xlink:href="#DejaVuSans-20" x="372.851562"/>
     <use xlink:href="#DejaVuSans-66" x="404.638672"/>
     <use xlink:href="#DejaVuSans-6f" x="439.84375"/>
     <use xlink:href="#DejaVuSans-72" x="501.025391"/>
     <use xlink:href="#DejaVuSans-63" x="539.888672"/>
     <use xlink:href="#DejaVuSans-65" x="594.869141"/>
     <use xlink:href="#DejaVuSans-20" x="656.392578"/>
     <use xlink:href="#DejaVuSans-61" x="688.179688"/>
     <use xlink:href="#DejaVuSans-70" x="749.458984"/>
     <use xlink:href="#DejaVuSans-70" x="812.935547"/>
     <use xlink:href="#DejaVuSans-6c" x="876.412109"/>
     <use xlink:href="#DejaVuSans-69" x="904.195312"/>
     <use xlink:href="#DejaVuSans-63" x="931.978516"/>
     <use xlink:href="#DejaVuSans-61" x="986.958984"/>
     <use xlink:href="#DejaVuSans-74" x="1048.238281"/>
     <use xlink:href="#DejaVuSans-69" x="1087.447266"/>
     <use xlink:href="#DejaVuSans-6f" x="1115.230469"/>
     <use xlink:href="#DejaVuSans-6e" x="1176.412109"/>
    </g>
   </g>
   <g id="line2d_122">
    <path d="M 444.357188 342.324375 
L 456.357188 342.324375 
L 468.357188 342.324375 
" style="fill: none; stroke: #e1b8a0; stroke-width: 1.5; stroke-linecap: square"/>
   </g>
   <g id="text_65">
    <!-- Demonstrated trajectory -->
    <g transform="translate(477.957188 346.524375) scale(0.12 -0.12)">
     <defs>
      <path id="DejaVuSans-44" d="M 1259 4147 
L 1259 519 
L 2022 519 
Q 2988 519 3436 956 
Q 3884 1394 3884 2338 
Q 3884 3275 3436 3711 
Q 2988 4147 2022 4147 
L 1259 4147 
z
M 628 4666 
L 1925 4666 
Q 3281 4666 3915 4102 
Q 4550 3538 4550 2338 
Q 4550 1131 3912 565 
Q 3275 0 1925 0 
L 628 0 
L 628 4666 
z
" transform="scale(0.015625)"/>
      <path id="DejaVuSans-64" d="M 2906 2969 
L 2906 4863 
L 3481 4863 
L 3481 0 
L 2906 0 
L 2906 525 
Q 2725 213 2448 61 
Q 2172 -91 1784 -91 
Q 1150 -91 751 415 
Q 353 922 353 1747 
Q 353 2572 751 3078 
Q 1150 3584 1784 3584 
Q 2172 3584 2448 3432 
Q 2725 3281 2906 2969 
z
M 947 1747 
Q 947 1113 1208 752 
Q 1469 391 1925 391 
Q 2381 391 2643 752 
Q 2906 1113 2906 1747 
Q 2906 2381 2643 2742 
Q 2381 3103 1925 3103 
Q 1469 3103 1208 2742 
Q 947 2381 947 1747 
z
" transform="scale(0.015625)"/>
      <path id="DejaVuSans-6a" d="M 603 3500 
L 1178 3500 
L 1178 -63 
Q 1178 -731 923 -1031 
Q 669 -1331 103 -1331 
L -116 -1331 
L -116 -844 
L 38 -844 
Q 366 -844 484 -692 
Q 603 -541 603 -63 
L 603 3500 
z
M 603 4863 
L 1178 4863 
L 1178 4134 
L 603 4134 
L 603 4863 
z
" transform="scale(0.015625)"/>
      <path id="DejaVuSans-79" d="M 2059 -325 
Q 1816 -950 1584 -1140 
Q 1353 -1331 966 -1331 
L 506 -1331 
L 506 -850 
L 844 -850 
Q 1081 -850 1212 -737 
Q 1344 -625 1503 -206 
L 1606 56 
L 191 3500 
L 800 3500 
L 1894 763 
L 2988 3500 
L 3597 3500 
L 2059 -325 
z
" transform="scale(0.015625)"/>
     </defs>
     <use xlink:href="#DejaVuSans-44"/>
     <use xlink:href="#DejaVuSans-65" x="77.001953"/>
     <use xlink:href="#DejaVuSans-6d" x="138.525391"/>
     <use xlink:href="#DejaVuSans-6f" x="235.9375"/>
     <use xlink:href="#DejaVuSans-6e" x="297.119141"/>
     <use xlink:href="#DejaVuSans-73" x="360.498047"/>
     <use xlink:href="#DejaVuSans-74" x="412.597656"/>
     <use xlink:href="#DejaVuSans-72" x="451.806641"/>
     <use xlink:href="#DejaVuSans-61" x="492.919922"/>
     <use xlink:href="#DejaVuSans-74" x="554.199219"/>
     <use xlink:href="#DejaVuSans-65" x="593.408203"/>
     <use xlink:href="#DejaVuSans-64" x="654.931641"/>
     <use xlink:href="#DejaVuSans-20" x="718.408203"/>
     <use xlink:href="#DejaVuSans-74" x="750.195312"/>
     <use xlink:href="#DejaVuSans-72" x="789.404297"/>
     <use xlink:href="#DejaVuSans-61" x="830.517578"/>
     <use xlink:href="#DejaVuSans-6a" x="891.796875"/>
     <use xlink:href="#DejaVuSans-65" x="919.580078"/>
     <use xlink:href="#DejaVuSans-63" x="981.103516"/>
     <use xlink:href="#DejaVuSans-74" x="1036.083984"/>
     <use xlink:href="#DejaVuSans-6f" x="1075.292969"/>
     <use xlink:href="#DejaVuSans-72" x="1136.474609"/>
     <use xlink:href="#DejaVuSans-79" x="1177.587891"/>
    </g>
   </g>
   <g id="line2d_123">
    <path d="M 650.369062 342.324375 
L 662.369062 342.324375 
L 674.369062 342.324375 
" style="fill: none; stroke: #116496; stroke-width: 1.5; stroke-linecap: square"/>
   </g>
   <g id="text_66">
    <!-- Evaluation -->
    <g transform="translate(683.969062 346.524375) scale(0.12 -0.12)">
     <defs>
      <path id="DejaVuSans-76" d="M 191 3500 
L 800 3500 
L 1894 563 
L 2988 3500 
L 3597 3500 
L 2284 0 
L 1503 0 
L 191 3500 
z
" transform="scale(0.015625)"/>
      <path id="DejaVuSans-75" d="M 544 1381 
L 544 3500 
L 1119 3500 
L 1119 1403 
Q 1119 906 1312 657 
Q 1506 409 1894 409 
Q 2359 409 2629 706 
Q 2900 1003 2900 1516 
L 2900 3500 
L 3475 3500 
L 3475 0 
L 2900 0 
L 2900 538 
Q 2691 219 2414 64 
Q 2138 -91 1772 -91 
Q 1169 -91 856 284 
Q 544 659 544 1381 
z
M 1991 3584 
L 1991 3584 
z
" transform="scale(0.015625)"/>
     </defs>
     <use xlink:href="#DejaVuSans-45"/>
     <use xlink:href="#DejaVuSans-76" x="63.183594"/>
     <use xlink:href="#DejaVuSans-61" x="122.363281"/>
     <use xlink:href="#DejaVuSans-6c" x="183.642578"/>
     <use xlink:href="#DejaVuSans-75" x="211.425781"/>
     <use xlink:href="#DejaVuSans-61" x="274.804688"/>
     <use xlink:href="#DejaVuSans-74" x="336.083984"/>
     <use xlink:href="#DejaVuSans-69" x="375.292969"/>
     <use xlink:href="#DejaVuSans-6f" x="403.076172"/>
     <use xlink:href="#DejaVuSans-6e" x="464.257812"/>
    </g>
   </g>
   <g id="PathCollection_7">
    <g>
     <use xlink:href="#ma39f35e5cf" x="783.285938" y="343.374375" style="fill: #008000; stroke: #008000; stroke-width: 1.5"/>
    </g>
   </g>
   <g id="text_67">
    <!-- Target -->
    <g transform="translate(804.885938 346.524375) scale(0.12 -0.12)">
     <defs>
      <path id="DejaVuSans-67" d="M 2906 1791 
Q 2906 2416 2648 2759 
Q 2391 3103 1925 3103 
Q 1463 3103 1205 2759 
Q 947 2416 947 1791 
Q 947 1169 1205 825 
Q 1463 481 1925 481 
Q 2391 481 2648 825 
Q 2906 1169 2906 1791 
z
M 3481 434 
Q 3481 -459 3084 -895 
Q 2688 -1331 1869 -1331 
Q 1566 -1331 1297 -1286 
Q 1028 -1241 775 -1147 
L 775 -588 
Q 1028 -725 1275 -790 
Q 1522 -856 1778 -856 
Q 2344 -856 2625 -561 
Q 2906 -266 2906 331 
L 2906 616 
Q 2728 306 2450 153 
Q 2172 0 1784 0 
Q 1141 0 747 490 
Q 353 981 353 1791 
Q 353 2603 747 3093 
Q 1141 3584 1784 3584 
Q 2172 3584 2450 3431 
Q 2728 3278 2906 2969 
L 2906 3500 
L 3481 3500 
L 3481 434 
z
" transform="scale(0.015625)"/>
     </defs>
     <use xlink:href="#DejaVuSans-54"/>
     <use xlink:href="#DejaVuSans-61" x="44.583984"/>
     <use xlink:href="#DejaVuSans-72" x="105.863281"/>
     <use xlink:href="#DejaVuSans-67" x="145.226562"/>
     <use xlink:href="#DejaVuSans-65" x="208.703125"/>
     <use xlink:href="#DejaVuSans-74" x="270.226562"/>
    </g>
   </g>
  </g>
 </g>
 <defs>
  <clipPath id="pfe3a44c18a">
   <rect x="50.92" y="38.48" width="319.053333" height="95.84"/>
  </clipPath>
  <clipPath id="p7a6b13ef6a">
   <rect x="403.933333" y="38.48" width="319.053333" height="95.84"/>
  </clipPath>
  <clipPath id="p9571293991">
   <rect x="756.946667" y="38.48" width="319.053333" height="95.84"/>
  </clipPath>
  <clipPath id="pcb2b322b6f">
   <rect x="50.92" y="196.24" width="319.053333" height="95.84"/>
  </clipPath>
  <clipPath id="pbf2953c108">
   <rect x="403.933333" y="196.24" width="319.053333" height="95.84"/>
  </clipPath>
  <clipPath id="p79adeee97c">
   <rect x="756.946667" y="196.24" width="319.053333" height="95.84"/>
  </clipPath>
 </defs>
</svg>
