<?xml version="1.0" encoding="utf-8" standalone="no"?>
<!DOCTYPE svg PUBLIC "-//W3C//DTD SVG 1.1//EN"
  "http://www.w3.org/Graphics/SVG/1.1/DTD/svg11.dtd">
<svg xmlns:xlink="http://www.w3.org/1999/xlink" width="1080pt" height="360pt" viewBox="0 0 1080 360" xmlns="http://www.w3.org/2000/svg" version="1.1">
 <metadata>
  <rdf:RDF xmlns:dc="http://purl.org/dc/elements/1.1/" xmlns:cc="http://creativecommons.org/ns#" xmlns:rdf="http://www.w3.org/1999/02/22-rdf-syntax-ns#">
   <cc:Work>
    <dc:type rdf:resource="http://purl.org/dc/dcmitype/StillImage"/>
    <dc:date>2023-01-19T23:50:49.075501</dc:date>
    <dc:format>image/svg+xml</dc:format>
    <dc:creator>
     <cc:Agent>
      <dc:title>Matplotlib v3.6.2, https://matplotlib.org/</dc:title>
     </cc:Agent>
    </dc:creator>
   </cc:Work>
  </rdf:RDF>
 </metadata>
 <defs>
  <style type="text/css">*{stroke-linejoin: round; stroke-linecap: butt}</style>
 </defs>
 <g id="figure_1">
  <g id="patch_1">
   <path d="M 0 360 
L 1080 360 
L 1080 0 
L 0 0 
z
" style="fill: #ffffff"/>
  </g>
  <g id="axes_1">
   <g id="patch_2">
    <path d="M 50.92 132.188869 
L 369.973333 132.188869 
L 369.973333 38.48 
L 50.92 38.48 
z
" style="fill: #ffffff"/>
   </g>
   <g id="matplotlib.axis_1">
    <g id="xtick_1">
     <g id="line2d_1">
      <path d="M 65.422424 132.188869 
L 65.422424 38.48 
" clip-path="url(#pcea75a4e11)" style="fill: none; stroke: #e6e6e6; stroke-linecap: square"/>
     </g>
     <g id="line2d_2">
      <defs>
       <path id="m900d4cdf1a" d="M 0 0 
L 0 3.5 
" style="stroke: #000000; stroke-width: 0.8"/>
      </defs>
      <g>
       <use xlink:href="#m900d4cdf1a" x="65.422424" y="132.188869" style="stroke: #000000; stroke-width: 0.8"/>
      </g>
     </g>
     <g id="text_1">
      <!-- 0 -->
      <g transform="translate(61.604924 148.306994) scale(0.12 -0.12)">
       <defs>
        <path id="DejaVuSans-30" d="M 2034 4250 
Q 1547 4250 1301 3770 
Q 1056 3291 1056 2328 
Q 1056 1369 1301 889 
Q 1547 409 2034 409 
Q 2525 409 2770 889 
Q 3016 1369 3016 2328 
Q 3016 3291 2770 3770 
Q 2525 4250 2034 4250 
z
M 2034 4750 
Q 2819 4750 3233 4129 
Q 3647 3509 3647 2328 
Q 3647 1150 3233 529 
Q 2819 -91 2034 -91 
Q 1250 -91 836 529 
Q 422 1150 422 2328 
Q 422 3509 836 4129 
Q 1250 4750 2034 4750 
z
" transform="scale(0.015625)"/>
       </defs>
       <use xlink:href="#DejaVuSans-30"/>
      </g>
     </g>
    </g>
    <g id="xtick_2">
     <g id="line2d_3">
      <path d="M 123.490189 132.188869 
L 123.490189 38.48 
" clip-path="url(#pcea75a4e11)" style="fill: none; stroke: #e6e6e6; stroke-linecap: square"/>
     </g>
     <g id="line2d_4">
      <g>
       <use xlink:href="#m900d4cdf1a" x="123.490189" y="132.188869" style="stroke: #000000; stroke-width: 0.8"/>
      </g>
     </g>
     <g id="text_2">
      <!-- 2 -->
      <g transform="translate(119.672689 148.306994) scale(0.12 -0.12)">
       <defs>
        <path id="DejaVuSans-32" d="M 1228 531 
L 3431 531 
L 3431 0 
L 469 0 
L 469 531 
Q 828 903 1448 1529 
Q 2069 2156 2228 2338 
Q 2531 2678 2651 2914 
Q 2772 3150 2772 3378 
Q 2772 3750 2511 3984 
Q 2250 4219 1831 4219 
Q 1534 4219 1204 4116 
Q 875 4013 500 3803 
L 500 4441 
Q 881 4594 1212 4672 
Q 1544 4750 1819 4750 
Q 2544 4750 2975 4387 
Q 3406 4025 3406 3419 
Q 3406 3131 3298 2873 
Q 3191 2616 2906 2266 
Q 2828 2175 2409 1742 
Q 1991 1309 1228 531 
z
" transform="scale(0.015625)"/>
       </defs>
       <use xlink:href="#DejaVuSans-32"/>
      </g>
     </g>
    </g>
    <g id="xtick_3">
     <g id="line2d_5">
      <path d="M 181.557954 132.188869 
L 181.557954 38.48 
" clip-path="url(#pcea75a4e11)" style="fill: none; stroke: #e6e6e6; stroke-linecap: square"/>
     </g>
     <g id="line2d_6">
      <g>
       <use xlink:href="#m900d4cdf1a" x="181.557954" y="132.188869" style="stroke: #000000; stroke-width: 0.8"/>
      </g>
     </g>
     <g id="text_3">
      <!-- 4 -->
      <g transform="translate(177.740454 148.306994) scale(0.12 -0.12)">
       <defs>
        <path id="DejaVuSans-34" d="M 2419 4116 
L 825 1625 
L 2419 1625 
L 2419 4116 
z
M 2253 4666 
L 3047 4666 
L 3047 1625 
L 3713 1625 
L 3713 1100 
L 3047 1100 
L 3047 0 
L 2419 0 
L 2419 1100 
L 313 1100 
L 313 1709 
L 2253 4666 
z
" transform="scale(0.015625)"/>
       </defs>
       <use xlink:href="#DejaVuSans-34"/>
      </g>
     </g>
    </g>
    <g id="xtick_4">
     <g id="line2d_7">
      <path d="M 239.625718 132.188869 
L 239.625718 38.48 
" clip-path="url(#pcea75a4e11)" style="fill: none; stroke: #e6e6e6; stroke-linecap: square"/>
     </g>
     <g id="line2d_8">
      <g>
       <use xlink:href="#m900d4cdf1a" x="239.625718" y="132.188869" style="stroke: #000000; stroke-width: 0.8"/>
      </g>
     </g>
     <g id="text_4">
      <!-- 6 -->
      <g transform="translate(235.808218 148.306994) scale(0.12 -0.12)">
       <defs>
        <path id="DejaVuSans-36" d="M 2113 2584 
Q 1688 2584 1439 2293 
Q 1191 2003 1191 1497 
Q 1191 994 1439 701 
Q 1688 409 2113 409 
Q 2538 409 2786 701 
Q 3034 994 3034 1497 
Q 3034 2003 2786 2293 
Q 2538 2584 2113 2584 
z
M 3366 4563 
L 3366 3988 
Q 3128 4100 2886 4159 
Q 2644 4219 2406 4219 
Q 1781 4219 1451 3797 
Q 1122 3375 1075 2522 
Q 1259 2794 1537 2939 
Q 1816 3084 2150 3084 
Q 2853 3084 3261 2657 
Q 3669 2231 3669 1497 
Q 3669 778 3244 343 
Q 2819 -91 2113 -91 
Q 1303 -91 875 529 
Q 447 1150 447 2328 
Q 447 3434 972 4092 
Q 1497 4750 2381 4750 
Q 2619 4750 2861 4703 
Q 3103 4656 3366 4563 
z
" transform="scale(0.015625)"/>
       </defs>
       <use xlink:href="#DejaVuSans-36"/>
      </g>
     </g>
    </g>
    <g id="xtick_5">
     <g id="line2d_9">
      <path d="M 297.693483 132.188869 
L 297.693483 38.48 
" clip-path="url(#pcea75a4e11)" style="fill: none; stroke: #e6e6e6; stroke-linecap: square"/>
     </g>
     <g id="line2d_10">
      <g>
       <use xlink:href="#m900d4cdf1a" x="297.693483" y="132.188869" style="stroke: #000000; stroke-width: 0.8"/>
      </g>
     </g>
     <g id="text_5">
      <!-- 8 -->
      <g transform="translate(293.875983 148.306994) scale(0.12 -0.12)">
       <defs>
        <path id="DejaVuSans-38" d="M 2034 2216 
Q 1584 2216 1326 1975 
Q 1069 1734 1069 1313 
Q 1069 891 1326 650 
Q 1584 409 2034 409 
Q 2484 409 2743 651 
Q 3003 894 3003 1313 
Q 3003 1734 2745 1975 
Q 2488 2216 2034 2216 
z
M 1403 2484 
Q 997 2584 770 2862 
Q 544 3141 544 3541 
Q 544 4100 942 4425 
Q 1341 4750 2034 4750 
Q 2731 4750 3128 4425 
Q 3525 4100 3525 3541 
Q 3525 3141 3298 2862 
Q 3072 2584 2669 2484 
Q 3125 2378 3379 2068 
Q 3634 1759 3634 1313 
Q 3634 634 3220 271 
Q 2806 -91 2034 -91 
Q 1263 -91 848 271 
Q 434 634 434 1313 
Q 434 1759 690 2068 
Q 947 2378 1403 2484 
z
M 1172 3481 
Q 1172 3119 1398 2916 
Q 1625 2713 2034 2713 
Q 2441 2713 2670 2916 
Q 2900 3119 2900 3481 
Q 2900 3844 2670 4047 
Q 2441 4250 2034 4250 
Q 1625 4250 1398 4047 
Q 1172 3844 1172 3481 
z
" transform="scale(0.015625)"/>
       </defs>
       <use xlink:href="#DejaVuSans-38"/>
      </g>
     </g>
    </g>
    <g id="xtick_6">
     <g id="line2d_11">
      <path d="M 355.761248 132.188869 
L 355.761248 38.48 
" clip-path="url(#pcea75a4e11)" style="fill: none; stroke: #e6e6e6; stroke-linecap: square"/>
     </g>
     <g id="line2d_12">
      <g>
       <use xlink:href="#m900d4cdf1a" x="355.761248" y="132.188869" style="stroke: #000000; stroke-width: 0.8"/>
      </g>
     </g>
     <g id="text_6">
      <!-- 10 -->
      <g transform="translate(348.126248 148.306994) scale(0.12 -0.12)">
       <defs>
        <path id="DejaVuSans-31" d="M 794 531 
L 1825 531 
L 1825 4091 
L 703 3866 
L 703 4441 
L 1819 4666 
L 2450 4666 
L 2450 531 
L 3481 531 
L 3481 0 
L 794 0 
L 794 531 
z
" transform="scale(0.015625)"/>
       </defs>
       <use xlink:href="#DejaVuSans-31"/>
       <use xlink:href="#DejaVuSans-30" x="63.623047"/>
      </g>
     </g>
    </g>
    <g id="text_7">
     <!-- time (s) -->
     <g transform="translate(187.176979 163.920744) scale(0.12 -0.12)">
      <defs>
       <path id="DejaVuSans-74" d="M 1172 4494 
L 1172 3500 
L 2356 3500 
L 2356 3053 
L 1172 3053 
L 1172 1153 
Q 1172 725 1289 603 
Q 1406 481 1766 481 
L 2356 481 
L 2356 0 
L 1766 0 
Q 1100 0 847 248 
Q 594 497 594 1153 
L 594 3053 
L 172 3053 
L 172 3500 
L 594 3500 
L 594 4494 
L 1172 4494 
z
" transform="scale(0.015625)"/>
       <path id="DejaVuSans-69" d="M 603 3500 
L 1178 3500 
L 1178 0 
L 603 0 
L 603 3500 
z
M 603 4863 
L 1178 4863 
L 1178 4134 
L 603 4134 
L 603 4863 
z
" transform="scale(0.015625)"/>
       <path id="DejaVuSans-6d" d="M 3328 2828 
Q 3544 3216 3844 3400 
Q 4144 3584 4550 3584 
Q 5097 3584 5394 3201 
Q 5691 2819 5691 2113 
L 5691 0 
L 5113 0 
L 5113 2094 
Q 5113 2597 4934 2840 
Q 4756 3084 4391 3084 
Q 3944 3084 3684 2787 
Q 3425 2491 3425 1978 
L 3425 0 
L 2847 0 
L 2847 2094 
Q 2847 2600 2669 2842 
Q 2491 3084 2119 3084 
Q 1678 3084 1418 2786 
Q 1159 2488 1159 1978 
L 1159 0 
L 581 0 
L 581 3500 
L 1159 3500 
L 1159 2956 
Q 1356 3278 1631 3431 
Q 1906 3584 2284 3584 
Q 2666 3584 2933 3390 
Q 3200 3197 3328 2828 
z
" transform="scale(0.015625)"/>
       <path id="DejaVuSans-65" d="M 3597 1894 
L 3597 1613 
L 953 1613 
Q 991 1019 1311 708 
Q 1631 397 2203 397 
Q 2534 397 2845 478 
Q 3156 559 3463 722 
L 3463 178 
Q 3153 47 2828 -22 
Q 2503 -91 2169 -91 
Q 1331 -91 842 396 
Q 353 884 353 1716 
Q 353 2575 817 3079 
Q 1281 3584 2069 3584 
Q 2775 3584 3186 3129 
Q 3597 2675 3597 1894 
z
M 3022 2063 
Q 3016 2534 2758 2815 
Q 2500 3097 2075 3097 
Q 1594 3097 1305 2825 
Q 1016 2553 972 2059 
L 3022 2063 
z
" transform="scale(0.015625)"/>
       <path id="DejaVuSans-20" transform="scale(0.015625)"/>
       <path id="DejaVuSans-28" d="M 1984 4856 
Q 1566 4138 1362 3434 
Q 1159 2731 1159 2009 
Q 1159 1288 1364 580 
Q 1569 -128 1984 -844 
L 1484 -844 
Q 1016 -109 783 600 
Q 550 1309 550 2009 
Q 550 2706 781 3412 
Q 1013 4119 1484 4856 
L 1984 4856 
z
" transform="scale(0.015625)"/>
       <path id="DejaVuSans-73" d="M 2834 3397 
L 2834 2853 
Q 2591 2978 2328 3040 
Q 2066 3103 1784 3103 
Q 1356 3103 1142 2972 
Q 928 2841 928 2578 
Q 928 2378 1081 2264 
Q 1234 2150 1697 2047 
L 1894 2003 
Q 2506 1872 2764 1633 
Q 3022 1394 3022 966 
Q 3022 478 2636 193 
Q 2250 -91 1575 -91 
Q 1294 -91 989 -36 
Q 684 19 347 128 
L 347 722 
Q 666 556 975 473 
Q 1284 391 1588 391 
Q 1994 391 2212 530 
Q 2431 669 2431 922 
Q 2431 1156 2273 1281 
Q 2116 1406 1581 1522 
L 1381 1569 
Q 847 1681 609 1914 
Q 372 2147 372 2553 
Q 372 3047 722 3315 
Q 1072 3584 1716 3584 
Q 2034 3584 2315 3537 
Q 2597 3491 2834 3397 
z
" transform="scale(0.015625)"/>
       <path id="DejaVuSans-29" d="M 513 4856 
L 1013 4856 
Q 1481 4119 1714 3412 
Q 1947 2706 1947 2009 
Q 1947 1309 1714 600 
Q 1481 -109 1013 -844 
L 513 -844 
Q 928 -128 1133 580 
Q 1338 1288 1338 2009 
Q 1338 2731 1133 3434 
Q 928 4138 513 4856 
z
" transform="scale(0.015625)"/>
      </defs>
      <use xlink:href="#DejaVuSans-74"/>
      <use xlink:href="#DejaVuSans-69" x="39.208984"/>
      <use xlink:href="#DejaVuSans-6d" x="66.992188"/>
      <use xlink:href="#DejaVuSans-65" x="164.404297"/>
      <use xlink:href="#DejaVuSans-20" x="225.927734"/>
      <use xlink:href="#DejaVuSans-28" x="257.714844"/>
      <use xlink:href="#DejaVuSans-73" x="296.728516"/>
      <use xlink:href="#DejaVuSans-29" x="348.828125"/>
     </g>
    </g>
   </g>
   <g id="matplotlib.axis_2">
    <g id="ytick_1">
     <g id="line2d_13">
      <path d="M 50.92 117.048989 
L 369.973333 117.048989 
" clip-path="url(#pcea75a4e11)" style="fill: none; stroke: #e6e6e6; stroke-linecap: square"/>
     </g>
     <g id="line2d_14"/>
     <g id="text_8">
      <!-- 0.4 -->
      <g transform="translate(28.33625 121.608051) scale(0.12 -0.12)">
       <defs>
        <path id="DejaVuSans-2e" d="M 684 794 
L 1344 794 
L 1344 0 
L 684 0 
L 684 794 
z
" transform="scale(0.015625)"/>
       </defs>
       <use xlink:href="#DejaVuSans-30"/>
       <use xlink:href="#DejaVuSans-2e" x="63.623047"/>
       <use xlink:href="#DejaVuSans-34" x="95.410156"/>
      </g>
     </g>
    </g>
    <g id="ytick_2">
     <g id="line2d_15">
      <path d="M 50.92 69.798668 
L 369.973333 69.798668 
" clip-path="url(#pcea75a4e11)" style="fill: none; stroke: #e6e6e6; stroke-linecap: square"/>
     </g>
     <g id="line2d_16"/>
     <g id="text_9">
      <!-- 0.5 -->
      <g transform="translate(28.33625 74.35773) scale(0.12 -0.12)">
       <defs>
        <path id="DejaVuSans-35" d="M 691 4666 
L 3169 4666 
L 3169 4134 
L 1269 4134 
L 1269 2991 
Q 1406 3038 1543 3061 
Q 1681 3084 1819 3084 
Q 2600 3084 3056 2656 
Q 3513 2228 3513 1497 
Q 3513 744 3044 326 
Q 2575 -91 1722 -91 
Q 1428 -91 1123 -41 
Q 819 9 494 109 
L 494 744 
Q 775 591 1075 516 
Q 1375 441 1709 441 
Q 2250 441 2565 725 
Q 2881 1009 2881 1497 
Q 2881 1984 2565 2268 
Q 2250 2553 1709 2553 
Q 1456 2553 1204 2497 
Q 953 2441 691 2322 
L 691 4666 
z
" transform="scale(0.015625)"/>
       </defs>
       <use xlink:href="#DejaVuSans-30"/>
       <use xlink:href="#DejaVuSans-2e" x="63.623047"/>
       <use xlink:href="#DejaVuSans-35" x="95.410156"/>
      </g>
     </g>
    </g>
    <g id="text_10">
     <!-- EEF -->
     <g transform="translate(21.840625 96.367872) rotate(-90) scale(0.12 -0.12)">
      <defs>
       <path id="DejaVuSans-45" d="M 628 4666 
L 3578 4666 
L 3578 4134 
L 1259 4134 
L 1259 2753 
L 3481 2753 
L 3481 2222 
L 1259 2222 
L 1259 531 
L 3634 531 
L 3634 0 
L 628 0 
L 628 4666 
z
" transform="scale(0.015625)"/>
       <path id="DejaVuSans-46" d="M 628 4666 
L 3309 4666 
L 3309 4134 
L 1259 4134 
L 1259 2759 
L 3109 2759 
L 3109 2228 
L 1259 2228 
L 1259 0 
L 628 0 
L 628 4666 
z
" transform="scale(0.015625)"/>
      </defs>
      <use xlink:href="#DejaVuSans-45"/>
      <use xlink:href="#DejaVuSans-45" x="63.183594"/>
      <use xlink:href="#DejaVuSans-46" x="126.367188"/>
     </g>
    </g>
   </g>
   <g id="PathCollection_1">
    <defs>
     <path id="mbadb270ee8" d="M -3 3 
L 3 -3 
M -3 -3 
L 3 3 
" style="stroke: #008000; stroke-width: 1.5"/>
    </defs>
    <g clip-path="url(#pcea75a4e11)">
     <use xlink:href="#mbadb270ee8" x="355.470909" y="116.810999" style="fill: #008000; stroke: #008000; stroke-width: 1.5"/>
    </g>
   </g>
   <g id="line2d_17">
    <path d="M 65.422424 44.047464 
L 66.003102 43.971892 
L 67.454796 43.702132 
L 68.90649 43.667717 
L 70.358184 43.873071 
L 71.809878 44.318839 
L 73.261572 45.003415 
L 74.713267 45.92328 
L 76.4553 47.330141 
L 78.197332 49.055816 
L 79.939365 51.08469 
L 81.971737 53.809759 
L 84.294448 57.353312 
L 86.907497 61.815326 
L 89.810885 67.251303 
L 93.58529 74.840805 
L 104.618165 97.38282 
L 107.521554 102.665919 
L 110.134603 106.965706 
L 112.457314 110.353854 
L 114.489685 112.939722 
L 116.522057 115.139529 
L 118.26409 116.697749 
L 120.006123 117.939301 
L 121.457817 118.724166 
L 122.909511 119.276945 
L 124.361205 119.594506 
L 125.8129 119.675263 
L 127.264594 119.519208 
L 128.716288 119.127922 
L 130.167982 118.504572 
L 131.619676 117.653893 
L 133.361709 116.341926 
L 135.103742 114.72531 
L 136.845775 112.820525 
L 138.878147 110.259704 
L 141.200857 106.92907 
L 143.813907 102.735908 
L 146.717295 97.627524 
L 150.4917 90.487298 
L 163.266608 65.861116 
L 166.169996 60.935014 
L 168.783045 56.924863 
L 171.105756 53.761389 
L 173.138128 51.344125 
L 175.1705 49.286546 
L 176.912533 47.830351 
L 178.654565 46.674421 
L 180.10626 45.950272 
L 181.557954 45.45054 
L 183.009648 45.18052 
L 184.461342 45.144172 
L 185.913036 45.344032 
L 187.36473 45.781134 
L 188.816424 46.454952 
L 190.268118 47.363348 
L 191.719813 48.502554 
L 193.461845 50.166539 
L 195.203878 52.142586 
L 197.23625 54.82126 
L 199.268622 57.872889 
L 201.591333 61.771185 
L 204.204382 66.607129 
L 207.398109 73.027457 
L 211.753191 82.350595 
L 219.59234 99.215326 
L 222.786067 105.542397 
L 225.399116 110.28066 
L 227.431488 113.560402 
L 229.173521 115.99584 
L 230.915554 118.084283 
L 232.657587 119.830802 
L 234.39962 121.245145 
L 236.141653 122.341363 
L 237.883686 123.137399 
L 239.625718 123.654625 
L 241.367751 123.917344 
L 243.109784 123.952276 
L 245.142156 123.743369 
L 247.174528 123.311065 
L 249.787577 122.50594 
L 253.271643 121.164379 
L 259.949436 118.530327 
L 262.852824 117.648438 
L 265.465874 117.100806 
L 267.788584 116.847898 
L 270.401634 116.810999 
L 355.470909 116.810999 
L 355.470909 116.810999 
" clip-path="url(#pcea75a4e11)" style="fill: none; stroke: #e1b8a0; stroke-width: 1.5; stroke-linecap: square"/>
   </g>
   <g id="line2d_18">
    <path d="M 65.422424 44.047464 
L 66.003102 43.942383 
L 68.035474 43.283548 
L 70.067845 42.874515 
L 71.809878 42.740371 
L 73.551911 42.832922 
L 75.293944 43.163086 
L 77.035977 43.729909 
L 78.77801 44.53536 
L 80.520043 45.58285 
L 82.262076 46.872178 
L 84.294448 48.679693 
L 86.32682 50.809241 
L 88.359191 53.253885 
L 90.681902 56.421798 
L 93.004612 59.969914 
L 95.617662 64.368287 
L 98.811389 70.229012 
L 102.876132 78.198211 
L 111.295958 94.924153 
L 115.360702 102.444132 
L 118.844768 108.411637 
L 121.748156 112.96989 
L 124.361205 116.703365 
L 126.683916 119.689242 
L 128.716288 121.956385 
L 130.74866 123.878127 
L 132.490693 125.241592 
L 134.232725 126.333286 
L 135.974758 127.14603 
L 137.426453 127.606554 
L 138.878147 127.868151 
L 140.329841 127.922332 
L 141.781535 127.7542 
L 143.233229 127.369403 
L 144.975262 126.645131 
L 146.717295 125.685133 
L 148.749667 124.309499 
L 151.072377 122.472204 
L 153.395088 120.364992 
L 156.008137 117.693993 
L 158.911525 114.414842 
L 162.105253 110.443285 
L 165.29898 106.09851 
L 168.783045 100.948483 
L 172.55745 94.933949 
L 183.880664 76.577074 
L 189.106763 68.850222 
L 192.881168 63.602629 
L 195.784556 59.961703 
L 198.397605 57.046707 
L 200.720316 54.777194 
L 203.043027 52.838539 
L 205.075398 51.43386 
L 207.10777 50.320331 
L 208.849803 49.626148 
L 210.591836 49.181426 
L 212.333869 48.980272 
L 214.075902 49.018627 
L 215.817935 49.306595 
L 217.559968 49.843968 
L 219.302001 50.627717 
L 221.044034 51.654175 
L 222.786067 52.922686 
L 224.5281 54.441595 
L 226.560471 56.515292 
L 228.592843 58.892712 
L 230.915554 61.952506 
L 233.528603 65.790093 
L 236.431991 70.468043 
L 239.916057 76.529113 
L 244.561478 85.106059 
L 253.852321 102.416732 
L 257.046048 107.807946 
L 259.368758 111.364535 
L 261.691469 114.528135 
L 264.01418 117.293221 
L 266.046551 119.386226 
L 268.078923 121.178681 
L 270.111295 122.676969 
L 272.143667 123.882501 
L 274.176038 124.807594 
L 276.20841 125.475946 
L 278.531121 125.974671 
L 280.853831 126.244774 
L 283.176542 126.304215 
L 285.789591 126.141847 
L 288.69298 125.712183 
L 291.596368 125.063428 
L 294.790095 124.132388 
L 301.467888 122.059375 
L 305.82297 121.038843 
L 311.049069 120.050475 
L 317.726862 119.032148 
L 326.146688 117.986256 
L 336.018208 116.988804 
L 349.373794 115.878214 
L 355.470909 115.429107 
L 355.470909 115.429107 
" clip-path="url(#pcea75a4e11)" style="fill: none; stroke: #116496; stroke-width: 1.5; stroke-linecap: square"/>
   </g>
   <g id="patch_3">
    <path d="M 50.92 132.188869 
L 369.973333 132.188869 
" style="fill: none; stroke: #000000; stroke-width: 0.8; stroke-linejoin: miter; stroke-linecap: square"/>
   </g>
   <g id="text_11">
    <!-- x-axis -->
    <g transform="translate(190.539792 32.48) scale(0.12 -0.12)">
     <defs>
      <path id="DejaVuSans-Bold-78" d="M 1422 1791 
L 159 3500 
L 1344 3500 
L 2059 2463 
L 2784 3500 
L 3969 3500 
L 2706 1797 
L 4031 0 
L 2847 0 
L 2059 1106 
L 1281 0 
L 97 0 
L 1422 1791 
z
" transform="scale(0.015625)"/>
      <path id="DejaVuSans-Bold-2d" d="M 347 2297 
L 2309 2297 
L 2309 1388 
L 347 1388 
L 347 2297 
z
" transform="scale(0.015625)"/>
      <path id="DejaVuSans-Bold-61" d="M 2106 1575 
Q 1756 1575 1579 1456 
Q 1403 1338 1403 1106 
Q 1403 894 1545 773 
Q 1688 653 1941 653 
Q 2256 653 2472 879 
Q 2688 1106 2688 1447 
L 2688 1575 
L 2106 1575 
z
M 3816 1997 
L 3816 0 
L 2688 0 
L 2688 519 
Q 2463 200 2181 54 
Q 1900 -91 1497 -91 
Q 953 -91 614 226 
Q 275 544 275 1050 
Q 275 1666 698 1953 
Q 1122 2241 2028 2241 
L 2688 2241 
L 2688 2328 
Q 2688 2594 2478 2717 
Q 2269 2841 1825 2841 
Q 1466 2841 1156 2769 
Q 847 2697 581 2553 
L 581 3406 
Q 941 3494 1303 3539 
Q 1666 3584 2028 3584 
Q 2975 3584 3395 3211 
Q 3816 2838 3816 1997 
z
" transform="scale(0.015625)"/>
      <path id="DejaVuSans-Bold-69" d="M 538 3500 
L 1656 3500 
L 1656 0 
L 538 0 
L 538 3500 
z
M 538 4863 
L 1656 4863 
L 1656 3950 
L 538 3950 
L 538 4863 
z
" transform="scale(0.015625)"/>
      <path id="DejaVuSans-Bold-73" d="M 3272 3391 
L 3272 2541 
Q 2913 2691 2578 2766 
Q 2244 2841 1947 2841 
Q 1628 2841 1473 2761 
Q 1319 2681 1319 2516 
Q 1319 2381 1436 2309 
Q 1553 2238 1856 2203 
L 2053 2175 
Q 2913 2066 3209 1816 
Q 3506 1566 3506 1031 
Q 3506 472 3093 190 
Q 2681 -91 1863 -91 
Q 1516 -91 1145 -36 
Q 775 19 384 128 
L 384 978 
Q 719 816 1070 734 
Q 1422 653 1784 653 
Q 2113 653 2278 743 
Q 2444 834 2444 1013 
Q 2444 1163 2330 1236 
Q 2216 1309 1875 1350 
L 1678 1375 
Q 931 1469 631 1722 
Q 331 1975 331 2491 
Q 331 3047 712 3315 
Q 1094 3584 1881 3584 
Q 2191 3584 2531 3537 
Q 2872 3491 3272 3391 
z
" transform="scale(0.015625)"/>
     </defs>
     <use xlink:href="#DejaVuSans-Bold-78"/>
     <use xlink:href="#DejaVuSans-Bold-2d" x="64.501953"/>
     <use xlink:href="#DejaVuSans-Bold-61" x="106.005859"/>
     <use xlink:href="#DejaVuSans-Bold-78" x="173.486328"/>
     <use xlink:href="#DejaVuSans-Bold-69" x="237.988281"/>
     <use xlink:href="#DejaVuSans-Bold-73" x="272.265625"/>
    </g>
   </g>
  </g>
  <g id="axes_2">
   <g id="patch_4">
    <path d="M 403.933333 132.188869 
L 722.986667 132.188869 
L 722.986667 38.48 
L 403.933333 38.48 
z
" style="fill: #ffffff"/>
   </g>
   <g id="matplotlib.axis_3">
    <g id="xtick_7">
     <g id="line2d_19">
      <path d="M 418.435758 132.188869 
L 418.435758 38.48 
" clip-path="url(#p5f7a24ed13)" style="fill: none; stroke: #e6e6e6; stroke-linecap: square"/>
     </g>
     <g id="line2d_20">
      <g>
       <use xlink:href="#m900d4cdf1a" x="418.435758" y="132.188869" style="stroke: #000000; stroke-width: 0.8"/>
      </g>
     </g>
     <g id="text_12">
      <!-- 0 -->
      <g transform="translate(414.618258 148.306994) scale(0.12 -0.12)">
       <use xlink:href="#DejaVuSans-30"/>
      </g>
     </g>
    </g>
    <g id="xtick_8">
     <g id="line2d_21">
      <path d="M 476.503522 132.188869 
L 476.503522 38.48 
" clip-path="url(#p5f7a24ed13)" style="fill: none; stroke: #e6e6e6; stroke-linecap: square"/>
     </g>
     <g id="line2d_22">
      <g>
       <use xlink:href="#m900d4cdf1a" x="476.503522" y="132.188869" style="stroke: #000000; stroke-width: 0.8"/>
      </g>
     </g>
     <g id="text_13">
      <!-- 2 -->
      <g transform="translate(472.686022 148.306994) scale(0.12 -0.12)">
       <use xlink:href="#DejaVuSans-32"/>
      </g>
     </g>
    </g>
    <g id="xtick_9">
     <g id="line2d_23">
      <path d="M 534.571287 132.188869 
L 534.571287 38.48 
" clip-path="url(#p5f7a24ed13)" style="fill: none; stroke: #e6e6e6; stroke-linecap: square"/>
     </g>
     <g id="line2d_24">
      <g>
       <use xlink:href="#m900d4cdf1a" x="534.571287" y="132.188869" style="stroke: #000000; stroke-width: 0.8"/>
      </g>
     </g>
     <g id="text_14">
      <!-- 4 -->
      <g transform="translate(530.753787 148.306994) scale(0.12 -0.12)">
       <use xlink:href="#DejaVuSans-34"/>
      </g>
     </g>
    </g>
    <g id="xtick_10">
     <g id="line2d_25">
      <path d="M 592.639052 132.188869 
L 592.639052 38.48 
" clip-path="url(#p5f7a24ed13)" style="fill: none; stroke: #e6e6e6; stroke-linecap: square"/>
     </g>
     <g id="line2d_26">
      <g>
       <use xlink:href="#m900d4cdf1a" x="592.639052" y="132.188869" style="stroke: #000000; stroke-width: 0.8"/>
      </g>
     </g>
     <g id="text_15">
      <!-- 6 -->
      <g transform="translate(588.821552 148.306994) scale(0.12 -0.12)">
       <use xlink:href="#DejaVuSans-36"/>
      </g>
     </g>
    </g>
    <g id="xtick_11">
     <g id="line2d_27">
      <path d="M 650.706817 132.188869 
L 650.706817 38.48 
" clip-path="url(#p5f7a24ed13)" style="fill: none; stroke: #e6e6e6; stroke-linecap: square"/>
     </g>
     <g id="line2d_28">
      <g>
       <use xlink:href="#m900d4cdf1a" x="650.706817" y="132.188869" style="stroke: #000000; stroke-width: 0.8"/>
      </g>
     </g>
     <g id="text_16">
      <!-- 8 -->
      <g transform="translate(646.889317 148.306994) scale(0.12 -0.12)">
       <use xlink:href="#DejaVuSans-38"/>
      </g>
     </g>
    </g>
    <g id="xtick_12">
     <g id="line2d_29">
      <path d="M 708.774581 132.188869 
L 708.774581 38.48 
" clip-path="url(#p5f7a24ed13)" style="fill: none; stroke: #e6e6e6; stroke-linecap: square"/>
     </g>
     <g id="line2d_30">
      <g>
       <use xlink:href="#m900d4cdf1a" x="708.774581" y="132.188869" style="stroke: #000000; stroke-width: 0.8"/>
      </g>
     </g>
     <g id="text_17">
      <!-- 10 -->
      <g transform="translate(701.139581 148.306994) scale(0.12 -0.12)">
       <use xlink:href="#DejaVuSans-31"/>
       <use xlink:href="#DejaVuSans-30" x="63.623047"/>
      </g>
     </g>
    </g>
    <g id="text_18">
     <!-- time (s) -->
     <g transform="translate(540.190313 163.920744) scale(0.12 -0.12)">
      <use xlink:href="#DejaVuSans-74"/>
      <use xlink:href="#DejaVuSans-69" x="39.208984"/>
      <use xlink:href="#DejaVuSans-6d" x="66.992188"/>
      <use xlink:href="#DejaVuSans-65" x="164.404297"/>
      <use xlink:href="#DejaVuSans-20" x="225.927734"/>
      <use xlink:href="#DejaVuSans-28" x="257.714844"/>
      <use xlink:href="#DejaVuSans-73" x="296.728516"/>
      <use xlink:href="#DejaVuSans-29" x="348.828125"/>
     </g>
    </g>
   </g>
   <g id="matplotlib.axis_4">
    <g id="ytick_3">
     <g id="line2d_31">
      <path d="M 403.933333 127.929375 
L 722.986667 127.929375 
" clip-path="url(#p5f7a24ed13)" style="fill: none; stroke: #e6e6e6; stroke-linecap: square"/>
     </g>
     <g id="line2d_32"/>
     <g id="text_19">
      <!-- 0.0 -->
      <g transform="translate(381.349583 132.488437) scale(0.12 -0.12)">
       <use xlink:href="#DejaVuSans-30"/>
       <use xlink:href="#DejaVuSans-2e" x="63.623047"/>
       <use xlink:href="#DejaVuSans-30" x="95.410156"/>
      </g>
     </g>
    </g>
    <g id="ytick_4">
     <g id="line2d_33">
      <path d="M 403.933333 88.262092 
L 722.986667 88.262092 
" clip-path="url(#p5f7a24ed13)" style="fill: none; stroke: #e6e6e6; stroke-linecap: square"/>
     </g>
     <g id="line2d_34"/>
     <g id="text_20">
      <!-- 0.2 -->
      <g transform="translate(381.349583 92.821155) scale(0.12 -0.12)">
       <use xlink:href="#DejaVuSans-30"/>
       <use xlink:href="#DejaVuSans-2e" x="63.623047"/>
       <use xlink:href="#DejaVuSans-32" x="95.410156"/>
      </g>
     </g>
    </g>
    <g id="ytick_5">
     <g id="line2d_35">
      <path d="M 403.933333 48.59481 
L 722.986667 48.59481 
" clip-path="url(#p5f7a24ed13)" style="fill: none; stroke: #e6e6e6; stroke-linecap: square"/>
     </g>
     <g id="line2d_36"/>
     <g id="text_21">
      <!-- 0.4 -->
      <g transform="translate(381.349583 53.153872) scale(0.12 -0.12)">
       <use xlink:href="#DejaVuSans-30"/>
       <use xlink:href="#DejaVuSans-2e" x="63.623047"/>
       <use xlink:href="#DejaVuSans-34" x="95.410156"/>
      </g>
     </g>
    </g>
   </g>
   <g id="PathCollection_2">
    <g clip-path="url(#p5f7a24ed13)">
     <use xlink:href="#mbadb270ee8" x="708.484242" y="47.749441" style="fill: #008000; stroke: #008000; stroke-width: 1.5"/>
    </g>
   </g>
   <g id="line2d_37">
    <path d="M 418.435758 127.929375 
L 418.726096 127.925242 
L 423.081179 125.940943 
L 442.824219 116.762658 
L 465.470647 106.254036 
L 475.922845 101.667671 
L 485.504026 97.707795 
L 496.246562 93.522858 
L 516.860619 85.569659 
L 524.119089 82.461995 
L 531.087221 79.224489 
L 538.636031 75.455883 
L 548.797889 70.103498 
L 565.637541 61.223664 
L 573.186351 57.517246 
L 579.283466 54.761978 
L 583.057871 53.281252 
L 586.832275 52.031516 
L 590.897019 50.924276 
L 595.252101 49.98223 
L 599.897522 49.213956 
L 605.123621 48.584981 
L 610.930398 48.113273 
L 617.317852 47.819011 
L 623.705306 47.749441 
L 708.484242 47.749441 
L 708.484242 47.749441 
" clip-path="url(#p5f7a24ed13)" style="fill: none; stroke: #e1b8a0; stroke-width: 1.5; stroke-linecap: square"/>
   </g>
   <g id="line2d_38">
    <path d="M 418.435758 127.929375 
L 419.016435 127.813744 
L 426.565245 124.659082 
L 435.275409 120.766338 
L 450.663367 113.592436 
L 468.954713 105.15254 
L 479.987588 100.406133 
L 486.665381 97.757616 
L 493.343174 95.333726 
L 498.859612 93.571733 
L 507.279438 91.145688 
L 536.893998 82.829086 
L 542.410435 80.990108 
L 547.926873 78.91525 
L 553.443311 76.613585 
L 558.959748 74.079984 
L 565.637541 70.748905 
L 578.993127 63.780238 
L 596.123118 54.760301 
L 602.220233 51.846642 
L 608.027009 49.314399 
L 612.382092 47.639069 
L 616.156496 46.442394 
L 619.930901 45.48043 
L 623.995645 44.683375 
L 628.350727 44.059147 
L 633.576826 43.538218 
L 639.673941 43.158621 
L 647.513089 42.911513 
L 657.094271 42.833478 
L 705.871193 42.784636 
L 708.484242 42.739494 
L 708.484242 42.739494 
" clip-path="url(#p5f7a24ed13)" style="fill: none; stroke: #116496; stroke-width: 1.5; stroke-linecap: square"/>
   </g>
   <g id="patch_5">
    <path d="M 403.933333 132.188869 
L 722.986667 132.188869 
" style="fill: none; stroke: #000000; stroke-width: 0.8; stroke-linejoin: miter; stroke-linecap: square"/>
   </g>
   <g id="text_22">
    <!-- y-axis -->
    <g transform="translate(543.511875 32.48) scale(0.12 -0.12)">
     <defs>
      <path id="DejaVuSans-Bold-79" d="M 78 3500 
L 1197 3500 
L 2138 1125 
L 2938 3500 
L 4056 3500 
L 2584 -331 
Q 2363 -916 2067 -1148 
Q 1772 -1381 1288 -1381 
L 641 -1381 
L 641 -647 
L 991 -647 
Q 1275 -647 1404 -556 
Q 1534 -466 1606 -231 
L 1638 -134 
L 78 3500 
z
" transform="scale(0.015625)"/>
     </defs>
     <use xlink:href="#DejaVuSans-Bold-79"/>
     <use xlink:href="#DejaVuSans-Bold-2d" x="65.185547"/>
     <use xlink:href="#DejaVuSans-Bold-61" x="106.689453"/>
     <use xlink:href="#DejaVuSans-Bold-78" x="174.169922"/>
     <use xlink:href="#DejaVuSans-Bold-69" x="238.671875"/>
     <use xlink:href="#DejaVuSans-Bold-73" x="272.949219"/>
    </g>
   </g>
  </g>
  <g id="axes_3">
   <g id="patch_6">
    <path d="M 756.946667 132.188869 
L 1076 132.188869 
L 1076 38.48 
L 756.946667 38.48 
z
" style="fill: #ffffff"/>
   </g>
   <g id="matplotlib.axis_5">
    <g id="xtick_13">
     <g id="line2d_39">
      <path d="M 771.449091 132.188869 
L 771.449091 38.48 
" clip-path="url(#p58eaccefdb)" style="fill: none; stroke: #e6e6e6; stroke-linecap: square"/>
     </g>
     <g id="line2d_40">
      <g>
       <use xlink:href="#m900d4cdf1a" x="771.449091" y="132.188869" style="stroke: #000000; stroke-width: 0.8"/>
      </g>
     </g>
     <g id="text_23">
      <!-- 0 -->
      <g transform="translate(767.631591 148.306994) scale(0.12 -0.12)">
       <use xlink:href="#DejaVuSans-30"/>
      </g>
     </g>
    </g>
    <g id="xtick_14">
     <g id="line2d_41">
      <path d="M 829.516856 132.188869 
L 829.516856 38.48 
" clip-path="url(#p58eaccefdb)" style="fill: none; stroke: #e6e6e6; stroke-linecap: square"/>
     </g>
     <g id="line2d_42">
      <g>
       <use xlink:href="#m900d4cdf1a" x="829.516856" y="132.188869" style="stroke: #000000; stroke-width: 0.8"/>
      </g>
     </g>
     <g id="text_24">
      <!-- 2 -->
      <g transform="translate(825.699356 148.306994) scale(0.12 -0.12)">
       <use xlink:href="#DejaVuSans-32"/>
      </g>
     </g>
    </g>
    <g id="xtick_15">
     <g id="line2d_43">
      <path d="M 887.58462 132.188869 
L 887.58462 38.48 
" clip-path="url(#p58eaccefdb)" style="fill: none; stroke: #e6e6e6; stroke-linecap: square"/>
     </g>
     <g id="line2d_44">
      <g>
       <use xlink:href="#m900d4cdf1a" x="887.58462" y="132.188869" style="stroke: #000000; stroke-width: 0.8"/>
      </g>
     </g>
     <g id="text_25">
      <!-- 4 -->
      <g transform="translate(883.76712 148.306994) scale(0.12 -0.12)">
       <use xlink:href="#DejaVuSans-34"/>
      </g>
     </g>
    </g>
    <g id="xtick_16">
     <g id="line2d_45">
      <path d="M 945.652385 132.188869 
L 945.652385 38.48 
" clip-path="url(#p58eaccefdb)" style="fill: none; stroke: #e6e6e6; stroke-linecap: square"/>
     </g>
     <g id="line2d_46">
      <g>
       <use xlink:href="#m900d4cdf1a" x="945.652385" y="132.188869" style="stroke: #000000; stroke-width: 0.8"/>
      </g>
     </g>
     <g id="text_26">
      <!-- 6 -->
      <g transform="translate(941.834885 148.306994) scale(0.12 -0.12)">
       <use xlink:href="#DejaVuSans-36"/>
      </g>
     </g>
    </g>
    <g id="xtick_17">
     <g id="line2d_47">
      <path d="M 1003.72015 132.188869 
L 1003.72015 38.48 
" clip-path="url(#p58eaccefdb)" style="fill: none; stroke: #e6e6e6; stroke-linecap: square"/>
     </g>
     <g id="line2d_48">
      <g>
       <use xlink:href="#m900d4cdf1a" x="1003.72015" y="132.188869" style="stroke: #000000; stroke-width: 0.8"/>
      </g>
     </g>
     <g id="text_27">
      <!-- 8 -->
      <g transform="translate(999.90265 148.306994) scale(0.12 -0.12)">
       <use xlink:href="#DejaVuSans-38"/>
      </g>
     </g>
    </g>
    <g id="xtick_18">
     <g id="line2d_49">
      <path d="M 1061.787915 132.188869 
L 1061.787915 38.48 
" clip-path="url(#p58eaccefdb)" style="fill: none; stroke: #e6e6e6; stroke-linecap: square"/>
     </g>
     <g id="line2d_50">
      <g>
       <use xlink:href="#m900d4cdf1a" x="1061.787915" y="132.188869" style="stroke: #000000; stroke-width: 0.8"/>
      </g>
     </g>
     <g id="text_28">
      <!-- 10 -->
      <g transform="translate(1054.152915 148.306994) scale(0.12 -0.12)">
       <use xlink:href="#DejaVuSans-31"/>
       <use xlink:href="#DejaVuSans-30" x="63.623047"/>
      </g>
     </g>
    </g>
    <g id="text_29">
     <!-- time (s) -->
     <g transform="translate(893.203646 163.920744) scale(0.12 -0.12)">
      <use xlink:href="#DejaVuSans-74"/>
      <use xlink:href="#DejaVuSans-69" x="39.208984"/>
      <use xlink:href="#DejaVuSans-6d" x="66.992188"/>
      <use xlink:href="#DejaVuSans-65" x="164.404297"/>
      <use xlink:href="#DejaVuSans-20" x="225.927734"/>
      <use xlink:href="#DejaVuSans-28" x="257.714844"/>
      <use xlink:href="#DejaVuSans-73" x="296.728516"/>
      <use xlink:href="#DejaVuSans-29" x="348.828125"/>
     </g>
    </g>
   </g>
   <g id="matplotlib.axis_6">
    <g id="ytick_6">
     <g id="line2d_51">
      <path d="M 756.946667 92.522743 
L 1076 92.522743 
" clip-path="url(#p58eaccefdb)" style="fill: none; stroke: #e6e6e6; stroke-linecap: square"/>
     </g>
     <g id="line2d_52"/>
     <g id="text_30">
      <!-- 0.5 -->
      <g transform="translate(734.362917 97.081806) scale(0.12 -0.12)">
       <use xlink:href="#DejaVuSans-30"/>
       <use xlink:href="#DejaVuSans-2e" x="63.623047"/>
       <use xlink:href="#DejaVuSans-35" x="95.410156"/>
      </g>
     </g>
    </g>
    <g id="ytick_7">
     <g id="line2d_53">
      <path d="M 756.946667 46.76557 
L 1076 46.76557 
" clip-path="url(#p58eaccefdb)" style="fill: none; stroke: #e6e6e6; stroke-linecap: square"/>
     </g>
     <g id="line2d_54"/>
     <g id="text_31">
      <!-- 0.6 -->
      <g transform="translate(734.362917 51.324632) scale(0.12 -0.12)">
       <use xlink:href="#DejaVuSans-30"/>
       <use xlink:href="#DejaVuSans-2e" x="63.623047"/>
       <use xlink:href="#DejaVuSans-36" x="95.410156"/>
      </g>
     </g>
    </g>
   </g>
   <g id="PathCollection_3">
    <g clip-path="url(#p58eaccefdb)">
     <use xlink:href="#mbadb270ee8" x="1061.497576" y="79.027874" style="fill: #008000; stroke: #008000; stroke-width: 1.5"/>
    </g>
   </g>
   <g id="line2d_55">
    <path d="M 771.449091 82.685744 
L 771.73943 82.699268 
L 773.191124 85.560669 
L 777.546206 94.041024 
L 780.739933 99.815585 
L 783.352983 104.129156 
L 785.675693 107.577409 
L 787.708065 110.250719 
L 789.740437 112.567766 
L 791.48247 114.24776 
L 793.224503 115.628297 
L 794.966536 116.696048 
L 796.41823 117.339218 
L 797.869924 117.753248 
L 799.321618 117.935021 
L 800.773312 117.882892 
L 802.225006 117.596706 
L 803.6767 117.077804 
L 805.128394 116.329027 
L 806.580089 115.354711 
L 808.322122 113.896112 
L 810.064154 112.134013 
L 812.096526 109.715852 
L 814.128898 106.936145 
L 816.451609 103.361696 
L 819.064658 98.90518 
L 822.258385 92.967721 
L 826.613467 84.332942 
L 833.871938 69.891629 
L 837.065665 64.047996 
L 839.678714 59.699809 
L 842.001425 56.246361 
L 844.033797 53.592097 
L 846.066169 51.31781 
L 847.808202 49.693527 
L 849.550234 48.385622 
L 851.001929 47.546107 
L 852.453623 46.939752 
L 853.905317 46.569954 
L 855.357011 46.438416 
L 856.808705 46.545159 
L 858.260399 46.888567 
L 859.712093 47.465442 
L 861.163787 48.271085 
L 862.90582 49.531139 
L 864.647853 51.09876 
L 866.389886 52.958546 
L 868.422258 55.474099 
L 870.45463 58.332533 
L 872.77734 61.975872 
L 875.39039 66.490115 
L 878.584117 72.48997 
L 882.64886 80.659717 
L 894.262413 104.368622 
L 897.45614 110.203955 
L 900.06919 114.532787 
L 902.3919 117.970957 
L 904.424272 120.618838 
L 906.456644 122.896361 
L 908.198677 124.532278 
L 909.94071 125.860231 
L 911.392404 126.722555 
L 912.844098 127.356637 
L 914.295792 127.758212 
L 915.747486 127.924493 
L 917.19918 127.854208 
L 918.650875 127.547626 
L 920.102569 127.006574 
L 921.554263 126.234442 
L 923.005957 125.23618 
L 924.74799 123.749027 
L 926.490023 121.959793 
L 928.522395 119.513652 
L 930.554766 116.712222 
L 933.167816 112.697795 
L 943.620013 96.287271 
L 946.523402 92.330345 
L 948.846112 89.507036 
L 951.168823 87.025389 
L 953.201195 85.149666 
L 955.233566 83.554357 
L 957.265938 82.235383 
L 959.29831 81.181189 
L 961.330682 80.373406 
L 963.363053 79.787621 
L 965.685764 79.351795 
L 968.298813 79.097974 
L 971.782879 79.012826 
L 1061.497576 79.027874 
L 1061.497576 79.027874 
" clip-path="url(#p58eaccefdb)" style="fill: none; stroke: #e1b8a0; stroke-width: 1.5; stroke-linecap: square"/>
   </g>
   <g id="line2d_56">
    <path d="M 771.449091 82.685744 
L 771.73943 82.699245 
L 773.481463 85.534847 
L 783.643322 102.132617 
L 786.837049 106.851287 
L 789.740437 110.743486 
L 792.353486 113.874865 
L 794.676197 116.3309 
L 796.998907 118.453318 
L 799.031279 120.012766 
L 800.773312 121.092345 
L 802.515345 121.919886 
L 804.257378 122.480977 
L 805.709072 122.736326 
L 807.160766 122.795839 
L 808.61246 122.652802 
L 810.064154 122.281031 
L 811.806187 121.580416 
L 813.54822 120.622798 
L 815.290253 119.411904 
L 817.032286 117.952767 
L 819.064658 115.945188 
L 821.09703 113.62056 
L 823.41974 110.594268 
L 825.742451 107.197913 
L 828.3555 102.970501 
L 831.258889 97.822731 
L 835.90431 88.988951 
L 847.808202 66.004632 
L 850.71159 61.117806 
L 853.324639 57.171757 
L 855.64735 54.061247 
L 857.97006 51.344173 
L 860.002432 49.29137 
L 862.034804 47.531202 
L 864.067176 46.03939 
L 866.099547 44.819329 
L 868.131919 43.875598 
L 869.873952 43.289849 
L 871.615985 42.912784 
L 873.358018 42.746996 
L 875.100051 42.796988 
L 876.842084 43.065703 
L 878.584117 43.554324 
L 880.32615 44.259736 
L 882.068183 45.181368 
L 883.810216 46.338494 
L 885.552249 47.740975 
L 887.58462 49.671847 
L 890.19767 52.503078 
L 892.810719 55.667573 
L 895.714107 59.546862 
L 898.907835 64.225083 
L 902.3919 69.764367 
L 906.456644 76.686886 
L 911.682743 86.079331 
L 917.779858 97.034522 
L 922.13494 104.386117 
L 925.619006 109.841964 
L 928.812733 114.441434 
L 931.135444 117.414365 
L 933.458155 120.028296 
L 935.490526 122.016677 
L 937.522898 123.704738 
L 939.264931 124.885854 
L 941.006964 125.824595 
L 942.748997 126.525498 
L 944.49103 126.994137 
L 946.233063 127.237069 
L 947.975096 127.261786 
L 949.717129 127.076647 
L 951.459162 126.678209 
L 953.201195 126.022749 
L 954.943227 125.095893 
L 956.68526 123.904798 
L 958.717632 122.208528 
L 960.750004 120.214916 
L 963.072715 117.619189 
L 968.008475 111.623824 
L 975.557284 102.473768 
L 979.331689 98.2473 
L 982.525416 94.981928 
L 985.428804 92.311728 
L 988.332192 89.939768 
L 991.23558 87.867742 
L 993.84863 86.257411 
L 996.461679 84.883963 
L 999.074729 83.738858 
L 1001.978117 82.721933 
L 1004.591166 82.030315 
L 1007.494555 81.483412 
L 1010.97862 81.062187 
L 1015.043364 80.80917 
L 1019.979124 80.742631 
L 1026.076239 80.897292 
L 1034.205726 81.340921 
L 1046.980635 82.295659 
L 1061.497576 83.477279 
L 1061.497576 83.477279 
" clip-path="url(#p58eaccefdb)" style="fill: none; stroke: #116496; stroke-width: 1.5; stroke-linecap: square"/>
   </g>
   <g id="patch_7">
    <path d="M 756.946667 132.188869 
L 1076 132.188869 
" style="fill: none; stroke: #000000; stroke-width: 0.8; stroke-linejoin: miter; stroke-linecap: square"/>
   </g>
   <g id="text_32">
    <!-- z-axis -->
    <g transform="translate(896.944271 32.48) scale(0.12 -0.12)">
     <defs>
      <path id="DejaVuSans-Bold-7a" d="M 366 3500 
L 3419 3500 
L 3419 2719 
L 1575 800 
L 3419 800 
L 3419 0 
L 288 0 
L 288 781 
L 2131 2700 
L 366 2700 
L 366 3500 
z
" transform="scale(0.015625)"/>
     </defs>
     <use xlink:href="#DejaVuSans-Bold-7a"/>
     <use xlink:href="#DejaVuSans-Bold-2d" x="58.203125"/>
     <use xlink:href="#DejaVuSans-Bold-61" x="99.707031"/>
     <use xlink:href="#DejaVuSans-Bold-78" x="167.1875"/>
     <use xlink:href="#DejaVuSans-Bold-69" x="231.689453"/>
     <use xlink:href="#DejaVuSans-Bold-73" x="265.966797"/>
    </g>
   </g>
  </g>
  <g id="axes_4">
   <g id="patch_8">
    <path d="M 50.92 292.08 
L 369.973333 292.08 
L 369.973333 198.371131 
L 50.92 198.371131 
z
" style="fill: #ffffff"/>
   </g>
   <g id="matplotlib.axis_7">
    <g id="xtick_19">
     <g id="line2d_57">
      <path d="M 65.422424 292.08 
L 65.422424 198.371131 
" clip-path="url(#p71a78d660c)" style="fill: none; stroke: #e6e6e6; stroke-linecap: square"/>
     </g>
     <g id="line2d_58">
      <g>
       <use xlink:href="#m900d4cdf1a" x="65.422424" y="292.08" style="stroke: #000000; stroke-width: 0.8"/>
      </g>
     </g>
     <g id="text_33">
      <!-- 0 -->
      <g transform="translate(61.604924 308.198125) scale(0.12 -0.12)">
       <use xlink:href="#DejaVuSans-30"/>
      </g>
     </g>
    </g>
    <g id="xtick_20">
     <g id="line2d_59">
      <path d="M 123.490189 292.08 
L 123.490189 198.371131 
" clip-path="url(#p71a78d660c)" style="fill: none; stroke: #e6e6e6; stroke-linecap: square"/>
     </g>
     <g id="line2d_60">
      <g>
       <use xlink:href="#m900d4cdf1a" x="123.490189" y="292.08" style="stroke: #000000; stroke-width: 0.8"/>
      </g>
     </g>
     <g id="text_34">
      <!-- 2 -->
      <g transform="translate(119.672689 308.198125) scale(0.12 -0.12)">
       <use xlink:href="#DejaVuSans-32"/>
      </g>
     </g>
    </g>
    <g id="xtick_21">
     <g id="line2d_61">
      <path d="M 181.557954 292.08 
L 181.557954 198.371131 
" clip-path="url(#p71a78d660c)" style="fill: none; stroke: #e6e6e6; stroke-linecap: square"/>
     </g>
     <g id="line2d_62">
      <g>
       <use xlink:href="#m900d4cdf1a" x="181.557954" y="292.08" style="stroke: #000000; stroke-width: 0.8"/>
      </g>
     </g>
     <g id="text_35">
      <!-- 4 -->
      <g transform="translate(177.740454 308.198125) scale(0.12 -0.12)">
       <use xlink:href="#DejaVuSans-34"/>
      </g>
     </g>
    </g>
    <g id="xtick_22">
     <g id="line2d_63">
      <path d="M 239.625718 292.08 
L 239.625718 198.371131 
" clip-path="url(#p71a78d660c)" style="fill: none; stroke: #e6e6e6; stroke-linecap: square"/>
     </g>
     <g id="line2d_64">
      <g>
       <use xlink:href="#m900d4cdf1a" x="239.625718" y="292.08" style="stroke: #000000; stroke-width: 0.8"/>
      </g>
     </g>
     <g id="text_36">
      <!-- 6 -->
      <g transform="translate(235.808218 308.198125) scale(0.12 -0.12)">
       <use xlink:href="#DejaVuSans-36"/>
      </g>
     </g>
    </g>
    <g id="xtick_23">
     <g id="line2d_65">
      <path d="M 297.693483 292.08 
L 297.693483 198.371131 
" clip-path="url(#p71a78d660c)" style="fill: none; stroke: #e6e6e6; stroke-linecap: square"/>
     </g>
     <g id="line2d_66">
      <g>
       <use xlink:href="#m900d4cdf1a" x="297.693483" y="292.08" style="stroke: #000000; stroke-width: 0.8"/>
      </g>
     </g>
     <g id="text_37">
      <!-- 8 -->
      <g transform="translate(293.875983 308.198125) scale(0.12 -0.12)">
       <use xlink:href="#DejaVuSans-38"/>
      </g>
     </g>
    </g>
    <g id="xtick_24">
     <g id="line2d_67">
      <path d="M 355.761248 292.08 
L 355.761248 198.371131 
" clip-path="url(#p71a78d660c)" style="fill: none; stroke: #e6e6e6; stroke-linecap: square"/>
     </g>
     <g id="line2d_68">
      <g>
       <use xlink:href="#m900d4cdf1a" x="355.761248" y="292.08" style="stroke: #000000; stroke-width: 0.8"/>
      </g>
     </g>
     <g id="text_38">
      <!-- 10 -->
      <g transform="translate(348.126248 308.198125) scale(0.12 -0.12)">
       <use xlink:href="#DejaVuSans-31"/>
       <use xlink:href="#DejaVuSans-30" x="63.623047"/>
      </g>
     </g>
    </g>
    <g id="text_39">
     <!-- time (s) -->
     <g transform="translate(187.176979 323.811875) scale(0.12 -0.12)">
      <use xlink:href="#DejaVuSans-74"/>
      <use xlink:href="#DejaVuSans-69" x="39.208984"/>
      <use xlink:href="#DejaVuSans-6d" x="66.992188"/>
      <use xlink:href="#DejaVuSans-65" x="164.404297"/>
      <use xlink:href="#DejaVuSans-20" x="225.927734"/>
      <use xlink:href="#DejaVuSans-28" x="257.714844"/>
      <use xlink:href="#DejaVuSans-73" x="296.728516"/>
      <use xlink:href="#DejaVuSans-29" x="348.828125"/>
     </g>
    </g>
   </g>
   <g id="matplotlib.axis_8">
    <g id="ytick_8">
     <g id="line2d_69">
      <path d="M 50.92 267.415639 
L 369.973333 267.415639 
" clip-path="url(#p71a78d660c)" style="fill: none; stroke: #e6e6e6; stroke-linecap: square"/>
     </g>
     <g id="line2d_70"/>
     <g id="text_40">
      <!-- 0.4 -->
      <g transform="translate(28.33625 271.974702) scale(0.12 -0.12)">
       <use xlink:href="#DejaVuSans-30"/>
       <use xlink:href="#DejaVuSans-2e" x="63.623047"/>
       <use xlink:href="#DejaVuSans-34" x="95.410156"/>
      </g>
     </g>
    </g>
    <g id="ytick_9">
     <g id="line2d_71">
      <path d="M 50.92 225.52122 
L 369.973333 225.52122 
" clip-path="url(#p71a78d660c)" style="fill: none; stroke: #e6e6e6; stroke-linecap: square"/>
     </g>
     <g id="line2d_72"/>
     <g id="text_41">
      <!-- 0.6 -->
      <g transform="translate(28.33625 230.080282) scale(0.12 -0.12)">
       <use xlink:href="#DejaVuSans-30"/>
       <use xlink:href="#DejaVuSans-2e" x="63.623047"/>
       <use xlink:href="#DejaVuSans-36" x="95.410156"/>
      </g>
     </g>
    </g>
    <g id="text_42">
     <!-- EEF -->
     <g transform="translate(21.840625 256.259003) rotate(-90) scale(0.12 -0.12)">
      <use xlink:href="#DejaVuSans-45"/>
      <use xlink:href="#DejaVuSans-45" x="63.183594"/>
      <use xlink:href="#DejaVuSans-46" x="126.367188"/>
     </g>
    </g>
   </g>
   <g id="PathCollection_4">
    <g clip-path="url(#p71a78d660c)">
     <use xlink:href="#mbadb270ee8" x="355.470909" y="267.310132" style="fill: #008000; stroke: #008000; stroke-width: 1.5"/>
    </g>
   </g>
   <g id="line2d_73">
    <path d="M 65.451458 292.08 
L 65.451458 198.371131 
" clip-path="url(#p71a78d660c)" style="fill: none; stroke-dasharray: 3.7,1.6; stroke-dashoffset: 0; stroke: #000000"/>
   </g>
   <g id="line2d_74">
    <path d="M 210.62087 292.08 
L 210.62087 198.371131 
" clip-path="url(#p71a78d660c)" style="fill: none; stroke-dasharray: 3.7,1.6; stroke-dashoffset: 0; stroke: #000000"/>
   </g>
   <g id="line2d_75">
    <path d="M 65.422424 235.052298 
L 66.58378 234.958759 
L 68.616151 234.878525 
L 70.648523 235.005993 
L 72.680895 235.342076 
L 74.713267 235.883893 
L 77.035977 236.747208 
L 79.358688 237.857804 
L 81.971737 239.38016 
L 84.584787 241.160533 
L 87.778514 243.631342 
L 91.552918 246.866923 
L 97.359695 252.19281 
L 103.45681 257.706484 
L 107.231215 260.814854 
L 110.424942 263.143702 
L 113.037991 264.791763 
L 115.651041 266.172929 
L 117.973751 267.154395 
L 120.296462 267.888068 
L 122.328834 268.317773 
L 124.361205 268.544129 
L 126.393577 268.564832 
L 128.425949 268.380259 
L 130.458321 267.993492 
L 132.781031 267.311388 
L 135.103742 266.385497 
L 137.426453 265.232624 
L 140.039502 263.689984 
L 142.94289 261.710998 
L 146.426956 259.040001 
L 150.782038 255.389663 
L 163.266608 244.722818 
L 166.750674 242.127183 
L 169.654062 240.214293 
L 172.267111 238.727597 
L 174.880161 237.494975 
L 177.202871 236.634518 
L 179.525582 236.012484 
L 181.848293 235.642163 
L 183.880664 235.532423 
L 185.913036 235.627098 
L 187.945408 235.927808 
L 189.97778 236.433517 
L 192.30049 237.2575 
L 194.623201 238.334081 
L 196.945911 239.648474 
L 199.558961 241.387313 
L 202.462349 243.602664 
L 205.656076 246.320903 
L 209.72082 250.080112 
L 221.91505 261.57254 
L 225.108777 264.191792 
L 227.431488 265.869064 
L 229.754198 267.274398 
L 232.076909 268.40741 
L 234.39962 269.275897 
L 236.72233 269.893858 
L 239.045041 270.280737 
L 241.65809 270.469808 
L 244.27114 270.43649 
L 247.464867 270.157569 
L 251.52961 269.548811 
L 263.143163 267.648839 
L 266.627229 267.369626 
L 270.111295 267.310132 
L 355.470909 267.310132 
L 355.470909 267.310132 
" clip-path="url(#p71a78d660c)" style="fill: none; stroke: #e1b8a0; stroke-width: 1.5; stroke-linecap: square"/>
   </g>
   <g id="line2d_76">
    <path d="M 65.422424 235.052298 
L 66.003102 234.950087 
L 66.58378 234.579298 
L 67.164457 233.950097 
L 67.745135 233.019475 
L 68.325812 231.747983 
L 69.196829 229.128793 
L 70.067845 225.582654 
L 73.551911 209.914492 
L 74.422928 206.853101 
L 75.293944 204.544551 
L 75.874622 203.501435 
L 76.4553 202.893285 
L 77.035977 202.635717 
L 77.616655 202.708703 
L 78.197332 203.116918 
L 81.100721 205.914063 
L 82.262076 206.609219 
L 83.133092 206.844284 
L 83.71377 206.825426 
L 84.584787 206.501957 
L 85.746142 206.123332 
L 87.197836 205.891036 
L 89.230208 205.822613 
L 91.552918 205.997905 
L 93.875629 206.402678 
L 96.19834 207.025661 
L 98.52105 207.865315 
L 100.843761 208.921952 
L 103.45681 210.370049 
L 106.06986 212.091667 
L 108.682909 214.099389 
L 111.00562 216.16453 
L 113.909008 219.07214 
L 117.102735 222.575075 
L 120.586801 226.74115 
L 124.070867 231.245652 
L 127.845271 236.479928 
L 132.200354 242.919454 
L 146.717295 264.691726 
L 150.201361 269.314846 
L 153.395088 273.18951 
L 156.298476 276.368741 
L 158.911525 278.922725 
L 161.524575 281.171953 
L 164.137624 283.106261 
L 166.750674 284.734347 
L 168.783045 285.75183 
L 170.815417 286.524935 
L 173.138128 287.158299 
L 175.751177 287.618359 
L 178.073888 287.804482 
L 180.686937 287.772209 
L 183.299987 287.517286 
L 187.074391 286.904771 
L 191.139135 286.022042 
L 195.494217 284.841265 
L 199.8493 283.431713 
L 203.623704 281.976035 
L 207.398109 280.286296 
L 212.04353 278.132724 
L 212.624208 278.152922 
L 213.204885 278.354936 
L 213.785563 278.769113 
L 215.527596 280.182625 
L 216.398613 280.545738 
L 216.97929 280.559183 
L 217.559968 280.341244 
L 221.334373 278.08838 
L 225.689455 275.416496 
L 229.754198 272.662327 
L 233.818942 269.647137 
L 238.174024 266.15134 
L 244.561478 260.951519 
L 250.658594 256.278311 
L 256.175031 252.316965 
L 259.949436 249.879232 
L 263.433502 247.883143 
L 266.917568 246.141947 
L 270.691973 244.524522 
L 276.789088 242.171789 
L 282.305526 240.287444 
L 288.402641 238.450096 
L 293.919078 236.976326 
L 296.532128 236.578751 
L 299.145177 236.430069 
L 301.758227 236.528486 
L 304.371276 236.871445 
L 306.984326 237.460159 
L 309.597375 238.302755 
L 312.210424 239.384039 
L 315.113813 240.842572 
L 318.017201 242.545736 
L 321.501267 244.869807 
L 325.56601 247.882655 
L 342.405662 260.79002 
L 345.599389 262.813762 
L 348.793116 264.572485 
L 351.696504 265.932906 
L 354.599893 267.064868 
L 355.470909 267.360373 
L 355.470909 267.360373 
" clip-path="url(#p71a78d660c)" style="fill: none; stroke: #116496; stroke-width: 1.5; stroke-linecap: square"/>
   </g>
   <g id="patch_9">
    <path d="M 50.92 292.08 
L 369.973333 292.08 
" style="fill: none; stroke: #000000; stroke-width: 0.8; stroke-linejoin: miter; stroke-linecap: square"/>
   </g>
  </g>
  <g id="axes_5">
   <g id="patch_10">
    <path d="M 403.933333 292.08 
L 722.986667 292.08 
L 722.986667 198.371131 
L 403.933333 198.371131 
z
" style="fill: #ffffff"/>
   </g>
   <g id="matplotlib.axis_9">
    <g id="xtick_25">
     <g id="line2d_77">
      <path d="M 418.435758 292.08 
L 418.435758 198.371131 
" clip-path="url(#pd93704594a)" style="fill: none; stroke: #e6e6e6; stroke-linecap: square"/>
     </g>
     <g id="line2d_78">
      <g>
       <use xlink:href="#m900d4cdf1a" x="418.435758" y="292.08" style="stroke: #000000; stroke-width: 0.8"/>
      </g>
     </g>
     <g id="text_43">
      <!-- 0 -->
      <g transform="translate(414.618258 308.198125) scale(0.12 -0.12)">
       <use xlink:href="#DejaVuSans-30"/>
      </g>
     </g>
    </g>
    <g id="xtick_26">
     <g id="line2d_79">
      <path d="M 476.503522 292.08 
L 476.503522 198.371131 
" clip-path="url(#pd93704594a)" style="fill: none; stroke: #e6e6e6; stroke-linecap: square"/>
     </g>
     <g id="line2d_80">
      <g>
       <use xlink:href="#m900d4cdf1a" x="476.503522" y="292.08" style="stroke: #000000; stroke-width: 0.8"/>
      </g>
     </g>
     <g id="text_44">
      <!-- 2 -->
      <g transform="translate(472.686022 308.198125) scale(0.12 -0.12)">
       <use xlink:href="#DejaVuSans-32"/>
      </g>
     </g>
    </g>
    <g id="xtick_27">
     <g id="line2d_81">
      <path d="M 534.571287 292.08 
L 534.571287 198.371131 
" clip-path="url(#pd93704594a)" style="fill: none; stroke: #e6e6e6; stroke-linecap: square"/>
     </g>
     <g id="line2d_82">
      <g>
       <use xlink:href="#m900d4cdf1a" x="534.571287" y="292.08" style="stroke: #000000; stroke-width: 0.8"/>
      </g>
     </g>
     <g id="text_45">
      <!-- 4 -->
      <g transform="translate(530.753787 308.198125) scale(0.12 -0.12)">
       <use xlink:href="#DejaVuSans-34"/>
      </g>
     </g>
    </g>
    <g id="xtick_28">
     <g id="line2d_83">
      <path d="M 592.639052 292.08 
L 592.639052 198.371131 
" clip-path="url(#pd93704594a)" style="fill: none; stroke: #e6e6e6; stroke-linecap: square"/>
     </g>
     <g id="line2d_84">
      <g>
       <use xlink:href="#m900d4cdf1a" x="592.639052" y="292.08" style="stroke: #000000; stroke-width: 0.8"/>
      </g>
     </g>
     <g id="text_46">
      <!-- 6 -->
      <g transform="translate(588.821552 308.198125) scale(0.12 -0.12)">
       <use xlink:href="#DejaVuSans-36"/>
      </g>
     </g>
    </g>
    <g id="xtick_29">
     <g id="line2d_85">
      <path d="M 650.706817 292.08 
L 650.706817 198.371131 
" clip-path="url(#pd93704594a)" style="fill: none; stroke: #e6e6e6; stroke-linecap: square"/>
     </g>
     <g id="line2d_86">
      <g>
       <use xlink:href="#m900d4cdf1a" x="650.706817" y="292.08" style="stroke: #000000; stroke-width: 0.8"/>
      </g>
     </g>
     <g id="text_47">
      <!-- 8 -->
      <g transform="translate(646.889317 308.198125) scale(0.12 -0.12)">
       <use xlink:href="#DejaVuSans-38"/>
      </g>
     </g>
    </g>
    <g id="xtick_30">
     <g id="line2d_87">
      <path d="M 708.774581 292.08 
L 708.774581 198.371131 
" clip-path="url(#pd93704594a)" style="fill: none; stroke: #e6e6e6; stroke-linecap: square"/>
     </g>
     <g id="line2d_88">
      <g>
       <use xlink:href="#m900d4cdf1a" x="708.774581" y="292.08" style="stroke: #000000; stroke-width: 0.8"/>
      </g>
     </g>
     <g id="text_48">
      <!-- 10 -->
      <g transform="translate(701.139581 308.198125) scale(0.12 -0.12)">
       <use xlink:href="#DejaVuSans-31"/>
       <use xlink:href="#DejaVuSans-30" x="63.623047"/>
      </g>
     </g>
    </g>
    <g id="text_49">
     <!-- time (s) -->
     <g transform="translate(540.190313 323.811875) scale(0.12 -0.12)">
      <use xlink:href="#DejaVuSans-74"/>
      <use xlink:href="#DejaVuSans-69" x="39.208984"/>
      <use xlink:href="#DejaVuSans-6d" x="66.992188"/>
      <use xlink:href="#DejaVuSans-65" x="164.404297"/>
      <use xlink:href="#DejaVuSans-20" x="225.927734"/>
      <use xlink:href="#DejaVuSans-28" x="257.714844"/>
      <use xlink:href="#DejaVuSans-73" x="296.728516"/>
      <use xlink:href="#DejaVuSans-29" x="348.828125"/>
     </g>
    </g>
   </g>
   <g id="matplotlib.axis_10">
    <g id="ytick_10">
     <g id="line2d_89">
      <path d="M 403.933333 287.820506 
L 722.986667 287.820506 
" clip-path="url(#pd93704594a)" style="fill: none; stroke: #e6e6e6; stroke-linecap: square"/>
     </g>
     <g id="line2d_90"/>
     <g id="text_50">
      <!-- 0.0 -->
      <g transform="translate(381.349583 292.379568) scale(0.12 -0.12)">
       <use xlink:href="#DejaVuSans-30"/>
       <use xlink:href="#DejaVuSans-2e" x="63.623047"/>
       <use xlink:href="#DejaVuSans-30" x="95.410156"/>
      </g>
     </g>
    </g>
    <g id="ytick_11">
     <g id="line2d_91">
      <path d="M 403.933333 251.654279 
L 722.986667 251.654279 
" clip-path="url(#pd93704594a)" style="fill: none; stroke: #e6e6e6; stroke-linecap: square"/>
     </g>
     <g id="line2d_92"/>
     <g id="text_51">
      <!-- 0.2 -->
      <g transform="translate(381.349583 256.213341) scale(0.12 -0.12)">
       <use xlink:href="#DejaVuSans-30"/>
       <use xlink:href="#DejaVuSans-2e" x="63.623047"/>
       <use xlink:href="#DejaVuSans-32" x="95.410156"/>
      </g>
     </g>
    </g>
    <g id="ytick_12">
     <g id="line2d_93">
      <path d="M 403.933333 215.488052 
L 722.986667 215.488052 
" clip-path="url(#pd93704594a)" style="fill: none; stroke: #e6e6e6; stroke-linecap: square"/>
     </g>
     <g id="line2d_94"/>
     <g id="text_52">
      <!-- 0.4 -->
      <g transform="translate(381.349583 220.047114) scale(0.12 -0.12)">
       <use xlink:href="#DejaVuSans-30"/>
       <use xlink:href="#DejaVuSans-2e" x="63.623047"/>
       <use xlink:href="#DejaVuSans-34" x="95.410156"/>
      </g>
     </g>
    </g>
   </g>
   <g id="PathCollection_5">
    <g clip-path="url(#pd93704594a)">
     <use xlink:href="#mbadb270ee8" x="708.484242" y="214.717296" style="fill: #008000; stroke: #008000; stroke-width: 1.5"/>
    </g>
   </g>
   <g id="line2d_95">
    <path d="M 418.464791 292.08 
L 418.464791 198.371131 
" clip-path="url(#pd93704594a)" style="fill: none; stroke-dasharray: 3.7,1.6; stroke-dashoffset: 0; stroke: #000000"/>
   </g>
   <g id="line2d_96">
    <path d="M 563.634203 292.08 
L 563.634203 198.371131 
" clip-path="url(#pd93704594a)" style="fill: none; stroke-dasharray: 3.7,1.6; stroke-dashoffset: 0; stroke: #000000"/>
   </g>
   <g id="line2d_97">
    <path d="M 418.435758 287.820506 
L 419.016435 287.703072 
L 439.920831 278.88077 
L 466.922341 267.463812 
L 477.374539 263.315534 
L 487.536398 259.52774 
L 499.440289 255.347614 
L 515.408925 249.739469 
L 522.957734 246.835575 
L 529.925866 243.922099 
L 537.474675 240.520616 
L 547.346195 235.805217 
L 566.508558 226.600354 
L 574.057367 223.25047 
L 580.154482 220.780028 
L 584.219226 219.388468 
L 588.283969 218.236119 
L 592.639052 217.242503 
L 597.284473 216.421612 
L 602.510572 215.740699 
L 608.317348 215.218843 
L 614.704802 214.865883 
L 621.382595 214.718681 
L 655.932915 214.717296 
L 708.484242 214.717296 
L 708.484242 214.717296 
" clip-path="url(#pd93704594a)" style="fill: none; stroke: #e1b8a0; stroke-width: 1.5; stroke-linecap: square"/>
   </g>
   <g id="line2d_98">
    <path d="M 418.435758 287.820506 
L 419.016435 287.715037 
L 423.081179 286.108657 
L 430.920327 282.747426 
L 437.017442 280.646788 
L 450.953706 274.798232 
L 459.663871 270.850071 
L 466.341663 267.606332 
L 480.568266 260.660707 
L 500.891983 251.02147 
L 510.182826 246.818239 
L 515.989602 244.435139 
L 522.086718 242.184826 
L 526.151461 240.95555 
L 530.506544 239.875465 
L 534.280948 239.175711 
L 539.216708 238.514301 
L 545.023485 237.961078 
L 551.410939 237.584386 
L 563.895508 237.173275 
L 564.766525 237.23251 
L 565.637541 237.486777 
L 566.508558 237.987056 
L 568.831268 239.68748 
L 569.702285 240.019475 
L 570.573301 240.065231 
L 572.896012 239.809238 
L 578.993127 239.514363 
L 590.316341 238.927366 
L 599.316845 238.17791 
L 607.736671 237.261486 
L 613.253108 236.467027 
L 618.479207 235.491343 
L 624.285984 234.175142 
L 629.512082 232.786615 
L 634.738181 231.177589 
L 640.254619 229.246376 
L 646.351734 226.868318 
L 654.481221 223.444105 
L 664.352741 219.047626 
L 681.773071 211.178153 
L 689.32188 208.057931 
L 694.838318 206.004315 
L 698.903061 204.736323 
L 702.967805 203.697167 
L 707.322887 202.82416 
L 708.484242 202.630625 
L 708.484242 202.630625 
" clip-path="url(#pd93704594a)" style="fill: none; stroke: #116496; stroke-width: 1.5; stroke-linecap: square"/>
   </g>
   <g id="patch_11">
    <path d="M 403.933333 292.08 
L 722.986667 292.08 
" style="fill: none; stroke: #000000; stroke-width: 0.8; stroke-linejoin: miter; stroke-linecap: square"/>
   </g>
  </g>
  <g id="axes_6">
   <g id="patch_12">
    <path d="M 756.946667 292.08 
L 1076 292.08 
L 1076 198.371131 
L 756.946667 198.371131 
z
" style="fill: #ffffff"/>
   </g>
   <g id="matplotlib.axis_11">
    <g id="xtick_31">
     <g id="line2d_99">
      <path d="M 771.449091 292.08 
L 771.449091 198.371131 
" clip-path="url(#pd7ec068602)" style="fill: none; stroke: #e6e6e6; stroke-linecap: square"/>
     </g>
     <g id="line2d_100">
      <g>
       <use xlink:href="#m900d4cdf1a" x="771.449091" y="292.08" style="stroke: #000000; stroke-width: 0.8"/>
      </g>
     </g>
     <g id="text_53">
      <!-- 0 -->
      <g transform="translate(767.631591 308.198125) scale(0.12 -0.12)">
       <use xlink:href="#DejaVuSans-30"/>
      </g>
     </g>
    </g>
    <g id="xtick_32">
     <g id="line2d_101">
      <path d="M 829.516856 292.08 
L 829.516856 198.371131 
" clip-path="url(#pd7ec068602)" style="fill: none; stroke: #e6e6e6; stroke-linecap: square"/>
     </g>
     <g id="line2d_102">
      <g>
       <use xlink:href="#m900d4cdf1a" x="829.516856" y="292.08" style="stroke: #000000; stroke-width: 0.8"/>
      </g>
     </g>
     <g id="text_54">
      <!-- 2 -->
      <g transform="translate(825.699356 308.198125) scale(0.12 -0.12)">
       <use xlink:href="#DejaVuSans-32"/>
      </g>
     </g>
    </g>
    <g id="xtick_33">
     <g id="line2d_103">
      <path d="M 887.58462 292.08 
L 887.58462 198.371131 
" clip-path="url(#pd7ec068602)" style="fill: none; stroke: #e6e6e6; stroke-linecap: square"/>
     </g>
     <g id="line2d_104">
      <g>
       <use xlink:href="#m900d4cdf1a" x="887.58462" y="292.08" style="stroke: #000000; stroke-width: 0.8"/>
      </g>
     </g>
     <g id="text_55">
      <!-- 4 -->
      <g transform="translate(883.76712 308.198125) scale(0.12 -0.12)">
       <use xlink:href="#DejaVuSans-34"/>
      </g>
     </g>
    </g>
    <g id="xtick_34">
     <g id="line2d_105">
      <path d="M 945.652385 292.08 
L 945.652385 198.371131 
" clip-path="url(#pd7ec068602)" style="fill: none; stroke: #e6e6e6; stroke-linecap: square"/>
     </g>
     <g id="line2d_106">
      <g>
       <use xlink:href="#m900d4cdf1a" x="945.652385" y="292.08" style="stroke: #000000; stroke-width: 0.8"/>
      </g>
     </g>
     <g id="text_56">
      <!-- 6 -->
      <g transform="translate(941.834885 308.198125) scale(0.12 -0.12)">
       <use xlink:href="#DejaVuSans-36"/>
      </g>
     </g>
    </g>
    <g id="xtick_35">
     <g id="line2d_107">
      <path d="M 1003.72015 292.08 
L 1003.72015 198.371131 
" clip-path="url(#pd7ec068602)" style="fill: none; stroke: #e6e6e6; stroke-linecap: square"/>
     </g>
     <g id="line2d_108">
      <g>
       <use xlink:href="#m900d4cdf1a" x="1003.72015" y="292.08" style="stroke: #000000; stroke-width: 0.8"/>
      </g>
     </g>
     <g id="text_57">
      <!-- 8 -->
      <g transform="translate(999.90265 308.198125) scale(0.12 -0.12)">
       <use xlink:href="#DejaVuSans-38"/>
      </g>
     </g>
    </g>
    <g id="xtick_36">
     <g id="line2d_109">
      <path d="M 1061.787915 292.08 
L 1061.787915 198.371131 
" clip-path="url(#pd7ec068602)" style="fill: none; stroke: #e6e6e6; stroke-linecap: square"/>
     </g>
     <g id="line2d_110">
      <g>
       <use xlink:href="#m900d4cdf1a" x="1061.787915" y="292.08" style="stroke: #000000; stroke-width: 0.8"/>
      </g>
     </g>
     <g id="text_58">
      <!-- 10 -->
      <g transform="translate(1054.152915 308.198125) scale(0.12 -0.12)">
       <use xlink:href="#DejaVuSans-31"/>
       <use xlink:href="#DejaVuSans-30" x="63.623047"/>
      </g>
     </g>
    </g>
    <g id="text_59">
     <!-- time (s) -->
     <g transform="translate(893.203646 323.811875) scale(0.12 -0.12)">
      <use xlink:href="#DejaVuSans-74"/>
      <use xlink:href="#DejaVuSans-69" x="39.208984"/>
      <use xlink:href="#DejaVuSans-6d" x="66.992188"/>
      <use xlink:href="#DejaVuSans-65" x="164.404297"/>
      <use xlink:href="#DejaVuSans-20" x="225.927734"/>
      <use xlink:href="#DejaVuSans-28" x="257.714844"/>
      <use xlink:href="#DejaVuSans-73" x="296.728516"/>
      <use xlink:href="#DejaVuSans-29" x="348.828125"/>
     </g>
    </g>
   </g>
   <g id="matplotlib.axis_12">
    <g id="ytick_13">
     <g id="line2d_111">
      <path d="M 756.946667 269.001502 
L 1076 269.001502 
" clip-path="url(#pd7ec068602)" style="fill: none; stroke: #e6e6e6; stroke-linecap: square"/>
     </g>
     <g id="line2d_112"/>
     <g id="text_60">
      <!-- 0.4 -->
      <g transform="translate(734.362917 273.560565) scale(0.12 -0.12)">
       <use xlink:href="#DejaVuSans-30"/>
       <use xlink:href="#DejaVuSans-2e" x="63.623047"/>
       <use xlink:href="#DejaVuSans-34" x="95.410156"/>
      </g>
     </g>
    </g>
    <g id="ytick_14">
     <g id="line2d_113">
      <path d="M 756.946667 222.300202 
L 1076 222.300202 
" clip-path="url(#pd7ec068602)" style="fill: none; stroke: #e6e6e6; stroke-linecap: square"/>
     </g>
     <g id="line2d_114"/>
     <g id="text_61">
      <!-- 0.6 -->
      <g transform="translate(734.362917 226.859264) scale(0.12 -0.12)">
       <use xlink:href="#DejaVuSans-30"/>
       <use xlink:href="#DejaVuSans-2e" x="63.623047"/>
       <use xlink:href="#DejaVuSans-36" x="95.410156"/>
      </g>
     </g>
    </g>
   </g>
   <g id="PathCollection_6">
    <g clip-path="url(#pd7ec068602)">
     <use xlink:href="#mbadb270ee8" x="1061.497576" y="238.764195" style="fill: #008000; stroke: #008000; stroke-width: 1.5"/>
    </g>
   </g>
   <g id="line2d_115">
    <path d="M 771.478125 292.08 
L 771.478125 198.371131 
" clip-path="url(#pd7ec068602)" style="fill: none; stroke-dasharray: 3.7,1.6; stroke-dashoffset: 0; stroke: #000000"/>
   </g>
   <g id="line2d_116">
    <path d="M 916.647537 292.08 
L 916.647537 198.371131 
" clip-path="url(#pd7ec068602)" style="fill: none; stroke-dasharray: 3.7,1.6; stroke-dashoffset: 0; stroke: #000000"/>
   </g>
   <g id="line2d_117">
    <path d="M 771.449091 240.630867 
L 771.73943 240.637768 
L 773.481463 242.393926 
L 778.417223 247.253009 
L 781.901289 250.37728 
L 784.804677 252.697348 
L 787.417726 254.513596 
L 789.740437 255.880162 
L 792.063147 256.989672 
L 794.095519 257.73477 
L 796.127891 258.25876 
L 798.160263 258.554472 
L 800.192634 258.617546 
L 802.225006 258.446514 
L 804.257378 258.042834 
L 806.28975 257.410904 
L 808.322122 256.558039 
L 810.644832 255.325999 
L 812.967543 253.838449 
L 815.580592 251.889842 
L 818.48398 249.431361 
L 821.968046 246.16248 
L 826.903806 241.172089 
L 834.452616 233.541442 
L 837.936682 230.355 
L 840.84007 227.992687 
L 843.453119 226.151844 
L 845.77583 224.776609 
L 848.09854 223.671748 
L 850.130912 222.941443 
L 852.163284 222.441362 
L 854.195656 222.177211 
L 856.228027 222.151376 
L 858.260399 222.362969 
L 860.292771 222.807961 
L 862.325143 223.479382 
L 864.357514 224.36759 
L 866.680225 225.632643 
L 869.002936 227.143955 
L 871.615985 229.108563 
L 874.519373 231.575476 
L 878.003439 234.854149 
L 882.358522 239.292273 
L 894.843091 252.256838 
L 898.327157 255.435504 
L 901.230545 257.786744 
L 903.843595 259.621288 
L 906.166305 260.99712 
L 908.489016 262.109901 
L 910.521387 262.853359 
L 912.553759 263.371886 
L 914.586131 263.658709 
L 916.618503 263.709931 
L 918.650875 263.524635 
L 920.683246 263.104941 
L 922.715618 262.456035 
L 924.74799 261.586146 
L 927.0707 260.335926 
L 929.393411 258.833213 
L 932.00646 256.875341 
L 937.813237 252.131227 
L 942.748997 248.218574 
L 946.233063 245.744249 
L 949.136451 243.943776 
L 952.039839 242.417736 
L 954.652889 241.292183 
L 957.265938 240.40104 
L 959.878987 239.732948 
L 962.782376 239.226592 
L 965.976103 238.909446 
L 969.750507 238.768791 
L 978.751011 238.764195 
L 1061.497576 238.764195 
L 1061.497576 238.764195 
" clip-path="url(#pd7ec068602)" style="fill: none; stroke: #e1b8a0; stroke-width: 1.5; stroke-linecap: square"/>
   </g>
   <g id="line2d_118">
    <path d="M 771.449091 240.630867 
L 771.73943 240.637923 
L 772.900785 241.36752 
L 773.771801 241.662799 
L 774.642818 241.683919 
L 775.223496 241.510697 
L 775.804173 241.152719 
L 777.546206 239.562092 
L 777.836545 239.509665 
L 778.417223 239.765364 
L 778.9979 240.411563 
L 779.868917 241.873515 
L 781.901289 245.72946 
L 783.062644 247.552016 
L 783.93366 249.399152 
L 785.675693 253.36513 
L 786.837049 255.483077 
L 787.998404 257.179334 
L 789.450098 258.842416 
L 796.41823 265.784221 
L 800.773312 270.070197 
L 804.838056 273.752181 
L 808.61246 276.878489 
L 812.386865 279.711296 
L 815.580592 281.835162 
L 817.903303 283.096442 
L 821.09703 284.549945 
L 824.290757 285.745892 
L 827.194145 286.602156 
L 830.097533 287.233375 
L 833.000922 287.636337 
L 835.90431 287.810892 
L 838.517359 287.763961 
L 840.84007 287.499027 
L 843.16278 287.021715 
L 845.485491 286.339419 
L 847.227524 285.651403 
L 848.969557 284.72748 
L 850.71159 283.563083 
L 852.743962 281.910029 
L 854.776333 279.951575 
L 856.808705 277.701597 
L 859.131416 274.7931 
L 861.454126 271.539226 
L 864.357514 267.062967 
L 867.551242 261.712662 
L 871.615985 254.426737 
L 877.7131 243.408779 
L 881.197166 237.575591 
L 883.810216 233.558361 
L 886.132926 230.365999 
L 888.455637 227.517163 
L 891.359025 224.320441 
L 894.552752 221.12045 
L 897.746479 218.2318 
L 900.940206 215.654836 
L 903.843595 213.581205 
L 907.037322 211.583566 
L 909.94071 210.011442 
L 912.844098 208.67711 
L 915.747486 207.585708 
L 917.489519 207.080174 
L 918.650875 206.981622 
L 920.973585 206.980008 
L 921.844602 206.678454 
L 923.005957 206.020908 
L 925.038329 204.676713 
L 926.490023 204.063627 
L 928.522395 203.45964 
L 930.845105 202.99682 
L 933.458155 202.703837 
L 936.071204 202.634188 
L 938.684253 202.785114 
L 941.297303 203.160577 
L 943.910352 203.762114 
L 946.523402 204.584099 
L 949.42679 205.723711 
L 952.620517 207.22563 
L 955.814244 208.966726 
L 959.588649 211.289946 
L 964.524409 214.617577 
L 970.040846 218.623057 
L 975.557284 222.8968 
L 979.912366 226.538428 
L 984.848126 230.951812 
L 990.654903 236.465083 
L 1002.849133 248.184435 
L 1007.494555 252.249443 
L 1011.559298 255.527461 
L 1014.462686 257.627185 
L 1017.366075 259.458986 
L 1020.269463 261.015355 
L 1022.882512 262.175003 
L 1025.205223 262.987598 
L 1027.527933 263.587786 
L 1029.850644 263.980612 
L 1032.463693 264.182359 
L 1034.786404 264.143138 
L 1037.399453 263.863675 
L 1040.012503 263.358399 
L 1042.915891 262.562651 
L 1045.52894 261.608973 
L 1049.013006 260.053048 
L 1053.948766 257.58839 
L 1061.497576 253.657006 
L 1061.497576 253.657006 
" clip-path="url(#pd7ec068602)" style="fill: none; stroke: #116496; stroke-width: 1.5; stroke-linecap: square"/>
   </g>
   <g id="patch_13">
    <path d="M 756.946667 292.08 
L 1076 292.08 
" style="fill: none; stroke: #000000; stroke-width: 0.8; stroke-linejoin: miter; stroke-linecap: square"/>
   </g>
  </g>
  <g id="text_62">
   <!-- Movement in Task Space using NN -->
   <g transform="translate(385.285 19.3575) scale(0.16 -0.16)">
    <defs>
     <path id="DejaVuSans-Bold-4d" d="M 588 4666 
L 2119 4666 
L 3181 2169 
L 4250 4666 
L 5778 4666 
L 5778 0 
L 4641 0 
L 4641 3413 
L 3566 897 
L 2803 897 
L 1728 3413 
L 1728 0 
L 588 0 
L 588 4666 
z
" transform="scale(0.015625)"/>
     <path id="DejaVuSans-Bold-6f" d="M 2203 2784 
Q 1831 2784 1636 2517 
Q 1441 2250 1441 1747 
Q 1441 1244 1636 976 
Q 1831 709 2203 709 
Q 2569 709 2762 976 
Q 2956 1244 2956 1747 
Q 2956 2250 2762 2517 
Q 2569 2784 2203 2784 
z
M 2203 3584 
Q 3106 3584 3614 3096 
Q 4122 2609 4122 1747 
Q 4122 884 3614 396 
Q 3106 -91 2203 -91 
Q 1297 -91 786 396 
Q 275 884 275 1747 
Q 275 2609 786 3096 
Q 1297 3584 2203 3584 
z
" transform="scale(0.015625)"/>
     <path id="DejaVuSans-Bold-76" d="M 97 3500 
L 1216 3500 
L 2088 1081 
L 2956 3500 
L 4078 3500 
L 2700 0 
L 1472 0 
L 97 3500 
z
" transform="scale(0.015625)"/>
     <path id="DejaVuSans-Bold-65" d="M 4031 1759 
L 4031 1441 
L 1416 1441 
Q 1456 1047 1700 850 
Q 1944 653 2381 653 
Q 2734 653 3104 758 
Q 3475 863 3866 1075 
L 3866 213 
Q 3469 63 3072 -14 
Q 2675 -91 2278 -91 
Q 1328 -91 801 392 
Q 275 875 275 1747 
Q 275 2603 792 3093 
Q 1309 3584 2216 3584 
Q 3041 3584 3536 3087 
Q 4031 2591 4031 1759 
z
M 2881 2131 
Q 2881 2450 2695 2645 
Q 2509 2841 2209 2841 
Q 1884 2841 1681 2658 
Q 1478 2475 1428 2131 
L 2881 2131 
z
" transform="scale(0.015625)"/>
     <path id="DejaVuSans-Bold-6d" d="M 3781 2919 
Q 3994 3244 4286 3414 
Q 4578 3584 4928 3584 
Q 5531 3584 5847 3212 
Q 6163 2841 6163 2131 
L 6163 0 
L 5038 0 
L 5038 1825 
Q 5041 1866 5042 1909 
Q 5044 1953 5044 2034 
Q 5044 2406 4934 2573 
Q 4825 2741 4581 2741 
Q 4263 2741 4089 2478 
Q 3916 2216 3909 1719 
L 3909 0 
L 2784 0 
L 2784 1825 
Q 2784 2406 2684 2573 
Q 2584 2741 2328 2741 
Q 2006 2741 1831 2477 
Q 1656 2213 1656 1722 
L 1656 0 
L 531 0 
L 531 3500 
L 1656 3500 
L 1656 2988 
Q 1863 3284 2130 3434 
Q 2397 3584 2719 3584 
Q 3081 3584 3359 3409 
Q 3638 3234 3781 2919 
z
" transform="scale(0.015625)"/>
     <path id="DejaVuSans-Bold-6e" d="M 4056 2131 
L 4056 0 
L 2931 0 
L 2931 347 
L 2931 1631 
Q 2931 2084 2911 2256 
Q 2891 2428 2841 2509 
Q 2775 2619 2662 2680 
Q 2550 2741 2406 2741 
Q 2056 2741 1856 2470 
Q 1656 2200 1656 1722 
L 1656 0 
L 538 0 
L 538 3500 
L 1656 3500 
L 1656 2988 
Q 1909 3294 2193 3439 
Q 2478 3584 2822 3584 
Q 3428 3584 3742 3212 
Q 4056 2841 4056 2131 
z
" transform="scale(0.015625)"/>
     <path id="DejaVuSans-Bold-74" d="M 1759 4494 
L 1759 3500 
L 2913 3500 
L 2913 2700 
L 1759 2700 
L 1759 1216 
Q 1759 972 1856 886 
Q 1953 800 2241 800 
L 2816 800 
L 2816 0 
L 1856 0 
Q 1194 0 917 276 
Q 641 553 641 1216 
L 641 2700 
L 84 2700 
L 84 3500 
L 641 3500 
L 641 4494 
L 1759 4494 
z
" transform="scale(0.015625)"/>
     <path id="DejaVuSans-Bold-20" transform="scale(0.015625)"/>
     <path id="DejaVuSans-Bold-54" d="M 31 4666 
L 4331 4666 
L 4331 3756 
L 2784 3756 
L 2784 0 
L 1581 0 
L 1581 3756 
L 31 3756 
L 31 4666 
z
" transform="scale(0.015625)"/>
     <path id="DejaVuSans-Bold-6b" d="M 538 4863 
L 1656 4863 
L 1656 2216 
L 2944 3500 
L 4244 3500 
L 2534 1894 
L 4378 0 
L 3022 0 
L 1656 1459 
L 1656 0 
L 538 0 
L 538 4863 
z
" transform="scale(0.015625)"/>
     <path id="DejaVuSans-Bold-53" d="M 3834 4519 
L 3834 3531 
Q 3450 3703 3084 3790 
Q 2719 3878 2394 3878 
Q 1963 3878 1756 3759 
Q 1550 3641 1550 3391 
Q 1550 3203 1689 3098 
Q 1828 2994 2194 2919 
L 2706 2816 
Q 3484 2659 3812 2340 
Q 4141 2022 4141 1434 
Q 4141 663 3683 286 
Q 3225 -91 2284 -91 
Q 1841 -91 1394 -6 
Q 947 78 500 244 
L 500 1259 
Q 947 1022 1364 901 
Q 1781 781 2169 781 
Q 2563 781 2772 912 
Q 2981 1044 2981 1288 
Q 2981 1506 2839 1625 
Q 2697 1744 2272 1838 
L 1806 1941 
Q 1106 2091 782 2419 
Q 459 2747 459 3303 
Q 459 4000 909 4375 
Q 1359 4750 2203 4750 
Q 2588 4750 2994 4692 
Q 3400 4634 3834 4519 
z
" transform="scale(0.015625)"/>
     <path id="DejaVuSans-Bold-70" d="M 1656 506 
L 1656 -1331 
L 538 -1331 
L 538 3500 
L 1656 3500 
L 1656 2988 
Q 1888 3294 2169 3439 
Q 2450 3584 2816 3584 
Q 3463 3584 3878 3070 
Q 4294 2556 4294 1747 
Q 4294 938 3878 423 
Q 3463 -91 2816 -91 
Q 2450 -91 2169 54 
Q 1888 200 1656 506 
z
M 2400 2772 
Q 2041 2772 1848 2508 
Q 1656 2244 1656 1747 
Q 1656 1250 1848 986 
Q 2041 722 2400 722 
Q 2759 722 2948 984 
Q 3138 1247 3138 1747 
Q 3138 2247 2948 2509 
Q 2759 2772 2400 2772 
z
" transform="scale(0.015625)"/>
     <path id="DejaVuSans-Bold-63" d="M 3366 3391 
L 3366 2478 
Q 3138 2634 2908 2709 
Q 2678 2784 2431 2784 
Q 1963 2784 1702 2511 
Q 1441 2238 1441 1747 
Q 1441 1256 1702 982 
Q 1963 709 2431 709 
Q 2694 709 2930 787 
Q 3166 866 3366 1019 
L 3366 103 
Q 3103 6 2833 -42 
Q 2563 -91 2291 -91 
Q 1344 -91 809 395 
Q 275 881 275 1747 
Q 275 2613 809 3098 
Q 1344 3584 2291 3584 
Q 2566 3584 2833 3536 
Q 3100 3488 3366 3391 
z
" transform="scale(0.015625)"/>
     <path id="DejaVuSans-Bold-75" d="M 500 1363 
L 500 3500 
L 1625 3500 
L 1625 3150 
Q 1625 2866 1622 2436 
Q 1619 2006 1619 1863 
Q 1619 1441 1641 1255 
Q 1663 1069 1716 984 
Q 1784 875 1895 815 
Q 2006 756 2150 756 
Q 2500 756 2700 1025 
Q 2900 1294 2900 1772 
L 2900 3500 
L 4019 3500 
L 4019 0 
L 2900 0 
L 2900 506 
Q 2647 200 2364 54 
Q 2081 -91 1741 -91 
Q 1134 -91 817 281 
Q 500 653 500 1363 
z
" transform="scale(0.015625)"/>
     <path id="DejaVuSans-Bold-67" d="M 2919 594 
Q 2688 288 2409 144 
Q 2131 0 1766 0 
Q 1125 0 706 504 
Q 288 1009 288 1791 
Q 288 2575 706 3076 
Q 1125 3578 1766 3578 
Q 2131 3578 2409 3434 
Q 2688 3291 2919 2981 
L 2919 3500 
L 4044 3500 
L 4044 353 
Q 4044 -491 3511 -936 
Q 2978 -1381 1966 -1381 
Q 1638 -1381 1331 -1331 
Q 1025 -1281 716 -1178 
L 716 -306 
Q 1009 -475 1290 -558 
Q 1572 -641 1856 -641 
Q 2406 -641 2662 -400 
Q 2919 -159 2919 353 
L 2919 594 
z
M 2181 2772 
Q 1834 2772 1640 2515 
Q 1447 2259 1447 1791 
Q 1447 1309 1634 1061 
Q 1822 813 2181 813 
Q 2531 813 2725 1069 
Q 2919 1325 2919 1791 
Q 2919 2259 2725 2515 
Q 2531 2772 2181 2772 
z
" transform="scale(0.015625)"/>
     <path id="DejaVuSans-Bold-4e" d="M 588 4666 
L 1931 4666 
L 3628 1466 
L 3628 4666 
L 4769 4666 
L 4769 0 
L 3425 0 
L 1728 3200 
L 1728 0 
L 588 0 
L 588 4666 
z
" transform="scale(0.015625)"/>
    </defs>
    <use xlink:href="#DejaVuSans-Bold-4d"/>
    <use xlink:href="#DejaVuSans-Bold-6f" x="99.511719"/>
    <use xlink:href="#DejaVuSans-Bold-76" x="168.212891"/>
    <use xlink:href="#DejaVuSans-Bold-65" x="233.398438"/>
    <use xlink:href="#DejaVuSans-Bold-6d" x="301.220703"/>
    <use xlink:href="#DejaVuSans-Bold-65" x="405.419922"/>
    <use xlink:href="#DejaVuSans-Bold-6e" x="473.242188"/>
    <use xlink:href="#DejaVuSans-Bold-74" x="544.433594"/>
    <use xlink:href="#DejaVuSans-Bold-20" x="592.236328"/>
    <use xlink:href="#DejaVuSans-Bold-69" x="627.050781"/>
    <use xlink:href="#DejaVuSans-Bold-6e" x="661.328125"/>
    <use xlink:href="#DejaVuSans-Bold-20" x="732.519531"/>
    <use xlink:href="#DejaVuSans-Bold-54" x="767.333984"/>
    <use xlink:href="#DejaVuSans-Bold-61" x="822.671875"/>
    <use xlink:href="#DejaVuSans-Bold-73" x="890.152344"/>
    <use xlink:href="#DejaVuSans-Bold-6b" x="949.673828"/>
    <use xlink:href="#DejaVuSans-Bold-20" x="1016.177734"/>
    <use xlink:href="#DejaVuSans-Bold-53" x="1050.992188"/>
    <use xlink:href="#DejaVuSans-Bold-70" x="1123.013672"/>
    <use xlink:href="#DejaVuSans-Bold-61" x="1194.595703"/>
    <use xlink:href="#DejaVuSans-Bold-63" x="1262.076172"/>
    <use xlink:href="#DejaVuSans-Bold-65" x="1321.353516"/>
    <use xlink:href="#DejaVuSans-Bold-20" x="1389.175781"/>
    <use xlink:href="#DejaVuSans-Bold-75" x="1423.990234"/>
    <use xlink:href="#DejaVuSans-Bold-73" x="1495.181641"/>
    <use xlink:href="#DejaVuSans-Bold-69" x="1554.703125"/>
    <use xlink:href="#DejaVuSans-Bold-6e" x="1588.980469"/>
    <use xlink:href="#DejaVuSans-Bold-67" x="1660.171875"/>
    <use xlink:href="#DejaVuSans-Bold-20" x="1731.753906"/>
    <use xlink:href="#DejaVuSans-Bold-4e" x="1766.568359"/>
    <use xlink:href="#DejaVuSans-Bold-4e" x="1850.259766"/>
   </g>
  </g>
  <g id="legend_1">
   <g id="patch_14">
    <path d="M 237.581562 355.82 
L 846.418438 355.82 
Q 848.818438 355.82 848.818438 353.42 
L 848.818438 337.00625 
Q 848.818438 334.60625 846.418438 334.60625 
L 237.581562 334.60625 
Q 235.181562 334.60625 235.181562 337.00625 
L 235.181562 353.42 
Q 235.181562 355.82 237.581562 355.82 
z
" style="fill: #4c4c4c; opacity: 0.5; stroke: #4c4c4c; stroke-linejoin: miter"/>
   </g>
   <g id="patch_15">
    <path d="M 235.581562 353.82 
L 844.418438 353.82 
Q 846.818438 353.82 846.818438 351.42 
L 846.818438 335.00625 
Q 846.818438 332.60625 844.418438 332.60625 
L 235.581562 332.60625 
Q 233.181562 332.60625 233.181562 335.00625 
L 233.181562 351.42 
Q 233.181562 353.82 235.581562 353.82 
z
" style="fill: #ffffff; stroke: #cccccc; stroke-linejoin: miter"/>
   </g>
   <g id="line2d_119">
    <path d="M 237.981562 342.324375 
L 249.981562 342.324375 
L 261.981562 342.324375 
" style="fill: none; stroke-dasharray: 3.7,1.6; stroke-dashoffset: 0; stroke: #000000"/>
   </g>
   <g id="text_63">
    <!-- Time of force application -->
    <g transform="translate(271.581563 346.524375) scale(0.12 -0.12)">
     <defs>
      <path id="DejaVuSans-54" d="M -19 4666 
L 3928 4666 
L 3928 4134 
L 2272 4134 
L 2272 0 
L 1638 0 
L 1638 4134 
L -19 4134 
L -19 4666 
z
" transform="scale(0.015625)"/>
      <path id="DejaVuSans-6f" d="M 1959 3097 
Q 1497 3097 1228 2736 
Q 959 2375 959 1747 
Q 959 1119 1226 758 
Q 1494 397 1959 397 
Q 2419 397 2687 759 
Q 2956 1122 2956 1747 
Q 2956 2369 2687 2733 
Q 2419 3097 1959 3097 
z
M 1959 3584 
Q 2709 3584 3137 3096 
Q 3566 2609 3566 1747 
Q 3566 888 3137 398 
Q 2709 -91 1959 -91 
Q 1206 -91 779 398 
Q 353 888 353 1747 
Q 353 2609 779 3096 
Q 1206 3584 1959 3584 
z
" transform="scale(0.015625)"/>
      <path id="DejaVuSans-66" d="M 2375 4863 
L 2375 4384 
L 1825 4384 
Q 1516 4384 1395 4259 
Q 1275 4134 1275 3809 
L 1275 3500 
L 2222 3500 
L 2222 3053 
L 1275 3053 
L 1275 0 
L 697 0 
L 697 3053 
L 147 3053 
L 147 3500 
L 697 3500 
L 697 3744 
Q 697 4328 969 4595 
Q 1241 4863 1831 4863 
L 2375 4863 
z
" transform="scale(0.015625)"/>
      <path id="DejaVuSans-72" d="M 2631 2963 
Q 2534 3019 2420 3045 
Q 2306 3072 2169 3072 
Q 1681 3072 1420 2755 
Q 1159 2438 1159 1844 
L 1159 0 
L 581 0 
L 581 3500 
L 1159 3500 
L 1159 2956 
Q 1341 3275 1631 3429 
Q 1922 3584 2338 3584 
Q 2397 3584 2469 3576 
Q 2541 3569 2628 3553 
L 2631 2963 
z
" transform="scale(0.015625)"/>
      <path id="DejaVuSans-63" d="M 3122 3366 
L 3122 2828 
Q 2878 2963 2633 3030 
Q 2388 3097 2138 3097 
Q 1578 3097 1268 2742 
Q 959 2388 959 1747 
Q 959 1106 1268 751 
Q 1578 397 2138 397 
Q 2388 397 2633 464 
Q 2878 531 3122 666 
L 3122 134 
Q 2881 22 2623 -34 
Q 2366 -91 2075 -91 
Q 1284 -91 818 406 
Q 353 903 353 1747 
Q 353 2603 823 3093 
Q 1294 3584 2113 3584 
Q 2378 3584 2631 3529 
Q 2884 3475 3122 3366 
z
" transform="scale(0.015625)"/>
      <path id="DejaVuSans-61" d="M 2194 1759 
Q 1497 1759 1228 1600 
Q 959 1441 959 1056 
Q 959 750 1161 570 
Q 1363 391 1709 391 
Q 2188 391 2477 730 
Q 2766 1069 2766 1631 
L 2766 1759 
L 2194 1759 
z
M 3341 1997 
L 3341 0 
L 2766 0 
L 2766 531 
Q 2569 213 2275 61 
Q 1981 -91 1556 -91 
Q 1019 -91 701 211 
Q 384 513 384 1019 
Q 384 1609 779 1909 
Q 1175 2209 1959 2209 
L 2766 2209 
L 2766 2266 
Q 2766 2663 2505 2880 
Q 2244 3097 1772 3097 
Q 1472 3097 1187 3025 
Q 903 2953 641 2809 
L 641 3341 
Q 956 3463 1253 3523 
Q 1550 3584 1831 3584 
Q 2591 3584 2966 3190 
Q 3341 2797 3341 1997 
z
" transform="scale(0.015625)"/>
      <path id="DejaVuSans-70" d="M 1159 525 
L 1159 -1331 
L 581 -1331 
L 581 3500 
L 1159 3500 
L 1159 2969 
Q 1341 3281 1617 3432 
Q 1894 3584 2278 3584 
Q 2916 3584 3314 3078 
Q 3713 2572 3713 1747 
Q 3713 922 3314 415 
Q 2916 -91 2278 -91 
Q 1894 -91 1617 61 
Q 1341 213 1159 525 
z
M 3116 1747 
Q 3116 2381 2855 2742 
Q 2594 3103 2138 3103 
Q 1681 3103 1420 2742 
Q 1159 2381 1159 1747 
Q 1159 1113 1420 752 
Q 1681 391 2138 391 
Q 2594 391 2855 752 
Q 3116 1113 3116 1747 
z
" transform="scale(0.015625)"/>
      <path id="DejaVuSans-6c" d="M 603 4863 
L 1178 4863 
L 1178 0 
L 603 0 
L 603 4863 
z
" transform="scale(0.015625)"/>
      <path id="DejaVuSans-6e" d="M 3513 2113 
L 3513 0 
L 2938 0 
L 2938 2094 
Q 2938 2591 2744 2837 
Q 2550 3084 2163 3084 
Q 1697 3084 1428 2787 
Q 1159 2491 1159 1978 
L 1159 0 
L 581 0 
L 581 3500 
L 1159 3500 
L 1159 2956 
Q 1366 3272 1645 3428 
Q 1925 3584 2291 3584 
Q 2894 3584 3203 3211 
Q 3513 2838 3513 2113 
z
" transform="scale(0.015625)"/>
     </defs>
     <use xlink:href="#DejaVuSans-54"/>
     <use xlink:href="#DejaVuSans-69" x="57.958984"/>
     <use xlink:href="#DejaVuSans-6d" x="85.742188"/>
     <use xlink:href="#DejaVuSans-65" x="183.154297"/>
     <use xlink:href="#DejaVuSans-20" x="244.677734"/>
     <use xlink:href="#DejaVuSans-6f" x="276.464844"/>
     <use xlink:href="#DejaVuSans-66" x="337.646484"/>
     <use xlink:href="#DejaVuSans-20" x="372.851562"/>
     <use xlink:href="#DejaVuSans-66" x="404.638672"/>
     <use xlink:href="#DejaVuSans-6f" x="439.84375"/>
     <use xlink:href="#DejaVuSans-72" x="501.025391"/>
     <use xlink:href="#DejaVuSans-63" x="539.888672"/>
     <use xlink:href="#DejaVuSans-65" x="594.869141"/>
     <use xlink:href="#DejaVuSans-20" x="656.392578"/>
     <use xlink:href="#DejaVuSans-61" x="688.179688"/>
     <use xlink:href="#DejaVuSans-70" x="749.458984"/>
     <use xlink:href="#DejaVuSans-70" x="812.935547"/>
     <use xlink:href="#DejaVuSans-6c" x="876.412109"/>
     <use xlink:href="#DejaVuSans-69" x="904.195312"/>
     <use xlink:href="#DejaVuSans-63" x="931.978516"/>
     <use xlink:href="#DejaVuSans-61" x="986.958984"/>
     <use xlink:href="#DejaVuSans-74" x="1048.238281"/>
     <use xlink:href="#DejaVuSans-69" x="1087.447266"/>
     <use xlink:href="#DejaVuSans-6f" x="1115.230469"/>
     <use xlink:href="#DejaVuSans-6e" x="1176.412109"/>
    </g>
   </g>
   <g id="line2d_120">
    <path d="M 444.357188 342.324375 
L 456.357188 342.324375 
L 468.357188 342.324375 
" style="fill: none; stroke: #e1b8a0; stroke-width: 1.5; stroke-linecap: square"/>
   </g>
   <g id="text_64">
    <!-- Demonstrated trajectory -->
    <g transform="translate(477.957188 346.524375) scale(0.12 -0.12)">
     <defs>
      <path id="DejaVuSans-44" d="M 1259 4147 
L 1259 519 
L 2022 519 
Q 2988 519 3436 956 
Q 3884 1394 3884 2338 
Q 3884 3275 3436 3711 
Q 2988 4147 2022 4147 
L 1259 4147 
z
M 628 4666 
L 1925 4666 
Q 3281 4666 3915 4102 
Q 4550 3538 4550 2338 
Q 4550 1131 3912 565 
Q 3275 0 1925 0 
L 628 0 
L 628 4666 
z
" transform="scale(0.015625)"/>
      <path id="DejaVuSans-64" d="M 2906 2969 
L 2906 4863 
L 3481 4863 
L 3481 0 
L 2906 0 
L 2906 525 
Q 2725 213 2448 61 
Q 2172 -91 1784 -91 
Q 1150 -91 751 415 
Q 353 922 353 1747 
Q 353 2572 751 3078 
Q 1150 3584 1784 3584 
Q 2172 3584 2448 3432 
Q 2725 3281 2906 2969 
z
M 947 1747 
Q 947 1113 1208 752 
Q 1469 391 1925 391 
Q 2381 391 2643 752 
Q 2906 1113 2906 1747 
Q 2906 2381 2643 2742 
Q 2381 3103 1925 3103 
Q 1469 3103 1208 2742 
Q 947 2381 947 1747 
z
" transform="scale(0.015625)"/>
      <path id="DejaVuSans-6a" d="M 603 3500 
L 1178 3500 
L 1178 -63 
Q 1178 -731 923 -1031 
Q 669 -1331 103 -1331 
L -116 -1331 
L -116 -844 
L 38 -844 
Q 366 -844 484 -692 
Q 603 -541 603 -63 
L 603 3500 
z
M 603 4863 
L 1178 4863 
L 1178 4134 
L 603 4134 
L 603 4863 
z
" transform="scale(0.015625)"/>
      <path id="DejaVuSans-79" d="M 2059 -325 
Q 1816 -950 1584 -1140 
Q 1353 -1331 966 -1331 
L 506 -1331 
L 506 -850 
L 844 -850 
Q 1081 -850 1212 -737 
Q 1344 -625 1503 -206 
L 1606 56 
L 191 3500 
L 800 3500 
L 1894 763 
L 2988 3500 
L 3597 3500 
L 2059 -325 
z
" transform="scale(0.015625)"/>
     </defs>
     <use xlink:href="#DejaVuSans-44"/>
     <use xlink:href="#DejaVuSans-65" x="77.001953"/>
     <use xlink:href="#DejaVuSans-6d" x="138.525391"/>
     <use xlink:href="#DejaVuSans-6f" x="235.9375"/>
     <use xlink:href="#DejaVuSans-6e" x="297.119141"/>
     <use xlink:href="#DejaVuSans-73" x="360.498047"/>
     <use xlink:href="#DejaVuSans-74" x="412.597656"/>
     <use xlink:href="#DejaVuSans-72" x="451.806641"/>
     <use xlink:href="#DejaVuSans-61" x="492.919922"/>
     <use xlink:href="#DejaVuSans-74" x="554.199219"/>
     <use xlink:href="#DejaVuSans-65" x="593.408203"/>
     <use xlink:href="#DejaVuSans-64" x="654.931641"/>
     <use xlink:href="#DejaVuSans-20" x="718.408203"/>
     <use xlink:href="#DejaVuSans-74" x="750.195312"/>
     <use xlink:href="#DejaVuSans-72" x="789.404297"/>
     <use xlink:href="#DejaVuSans-61" x="830.517578"/>
     <use xlink:href="#DejaVuSans-6a" x="891.796875"/>
     <use xlink:href="#DejaVuSans-65" x="919.580078"/>
     <use xlink:href="#DejaVuSans-63" x="981.103516"/>
     <use xlink:href="#DejaVuSans-74" x="1036.083984"/>
     <use xlink:href="#DejaVuSans-6f" x="1075.292969"/>
     <use xlink:href="#DejaVuSans-72" x="1136.474609"/>
     <use xlink:href="#DejaVuSans-79" x="1177.587891"/>
    </g>
   </g>
   <g id="line2d_121">
    <path d="M 650.369062 342.324375 
L 662.369062 342.324375 
L 674.369062 342.324375 
" style="fill: none; stroke: #116496; stroke-width: 1.5; stroke-linecap: square"/>
   </g>
   <g id="text_65">
    <!-- Evaluation -->
    <g transform="translate(683.969062 346.524375) scale(0.12 -0.12)">
     <defs>
      <path id="DejaVuSans-76" d="M 191 3500 
L 800 3500 
L 1894 563 
L 2988 3500 
L 3597 3500 
L 2284 0 
L 1503 0 
L 191 3500 
z
" transform="scale(0.015625)"/>
      <path id="DejaVuSans-75" d="M 544 1381 
L 544 3500 
L 1119 3500 
L 1119 1403 
Q 1119 906 1312 657 
Q 1506 409 1894 409 
Q 2359 409 2629 706 
Q 2900 1003 2900 1516 
L 2900 3500 
L 3475 3500 
L 3475 0 
L 2900 0 
L 2900 538 
Q 2691 219 2414 64 
Q 2138 -91 1772 -91 
Q 1169 -91 856 284 
Q 544 659 544 1381 
z
M 1991 3584 
L 1991 3584 
z
" transform="scale(0.015625)"/>
     </defs>
     <use xlink:href="#DejaVuSans-45"/>
     <use xlink:href="#DejaVuSans-76" x="63.183594"/>
     <use xlink:href="#DejaVuSans-61" x="122.363281"/>
     <use xlink:href="#DejaVuSans-6c" x="183.642578"/>
     <use xlink:href="#DejaVuSans-75" x="211.425781"/>
     <use xlink:href="#DejaVuSans-61" x="274.804688"/>
     <use xlink:href="#DejaVuSans-74" x="336.083984"/>
     <use xlink:href="#DejaVuSans-69" x="375.292969"/>
     <use xlink:href="#DejaVuSans-6f" x="403.076172"/>
     <use xlink:href="#DejaVuSans-6e" x="464.257812"/>
    </g>
   </g>
   <g id="PathCollection_7">
    <g>
     <use xlink:href="#mbadb270ee8" x="783.285937" y="343.374375" style="fill: #008000; stroke: #008000; stroke-width: 1.5"/>
    </g>
   </g>
   <g id="text_66">
    <!-- Target -->
    <g transform="translate(804.885937 346.524375) scale(0.12 -0.12)">
     <defs>
      <path id="DejaVuSans-67" d="M 2906 1791 
Q 2906 2416 2648 2759 
Q 2391 3103 1925 3103 
Q 1463 3103 1205 2759 
Q 947 2416 947 1791 
Q 947 1169 1205 825 
Q 1463 481 1925 481 
Q 2391 481 2648 825 
Q 2906 1169 2906 1791 
z
M 3481 434 
Q 3481 -459 3084 -895 
Q 2688 -1331 1869 -1331 
Q 1566 -1331 1297 -1286 
Q 1028 -1241 775 -1147 
L 775 -588 
Q 1028 -725 1275 -790 
Q 1522 -856 1778 -856 
Q 2344 -856 2625 -561 
Q 2906 -266 2906 331 
L 2906 616 
Q 2728 306 2450 153 
Q 2172 0 1784 0 
Q 1141 0 747 490 
Q 353 981 353 1791 
Q 353 2603 747 3093 
Q 1141 3584 1784 3584 
Q 2172 3584 2450 3431 
Q 2728 3278 2906 2969 
L 2906 3500 
L 3481 3500 
L 3481 434 
z
" transform="scale(0.015625)"/>
     </defs>
     <use xlink:href="#DejaVuSans-54"/>
     <use xlink:href="#DejaVuSans-61" x="44.583984"/>
     <use xlink:href="#DejaVuSans-72" x="105.863281"/>
     <use xlink:href="#DejaVuSans-67" x="145.226562"/>
     <use xlink:href="#DejaVuSans-65" x="208.703125"/>
     <use xlink:href="#DejaVuSans-74" x="270.226562"/>
    </g>
   </g>
  </g>
 </g>
 <defs>
  <clipPath id="pcea75a4e11">
   <rect x="50.92" y="38.48" width="319.053333" height="93.708869"/>
  </clipPath>
  <clipPath id="p5f7a24ed13">
   <rect x="403.933333" y="38.48" width="319.053333" height="93.708869"/>
  </clipPath>
  <clipPath id="p58eaccefdb">
   <rect x="756.946667" y="38.48" width="319.053333" height="93.708869"/>
  </clipPath>
  <clipPath id="p71a78d660c">
   <rect x="50.92" y="198.371131" width="319.053333" height="93.708869"/>
  </clipPath>
  <clipPath id="pd93704594a">
   <rect x="403.933333" y="198.371131" width="319.053333" height="93.708869"/>
  </clipPath>
  <clipPath id="pd7ec068602">
   <rect x="756.946667" y="198.371131" width="319.053333" height="93.708869"/>
  </clipPath>
 </defs>
</svg>
