<?xml version="1.0" encoding="utf-8" standalone="no"?>
<!DOCTYPE svg PUBLIC "-//W3C//DTD SVG 1.1//EN"
  "http://www.w3.org/Graphics/SVG/1.1/DTD/svg11.dtd">
<svg xmlns:xlink="http://www.w3.org/1999/xlink" width="1080pt" height="360pt" viewBox="0 0 1080 360" xmlns="http://www.w3.org/2000/svg" version="1.1">
 <metadata>
  <rdf:RDF xmlns:dc="http://purl.org/dc/elements/1.1/" xmlns:cc="http://creativecommons.org/ns#" xmlns:rdf="http://www.w3.org/1999/02/22-rdf-syntax-ns#">
   <cc:Work>
    <dc:type rdf:resource="http://purl.org/dc/dcmitype/StillImage"/>
    <dc:date>2023-01-20T02:11:11.371721</dc:date>
    <dc:format>image/svg+xml</dc:format>
    <dc:creator>
     <cc:Agent>
      <dc:title>Matplotlib v3.6.2, https://matplotlib.org/</dc:title>
     </cc:Agent>
    </dc:creator>
   </cc:Work>
  </rdf:RDF>
 </metadata>
 <defs>
  <style type="text/css">*{stroke-linejoin: round; stroke-linecap: butt}</style>
 </defs>
 <g id="figure_1">
  <g id="patch_1">
   <path d="M 0 360 
L 1080 360 
L 1080 0 
L 0 0 
z
" style="fill: #ffffff"/>
  </g>
  <g id="axes_1">
   <g id="patch_2">
    <path d="M 51.01 292.08 
L 368.353333 292.08 
L 368.353333 38.48 
L 51.01 38.48 
z
" style="fill: #ffffff"/>
   </g>
   <g id="matplotlib.axis_1">
    <g id="xtick_1">
     <g id="line2d_1">
      <path d="M 65.434697 292.08 
L 65.434697 38.48 
" clip-path="url(#p25886f9918)" style="fill: none; stroke: #e6e6e6; stroke-linecap: square"/>
     </g>
     <g id="line2d_2">
      <defs>
       <path id="mba519ed1c4" d="M 0 0 
L 0 3.5 
" style="stroke: #000000; stroke-width: 0.8"/>
      </defs>
      <g>
       <use xlink:href="#mba519ed1c4" x="65.434697" y="292.08" style="stroke: #000000; stroke-width: 0.8"/>
      </g>
     </g>
     <g id="text_1">
      <!-- 0 -->
      <g transform="translate(61.617197 308.198125) scale(0.12 -0.12)">
       <defs>
        <path id="DejaVuSans-30" d="M 2034 4250 
Q 1547 4250 1301 3770 
Q 1056 3291 1056 2328 
Q 1056 1369 1301 889 
Q 1547 409 2034 409 
Q 2525 409 2770 889 
Q 3016 1369 3016 2328 
Q 3016 3291 2770 3770 
Q 2525 4250 2034 4250 
z
M 2034 4750 
Q 2819 4750 3233 4129 
Q 3647 3509 3647 2328 
Q 3647 1150 3233 529 
Q 2819 -91 2034 -91 
Q 1250 -91 836 529 
Q 422 1150 422 2328 
Q 422 3509 836 4129 
Q 1250 4750 2034 4750 
z
" transform="scale(0.015625)"/>
       </defs>
       <use xlink:href="#DejaVuSans-30"/>
      </g>
     </g>
    </g>
    <g id="xtick_2">
     <g id="line2d_3">
      <path d="M 123.191241 292.08 
L 123.191241 38.48 
" clip-path="url(#p25886f9918)" style="fill: none; stroke: #e6e6e6; stroke-linecap: square"/>
     </g>
     <g id="line2d_4">
      <g>
       <use xlink:href="#mba519ed1c4" x="123.191241" y="292.08" style="stroke: #000000; stroke-width: 0.8"/>
      </g>
     </g>
     <g id="text_2">
      <!-- 2 -->
      <g transform="translate(119.373741 308.198125) scale(0.12 -0.12)">
       <defs>
        <path id="DejaVuSans-32" d="M 1228 531 
L 3431 531 
L 3431 0 
L 469 0 
L 469 531 
Q 828 903 1448 1529 
Q 2069 2156 2228 2338 
Q 2531 2678 2651 2914 
Q 2772 3150 2772 3378 
Q 2772 3750 2511 3984 
Q 2250 4219 1831 4219 
Q 1534 4219 1204 4116 
Q 875 4013 500 3803 
L 500 4441 
Q 881 4594 1212 4672 
Q 1544 4750 1819 4750 
Q 2544 4750 2975 4387 
Q 3406 4025 3406 3419 
Q 3406 3131 3298 2873 
Q 3191 2616 2906 2266 
Q 2828 2175 2409 1742 
Q 1991 1309 1228 531 
z
" transform="scale(0.015625)"/>
       </defs>
       <use xlink:href="#DejaVuSans-32"/>
      </g>
     </g>
    </g>
    <g id="xtick_3">
     <g id="line2d_5">
      <path d="M 180.947786 292.08 
L 180.947786 38.48 
" clip-path="url(#p25886f9918)" style="fill: none; stroke: #e6e6e6; stroke-linecap: square"/>
     </g>
     <g id="line2d_6">
      <g>
       <use xlink:href="#mba519ed1c4" x="180.947786" y="292.08" style="stroke: #000000; stroke-width: 0.8"/>
      </g>
     </g>
     <g id="text_3">
      <!-- 4 -->
      <g transform="translate(177.130286 308.198125) scale(0.12 -0.12)">
       <defs>
        <path id="DejaVuSans-34" d="M 2419 4116 
L 825 1625 
L 2419 1625 
L 2419 4116 
z
M 2253 4666 
L 3047 4666 
L 3047 1625 
L 3713 1625 
L 3713 1100 
L 3047 1100 
L 3047 0 
L 2419 0 
L 2419 1100 
L 313 1100 
L 313 1709 
L 2253 4666 
z
" transform="scale(0.015625)"/>
       </defs>
       <use xlink:href="#DejaVuSans-34"/>
      </g>
     </g>
    </g>
    <g id="xtick_4">
     <g id="line2d_7">
      <path d="M 238.70433 292.08 
L 238.70433 38.48 
" clip-path="url(#p25886f9918)" style="fill: none; stroke: #e6e6e6; stroke-linecap: square"/>
     </g>
     <g id="line2d_8">
      <g>
       <use xlink:href="#mba519ed1c4" x="238.70433" y="292.08" style="stroke: #000000; stroke-width: 0.8"/>
      </g>
     </g>
     <g id="text_4">
      <!-- 6 -->
      <g transform="translate(234.88683 308.198125) scale(0.12 -0.12)">
       <defs>
        <path id="DejaVuSans-36" d="M 2113 2584 
Q 1688 2584 1439 2293 
Q 1191 2003 1191 1497 
Q 1191 994 1439 701 
Q 1688 409 2113 409 
Q 2538 409 2786 701 
Q 3034 994 3034 1497 
Q 3034 2003 2786 2293 
Q 2538 2584 2113 2584 
z
M 3366 4563 
L 3366 3988 
Q 3128 4100 2886 4159 
Q 2644 4219 2406 4219 
Q 1781 4219 1451 3797 
Q 1122 3375 1075 2522 
Q 1259 2794 1537 2939 
Q 1816 3084 2150 3084 
Q 2853 3084 3261 2657 
Q 3669 2231 3669 1497 
Q 3669 778 3244 343 
Q 2819 -91 2113 -91 
Q 1303 -91 875 529 
Q 447 1150 447 2328 
Q 447 3434 972 4092 
Q 1497 4750 2381 4750 
Q 2619 4750 2861 4703 
Q 3103 4656 3366 4563 
z
" transform="scale(0.015625)"/>
       </defs>
       <use xlink:href="#DejaVuSans-36"/>
      </g>
     </g>
    </g>
    <g id="xtick_5">
     <g id="line2d_9">
      <path d="M 296.460875 292.08 
L 296.460875 38.48 
" clip-path="url(#p25886f9918)" style="fill: none; stroke: #e6e6e6; stroke-linecap: square"/>
     </g>
     <g id="line2d_10">
      <g>
       <use xlink:href="#mba519ed1c4" x="296.460875" y="292.08" style="stroke: #000000; stroke-width: 0.8"/>
      </g>
     </g>
     <g id="text_5">
      <!-- 8 -->
      <g transform="translate(292.643375 308.198125) scale(0.12 -0.12)">
       <defs>
        <path id="DejaVuSans-38" d="M 2034 2216 
Q 1584 2216 1326 1975 
Q 1069 1734 1069 1313 
Q 1069 891 1326 650 
Q 1584 409 2034 409 
Q 2484 409 2743 651 
Q 3003 894 3003 1313 
Q 3003 1734 2745 1975 
Q 2488 2216 2034 2216 
z
M 1403 2484 
Q 997 2584 770 2862 
Q 544 3141 544 3541 
Q 544 4100 942 4425 
Q 1341 4750 2034 4750 
Q 2731 4750 3128 4425 
Q 3525 4100 3525 3541 
Q 3525 3141 3298 2862 
Q 3072 2584 2669 2484 
Q 3125 2378 3379 2068 
Q 3634 1759 3634 1313 
Q 3634 634 3220 271 
Q 2806 -91 2034 -91 
Q 1263 -91 848 271 
Q 434 634 434 1313 
Q 434 1759 690 2068 
Q 947 2378 1403 2484 
z
M 1172 3481 
Q 1172 3119 1398 2916 
Q 1625 2713 2034 2713 
Q 2441 2713 2670 2916 
Q 2900 3119 2900 3481 
Q 2900 3844 2670 4047 
Q 2441 4250 2034 4250 
Q 1625 4250 1398 4047 
Q 1172 3844 1172 3481 
z
" transform="scale(0.015625)"/>
       </defs>
       <use xlink:href="#DejaVuSans-38"/>
      </g>
     </g>
    </g>
    <g id="xtick_6">
     <g id="line2d_11">
      <path d="M 354.217419 292.08 
L 354.217419 38.48 
" clip-path="url(#p25886f9918)" style="fill: none; stroke: #e6e6e6; stroke-linecap: square"/>
     </g>
     <g id="line2d_12">
      <g>
       <use xlink:href="#mba519ed1c4" x="354.217419" y="292.08" style="stroke: #000000; stroke-width: 0.8"/>
      </g>
     </g>
     <g id="text_6">
      <!-- 10 -->
      <g transform="translate(346.582419 308.198125) scale(0.12 -0.12)">
       <defs>
        <path id="DejaVuSans-31" d="M 794 531 
L 1825 531 
L 1825 4091 
L 703 3866 
L 703 4441 
L 1819 4666 
L 2450 4666 
L 2450 531 
L 3481 531 
L 3481 0 
L 794 0 
L 794 531 
z
" transform="scale(0.015625)"/>
       </defs>
       <use xlink:href="#DejaVuSans-31"/>
       <use xlink:href="#DejaVuSans-30" x="63.623047"/>
      </g>
     </g>
    </g>
    <g id="text_7">
     <!-- time (s) -->
     <g transform="translate(186.411979 323.811875) scale(0.12 -0.12)">
      <defs>
       <path id="DejaVuSans-74" d="M 1172 4494 
L 1172 3500 
L 2356 3500 
L 2356 3053 
L 1172 3053 
L 1172 1153 
Q 1172 725 1289 603 
Q 1406 481 1766 481 
L 2356 481 
L 2356 0 
L 1766 0 
Q 1100 0 847 248 
Q 594 497 594 1153 
L 594 3053 
L 172 3053 
L 172 3500 
L 594 3500 
L 594 4494 
L 1172 4494 
z
" transform="scale(0.015625)"/>
       <path id="DejaVuSans-69" d="M 603 3500 
L 1178 3500 
L 1178 0 
L 603 0 
L 603 3500 
z
M 603 4863 
L 1178 4863 
L 1178 4134 
L 603 4134 
L 603 4863 
z
" transform="scale(0.015625)"/>
       <path id="DejaVuSans-6d" d="M 3328 2828 
Q 3544 3216 3844 3400 
Q 4144 3584 4550 3584 
Q 5097 3584 5394 3201 
Q 5691 2819 5691 2113 
L 5691 0 
L 5113 0 
L 5113 2094 
Q 5113 2597 4934 2840 
Q 4756 3084 4391 3084 
Q 3944 3084 3684 2787 
Q 3425 2491 3425 1978 
L 3425 0 
L 2847 0 
L 2847 2094 
Q 2847 2600 2669 2842 
Q 2491 3084 2119 3084 
Q 1678 3084 1418 2786 
Q 1159 2488 1159 1978 
L 1159 0 
L 581 0 
L 581 3500 
L 1159 3500 
L 1159 2956 
Q 1356 3278 1631 3431 
Q 1906 3584 2284 3584 
Q 2666 3584 2933 3390 
Q 3200 3197 3328 2828 
z
" transform="scale(0.015625)"/>
       <path id="DejaVuSans-65" d="M 3597 1894 
L 3597 1613 
L 953 1613 
Q 991 1019 1311 708 
Q 1631 397 2203 397 
Q 2534 397 2845 478 
Q 3156 559 3463 722 
L 3463 178 
Q 3153 47 2828 -22 
Q 2503 -91 2169 -91 
Q 1331 -91 842 396 
Q 353 884 353 1716 
Q 353 2575 817 3079 
Q 1281 3584 2069 3584 
Q 2775 3584 3186 3129 
Q 3597 2675 3597 1894 
z
M 3022 2063 
Q 3016 2534 2758 2815 
Q 2500 3097 2075 3097 
Q 1594 3097 1305 2825 
Q 1016 2553 972 2059 
L 3022 2063 
z
" transform="scale(0.015625)"/>
       <path id="DejaVuSans-20" transform="scale(0.015625)"/>
       <path id="DejaVuSans-28" d="M 1984 4856 
Q 1566 4138 1362 3434 
Q 1159 2731 1159 2009 
Q 1159 1288 1364 580 
Q 1569 -128 1984 -844 
L 1484 -844 
Q 1016 -109 783 600 
Q 550 1309 550 2009 
Q 550 2706 781 3412 
Q 1013 4119 1484 4856 
L 1984 4856 
z
" transform="scale(0.015625)"/>
       <path id="DejaVuSans-73" d="M 2834 3397 
L 2834 2853 
Q 2591 2978 2328 3040 
Q 2066 3103 1784 3103 
Q 1356 3103 1142 2972 
Q 928 2841 928 2578 
Q 928 2378 1081 2264 
Q 1234 2150 1697 2047 
L 1894 2003 
Q 2506 1872 2764 1633 
Q 3022 1394 3022 966 
Q 3022 478 2636 193 
Q 2250 -91 1575 -91 
Q 1294 -91 989 -36 
Q 684 19 347 128 
L 347 722 
Q 666 556 975 473 
Q 1284 391 1588 391 
Q 1994 391 2212 530 
Q 2431 669 2431 922 
Q 2431 1156 2273 1281 
Q 2116 1406 1581 1522 
L 1381 1569 
Q 847 1681 609 1914 
Q 372 2147 372 2553 
Q 372 3047 722 3315 
Q 1072 3584 1716 3584 
Q 2034 3584 2315 3537 
Q 2597 3491 2834 3397 
z
" transform="scale(0.015625)"/>
       <path id="DejaVuSans-29" d="M 513 4856 
L 1013 4856 
Q 1481 4119 1714 3412 
Q 1947 2706 1947 2009 
Q 1947 1309 1714 600 
Q 1481 -109 1013 -844 
L 513 -844 
Q 928 -128 1133 580 
Q 1338 1288 1338 2009 
Q 1338 2731 1133 3434 
Q 928 4138 513 4856 
z
" transform="scale(0.015625)"/>
      </defs>
      <use xlink:href="#DejaVuSans-74"/>
      <use xlink:href="#DejaVuSans-69" x="39.208984"/>
      <use xlink:href="#DejaVuSans-6d" x="66.992188"/>
      <use xlink:href="#DejaVuSans-65" x="164.404297"/>
      <use xlink:href="#DejaVuSans-20" x="225.927734"/>
      <use xlink:href="#DejaVuSans-28" x="257.714844"/>
      <use xlink:href="#DejaVuSans-73" x="296.728516"/>
      <use xlink:href="#DejaVuSans-29" x="348.828125"/>
     </g>
    </g>
   </g>
   <g id="matplotlib.axis_2">
    <g id="ytick_1">
     <g id="line2d_13">
      <path d="M 51.01 280.552727 
L 368.353333 280.552727 
" clip-path="url(#p25886f9918)" style="fill: none; stroke: #e6e6e6; stroke-linecap: square"/>
     </g>
     <g id="line2d_14"/>
     <g id="text_8">
      <!-- 0.00 -->
      <g transform="translate(20.79125 285.11179) scale(0.12 -0.12)">
       <defs>
        <path id="DejaVuSans-2e" d="M 684 794 
L 1344 794 
L 1344 0 
L 684 0 
L 684 794 
z
" transform="scale(0.015625)"/>
       </defs>
       <use xlink:href="#DejaVuSans-30"/>
       <use xlink:href="#DejaVuSans-2e" x="63.623047"/>
       <use xlink:href="#DejaVuSans-30" x="95.410156"/>
       <use xlink:href="#DejaVuSans-30" x="159.033203"/>
      </g>
     </g>
    </g>
    <g id="ytick_2">
     <g id="line2d_15">
      <path d="M 51.01 251.131381 
L 368.353333 251.131381 
" clip-path="url(#p25886f9918)" style="fill: none; stroke: #e6e6e6; stroke-linecap: square"/>
     </g>
     <g id="line2d_16"/>
     <g id="text_9">
      <!-- 0.05 -->
      <g transform="translate(20.79125 255.690443) scale(0.12 -0.12)">
       <defs>
        <path id="DejaVuSans-35" d="M 691 4666 
L 3169 4666 
L 3169 4134 
L 1269 4134 
L 1269 2991 
Q 1406 3038 1543 3061 
Q 1681 3084 1819 3084 
Q 2600 3084 3056 2656 
Q 3513 2228 3513 1497 
Q 3513 744 3044 326 
Q 2575 -91 1722 -91 
Q 1428 -91 1123 -41 
Q 819 9 494 109 
L 494 744 
Q 775 591 1075 516 
Q 1375 441 1709 441 
Q 2250 441 2565 725 
Q 2881 1009 2881 1497 
Q 2881 1984 2565 2268 
Q 2250 2553 1709 2553 
Q 1456 2553 1204 2497 
Q 953 2441 691 2322 
L 691 4666 
z
" transform="scale(0.015625)"/>
       </defs>
       <use xlink:href="#DejaVuSans-30"/>
       <use xlink:href="#DejaVuSans-2e" x="63.623047"/>
       <use xlink:href="#DejaVuSans-30" x="95.410156"/>
       <use xlink:href="#DejaVuSans-35" x="159.033203"/>
      </g>
     </g>
    </g>
    <g id="ytick_3">
     <g id="line2d_17">
      <path d="M 51.01 221.710035 
L 368.353333 221.710035 
" clip-path="url(#p25886f9918)" style="fill: none; stroke: #e6e6e6; stroke-linecap: square"/>
     </g>
     <g id="line2d_18"/>
     <g id="text_10">
      <!-- 0.10 -->
      <g transform="translate(20.79125 226.269097) scale(0.12 -0.12)">
       <use xlink:href="#DejaVuSans-30"/>
       <use xlink:href="#DejaVuSans-2e" x="63.623047"/>
       <use xlink:href="#DejaVuSans-31" x="95.410156"/>
       <use xlink:href="#DejaVuSans-30" x="159.033203"/>
      </g>
     </g>
    </g>
    <g id="ytick_4">
     <g id="line2d_19">
      <path d="M 51.01 192.288688 
L 368.353333 192.288688 
" clip-path="url(#p25886f9918)" style="fill: none; stroke: #e6e6e6; stroke-linecap: square"/>
     </g>
     <g id="line2d_20"/>
     <g id="text_11">
      <!-- 0.15 -->
      <g transform="translate(20.79125 196.847751) scale(0.12 -0.12)">
       <use xlink:href="#DejaVuSans-30"/>
       <use xlink:href="#DejaVuSans-2e" x="63.623047"/>
       <use xlink:href="#DejaVuSans-31" x="95.410156"/>
       <use xlink:href="#DejaVuSans-35" x="159.033203"/>
      </g>
     </g>
    </g>
    <g id="ytick_5">
     <g id="line2d_21">
      <path d="M 51.01 162.867342 
L 368.353333 162.867342 
" clip-path="url(#p25886f9918)" style="fill: none; stroke: #e6e6e6; stroke-linecap: square"/>
     </g>
     <g id="line2d_22"/>
     <g id="text_12">
      <!-- 0.20 -->
      <g transform="translate(20.79125 167.426405) scale(0.12 -0.12)">
       <use xlink:href="#DejaVuSans-30"/>
       <use xlink:href="#DejaVuSans-2e" x="63.623047"/>
       <use xlink:href="#DejaVuSans-32" x="95.410156"/>
       <use xlink:href="#DejaVuSans-30" x="159.033203"/>
      </g>
     </g>
    </g>
    <g id="ytick_6">
     <g id="line2d_23">
      <path d="M 51.01 133.445996 
L 368.353333 133.445996 
" clip-path="url(#p25886f9918)" style="fill: none; stroke: #e6e6e6; stroke-linecap: square"/>
     </g>
     <g id="line2d_24"/>
     <g id="text_13">
      <!-- 0.25 -->
      <g transform="translate(20.79125 138.005058) scale(0.12 -0.12)">
       <use xlink:href="#DejaVuSans-30"/>
       <use xlink:href="#DejaVuSans-2e" x="63.623047"/>
       <use xlink:href="#DejaVuSans-32" x="95.410156"/>
       <use xlink:href="#DejaVuSans-35" x="159.033203"/>
      </g>
     </g>
    </g>
    <g id="ytick_7">
     <g id="line2d_25">
      <path d="M 51.01 104.024649 
L 368.353333 104.024649 
" clip-path="url(#p25886f9918)" style="fill: none; stroke: #e6e6e6; stroke-linecap: square"/>
     </g>
     <g id="line2d_26"/>
     <g id="text_14">
      <!-- 0.30 -->
      <g transform="translate(20.79125 108.583712) scale(0.12 -0.12)">
       <defs>
        <path id="DejaVuSans-33" d="M 2597 2516 
Q 3050 2419 3304 2112 
Q 3559 1806 3559 1356 
Q 3559 666 3084 287 
Q 2609 -91 1734 -91 
Q 1441 -91 1130 -33 
Q 819 25 488 141 
L 488 750 
Q 750 597 1062 519 
Q 1375 441 1716 441 
Q 2309 441 2620 675 
Q 2931 909 2931 1356 
Q 2931 1769 2642 2001 
Q 2353 2234 1838 2234 
L 1294 2234 
L 1294 2753 
L 1863 2753 
Q 2328 2753 2575 2939 
Q 2822 3125 2822 3475 
Q 2822 3834 2567 4026 
Q 2313 4219 1838 4219 
Q 1578 4219 1281 4162 
Q 984 4106 628 3988 
L 628 4550 
Q 988 4650 1302 4700 
Q 1616 4750 1894 4750 
Q 2613 4750 3031 4423 
Q 3450 4097 3450 3541 
Q 3450 3153 3228 2886 
Q 3006 2619 2597 2516 
z
" transform="scale(0.015625)"/>
       </defs>
       <use xlink:href="#DejaVuSans-30"/>
       <use xlink:href="#DejaVuSans-2e" x="63.623047"/>
       <use xlink:href="#DejaVuSans-33" x="95.410156"/>
       <use xlink:href="#DejaVuSans-30" x="159.033203"/>
      </g>
     </g>
    </g>
    <g id="ytick_8">
     <g id="line2d_27">
      <path d="M 51.01 74.603303 
L 368.353333 74.603303 
" clip-path="url(#p25886f9918)" style="fill: none; stroke: #e6e6e6; stroke-linecap: square"/>
     </g>
     <g id="line2d_28"/>
     <g id="text_15">
      <!-- 0.35 -->
      <g transform="translate(20.79125 79.162366) scale(0.12 -0.12)">
       <use xlink:href="#DejaVuSans-30"/>
       <use xlink:href="#DejaVuSans-2e" x="63.623047"/>
       <use xlink:href="#DejaVuSans-33" x="95.410156"/>
       <use xlink:href="#DejaVuSans-35" x="159.033203"/>
      </g>
     </g>
    </g>
    <g id="ytick_9">
     <g id="line2d_29">
      <path d="M 51.01 45.181957 
L 368.353333 45.181957 
" clip-path="url(#p25886f9918)" style="fill: none; stroke: #e6e6e6; stroke-linecap: square"/>
     </g>
     <g id="line2d_30"/>
     <g id="text_16">
      <!-- 0.40 -->
      <g transform="translate(20.79125 49.741019) scale(0.12 -0.12)">
       <use xlink:href="#DejaVuSans-30"/>
       <use xlink:href="#DejaVuSans-2e" x="63.623047"/>
       <use xlink:href="#DejaVuSans-34" x="95.410156"/>
       <use xlink:href="#DejaVuSans-30" x="159.033203"/>
      </g>
     </g>
    </g>
    <g id="text_17">
     <!-- radians -->
     <g transform="translate(14.295625 187.504375) rotate(-90) scale(0.12 -0.12)">
      <defs>
       <path id="DejaVuSans-72" d="M 2631 2963 
Q 2534 3019 2420 3045 
Q 2306 3072 2169 3072 
Q 1681 3072 1420 2755 
Q 1159 2438 1159 1844 
L 1159 0 
L 581 0 
L 581 3500 
L 1159 3500 
L 1159 2956 
Q 1341 3275 1631 3429 
Q 1922 3584 2338 3584 
Q 2397 3584 2469 3576 
Q 2541 3569 2628 3553 
L 2631 2963 
z
" transform="scale(0.015625)"/>
       <path id="DejaVuSans-61" d="M 2194 1759 
Q 1497 1759 1228 1600 
Q 959 1441 959 1056 
Q 959 750 1161 570 
Q 1363 391 1709 391 
Q 2188 391 2477 730 
Q 2766 1069 2766 1631 
L 2766 1759 
L 2194 1759 
z
M 3341 1997 
L 3341 0 
L 2766 0 
L 2766 531 
Q 2569 213 2275 61 
Q 1981 -91 1556 -91 
Q 1019 -91 701 211 
Q 384 513 384 1019 
Q 384 1609 779 1909 
Q 1175 2209 1959 2209 
L 2766 2209 
L 2766 2266 
Q 2766 2663 2505 2880 
Q 2244 3097 1772 3097 
Q 1472 3097 1187 3025 
Q 903 2953 641 2809 
L 641 3341 
Q 956 3463 1253 3523 
Q 1550 3584 1831 3584 
Q 2591 3584 2966 3190 
Q 3341 2797 3341 1997 
z
" transform="scale(0.015625)"/>
       <path id="DejaVuSans-64" d="M 2906 2969 
L 2906 4863 
L 3481 4863 
L 3481 0 
L 2906 0 
L 2906 525 
Q 2725 213 2448 61 
Q 2172 -91 1784 -91 
Q 1150 -91 751 415 
Q 353 922 353 1747 
Q 353 2572 751 3078 
Q 1150 3584 1784 3584 
Q 2172 3584 2448 3432 
Q 2725 3281 2906 2969 
z
M 947 1747 
Q 947 1113 1208 752 
Q 1469 391 1925 391 
Q 2381 391 2643 752 
Q 2906 1113 2906 1747 
Q 2906 2381 2643 2742 
Q 2381 3103 1925 3103 
Q 1469 3103 1208 2742 
Q 947 2381 947 1747 
z
" transform="scale(0.015625)"/>
       <path id="DejaVuSans-6e" d="M 3513 2113 
L 3513 0 
L 2938 0 
L 2938 2094 
Q 2938 2591 2744 2837 
Q 2550 3084 2163 3084 
Q 1697 3084 1428 2787 
Q 1159 2491 1159 1978 
L 1159 0 
L 581 0 
L 581 3500 
L 1159 3500 
L 1159 2956 
Q 1366 3272 1645 3428 
Q 1925 3584 2291 3584 
Q 2894 3584 3203 3211 
Q 3513 2838 3513 2113 
z
" transform="scale(0.015625)"/>
      </defs>
      <use xlink:href="#DejaVuSans-72"/>
      <use xlink:href="#DejaVuSans-61" x="41.113281"/>
      <use xlink:href="#DejaVuSans-64" x="102.392578"/>
      <use xlink:href="#DejaVuSans-69" x="165.869141"/>
      <use xlink:href="#DejaVuSans-61" x="193.652344"/>
      <use xlink:href="#DejaVuSans-6e" x="254.931641"/>
      <use xlink:href="#DejaVuSans-73" x="318.310547"/>
     </g>
    </g>
   </g>
   <g id="PathCollection_1">
    <defs>
     <path id="m3ac208c4e3" d="M -3 3 
L 3 -3 
M -3 -3 
L 3 3 
" style="stroke: #008000; stroke-width: 1.5"/>
    </defs>
    <g clip-path="url(#p25886f9918)">
     <use xlink:href="#m3ac208c4e3" x="353.928636" y="62.91139" style="fill: #008000; stroke: #008000; stroke-width: 1.5"/>
    </g>
   </g>
   <g id="line2d_31">
    <path d="M 65.434697 280.552727 
L 65.72348 280.552727 
L 66.878611 279.180822 
L 87.093401 254.318588 
L 92.29149 247.440381 
L 97.778362 239.792999 
L 109.618453 223.086661 
L 112.795063 219.10455 
L 115.394108 216.178645 
L 117.70437 213.874907 
L 120.014631 211.875022 
L 122.324893 210.187345 
L 124.635155 208.805062 
L 126.945417 207.706574 
L 129.255679 206.856704 
L 131.854723 206.138902 
L 135.320116 205.436581 
L 141.962118 204.14316 
L 144.561163 203.384729 
L 146.871425 202.492461 
L 149.181686 201.355295 
L 151.491948 199.951798 
L 153.80221 198.277762 
L 156.401254 196.086732 
L 159.000299 193.606278 
L 162.176909 190.256435 
L 166.219867 185.636627 
L 171.995521 178.657092 
L 179.503872 169.230047 
L 184.701961 162.375867 
L 189.033702 156.289446 
L 192.787877 150.627417 
L 196.25327 145.016896 
L 199.718663 139.004657 
L 203.472838 132.037205 
L 207.515796 124.058982 
L 213.002668 112.685246 
L 220.799801 96.506692 
L 224.553977 89.266278 
L 226.864239 85.225558 
L 229.1745 81.668418 
L 231.195979 78.94119 
L 233.217459 76.552249 
L 235.238938 74.473629 
L 237.549199 72.436253 
L 239.859461 70.710641 
L 242.169723 69.247523 
L 244.768767 67.861028 
L 247.656595 66.584286 
L 250.833205 65.444175 
L 254.009815 64.541492 
L 257.475207 63.800441 
L 260.9406 63.294917 
L 264.405993 63.006072 
L 268.160168 62.91139 
L 353.928636 62.91139 
L 353.928636 62.91139 
" clip-path="url(#p25886f9918)" style="fill: none; stroke: #e1b8a0; stroke-width: 1.5; stroke-linecap: square"/>
   </g>
   <g id="line2d_32">
    <path d="M 65.434697 280.552727 
L 65.72348 280.552727 
L 67.167393 278.995036 
L 71.499134 274.003197 
L 83.050443 259.85891 
L 91.136359 249.44657 
L 96.045666 242.758401 
L 100.377406 236.473505 
L 105.864278 228.550482 
L 109.618453 223.473162 
L 112.795063 219.53299 
L 115.971673 215.945041 
L 118.570718 213.322931 
L 121.169762 211.040368 
L 123.480024 209.329726 
L 125.501503 208.101903 
L 127.522982 207.133945 
L 129.833244 206.302705 
L 132.721071 205.485528 
L 135.897681 204.841563 
L 146.005076 202.782531 
L 148.604121 202.046568 
L 150.914383 201.154954 
L 153.224644 200.00373 
L 155.823689 198.406626 
L 157.556385 197.042717 
L 159.577864 195.137008 
L 164.487171 189.95977 
L 169.396477 184.486735 
L 176.616045 175.976392 
L 181.525351 169.732533 
L 187.878571 161.330629 
L 193.654226 153.240387 
L 197.408401 147.671446 
L 202.60649 139.498268 
L 206.360665 133.145638 
L 209.826058 126.849931 
L 213.291451 120.04699 
L 217.911974 110.452787 
L 231.195979 82.471655 
L 233.506241 78.40882 
L 235.816503 74.777971 
L 238.126765 71.567016 
L 240.437027 68.748869 
L 242.458506 66.605245 
L 244.479985 64.753345 
L 246.501464 63.18146 
L 248.522943 61.868821 
L 250.833205 60.604405 
L 253.432249 59.442767 
L 256.031294 58.527502 
L 258.919121 57.75597 
L 262.095731 57.124527 
L 266.138689 56.582625 
L 272.203126 56.035118 
L 277.97878 55.764378 
L 300.792615 54.882904 
L 311.766359 54.159441 
L 324.184016 53.110672 
L 340.355848 51.506762 
L 353.928636 50.007273 
L 353.928636 50.007273 
" clip-path="url(#p25886f9918)" style="fill: none; stroke: #116496; stroke-width: 1.5; stroke-linecap: square"/>
   </g>
   <g id="patch_3">
    <path d="M 51.01 292.08 
L 368.353333 292.08 
" style="fill: none; stroke: #000000; stroke-width: 0.8; stroke-linejoin: miter; stroke-linecap: square"/>
   </g>
   <g id="text_18">
    <!-- joint-1 -->
    <g transform="translate(187.641979 32.48) scale(0.12 -0.12)">
     <defs>
      <path id="DejaVuSans-Bold-6a" d="M 538 3500 
L 1656 3500 
L 1656 63 
Q 1656 -641 1318 -1011 
Q 981 -1381 341 -1381 
L -213 -1381 
L -213 -647 
L -19 -647 
Q 300 -647 419 -503 
Q 538 -359 538 63 
L 538 3500 
z
M 538 4863 
L 1656 4863 
L 1656 3950 
L 538 3950 
L 538 4863 
z
" transform="scale(0.015625)"/>
      <path id="DejaVuSans-Bold-6f" d="M 2203 2784 
Q 1831 2784 1636 2517 
Q 1441 2250 1441 1747 
Q 1441 1244 1636 976 
Q 1831 709 2203 709 
Q 2569 709 2762 976 
Q 2956 1244 2956 1747 
Q 2956 2250 2762 2517 
Q 2569 2784 2203 2784 
z
M 2203 3584 
Q 3106 3584 3614 3096 
Q 4122 2609 4122 1747 
Q 4122 884 3614 396 
Q 3106 -91 2203 -91 
Q 1297 -91 786 396 
Q 275 884 275 1747 
Q 275 2609 786 3096 
Q 1297 3584 2203 3584 
z
" transform="scale(0.015625)"/>
      <path id="DejaVuSans-Bold-69" d="M 538 3500 
L 1656 3500 
L 1656 0 
L 538 0 
L 538 3500 
z
M 538 4863 
L 1656 4863 
L 1656 3950 
L 538 3950 
L 538 4863 
z
" transform="scale(0.015625)"/>
      <path id="DejaVuSans-Bold-6e" d="M 4056 2131 
L 4056 0 
L 2931 0 
L 2931 347 
L 2931 1631 
Q 2931 2084 2911 2256 
Q 2891 2428 2841 2509 
Q 2775 2619 2662 2680 
Q 2550 2741 2406 2741 
Q 2056 2741 1856 2470 
Q 1656 2200 1656 1722 
L 1656 0 
L 538 0 
L 538 3500 
L 1656 3500 
L 1656 2988 
Q 1909 3294 2193 3439 
Q 2478 3584 2822 3584 
Q 3428 3584 3742 3212 
Q 4056 2841 4056 2131 
z
" transform="scale(0.015625)"/>
      <path id="DejaVuSans-Bold-74" d="M 1759 4494 
L 1759 3500 
L 2913 3500 
L 2913 2700 
L 1759 2700 
L 1759 1216 
Q 1759 972 1856 886 
Q 1953 800 2241 800 
L 2816 800 
L 2816 0 
L 1856 0 
Q 1194 0 917 276 
Q 641 553 641 1216 
L 641 2700 
L 84 2700 
L 84 3500 
L 641 3500 
L 641 4494 
L 1759 4494 
z
" transform="scale(0.015625)"/>
      <path id="DejaVuSans-Bold-2d" d="M 347 2297 
L 2309 2297 
L 2309 1388 
L 347 1388 
L 347 2297 
z
" transform="scale(0.015625)"/>
      <path id="DejaVuSans-Bold-31" d="M 750 831 
L 1813 831 
L 1813 3847 
L 722 3622 
L 722 4441 
L 1806 4666 
L 2950 4666 
L 2950 831 
L 4013 831 
L 4013 0 
L 750 0 
L 750 831 
z
" transform="scale(0.015625)"/>
     </defs>
     <use xlink:href="#DejaVuSans-Bold-6a"/>
     <use xlink:href="#DejaVuSans-Bold-6f" x="34.277344"/>
     <use xlink:href="#DejaVuSans-Bold-69" x="102.978516"/>
     <use xlink:href="#DejaVuSans-Bold-6e" x="137.255859"/>
     <use xlink:href="#DejaVuSans-Bold-74" x="208.447266"/>
     <use xlink:href="#DejaVuSans-Bold-2d" x="256.25"/>
     <use xlink:href="#DejaVuSans-Bold-31" x="297.753906"/>
    </g>
   </g>
  </g>
  <g id="axes_2">
   <g id="patch_4">
    <path d="M 404.833333 292.08 
L 722.176667 292.08 
L 722.176667 38.48 
L 404.833333 38.48 
z
" style="fill: #ffffff"/>
   </g>
   <g id="matplotlib.axis_3">
    <g id="xtick_7">
     <g id="line2d_33">
      <path d="M 419.25803 292.08 
L 419.25803 38.48 
" clip-path="url(#p8b2ab7e1cc)" style="fill: none; stroke: #e6e6e6; stroke-linecap: square"/>
     </g>
     <g id="line2d_34">
      <g>
       <use xlink:href="#mba519ed1c4" x="419.25803" y="292.08" style="stroke: #000000; stroke-width: 0.8"/>
      </g>
     </g>
     <g id="text_19">
      <!-- 0 -->
      <g transform="translate(415.44053 308.198125) scale(0.12 -0.12)">
       <use xlink:href="#DejaVuSans-30"/>
      </g>
     </g>
    </g>
    <g id="xtick_8">
     <g id="line2d_35">
      <path d="M 477.014575 292.08 
L 477.014575 38.48 
" clip-path="url(#p8b2ab7e1cc)" style="fill: none; stroke: #e6e6e6; stroke-linecap: square"/>
     </g>
     <g id="line2d_36">
      <g>
       <use xlink:href="#mba519ed1c4" x="477.014575" y="292.08" style="stroke: #000000; stroke-width: 0.8"/>
      </g>
     </g>
     <g id="text_20">
      <!-- 2 -->
      <g transform="translate(473.197075 308.198125) scale(0.12 -0.12)">
       <use xlink:href="#DejaVuSans-32"/>
      </g>
     </g>
    </g>
    <g id="xtick_9">
     <g id="line2d_37">
      <path d="M 534.771119 292.08 
L 534.771119 38.48 
" clip-path="url(#p8b2ab7e1cc)" style="fill: none; stroke: #e6e6e6; stroke-linecap: square"/>
     </g>
     <g id="line2d_38">
      <g>
       <use xlink:href="#mba519ed1c4" x="534.771119" y="292.08" style="stroke: #000000; stroke-width: 0.8"/>
      </g>
     </g>
     <g id="text_21">
      <!-- 4 -->
      <g transform="translate(530.953619 308.198125) scale(0.12 -0.12)">
       <use xlink:href="#DejaVuSans-34"/>
      </g>
     </g>
    </g>
    <g id="xtick_10">
     <g id="line2d_39">
      <path d="M 592.527664 292.08 
L 592.527664 38.48 
" clip-path="url(#p8b2ab7e1cc)" style="fill: none; stroke: #e6e6e6; stroke-linecap: square"/>
     </g>
     <g id="line2d_40">
      <g>
       <use xlink:href="#mba519ed1c4" x="592.527664" y="292.08" style="stroke: #000000; stroke-width: 0.8"/>
      </g>
     </g>
     <g id="text_22">
      <!-- 6 -->
      <g transform="translate(588.710164 308.198125) scale(0.12 -0.12)">
       <use xlink:href="#DejaVuSans-36"/>
      </g>
     </g>
    </g>
    <g id="xtick_11">
     <g id="line2d_41">
      <path d="M 650.284208 292.08 
L 650.284208 38.48 
" clip-path="url(#p8b2ab7e1cc)" style="fill: none; stroke: #e6e6e6; stroke-linecap: square"/>
     </g>
     <g id="line2d_42">
      <g>
       <use xlink:href="#mba519ed1c4" x="650.284208" y="292.08" style="stroke: #000000; stroke-width: 0.8"/>
      </g>
     </g>
     <g id="text_23">
      <!-- 8 -->
      <g transform="translate(646.466708 308.198125) scale(0.12 -0.12)">
       <use xlink:href="#DejaVuSans-38"/>
      </g>
     </g>
    </g>
    <g id="xtick_12">
     <g id="line2d_43">
      <path d="M 708.040752 292.08 
L 708.040752 38.48 
" clip-path="url(#p8b2ab7e1cc)" style="fill: none; stroke: #e6e6e6; stroke-linecap: square"/>
     </g>
     <g id="line2d_44">
      <g>
       <use xlink:href="#mba519ed1c4" x="708.040752" y="292.08" style="stroke: #000000; stroke-width: 0.8"/>
      </g>
     </g>
     <g id="text_24">
      <!-- 10 -->
      <g transform="translate(700.405752 308.198125) scale(0.12 -0.12)">
       <use xlink:href="#DejaVuSans-31"/>
       <use xlink:href="#DejaVuSans-30" x="63.623047"/>
      </g>
     </g>
    </g>
    <g id="text_25">
     <!-- time (s) -->
     <g transform="translate(540.235313 323.811875) scale(0.12 -0.12)">
      <use xlink:href="#DejaVuSans-74"/>
      <use xlink:href="#DejaVuSans-69" x="39.208984"/>
      <use xlink:href="#DejaVuSans-6d" x="66.992188"/>
      <use xlink:href="#DejaVuSans-65" x="164.404297"/>
      <use xlink:href="#DejaVuSans-20" x="225.927734"/>
      <use xlink:href="#DejaVuSans-28" x="257.714844"/>
      <use xlink:href="#DejaVuSans-73" x="296.728516"/>
      <use xlink:href="#DejaVuSans-29" x="348.828125"/>
     </g>
    </g>
   </g>
   <g id="matplotlib.axis_4">
    <g id="ytick_10">
     <g id="line2d_45">
      <path d="M 404.833333 265.00022 
L 722.176667 265.00022 
" clip-path="url(#p8b2ab7e1cc)" style="fill: none; stroke: #e6e6e6; stroke-linecap: square"/>
     </g>
     <g id="line2d_46"/>
     <g id="text_26">
      <!-- −0.4 -->
      <g transform="translate(372.193958 269.559282) scale(0.12 -0.12)">
       <defs>
        <path id="DejaVuSans-2212" d="M 678 2272 
L 4684 2272 
L 4684 1741 
L 678 1741 
L 678 2272 
z
" transform="scale(0.015625)"/>
       </defs>
       <use xlink:href="#DejaVuSans-2212"/>
       <use xlink:href="#DejaVuSans-30" x="83.789062"/>
       <use xlink:href="#DejaVuSans-2e" x="147.412109"/>
       <use xlink:href="#DejaVuSans-34" x="179.199219"/>
      </g>
     </g>
    </g>
    <g id="ytick_11">
     <g id="line2d_47">
      <path d="M 404.833333 229.870424 
L 722.176667 229.870424 
" clip-path="url(#p8b2ab7e1cc)" style="fill: none; stroke: #e6e6e6; stroke-linecap: square"/>
     </g>
     <g id="line2d_48"/>
     <g id="text_27">
      <!-- −0.3 -->
      <g transform="translate(372.193958 234.429486) scale(0.12 -0.12)">
       <use xlink:href="#DejaVuSans-2212"/>
       <use xlink:href="#DejaVuSans-30" x="83.789062"/>
       <use xlink:href="#DejaVuSans-2e" x="147.412109"/>
       <use xlink:href="#DejaVuSans-33" x="179.199219"/>
      </g>
     </g>
    </g>
    <g id="ytick_12">
     <g id="line2d_49">
      <path d="M 404.833333 194.740628 
L 722.176667 194.740628 
" clip-path="url(#p8b2ab7e1cc)" style="fill: none; stroke: #e6e6e6; stroke-linecap: square"/>
     </g>
     <g id="line2d_50"/>
     <g id="text_28">
      <!-- −0.2 -->
      <g transform="translate(372.193958 199.299691) scale(0.12 -0.12)">
       <use xlink:href="#DejaVuSans-2212"/>
       <use xlink:href="#DejaVuSans-30" x="83.789062"/>
       <use xlink:href="#DejaVuSans-2e" x="147.412109"/>
       <use xlink:href="#DejaVuSans-32" x="179.199219"/>
      </g>
     </g>
    </g>
    <g id="ytick_13">
     <g id="line2d_51">
      <path d="M 404.833333 159.610833 
L 722.176667 159.610833 
" clip-path="url(#p8b2ab7e1cc)" style="fill: none; stroke: #e6e6e6; stroke-linecap: square"/>
     </g>
     <g id="line2d_52"/>
     <g id="text_29">
      <!-- −0.1 -->
      <g transform="translate(372.193958 164.169895) scale(0.12 -0.12)">
       <use xlink:href="#DejaVuSans-2212"/>
       <use xlink:href="#DejaVuSans-30" x="83.789062"/>
       <use xlink:href="#DejaVuSans-2e" x="147.412109"/>
       <use xlink:href="#DejaVuSans-31" x="179.199219"/>
      </g>
     </g>
    </g>
    <g id="ytick_14">
     <g id="line2d_53">
      <path d="M 404.833333 124.481037 
L 722.176667 124.481037 
" clip-path="url(#p8b2ab7e1cc)" style="fill: none; stroke: #e6e6e6; stroke-linecap: square"/>
     </g>
     <g id="line2d_54"/>
     <g id="text_30">
      <!-- 0.0 -->
      <g transform="translate(382.249583 129.040099) scale(0.12 -0.12)">
       <use xlink:href="#DejaVuSans-30"/>
       <use xlink:href="#DejaVuSans-2e" x="63.623047"/>
       <use xlink:href="#DejaVuSans-30" x="95.410156"/>
      </g>
     </g>
    </g>
    <g id="ytick_15">
     <g id="line2d_55">
      <path d="M 404.833333 89.351241 
L 722.176667 89.351241 
" clip-path="url(#p8b2ab7e1cc)" style="fill: none; stroke: #e6e6e6; stroke-linecap: square"/>
     </g>
     <g id="line2d_56"/>
     <g id="text_31">
      <!-- 0.1 -->
      <g transform="translate(382.249583 93.910304) scale(0.12 -0.12)">
       <use xlink:href="#DejaVuSans-30"/>
       <use xlink:href="#DejaVuSans-2e" x="63.623047"/>
       <use xlink:href="#DejaVuSans-31" x="95.410156"/>
      </g>
     </g>
    </g>
    <g id="ytick_16">
     <g id="line2d_57">
      <path d="M 404.833333 54.221446 
L 722.176667 54.221446 
" clip-path="url(#p8b2ab7e1cc)" style="fill: none; stroke: #e6e6e6; stroke-linecap: square"/>
     </g>
     <g id="line2d_58"/>
     <g id="text_32">
      <!-- 0.2 -->
      <g transform="translate(382.249583 58.780508) scale(0.12 -0.12)">
       <use xlink:href="#DejaVuSans-30"/>
       <use xlink:href="#DejaVuSans-2e" x="63.623047"/>
       <use xlink:href="#DejaVuSans-32" x="95.410156"/>
      </g>
     </g>
    </g>
   </g>
   <g id="PathCollection_2">
    <g clip-path="url(#p8b2ab7e1cc)">
     <use xlink:href="#m3ac208c4e3" x="707.75197" y="102.962923" style="fill: #008000; stroke: #008000; stroke-width: 1.5"/>
    </g>
   </g>
   <g id="line2d_59">
    <path d="M 419.25803 124.481037 
L 419.835596 124.606242 
L 420.701944 124.993364 
L 421.857075 125.773619 
L 423.012206 126.833673 
L 424.167337 128.163964 
L 425.61125 130.196425 
L 427.055164 132.629065 
L 428.78786 136.061165 
L 430.520556 140.034016 
L 432.253253 144.525589 
L 434.274732 150.388161 
L 436.584994 157.853561 
L 438.895255 166.060224 
L 441.783083 177.219521 
L 445.248475 191.641442 
L 451.02413 216.922443 
L 455.355871 235.463578 
L 458.243698 246.862131 
L 460.55396 255.087284 
L 462.575439 261.451776 
L 464.308135 266.184942 
L 465.752049 269.564347 
L 467.195962 272.391362 
L 468.351093 274.234636 
L 469.506224 275.692124 
L 470.661355 276.753776 
L 471.527703 277.285723 
L 472.394051 277.588718 
L 473.260399 277.661502 
L 474.126748 277.50365 
L 474.993096 277.115546 
L 475.859444 276.498356 
L 476.725792 275.654001 
L 477.880923 274.179481 
L 479.036054 272.313988 
L 480.191185 270.06761 
L 481.635098 266.742288 
L 483.079012 262.867274 
L 484.811708 257.534369 
L 486.544405 251.511142 
L 488.565884 243.695185 
L 490.876145 233.85242 
L 493.47519 221.81743 
L 496.940583 204.594573 
L 502.427454 175.899149 
L 508.491891 144.492173 
L 511.957284 127.677622 
L 514.845111 114.672783 
L 517.444156 103.922678 
L 519.754418 95.223471 
L 522.064679 87.399573 
L 524.086158 81.313733 
L 526.107637 75.966713 
L 527.840334 71.987603 
L 529.57303 68.575909 
L 531.016944 66.170364 
L 532.460857 64.164032 
L 533.904771 62.556456 
L 535.059902 61.556094 
L 536.215033 60.807681 
L 537.370164 60.30864 
L 538.525295 60.055727 
L 539.680425 60.045043 
L 540.835556 60.272058 
L 541.990687 60.731626 
L 543.145818 61.418006 
L 544.589732 62.585254 
L 546.033645 64.083404 
L 547.477559 65.897544 
L 549.210255 68.46867 
L 550.942952 71.440814 
L 552.964431 75.370495 
L 555.274692 80.399512 
L 557.873737 86.627733 
L 561.050347 94.843487 
L 571.735308 123.032492 
L 574.045569 128.25203 
L 576.067048 132.278964 
L 577.799745 135.246221 
L 579.243658 137.321412 
L 580.687572 138.961336 
L 581.842703 139.954535 
L 582.997834 140.667911 
L 584.152965 141.107184 
L 585.308096 141.280294 
L 586.463226 141.197266 
L 587.618357 140.870039 
L 588.773488 140.312289 
L 590.217402 139.314237 
L 591.661315 138.012461 
L 593.394012 136.099147 
L 595.415491 133.464603 
L 597.725753 130.053907 
L 601.191145 124.477687 
L 606.389234 116.102775 
L 608.988279 112.3338 
L 611.009758 109.738107 
L 613.031237 107.503775 
L 614.763933 105.914044 
L 616.49663 104.650557 
L 617.940543 103.859885 
L 619.384457 103.315077 
L 620.82837 103.01986 
L 622.272284 102.962923 
L 707.75197 102.962923 
L 707.75197 102.962923 
" clip-path="url(#p8b2ab7e1cc)" style="fill: none; stroke: #e1b8a0; stroke-width: 1.5; stroke-linecap: square"/>
   </g>
   <g id="line2d_60">
    <path d="M 419.25803 124.481037 
L 419.546813 124.493087 
L 421.279509 125.406936 
L 422.43464 126.326504 
L 423.589771 127.515399 
L 424.744902 128.975746 
L 426.188816 131.195368 
L 427.921512 134.389004 
L 429.654208 138.084769 
L 431.386905 142.30617 
L 433.408384 147.89958 
L 435.429863 154.156193 
L 437.740125 162.052081 
L 440.339169 171.803496 
L 443.226996 183.5415 
L 446.981172 199.831212 
L 456.222219 240.335213 
L 458.821263 250.53561 
L 461.131525 258.745362 
L 463.153004 265.057625 
L 464.8857 269.72927 
L 466.329614 273.042405 
L 467.773528 275.789091 
L 468.928659 277.552128 
L 470.083789 278.91551 
L 470.950138 279.668837 
L 471.816486 280.188405 
L 472.682834 280.472309 
L 473.549182 280.552727 
L 474.41553 280.434023 
L 475.281878 280.105089 
L 476.148227 279.559586 
L 477.014575 278.793776 
L 478.169706 277.424132 
L 479.324837 275.649591 
L 480.479967 273.464039 
L 481.635098 270.862486 
L 483.079012 267.055085 
L 484.811708 261.821382 
L 486.544405 255.929815 
L 488.565884 248.241408 
L 490.876145 238.500711 
L 493.47519 226.514326 
L 496.363017 212.0382 
L 500.117192 191.818881 
L 511.957284 127.16823 
L 514.845111 113.058135 
L 517.444156 101.450015 
L 519.754418 92.066108 
L 522.064679 83.602626 
L 524.374941 76.053539 
L 526.39642 70.22556 
L 528.417899 65.056129 
L 530.150596 61.126243 
L 531.594509 58.333185 
L 533.038423 55.98277 
L 534.482336 54.055385 
L 535.92625 52.529173 
L 537.370164 51.383113 
L 538.525295 50.726368 
L 539.680425 50.293142 
L 541.124339 50.031766 
L 542.568253 50.049694 
L 544.012166 50.299588 
L 545.45608 50.766537 
L 546.899993 51.473199 
L 548.343907 52.447161 
L 549.787821 53.737062 
L 551.231734 55.346837 
L 552.964431 57.656027 
L 554.697127 60.345743 
L 556.429823 63.438229 
L 558.451302 67.533174 
L 560.761564 72.7952 
L 563.071826 78.586106 
L 565.67087 85.729825 
L 569.136263 96.051458 
L 576.355831 117.895617 
L 578.954876 125.044926 
L 581.265137 130.791546 
L 583.286616 135.197171 
L 584.73053 137.869214 
L 586.174444 140.011257 
L 587.329575 141.389619 
L 588.484705 142.481966 
L 589.639836 143.30505 
L 590.794967 143.873701 
L 591.950098 144.20721 
L 593.105229 144.280038 
L 594.26036 144.099567 
L 595.415491 143.67914 
L 596.570622 143.032811 
L 598.014535 141.92961 
L 599.458449 140.524034 
L 600.902363 138.820239 
L 602.923842 136.017812 
L 605.234103 132.419971 
L 608.410713 127.045479 
L 615.630281 114.58583 
L 617.362978 112.223574 
L 619.095674 110.229876 
L 620.82837 108.561894 
L 622.849849 106.959154 
L 624.582546 105.846623 
L 626.026459 105.163816 
L 627.759156 104.595221 
L 629.780635 104.190932 
L 632.090897 103.973345 
L 634.978724 103.945525 
L 638.732899 104.148831 
L 644.219771 104.683427 
L 653.749601 105.864581 
L 687.825962 110.437876 
L 707.75197 113.140535 
L 707.75197 113.140535 
" clip-path="url(#p8b2ab7e1cc)" style="fill: none; stroke: #116496; stroke-width: 1.5; stroke-linecap: square"/>
   </g>
   <g id="patch_5">
    <path d="M 404.833333 292.08 
L 722.176667 292.08 
" style="fill: none; stroke: #000000; stroke-width: 0.8; stroke-linejoin: miter; stroke-linecap: square"/>
   </g>
   <g id="text_33">
    <!-- joint-2 -->
    <g transform="translate(541.465313 32.48) scale(0.12 -0.12)">
     <defs>
      <path id="DejaVuSans-Bold-32" d="M 1844 884 
L 3897 884 
L 3897 0 
L 506 0 
L 506 884 
L 2209 2388 
Q 2438 2594 2547 2791 
Q 2656 2988 2656 3200 
Q 2656 3528 2436 3728 
Q 2216 3928 1850 3928 
Q 1569 3928 1234 3808 
Q 900 3688 519 3450 
L 519 4475 
Q 925 4609 1322 4679 
Q 1719 4750 2100 4750 
Q 2938 4750 3402 4381 
Q 3866 4013 3866 3353 
Q 3866 2972 3669 2642 
Q 3472 2313 2841 1759 
L 1844 884 
z
" transform="scale(0.015625)"/>
     </defs>
     <use xlink:href="#DejaVuSans-Bold-6a"/>
     <use xlink:href="#DejaVuSans-Bold-6f" x="34.277344"/>
     <use xlink:href="#DejaVuSans-Bold-69" x="102.978516"/>
     <use xlink:href="#DejaVuSans-Bold-6e" x="137.255859"/>
     <use xlink:href="#DejaVuSans-Bold-74" x="208.447266"/>
     <use xlink:href="#DejaVuSans-Bold-2d" x="256.25"/>
     <use xlink:href="#DejaVuSans-Bold-32" x="297.753906"/>
    </g>
   </g>
  </g>
  <g id="axes_3">
   <g id="patch_6">
    <path d="M 758.656667 292.08 
L 1076 292.08 
L 1076 38.48 
L 758.656667 38.48 
z
" style="fill: #ffffff"/>
   </g>
   <g id="matplotlib.axis_5">
    <g id="xtick_13">
     <g id="line2d_61">
      <path d="M 773.081364 292.08 
L 773.081364 38.48 
" clip-path="url(#pda0966d1ed)" style="fill: none; stroke: #e6e6e6; stroke-linecap: square"/>
     </g>
     <g id="line2d_62">
      <g>
       <use xlink:href="#mba519ed1c4" x="773.081364" y="292.08" style="stroke: #000000; stroke-width: 0.8"/>
      </g>
     </g>
     <g id="text_34">
      <!-- 0 -->
      <g transform="translate(769.263864 308.198125) scale(0.12 -0.12)">
       <use xlink:href="#DejaVuSans-30"/>
      </g>
     </g>
    </g>
    <g id="xtick_14">
     <g id="line2d_63">
      <path d="M 830.837908 292.08 
L 830.837908 38.48 
" clip-path="url(#pda0966d1ed)" style="fill: none; stroke: #e6e6e6; stroke-linecap: square"/>
     </g>
     <g id="line2d_64">
      <g>
       <use xlink:href="#mba519ed1c4" x="830.837908" y="292.08" style="stroke: #000000; stroke-width: 0.8"/>
      </g>
     </g>
     <g id="text_35">
      <!-- 2 -->
      <g transform="translate(827.020408 308.198125) scale(0.12 -0.12)">
       <use xlink:href="#DejaVuSans-32"/>
      </g>
     </g>
    </g>
    <g id="xtick_15">
     <g id="line2d_65">
      <path d="M 888.594452 292.08 
L 888.594452 38.48 
" clip-path="url(#pda0966d1ed)" style="fill: none; stroke: #e6e6e6; stroke-linecap: square"/>
     </g>
     <g id="line2d_66">
      <g>
       <use xlink:href="#mba519ed1c4" x="888.594452" y="292.08" style="stroke: #000000; stroke-width: 0.8"/>
      </g>
     </g>
     <g id="text_36">
      <!-- 4 -->
      <g transform="translate(884.776952 308.198125) scale(0.12 -0.12)">
       <use xlink:href="#DejaVuSans-34"/>
      </g>
     </g>
    </g>
    <g id="xtick_16">
     <g id="line2d_67">
      <path d="M 946.350997 292.08 
L 946.350997 38.48 
" clip-path="url(#pda0966d1ed)" style="fill: none; stroke: #e6e6e6; stroke-linecap: square"/>
     </g>
     <g id="line2d_68">
      <g>
       <use xlink:href="#mba519ed1c4" x="946.350997" y="292.08" style="stroke: #000000; stroke-width: 0.8"/>
      </g>
     </g>
     <g id="text_37">
      <!-- 6 -->
      <g transform="translate(942.533497 308.198125) scale(0.12 -0.12)">
       <use xlink:href="#DejaVuSans-36"/>
      </g>
     </g>
    </g>
    <g id="xtick_17">
     <g id="line2d_69">
      <path d="M 1004.107541 292.08 
L 1004.107541 38.48 
" clip-path="url(#pda0966d1ed)" style="fill: none; stroke: #e6e6e6; stroke-linecap: square"/>
     </g>
     <g id="line2d_70">
      <g>
       <use xlink:href="#mba519ed1c4" x="1004.107541" y="292.08" style="stroke: #000000; stroke-width: 0.8"/>
      </g>
     </g>
     <g id="text_38">
      <!-- 8 -->
      <g transform="translate(1000.290041 308.198125) scale(0.12 -0.12)">
       <use xlink:href="#DejaVuSans-38"/>
      </g>
     </g>
    </g>
    <g id="xtick_18">
     <g id="line2d_71">
      <path d="M 1061.864086 292.08 
L 1061.864086 38.48 
" clip-path="url(#pda0966d1ed)" style="fill: none; stroke: #e6e6e6; stroke-linecap: square"/>
     </g>
     <g id="line2d_72">
      <g>
       <use xlink:href="#mba519ed1c4" x="1061.864086" y="292.08" style="stroke: #000000; stroke-width: 0.8"/>
      </g>
     </g>
     <g id="text_39">
      <!-- 10 -->
      <g transform="translate(1054.229086 308.198125) scale(0.12 -0.12)">
       <use xlink:href="#DejaVuSans-31"/>
       <use xlink:href="#DejaVuSans-30" x="63.623047"/>
      </g>
     </g>
    </g>
    <g id="text_40">
     <!-- time (s) -->
     <g transform="translate(894.058646 323.811875) scale(0.12 -0.12)">
      <use xlink:href="#DejaVuSans-74"/>
      <use xlink:href="#DejaVuSans-69" x="39.208984"/>
      <use xlink:href="#DejaVuSans-6d" x="66.992188"/>
      <use xlink:href="#DejaVuSans-65" x="164.404297"/>
      <use xlink:href="#DejaVuSans-20" x="225.927734"/>
      <use xlink:href="#DejaVuSans-28" x="257.714844"/>
      <use xlink:href="#DejaVuSans-73" x="296.728516"/>
      <use xlink:href="#DejaVuSans-29" x="348.828125"/>
     </g>
    </g>
   </g>
   <g id="matplotlib.axis_6">
    <g id="ytick_17">
     <g id="line2d_73">
      <path d="M 758.656667 257.674467 
L 1076 257.674467 
" clip-path="url(#pda0966d1ed)" style="fill: none; stroke: #e6e6e6; stroke-linecap: square"/>
     </g>
     <g id="line2d_74"/>
     <g id="text_41">
      <!-- 1.4 -->
      <g transform="translate(736.072917 262.23353) scale(0.12 -0.12)">
       <use xlink:href="#DejaVuSans-31"/>
       <use xlink:href="#DejaVuSans-2e" x="63.623047"/>
       <use xlink:href="#DejaVuSans-34" x="95.410156"/>
      </g>
     </g>
    </g>
    <g id="ytick_18">
     <g id="line2d_75">
      <path d="M 758.656667 210.023931 
L 1076 210.023931 
" clip-path="url(#pda0966d1ed)" style="fill: none; stroke: #e6e6e6; stroke-linecap: square"/>
     </g>
     <g id="line2d_76"/>
     <g id="text_42">
      <!-- 1.5 -->
      <g transform="translate(736.072917 214.582994) scale(0.12 -0.12)">
       <use xlink:href="#DejaVuSans-31"/>
       <use xlink:href="#DejaVuSans-2e" x="63.623047"/>
       <use xlink:href="#DejaVuSans-35" x="95.410156"/>
      </g>
     </g>
    </g>
    <g id="ytick_19">
     <g id="line2d_77">
      <path d="M 758.656667 162.373396 
L 1076 162.373396 
" clip-path="url(#pda0966d1ed)" style="fill: none; stroke: #e6e6e6; stroke-linecap: square"/>
     </g>
     <g id="line2d_78"/>
     <g id="text_43">
      <!-- 1.6 -->
      <g transform="translate(736.072917 166.932458) scale(0.12 -0.12)">
       <use xlink:href="#DejaVuSans-31"/>
       <use xlink:href="#DejaVuSans-2e" x="63.623047"/>
       <use xlink:href="#DejaVuSans-36" x="95.410156"/>
      </g>
     </g>
    </g>
    <g id="ytick_20">
     <g id="line2d_79">
      <path d="M 758.656667 114.72286 
L 1076 114.72286 
" clip-path="url(#pda0966d1ed)" style="fill: none; stroke: #e6e6e6; stroke-linecap: square"/>
     </g>
     <g id="line2d_80"/>
     <g id="text_44">
      <!-- 1.7 -->
      <g transform="translate(736.072917 119.281922) scale(0.12 -0.12)">
       <defs>
        <path id="DejaVuSans-37" d="M 525 4666 
L 3525 4666 
L 3525 4397 
L 1831 0 
L 1172 0 
L 2766 4134 
L 525 4134 
L 525 4666 
z
" transform="scale(0.015625)"/>
       </defs>
       <use xlink:href="#DejaVuSans-31"/>
       <use xlink:href="#DejaVuSans-2e" x="63.623047"/>
       <use xlink:href="#DejaVuSans-37" x="95.410156"/>
      </g>
     </g>
    </g>
    <g id="ytick_21">
     <g id="line2d_81">
      <path d="M 758.656667 67.072324 
L 1076 67.072324 
" clip-path="url(#pda0966d1ed)" style="fill: none; stroke: #e6e6e6; stroke-linecap: square"/>
     </g>
     <g id="line2d_82"/>
     <g id="text_45">
      <!-- 1.8 -->
      <g transform="translate(736.072917 71.631386) scale(0.12 -0.12)">
       <use xlink:href="#DejaVuSans-31"/>
       <use xlink:href="#DejaVuSans-2e" x="63.623047"/>
       <use xlink:href="#DejaVuSans-38" x="95.410156"/>
      </g>
     </g>
    </g>
   </g>
   <g id="PathCollection_3">
    <g clip-path="url(#pda0966d1ed)">
     <use xlink:href="#m3ac208c4e3" x="1061.575303" y="192.331774" style="fill: #008000; stroke: #008000; stroke-width: 1.5"/>
    </g>
   </g>
   <g id="line2d_83">
    <path d="M 773.081364 176.289102 
L 773.370146 176.242966 
L 775.391625 165.241659 
L 781.744845 130.584021 
L 784.632673 116.023994 
L 787.231717 104.058261 
L 789.253196 95.693328 
L 791.274675 88.297164 
L 793.007371 82.8223 
L 794.451285 78.924252 
L 795.895199 75.669798 
L 797.05033 73.551679 
L 798.20546 71.880783 
L 799.071809 70.928465 
L 799.938157 70.238744 
L 800.804505 69.814965 
L 801.670853 69.659589 
L 802.537201 69.774151 
L 803.403549 70.159223 
L 804.269898 70.814386 
L 805.136246 71.738202 
L 806.291377 73.383441 
L 807.446508 75.493037 
L 808.601638 78.054974 
L 810.045552 81.870003 
L 811.489466 86.331308 
L 813.222162 92.476338 
L 815.243641 100.62606 
L 817.553903 111.041707 
L 820.152947 123.861789 
L 823.61834 142.149232 
L 833.436953 194.640365 
L 836.613563 210.046101 
L 839.212607 221.623965 
L 841.522869 231.014259 
L 843.833131 239.469875 
L 845.85461 246.046277 
L 847.876089 251.812103 
L 849.608785 256.081432 
L 851.341481 259.707968 
L 852.785395 262.225686 
L 854.229309 264.274603 
L 855.384439 265.570448 
L 856.53957 266.556979 
L 857.694701 267.230901 
L 858.849832 267.589488 
L 859.71618 267.650198 
L 860.582528 267.531693 
L 861.448877 267.233559 
L 862.604007 266.556356 
L 863.759138 265.559813 
L 864.914269 264.245047 
L 866.0694 262.614053 
L 867.513314 260.135122 
L 868.957227 257.174401 
L 870.401141 253.741922 
L 872.133837 249.01781 
L 873.866534 243.65812 
L 875.888013 236.642965 
L 878.198274 227.690842 
L 880.508536 217.836456 
L 883.107581 205.813022 
L 886.284191 190.02943 
L 890.615932 167.233178 
L 898.99063 122.90454 
L 902.16724 107.482153 
L 904.766285 95.988477 
L 906.787764 87.932663 
L 908.809243 80.779119 
L 910.541939 75.448064 
L 911.985853 71.617548 
L 913.429767 68.37762 
L 914.584897 66.229811 
L 915.740028 64.490232 
L 916.895159 63.169252 
L 917.761507 62.458306 
L 918.627856 61.990259 
L 919.494204 61.767124 
L 920.360552 61.790186 
L 921.2269 62.059992 
L 922.093248 62.576336 
L 922.959596 63.338261 
L 924.114727 64.733098 
L 925.269858 66.555237 
L 926.424989 68.796201 
L 927.868903 72.169818 
L 929.312816 76.15527 
L 931.045513 81.702218 
L 932.778209 88.016512 
L 935.377253 98.358266 
L 939.997777 117.864138 
L 944.618301 137.076021 
L 947.506128 148.203738 
L 950.105172 157.338902 
L 952.415434 164.626292 
L 954.436913 170.296267 
L 956.458392 175.273819 
L 958.191089 178.97901 
L 959.923785 182.168146 
L 961.656481 184.852912 
L 963.100395 186.71963 
L 964.544308 188.266949 
L 965.988222 189.515464 
L 967.432136 190.489522 
L 968.876049 191.216956 
L 970.319963 191.728774 
L 972.052659 192.10615 
L 974.074138 192.299983 
L 977.539531 192.331774 
L 1061.575303 192.331774 
L 1061.575303 192.331774 
" clip-path="url(#pda0966d1ed)" style="fill: none; stroke: #e1b8a0; stroke-width: 1.5; stroke-linecap: square"/>
   </g>
   <g id="line2d_84">
    <path d="M 773.081364 176.289102 
L 773.370146 176.24196 
L 775.680408 164.545562 
L 780.012149 141.474619 
L 783.766324 122.107056 
L 786.365369 109.796141 
L 788.675631 99.9351 
L 790.69711 92.287468 
L 792.429806 86.547174 
L 793.87372 82.406973 
L 795.317633 78.896012 
L 796.472764 76.573002 
L 797.627895 74.692051 
L 798.783026 73.261912 
L 799.649374 72.487165 
L 800.515722 71.968547 
L 801.38207 71.715668 
L 802.248419 71.731235 
L 803.114767 72.017635 
L 803.981115 72.576964 
L 804.847463 73.411013 
L 805.713811 74.521268 
L 806.868942 76.433354 
L 808.024073 78.846281 
L 809.467987 82.508001 
L 810.9119 86.802781 
L 812.644597 92.767778 
L 814.377293 99.577813 
L 816.398772 108.465476 
L 818.709034 119.600944 
L 821.596861 134.66177 
L 826.506167 161.740817 
L 834.014518 203.012798 
L 837.191128 219.175497 
L 839.790172 231.187666 
L 842.100434 240.771361 
L 844.410696 249.351229 
L 846.720958 257.07787 
L 848.742437 263.057153 
L 850.475133 267.534167 
L 852.207829 271.350815 
L 853.940526 274.568272 
L 855.384439 276.76944 
L 856.53957 278.18054 
L 857.694701 279.268235 
L 858.849832 280.026876 
L 859.71618 280.377753 
L 860.582528 280.540456 
L 861.448877 280.513054 
L 862.315225 280.284742 
L 863.181573 279.849783 
L 864.336704 279.004228 
L 865.491835 277.862183 
L 866.646966 276.429686 
L 868.090879 274.215129 
L 869.534793 271.548504 
L 870.978706 268.399271 
L 872.711403 263.994234 
L 874.444099 258.923541 
L 876.176795 253.208545 
L 878.198274 245.759074 
L 880.508536 236.324077 
L 883.396363 223.51661 
L 886.284191 209.653382 
L 890.038366 190.490718 
L 894.947672 164.112155 
L 903.033589 120.869468 
L 906.498981 103.492878 
L 909.098026 91.404766 
L 911.408288 81.685229 
L 913.429767 74.041173 
L 915.451246 67.179676 
L 917.183942 62.084141 
L 918.627856 58.447224 
L 920.071769 55.412606 
L 921.2269 53.444591 
L 922.382031 51.901657 
L 923.248379 51.031884 
L 924.114727 50.425295 
L 924.981075 50.085414 
L 925.847424 50.012761 
L 926.713772 50.207417 
L 927.58012 50.669023 
L 928.446468 51.397362 
L 929.312816 52.394961 
L 930.467947 54.149462 
L 931.623078 56.378179 
L 932.778209 59.066248 
L 934.222123 63.048391 
L 935.666036 67.69773 
L 937.398733 74.13373 
L 939.420212 82.603483 
L 942.308039 95.698811 
L 953.570565 147.934898 
L 956.169609 158.581395 
L 958.479871 167.184581 
L 960.790133 174.901124 
L 962.811612 180.899522 
L 964.833091 186.18403 
L 966.565787 190.142334 
L 968.298484 193.553146 
L 969.742397 195.924721 
L 971.186311 197.895271 
L 972.630225 199.511916 
L 974.074138 200.819292 
L 975.518052 201.858862 
L 977.250748 202.828908 
L 978.983445 203.527906 
L 980.716141 203.980908 
L 982.73762 204.28561 
L 985.336664 204.441618 
L 988.802057 204.41135 
L 996.310408 204.051833 
L 1004.973889 203.727806 
L 1012.48224 203.675499 
L 1020.279374 203.852777 
L 1028.654073 204.272877 
L 1038.761468 205.021068 
L 1052.045473 206.237216 
L 1061.575303 207.220203 
L 1061.575303 207.220203 
" clip-path="url(#pda0966d1ed)" style="fill: none; stroke: #116496; stroke-width: 1.5; stroke-linecap: square"/>
   </g>
   <g id="patch_7">
    <path d="M 758.656667 292.08 
L 1076 292.08 
" style="fill: none; stroke: #000000; stroke-width: 0.8; stroke-linejoin: miter; stroke-linecap: square"/>
   </g>
   <g id="text_46">
    <!-- joint-6 -->
    <g transform="translate(895.288646 32.48) scale(0.12 -0.12)">
     <defs>
      <path id="DejaVuSans-Bold-36" d="M 2316 2303 
Q 2000 2303 1842 2098 
Q 1684 1894 1684 1484 
Q 1684 1075 1842 870 
Q 2000 666 2316 666 
Q 2634 666 2792 870 
Q 2950 1075 2950 1484 
Q 2950 1894 2792 2098 
Q 2634 2303 2316 2303 
z
M 3803 4544 
L 3803 3681 
Q 3506 3822 3243 3889 
Q 2981 3956 2731 3956 
Q 2194 3956 1894 3657 
Q 1594 3359 1544 2772 
Q 1750 2925 1990 3001 
Q 2231 3078 2516 3078 
Q 3231 3078 3670 2659 
Q 4109 2241 4109 1563 
Q 4109 813 3618 361 
Q 3128 -91 2303 -91 
Q 1394 -91 895 523 
Q 397 1138 397 2266 
Q 397 3422 980 4083 
Q 1563 4744 2578 4744 
Q 2900 4744 3203 4694 
Q 3506 4644 3803 4544 
z
" transform="scale(0.015625)"/>
     </defs>
     <use xlink:href="#DejaVuSans-Bold-6a"/>
     <use xlink:href="#DejaVuSans-Bold-6f" x="34.277344"/>
     <use xlink:href="#DejaVuSans-Bold-69" x="102.978516"/>
     <use xlink:href="#DejaVuSans-Bold-6e" x="137.255859"/>
     <use xlink:href="#DejaVuSans-Bold-74" x="208.447266"/>
     <use xlink:href="#DejaVuSans-Bold-2d" x="256.25"/>
     <use xlink:href="#DejaVuSans-Bold-36" x="297.753906"/>
    </g>
   </g>
  </g>
  <g id="text_47">
   <!-- Movement in Joint Space using NN -->
   <g transform="translate(384.45875 19.3575) scale(0.16 -0.16)">
    <defs>
     <path id="DejaVuSans-Bold-4d" d="M 588 4666 
L 2119 4666 
L 3181 2169 
L 4250 4666 
L 5778 4666 
L 5778 0 
L 4641 0 
L 4641 3413 
L 3566 897 
L 2803 897 
L 1728 3413 
L 1728 0 
L 588 0 
L 588 4666 
z
" transform="scale(0.015625)"/>
     <path id="DejaVuSans-Bold-76" d="M 97 3500 
L 1216 3500 
L 2088 1081 
L 2956 3500 
L 4078 3500 
L 2700 0 
L 1472 0 
L 97 3500 
z
" transform="scale(0.015625)"/>
     <path id="DejaVuSans-Bold-65" d="M 4031 1759 
L 4031 1441 
L 1416 1441 
Q 1456 1047 1700 850 
Q 1944 653 2381 653 
Q 2734 653 3104 758 
Q 3475 863 3866 1075 
L 3866 213 
Q 3469 63 3072 -14 
Q 2675 -91 2278 -91 
Q 1328 -91 801 392 
Q 275 875 275 1747 
Q 275 2603 792 3093 
Q 1309 3584 2216 3584 
Q 3041 3584 3536 3087 
Q 4031 2591 4031 1759 
z
M 2881 2131 
Q 2881 2450 2695 2645 
Q 2509 2841 2209 2841 
Q 1884 2841 1681 2658 
Q 1478 2475 1428 2131 
L 2881 2131 
z
" transform="scale(0.015625)"/>
     <path id="DejaVuSans-Bold-6d" d="M 3781 2919 
Q 3994 3244 4286 3414 
Q 4578 3584 4928 3584 
Q 5531 3584 5847 3212 
Q 6163 2841 6163 2131 
L 6163 0 
L 5038 0 
L 5038 1825 
Q 5041 1866 5042 1909 
Q 5044 1953 5044 2034 
Q 5044 2406 4934 2573 
Q 4825 2741 4581 2741 
Q 4263 2741 4089 2478 
Q 3916 2216 3909 1719 
L 3909 0 
L 2784 0 
L 2784 1825 
Q 2784 2406 2684 2573 
Q 2584 2741 2328 2741 
Q 2006 2741 1831 2477 
Q 1656 2213 1656 1722 
L 1656 0 
L 531 0 
L 531 3500 
L 1656 3500 
L 1656 2988 
Q 1863 3284 2130 3434 
Q 2397 3584 2719 3584 
Q 3081 3584 3359 3409 
Q 3638 3234 3781 2919 
z
" transform="scale(0.015625)"/>
     <path id="DejaVuSans-Bold-20" transform="scale(0.015625)"/>
     <path id="DejaVuSans-Bold-4a" d="M 588 4666 
L 1791 4666 
L 1791 453 
Q 1791 -419 1317 -850 
Q 844 -1281 -116 -1281 
L -359 -1281 
L -359 -372 
L -172 -372 
Q 203 -372 395 -162 
Q 588 47 588 453 
L 588 4666 
z
" transform="scale(0.015625)"/>
     <path id="DejaVuSans-Bold-53" d="M 3834 4519 
L 3834 3531 
Q 3450 3703 3084 3790 
Q 2719 3878 2394 3878 
Q 1963 3878 1756 3759 
Q 1550 3641 1550 3391 
Q 1550 3203 1689 3098 
Q 1828 2994 2194 2919 
L 2706 2816 
Q 3484 2659 3812 2340 
Q 4141 2022 4141 1434 
Q 4141 663 3683 286 
Q 3225 -91 2284 -91 
Q 1841 -91 1394 -6 
Q 947 78 500 244 
L 500 1259 
Q 947 1022 1364 901 
Q 1781 781 2169 781 
Q 2563 781 2772 912 
Q 2981 1044 2981 1288 
Q 2981 1506 2839 1625 
Q 2697 1744 2272 1838 
L 1806 1941 
Q 1106 2091 782 2419 
Q 459 2747 459 3303 
Q 459 4000 909 4375 
Q 1359 4750 2203 4750 
Q 2588 4750 2994 4692 
Q 3400 4634 3834 4519 
z
" transform="scale(0.015625)"/>
     <path id="DejaVuSans-Bold-70" d="M 1656 506 
L 1656 -1331 
L 538 -1331 
L 538 3500 
L 1656 3500 
L 1656 2988 
Q 1888 3294 2169 3439 
Q 2450 3584 2816 3584 
Q 3463 3584 3878 3070 
Q 4294 2556 4294 1747 
Q 4294 938 3878 423 
Q 3463 -91 2816 -91 
Q 2450 -91 2169 54 
Q 1888 200 1656 506 
z
M 2400 2772 
Q 2041 2772 1848 2508 
Q 1656 2244 1656 1747 
Q 1656 1250 1848 986 
Q 2041 722 2400 722 
Q 2759 722 2948 984 
Q 3138 1247 3138 1747 
Q 3138 2247 2948 2509 
Q 2759 2772 2400 2772 
z
" transform="scale(0.015625)"/>
     <path id="DejaVuSans-Bold-61" d="M 2106 1575 
Q 1756 1575 1579 1456 
Q 1403 1338 1403 1106 
Q 1403 894 1545 773 
Q 1688 653 1941 653 
Q 2256 653 2472 879 
Q 2688 1106 2688 1447 
L 2688 1575 
L 2106 1575 
z
M 3816 1997 
L 3816 0 
L 2688 0 
L 2688 519 
Q 2463 200 2181 54 
Q 1900 -91 1497 -91 
Q 953 -91 614 226 
Q 275 544 275 1050 
Q 275 1666 698 1953 
Q 1122 2241 2028 2241 
L 2688 2241 
L 2688 2328 
Q 2688 2594 2478 2717 
Q 2269 2841 1825 2841 
Q 1466 2841 1156 2769 
Q 847 2697 581 2553 
L 581 3406 
Q 941 3494 1303 3539 
Q 1666 3584 2028 3584 
Q 2975 3584 3395 3211 
Q 3816 2838 3816 1997 
z
" transform="scale(0.015625)"/>
     <path id="DejaVuSans-Bold-63" d="M 3366 3391 
L 3366 2478 
Q 3138 2634 2908 2709 
Q 2678 2784 2431 2784 
Q 1963 2784 1702 2511 
Q 1441 2238 1441 1747 
Q 1441 1256 1702 982 
Q 1963 709 2431 709 
Q 2694 709 2930 787 
Q 3166 866 3366 1019 
L 3366 103 
Q 3103 6 2833 -42 
Q 2563 -91 2291 -91 
Q 1344 -91 809 395 
Q 275 881 275 1747 
Q 275 2613 809 3098 
Q 1344 3584 2291 3584 
Q 2566 3584 2833 3536 
Q 3100 3488 3366 3391 
z
" transform="scale(0.015625)"/>
     <path id="DejaVuSans-Bold-75" d="M 500 1363 
L 500 3500 
L 1625 3500 
L 1625 3150 
Q 1625 2866 1622 2436 
Q 1619 2006 1619 1863 
Q 1619 1441 1641 1255 
Q 1663 1069 1716 984 
Q 1784 875 1895 815 
Q 2006 756 2150 756 
Q 2500 756 2700 1025 
Q 2900 1294 2900 1772 
L 2900 3500 
L 4019 3500 
L 4019 0 
L 2900 0 
L 2900 506 
Q 2647 200 2364 54 
Q 2081 -91 1741 -91 
Q 1134 -91 817 281 
Q 500 653 500 1363 
z
" transform="scale(0.015625)"/>
     <path id="DejaVuSans-Bold-73" d="M 3272 3391 
L 3272 2541 
Q 2913 2691 2578 2766 
Q 2244 2841 1947 2841 
Q 1628 2841 1473 2761 
Q 1319 2681 1319 2516 
Q 1319 2381 1436 2309 
Q 1553 2238 1856 2203 
L 2053 2175 
Q 2913 2066 3209 1816 
Q 3506 1566 3506 1031 
Q 3506 472 3093 190 
Q 2681 -91 1863 -91 
Q 1516 -91 1145 -36 
Q 775 19 384 128 
L 384 978 
Q 719 816 1070 734 
Q 1422 653 1784 653 
Q 2113 653 2278 743 
Q 2444 834 2444 1013 
Q 2444 1163 2330 1236 
Q 2216 1309 1875 1350 
L 1678 1375 
Q 931 1469 631 1722 
Q 331 1975 331 2491 
Q 331 3047 712 3315 
Q 1094 3584 1881 3584 
Q 2191 3584 2531 3537 
Q 2872 3491 3272 3391 
z
" transform="scale(0.015625)"/>
     <path id="DejaVuSans-Bold-67" d="M 2919 594 
Q 2688 288 2409 144 
Q 2131 0 1766 0 
Q 1125 0 706 504 
Q 288 1009 288 1791 
Q 288 2575 706 3076 
Q 1125 3578 1766 3578 
Q 2131 3578 2409 3434 
Q 2688 3291 2919 2981 
L 2919 3500 
L 4044 3500 
L 4044 353 
Q 4044 -491 3511 -936 
Q 2978 -1381 1966 -1381 
Q 1638 -1381 1331 -1331 
Q 1025 -1281 716 -1178 
L 716 -306 
Q 1009 -475 1290 -558 
Q 1572 -641 1856 -641 
Q 2406 -641 2662 -400 
Q 2919 -159 2919 353 
L 2919 594 
z
M 2181 2772 
Q 1834 2772 1640 2515 
Q 1447 2259 1447 1791 
Q 1447 1309 1634 1061 
Q 1822 813 2181 813 
Q 2531 813 2725 1069 
Q 2919 1325 2919 1791 
Q 2919 2259 2725 2515 
Q 2531 2772 2181 2772 
z
" transform="scale(0.015625)"/>
     <path id="DejaVuSans-Bold-4e" d="M 588 4666 
L 1931 4666 
L 3628 1466 
L 3628 4666 
L 4769 4666 
L 4769 0 
L 3425 0 
L 1728 3200 
L 1728 0 
L 588 0 
L 588 4666 
z
" transform="scale(0.015625)"/>
    </defs>
    <use xlink:href="#DejaVuSans-Bold-4d"/>
    <use xlink:href="#DejaVuSans-Bold-6f" x="99.511719"/>
    <use xlink:href="#DejaVuSans-Bold-76" x="168.212891"/>
    <use xlink:href="#DejaVuSans-Bold-65" x="233.398438"/>
    <use xlink:href="#DejaVuSans-Bold-6d" x="301.220703"/>
    <use xlink:href="#DejaVuSans-Bold-65" x="405.419922"/>
    <use xlink:href="#DejaVuSans-Bold-6e" x="473.242188"/>
    <use xlink:href="#DejaVuSans-Bold-74" x="544.433594"/>
    <use xlink:href="#DejaVuSans-Bold-20" x="592.236328"/>
    <use xlink:href="#DejaVuSans-Bold-69" x="627.050781"/>
    <use xlink:href="#DejaVuSans-Bold-6e" x="661.328125"/>
    <use xlink:href="#DejaVuSans-Bold-20" x="732.519531"/>
    <use xlink:href="#DejaVuSans-Bold-4a" x="767.333984"/>
    <use xlink:href="#DejaVuSans-Bold-6f" x="804.541016"/>
    <use xlink:href="#DejaVuSans-Bold-69" x="873.242188"/>
    <use xlink:href="#DejaVuSans-Bold-6e" x="907.519531"/>
    <use xlink:href="#DejaVuSans-Bold-74" x="978.710938"/>
    <use xlink:href="#DejaVuSans-Bold-20" x="1026.513672"/>
    <use xlink:href="#DejaVuSans-Bold-53" x="1061.328125"/>
    <use xlink:href="#DejaVuSans-Bold-70" x="1133.349609"/>
    <use xlink:href="#DejaVuSans-Bold-61" x="1204.931641"/>
    <use xlink:href="#DejaVuSans-Bold-63" x="1272.412109"/>
    <use xlink:href="#DejaVuSans-Bold-65" x="1331.689453"/>
    <use xlink:href="#DejaVuSans-Bold-20" x="1399.511719"/>
    <use xlink:href="#DejaVuSans-Bold-75" x="1434.326172"/>
    <use xlink:href="#DejaVuSans-Bold-73" x="1505.517578"/>
    <use xlink:href="#DejaVuSans-Bold-69" x="1565.039062"/>
    <use xlink:href="#DejaVuSans-Bold-6e" x="1599.316406"/>
    <use xlink:href="#DejaVuSans-Bold-67" x="1670.507812"/>
    <use xlink:href="#DejaVuSans-Bold-20" x="1742.089844"/>
    <use xlink:href="#DejaVuSans-Bold-4e" x="1776.904297"/>
    <use xlink:href="#DejaVuSans-Bold-4e" x="1860.595703"/>
   </g>
  </g>
  <g id="legend_1">
   <g id="patch_8">
    <path d="M 340.769375 355.82 
L 743.230625 355.82 
Q 745.630625 355.82 745.630625 353.42 
L 745.630625 337.00625 
Q 745.630625 334.60625 743.230625 334.60625 
L 340.769375 334.60625 
Q 338.369375 334.60625 338.369375 337.00625 
L 338.369375 353.42 
Q 338.369375 355.82 340.769375 355.82 
z
" style="fill: #4c4c4c; opacity: 0.5; stroke: #4c4c4c; stroke-linejoin: miter"/>
   </g>
   <g id="patch_9">
    <path d="M 338.769375 353.82 
L 741.230625 353.82 
Q 743.630625 353.82 743.630625 351.42 
L 743.630625 335.00625 
Q 743.630625 332.60625 741.230625 332.60625 
L 338.769375 332.60625 
Q 336.369375 332.60625 336.369375 335.00625 
L 336.369375 351.42 
Q 336.369375 353.82 338.769375 353.82 
z
" style="fill: #ffffff; stroke: #cccccc; stroke-linejoin: miter"/>
   </g>
   <g id="line2d_85">
    <path d="M 341.169375 342.324375 
L 353.169375 342.324375 
L 365.169375 342.324375 
" style="fill: none; stroke: #e1b8a0; stroke-width: 1.5; stroke-linecap: square"/>
   </g>
   <g id="text_48">
    <!-- Demonstrated trajectory -->
    <g transform="translate(374.769375 346.524375) scale(0.12 -0.12)">
     <defs>
      <path id="DejaVuSans-44" d="M 1259 4147 
L 1259 519 
L 2022 519 
Q 2988 519 3436 956 
Q 3884 1394 3884 2338 
Q 3884 3275 3436 3711 
Q 2988 4147 2022 4147 
L 1259 4147 
z
M 628 4666 
L 1925 4666 
Q 3281 4666 3915 4102 
Q 4550 3538 4550 2338 
Q 4550 1131 3912 565 
Q 3275 0 1925 0 
L 628 0 
L 628 4666 
z
" transform="scale(0.015625)"/>
      <path id="DejaVuSans-6f" d="M 1959 3097 
Q 1497 3097 1228 2736 
Q 959 2375 959 1747 
Q 959 1119 1226 758 
Q 1494 397 1959 397 
Q 2419 397 2687 759 
Q 2956 1122 2956 1747 
Q 2956 2369 2687 2733 
Q 2419 3097 1959 3097 
z
M 1959 3584 
Q 2709 3584 3137 3096 
Q 3566 2609 3566 1747 
Q 3566 888 3137 398 
Q 2709 -91 1959 -91 
Q 1206 -91 779 398 
Q 353 888 353 1747 
Q 353 2609 779 3096 
Q 1206 3584 1959 3584 
z
" transform="scale(0.015625)"/>
      <path id="DejaVuSans-6a" d="M 603 3500 
L 1178 3500 
L 1178 -63 
Q 1178 -731 923 -1031 
Q 669 -1331 103 -1331 
L -116 -1331 
L -116 -844 
L 38 -844 
Q 366 -844 484 -692 
Q 603 -541 603 -63 
L 603 3500 
z
M 603 4863 
L 1178 4863 
L 1178 4134 
L 603 4134 
L 603 4863 
z
" transform="scale(0.015625)"/>
      <path id="DejaVuSans-63" d="M 3122 3366 
L 3122 2828 
Q 2878 2963 2633 3030 
Q 2388 3097 2138 3097 
Q 1578 3097 1268 2742 
Q 959 2388 959 1747 
Q 959 1106 1268 751 
Q 1578 397 2138 397 
Q 2388 397 2633 464 
Q 2878 531 3122 666 
L 3122 134 
Q 2881 22 2623 -34 
Q 2366 -91 2075 -91 
Q 1284 -91 818 406 
Q 353 903 353 1747 
Q 353 2603 823 3093 
Q 1294 3584 2113 3584 
Q 2378 3584 2631 3529 
Q 2884 3475 3122 3366 
z
" transform="scale(0.015625)"/>
      <path id="DejaVuSans-79" d="M 2059 -325 
Q 1816 -950 1584 -1140 
Q 1353 -1331 966 -1331 
L 506 -1331 
L 506 -850 
L 844 -850 
Q 1081 -850 1212 -737 
Q 1344 -625 1503 -206 
L 1606 56 
L 191 3500 
L 800 3500 
L 1894 763 
L 2988 3500 
L 3597 3500 
L 2059 -325 
z
" transform="scale(0.015625)"/>
     </defs>
     <use xlink:href="#DejaVuSans-44"/>
     <use xlink:href="#DejaVuSans-65" x="77.001953"/>
     <use xlink:href="#DejaVuSans-6d" x="138.525391"/>
     <use xlink:href="#DejaVuSans-6f" x="235.9375"/>
     <use xlink:href="#DejaVuSans-6e" x="297.119141"/>
     <use xlink:href="#DejaVuSans-73" x="360.498047"/>
     <use xlink:href="#DejaVuSans-74" x="412.597656"/>
     <use xlink:href="#DejaVuSans-72" x="451.806641"/>
     <use xlink:href="#DejaVuSans-61" x="492.919922"/>
     <use xlink:href="#DejaVuSans-74" x="554.199219"/>
     <use xlink:href="#DejaVuSans-65" x="593.408203"/>
     <use xlink:href="#DejaVuSans-64" x="654.931641"/>
     <use xlink:href="#DejaVuSans-20" x="718.408203"/>
     <use xlink:href="#DejaVuSans-74" x="750.195312"/>
     <use xlink:href="#DejaVuSans-72" x="789.404297"/>
     <use xlink:href="#DejaVuSans-61" x="830.517578"/>
     <use xlink:href="#DejaVuSans-6a" x="891.796875"/>
     <use xlink:href="#DejaVuSans-65" x="919.580078"/>
     <use xlink:href="#DejaVuSans-63" x="981.103516"/>
     <use xlink:href="#DejaVuSans-74" x="1036.083984"/>
     <use xlink:href="#DejaVuSans-6f" x="1075.292969"/>
     <use xlink:href="#DejaVuSans-72" x="1136.474609"/>
     <use xlink:href="#DejaVuSans-79" x="1177.587891"/>
    </g>
   </g>
   <g id="line2d_86">
    <path d="M 547.18125 342.324375 
L 559.18125 342.324375 
L 571.18125 342.324375 
" style="fill: none; stroke: #116496; stroke-width: 1.5; stroke-linecap: square"/>
   </g>
   <g id="text_49">
    <!-- Evaluation -->
    <g transform="translate(580.78125 346.524375) scale(0.12 -0.12)">
     <defs>
      <path id="DejaVuSans-45" d="M 628 4666 
L 3578 4666 
L 3578 4134 
L 1259 4134 
L 1259 2753 
L 3481 2753 
L 3481 2222 
L 1259 2222 
L 1259 531 
L 3634 531 
L 3634 0 
L 628 0 
L 628 4666 
z
" transform="scale(0.015625)"/>
      <path id="DejaVuSans-76" d="M 191 3500 
L 800 3500 
L 1894 563 
L 2988 3500 
L 3597 3500 
L 2284 0 
L 1503 0 
L 191 3500 
z
" transform="scale(0.015625)"/>
      <path id="DejaVuSans-6c" d="M 603 4863 
L 1178 4863 
L 1178 0 
L 603 0 
L 603 4863 
z
" transform="scale(0.015625)"/>
      <path id="DejaVuSans-75" d="M 544 1381 
L 544 3500 
L 1119 3500 
L 1119 1403 
Q 1119 906 1312 657 
Q 1506 409 1894 409 
Q 2359 409 2629 706 
Q 2900 1003 2900 1516 
L 2900 3500 
L 3475 3500 
L 3475 0 
L 2900 0 
L 2900 538 
Q 2691 219 2414 64 
Q 2138 -91 1772 -91 
Q 1169 -91 856 284 
Q 544 659 544 1381 
z
M 1991 3584 
L 1991 3584 
z
" transform="scale(0.015625)"/>
     </defs>
     <use xlink:href="#DejaVuSans-45"/>
     <use xlink:href="#DejaVuSans-76" x="63.183594"/>
     <use xlink:href="#DejaVuSans-61" x="122.363281"/>
     <use xlink:href="#DejaVuSans-6c" x="183.642578"/>
     <use xlink:href="#DejaVuSans-75" x="211.425781"/>
     <use xlink:href="#DejaVuSans-61" x="274.804688"/>
     <use xlink:href="#DejaVuSans-74" x="336.083984"/>
     <use xlink:href="#DejaVuSans-69" x="375.292969"/>
     <use xlink:href="#DejaVuSans-6f" x="403.076172"/>
     <use xlink:href="#DejaVuSans-6e" x="464.257812"/>
    </g>
   </g>
   <g id="PathCollection_4">
    <g>
     <use xlink:href="#m3ac208c4e3" x="680.098125" y="343.374375" style="fill: #008000; stroke: #008000; stroke-width: 1.5"/>
    </g>
   </g>
   <g id="text_50">
    <!-- Target -->
    <g transform="translate(701.698125 346.524375) scale(0.12 -0.12)">
     <defs>
      <path id="DejaVuSans-54" d="M -19 4666 
L 3928 4666 
L 3928 4134 
L 2272 4134 
L 2272 0 
L 1638 0 
L 1638 4134 
L -19 4134 
L -19 4666 
z
" transform="scale(0.015625)"/>
      <path id="DejaVuSans-67" d="M 2906 1791 
Q 2906 2416 2648 2759 
Q 2391 3103 1925 3103 
Q 1463 3103 1205 2759 
Q 947 2416 947 1791 
Q 947 1169 1205 825 
Q 1463 481 1925 481 
Q 2391 481 2648 825 
Q 2906 1169 2906 1791 
z
M 3481 434 
Q 3481 -459 3084 -895 
Q 2688 -1331 1869 -1331 
Q 1566 -1331 1297 -1286 
Q 1028 -1241 775 -1147 
L 775 -588 
Q 1028 -725 1275 -790 
Q 1522 -856 1778 -856 
Q 2344 -856 2625 -561 
Q 2906 -266 2906 331 
L 2906 616 
Q 2728 306 2450 153 
Q 2172 0 1784 0 
Q 1141 0 747 490 
Q 353 981 353 1791 
Q 353 2603 747 3093 
Q 1141 3584 1784 3584 
Q 2172 3584 2450 3431 
Q 2728 3278 2906 2969 
L 2906 3500 
L 3481 3500 
L 3481 434 
z
" transform="scale(0.015625)"/>
     </defs>
     <use xlink:href="#DejaVuSans-54"/>
     <use xlink:href="#DejaVuSans-61" x="44.583984"/>
     <use xlink:href="#DejaVuSans-72" x="105.863281"/>
     <use xlink:href="#DejaVuSans-67" x="145.226562"/>
     <use xlink:href="#DejaVuSans-65" x="208.703125"/>
     <use xlink:href="#DejaVuSans-74" x="270.226562"/>
    </g>
   </g>
  </g>
 </g>
 <defs>
  <clipPath id="p25886f9918">
   <rect x="51.01" y="38.48" width="317.343333" height="253.6"/>
  </clipPath>
  <clipPath id="p8b2ab7e1cc">
   <rect x="404.833333" y="38.48" width="317.343333" height="253.6"/>
  </clipPath>
  <clipPath id="pda0966d1ed">
   <rect x="758.656667" y="38.48" width="317.343333" height="253.6"/>
  </clipPath>
 </defs>
</svg>
