<?xml version="1.0" encoding="utf-8" standalone="no"?>
<!DOCTYPE svg PUBLIC "-//W3C//DTD SVG 1.1//EN"
  "http://www.w3.org/Graphics/SVG/1.1/DTD/svg11.dtd">
<svg xmlns:xlink="http://www.w3.org/1999/xlink" width="1080pt" height="360pt" viewBox="0 0 1080 360" xmlns="http://www.w3.org/2000/svg" version="1.1">
 <metadata>
  <rdf:RDF xmlns:dc="http://purl.org/dc/elements/1.1/" xmlns:cc="http://creativecommons.org/ns#" xmlns:rdf="http://www.w3.org/1999/02/22-rdf-syntax-ns#">
   <cc:Work>
    <dc:type rdf:resource="http://purl.org/dc/dcmitype/StillImage"/>
    <dc:date>2023-01-20T02:10:52.382266</dc:date>
    <dc:format>image/svg+xml</dc:format>
    <dc:creator>
     <cc:Agent>
      <dc:title>Matplotlib v3.6.2, https://matplotlib.org/</dc:title>
     </cc:Agent>
    </dc:creator>
   </cc:Work>
  </rdf:RDF>
 </metadata>
 <defs>
  <style type="text/css">*{stroke-linejoin: round; stroke-linecap: butt}</style>
 </defs>
 <g id="figure_1">
  <g id="patch_1">
   <path d="M 0 360 
L 1080 360 
L 1080 0 
L 0 0 
z
" style="fill: #ffffff"/>
  </g>
  <g id="axes_1">
   <g id="patch_2">
    <path d="M 51.01 292.08 
L 368.353333 292.08 
L 368.353333 38.48 
L 51.01 38.48 
z
" style="fill: #ffffff"/>
   </g>
   <g id="matplotlib.axis_1">
    <g id="xtick_1">
     <g id="line2d_1">
      <path d="M 65.434697 292.08 
L 65.434697 38.48 
" clip-path="url(#p3d9cb58dcc)" style="fill: none; stroke: #e6e6e6; stroke-linecap: square"/>
     </g>
     <g id="line2d_2">
      <defs>
       <path id="m7311a2fac7" d="M 0 0 
L 0 3.5 
" style="stroke: #000000; stroke-width: 0.8"/>
      </defs>
      <g>
       <use xlink:href="#m7311a2fac7" x="65.434697" y="292.08" style="stroke: #000000; stroke-width: 0.8"/>
      </g>
     </g>
     <g id="text_1">
      <!-- 0 -->
      <g transform="translate(61.617197 308.198125) scale(0.12 -0.12)">
       <defs>
        <path id="DejaVuSans-30" d="M 2034 4250 
Q 1547 4250 1301 3770 
Q 1056 3291 1056 2328 
Q 1056 1369 1301 889 
Q 1547 409 2034 409 
Q 2525 409 2770 889 
Q 3016 1369 3016 2328 
Q 3016 3291 2770 3770 
Q 2525 4250 2034 4250 
z
M 2034 4750 
Q 2819 4750 3233 4129 
Q 3647 3509 3647 2328 
Q 3647 1150 3233 529 
Q 2819 -91 2034 -91 
Q 1250 -91 836 529 
Q 422 1150 422 2328 
Q 422 3509 836 4129 
Q 1250 4750 2034 4750 
z
" transform="scale(0.015625)"/>
       </defs>
       <use xlink:href="#DejaVuSans-30"/>
      </g>
     </g>
    </g>
    <g id="xtick_2">
     <g id="line2d_3">
      <path d="M 123.191241 292.08 
L 123.191241 38.48 
" clip-path="url(#p3d9cb58dcc)" style="fill: none; stroke: #e6e6e6; stroke-linecap: square"/>
     </g>
     <g id="line2d_4">
      <g>
       <use xlink:href="#m7311a2fac7" x="123.191241" y="292.08" style="stroke: #000000; stroke-width: 0.8"/>
      </g>
     </g>
     <g id="text_2">
      <!-- 2 -->
      <g transform="translate(119.373741 308.198125) scale(0.12 -0.12)">
       <defs>
        <path id="DejaVuSans-32" d="M 1228 531 
L 3431 531 
L 3431 0 
L 469 0 
L 469 531 
Q 828 903 1448 1529 
Q 2069 2156 2228 2338 
Q 2531 2678 2651 2914 
Q 2772 3150 2772 3378 
Q 2772 3750 2511 3984 
Q 2250 4219 1831 4219 
Q 1534 4219 1204 4116 
Q 875 4013 500 3803 
L 500 4441 
Q 881 4594 1212 4672 
Q 1544 4750 1819 4750 
Q 2544 4750 2975 4387 
Q 3406 4025 3406 3419 
Q 3406 3131 3298 2873 
Q 3191 2616 2906 2266 
Q 2828 2175 2409 1742 
Q 1991 1309 1228 531 
z
" transform="scale(0.015625)"/>
       </defs>
       <use xlink:href="#DejaVuSans-32"/>
      </g>
     </g>
    </g>
    <g id="xtick_3">
     <g id="line2d_5">
      <path d="M 180.947786 292.08 
L 180.947786 38.48 
" clip-path="url(#p3d9cb58dcc)" style="fill: none; stroke: #e6e6e6; stroke-linecap: square"/>
     </g>
     <g id="line2d_6">
      <g>
       <use xlink:href="#m7311a2fac7" x="180.947786" y="292.08" style="stroke: #000000; stroke-width: 0.8"/>
      </g>
     </g>
     <g id="text_3">
      <!-- 4 -->
      <g transform="translate(177.130286 308.198125) scale(0.12 -0.12)">
       <defs>
        <path id="DejaVuSans-34" d="M 2419 4116 
L 825 1625 
L 2419 1625 
L 2419 4116 
z
M 2253 4666 
L 3047 4666 
L 3047 1625 
L 3713 1625 
L 3713 1100 
L 3047 1100 
L 3047 0 
L 2419 0 
L 2419 1100 
L 313 1100 
L 313 1709 
L 2253 4666 
z
" transform="scale(0.015625)"/>
       </defs>
       <use xlink:href="#DejaVuSans-34"/>
      </g>
     </g>
    </g>
    <g id="xtick_4">
     <g id="line2d_7">
      <path d="M 238.70433 292.08 
L 238.70433 38.48 
" clip-path="url(#p3d9cb58dcc)" style="fill: none; stroke: #e6e6e6; stroke-linecap: square"/>
     </g>
     <g id="line2d_8">
      <g>
       <use xlink:href="#m7311a2fac7" x="238.70433" y="292.08" style="stroke: #000000; stroke-width: 0.8"/>
      </g>
     </g>
     <g id="text_4">
      <!-- 6 -->
      <g transform="translate(234.88683 308.198125) scale(0.12 -0.12)">
       <defs>
        <path id="DejaVuSans-36" d="M 2113 2584 
Q 1688 2584 1439 2293 
Q 1191 2003 1191 1497 
Q 1191 994 1439 701 
Q 1688 409 2113 409 
Q 2538 409 2786 701 
Q 3034 994 3034 1497 
Q 3034 2003 2786 2293 
Q 2538 2584 2113 2584 
z
M 3366 4563 
L 3366 3988 
Q 3128 4100 2886 4159 
Q 2644 4219 2406 4219 
Q 1781 4219 1451 3797 
Q 1122 3375 1075 2522 
Q 1259 2794 1537 2939 
Q 1816 3084 2150 3084 
Q 2853 3084 3261 2657 
Q 3669 2231 3669 1497 
Q 3669 778 3244 343 
Q 2819 -91 2113 -91 
Q 1303 -91 875 529 
Q 447 1150 447 2328 
Q 447 3434 972 4092 
Q 1497 4750 2381 4750 
Q 2619 4750 2861 4703 
Q 3103 4656 3366 4563 
z
" transform="scale(0.015625)"/>
       </defs>
       <use xlink:href="#DejaVuSans-36"/>
      </g>
     </g>
    </g>
    <g id="xtick_5">
     <g id="line2d_9">
      <path d="M 296.460875 292.08 
L 296.460875 38.48 
" clip-path="url(#p3d9cb58dcc)" style="fill: none; stroke: #e6e6e6; stroke-linecap: square"/>
     </g>
     <g id="line2d_10">
      <g>
       <use xlink:href="#m7311a2fac7" x="296.460875" y="292.08" style="stroke: #000000; stroke-width: 0.8"/>
      </g>
     </g>
     <g id="text_5">
      <!-- 8 -->
      <g transform="translate(292.643375 308.198125) scale(0.12 -0.12)">
       <defs>
        <path id="DejaVuSans-38" d="M 2034 2216 
Q 1584 2216 1326 1975 
Q 1069 1734 1069 1313 
Q 1069 891 1326 650 
Q 1584 409 2034 409 
Q 2484 409 2743 651 
Q 3003 894 3003 1313 
Q 3003 1734 2745 1975 
Q 2488 2216 2034 2216 
z
M 1403 2484 
Q 997 2584 770 2862 
Q 544 3141 544 3541 
Q 544 4100 942 4425 
Q 1341 4750 2034 4750 
Q 2731 4750 3128 4425 
Q 3525 4100 3525 3541 
Q 3525 3141 3298 2862 
Q 3072 2584 2669 2484 
Q 3125 2378 3379 2068 
Q 3634 1759 3634 1313 
Q 3634 634 3220 271 
Q 2806 -91 2034 -91 
Q 1263 -91 848 271 
Q 434 634 434 1313 
Q 434 1759 690 2068 
Q 947 2378 1403 2484 
z
M 1172 3481 
Q 1172 3119 1398 2916 
Q 1625 2713 2034 2713 
Q 2441 2713 2670 2916 
Q 2900 3119 2900 3481 
Q 2900 3844 2670 4047 
Q 2441 4250 2034 4250 
Q 1625 4250 1398 4047 
Q 1172 3844 1172 3481 
z
" transform="scale(0.015625)"/>
       </defs>
       <use xlink:href="#DejaVuSans-38"/>
      </g>
     </g>
    </g>
    <g id="xtick_6">
     <g id="line2d_11">
      <path d="M 354.217419 292.08 
L 354.217419 38.48 
" clip-path="url(#p3d9cb58dcc)" style="fill: none; stroke: #e6e6e6; stroke-linecap: square"/>
     </g>
     <g id="line2d_12">
      <g>
       <use xlink:href="#m7311a2fac7" x="354.217419" y="292.08" style="stroke: #000000; stroke-width: 0.8"/>
      </g>
     </g>
     <g id="text_6">
      <!-- 10 -->
      <g transform="translate(346.582419 308.198125) scale(0.12 -0.12)">
       <defs>
        <path id="DejaVuSans-31" d="M 794 531 
L 1825 531 
L 1825 4091 
L 703 3866 
L 703 4441 
L 1819 4666 
L 2450 4666 
L 2450 531 
L 3481 531 
L 3481 0 
L 794 0 
L 794 531 
z
" transform="scale(0.015625)"/>
       </defs>
       <use xlink:href="#DejaVuSans-31"/>
       <use xlink:href="#DejaVuSans-30" x="63.623047"/>
      </g>
     </g>
    </g>
    <g id="text_7">
     <!-- time (s) -->
     <g transform="translate(186.411979 323.811875) scale(0.12 -0.12)">
      <defs>
       <path id="DejaVuSans-74" d="M 1172 4494 
L 1172 3500 
L 2356 3500 
L 2356 3053 
L 1172 3053 
L 1172 1153 
Q 1172 725 1289 603 
Q 1406 481 1766 481 
L 2356 481 
L 2356 0 
L 1766 0 
Q 1100 0 847 248 
Q 594 497 594 1153 
L 594 3053 
L 172 3053 
L 172 3500 
L 594 3500 
L 594 4494 
L 1172 4494 
z
" transform="scale(0.015625)"/>
       <path id="DejaVuSans-69" d="M 603 3500 
L 1178 3500 
L 1178 0 
L 603 0 
L 603 3500 
z
M 603 4863 
L 1178 4863 
L 1178 4134 
L 603 4134 
L 603 4863 
z
" transform="scale(0.015625)"/>
       <path id="DejaVuSans-6d" d="M 3328 2828 
Q 3544 3216 3844 3400 
Q 4144 3584 4550 3584 
Q 5097 3584 5394 3201 
Q 5691 2819 5691 2113 
L 5691 0 
L 5113 0 
L 5113 2094 
Q 5113 2597 4934 2840 
Q 4756 3084 4391 3084 
Q 3944 3084 3684 2787 
Q 3425 2491 3425 1978 
L 3425 0 
L 2847 0 
L 2847 2094 
Q 2847 2600 2669 2842 
Q 2491 3084 2119 3084 
Q 1678 3084 1418 2786 
Q 1159 2488 1159 1978 
L 1159 0 
L 581 0 
L 581 3500 
L 1159 3500 
L 1159 2956 
Q 1356 3278 1631 3431 
Q 1906 3584 2284 3584 
Q 2666 3584 2933 3390 
Q 3200 3197 3328 2828 
z
" transform="scale(0.015625)"/>
       <path id="DejaVuSans-65" d="M 3597 1894 
L 3597 1613 
L 953 1613 
Q 991 1019 1311 708 
Q 1631 397 2203 397 
Q 2534 397 2845 478 
Q 3156 559 3463 722 
L 3463 178 
Q 3153 47 2828 -22 
Q 2503 -91 2169 -91 
Q 1331 -91 842 396 
Q 353 884 353 1716 
Q 353 2575 817 3079 
Q 1281 3584 2069 3584 
Q 2775 3584 3186 3129 
Q 3597 2675 3597 1894 
z
M 3022 2063 
Q 3016 2534 2758 2815 
Q 2500 3097 2075 3097 
Q 1594 3097 1305 2825 
Q 1016 2553 972 2059 
L 3022 2063 
z
" transform="scale(0.015625)"/>
       <path id="DejaVuSans-20" transform="scale(0.015625)"/>
       <path id="DejaVuSans-28" d="M 1984 4856 
Q 1566 4138 1362 3434 
Q 1159 2731 1159 2009 
Q 1159 1288 1364 580 
Q 1569 -128 1984 -844 
L 1484 -844 
Q 1016 -109 783 600 
Q 550 1309 550 2009 
Q 550 2706 781 3412 
Q 1013 4119 1484 4856 
L 1984 4856 
z
" transform="scale(0.015625)"/>
       <path id="DejaVuSans-73" d="M 2834 3397 
L 2834 2853 
Q 2591 2978 2328 3040 
Q 2066 3103 1784 3103 
Q 1356 3103 1142 2972 
Q 928 2841 928 2578 
Q 928 2378 1081 2264 
Q 1234 2150 1697 2047 
L 1894 2003 
Q 2506 1872 2764 1633 
Q 3022 1394 3022 966 
Q 3022 478 2636 193 
Q 2250 -91 1575 -91 
Q 1294 -91 989 -36 
Q 684 19 347 128 
L 347 722 
Q 666 556 975 473 
Q 1284 391 1588 391 
Q 1994 391 2212 530 
Q 2431 669 2431 922 
Q 2431 1156 2273 1281 
Q 2116 1406 1581 1522 
L 1381 1569 
Q 847 1681 609 1914 
Q 372 2147 372 2553 
Q 372 3047 722 3315 
Q 1072 3584 1716 3584 
Q 2034 3584 2315 3537 
Q 2597 3491 2834 3397 
z
" transform="scale(0.015625)"/>
       <path id="DejaVuSans-29" d="M 513 4856 
L 1013 4856 
Q 1481 4119 1714 3412 
Q 1947 2706 1947 2009 
Q 1947 1309 1714 600 
Q 1481 -109 1013 -844 
L 513 -844 
Q 928 -128 1133 580 
Q 1338 1288 1338 2009 
Q 1338 2731 1133 3434 
Q 928 4138 513 4856 
z
" transform="scale(0.015625)"/>
      </defs>
      <use xlink:href="#DejaVuSans-74"/>
      <use xlink:href="#DejaVuSans-69" x="39.208984"/>
      <use xlink:href="#DejaVuSans-6d" x="66.992188"/>
      <use xlink:href="#DejaVuSans-65" x="164.404297"/>
      <use xlink:href="#DejaVuSans-20" x="225.927734"/>
      <use xlink:href="#DejaVuSans-28" x="257.714844"/>
      <use xlink:href="#DejaVuSans-73" x="296.728516"/>
      <use xlink:href="#DejaVuSans-29" x="348.828125"/>
     </g>
    </g>
   </g>
   <g id="matplotlib.axis_2">
    <g id="ytick_1">
     <g id="line2d_13">
      <path d="M 51.01 280.552727 
L 368.353333 280.552727 
" clip-path="url(#p3d9cb58dcc)" style="fill: none; stroke: #e6e6e6; stroke-linecap: square"/>
     </g>
     <g id="line2d_14"/>
     <g id="text_8">
      <!-- 0.00 -->
      <g transform="translate(20.79125 285.11179) scale(0.12 -0.12)">
       <defs>
        <path id="DejaVuSans-2e" d="M 684 794 
L 1344 794 
L 1344 0 
L 684 0 
L 684 794 
z
" transform="scale(0.015625)"/>
       </defs>
       <use xlink:href="#DejaVuSans-30"/>
       <use xlink:href="#DejaVuSans-2e" x="63.623047"/>
       <use xlink:href="#DejaVuSans-30" x="95.410156"/>
       <use xlink:href="#DejaVuSans-30" x="159.033203"/>
      </g>
     </g>
    </g>
    <g id="ytick_2">
     <g id="line2d_15">
      <path d="M 51.01 251.554138 
L 368.353333 251.554138 
" clip-path="url(#p3d9cb58dcc)" style="fill: none; stroke: #e6e6e6; stroke-linecap: square"/>
     </g>
     <g id="line2d_16"/>
     <g id="text_9">
      <!-- 0.05 -->
      <g transform="translate(20.79125 256.113201) scale(0.12 -0.12)">
       <defs>
        <path id="DejaVuSans-35" d="M 691 4666 
L 3169 4666 
L 3169 4134 
L 1269 4134 
L 1269 2991 
Q 1406 3038 1543 3061 
Q 1681 3084 1819 3084 
Q 2600 3084 3056 2656 
Q 3513 2228 3513 1497 
Q 3513 744 3044 326 
Q 2575 -91 1722 -91 
Q 1428 -91 1123 -41 
Q 819 9 494 109 
L 494 744 
Q 775 591 1075 516 
Q 1375 441 1709 441 
Q 2250 441 2565 725 
Q 2881 1009 2881 1497 
Q 2881 1984 2565 2268 
Q 2250 2553 1709 2553 
Q 1456 2553 1204 2497 
Q 953 2441 691 2322 
L 691 4666 
z
" transform="scale(0.015625)"/>
       </defs>
       <use xlink:href="#DejaVuSans-30"/>
       <use xlink:href="#DejaVuSans-2e" x="63.623047"/>
       <use xlink:href="#DejaVuSans-30" x="95.410156"/>
       <use xlink:href="#DejaVuSans-35" x="159.033203"/>
      </g>
     </g>
    </g>
    <g id="ytick_3">
     <g id="line2d_17">
      <path d="M 51.01 222.555549 
L 368.353333 222.555549 
" clip-path="url(#p3d9cb58dcc)" style="fill: none; stroke: #e6e6e6; stroke-linecap: square"/>
     </g>
     <g id="line2d_18"/>
     <g id="text_10">
      <!-- 0.10 -->
      <g transform="translate(20.79125 227.114611) scale(0.12 -0.12)">
       <use xlink:href="#DejaVuSans-30"/>
       <use xlink:href="#DejaVuSans-2e" x="63.623047"/>
       <use xlink:href="#DejaVuSans-31" x="95.410156"/>
       <use xlink:href="#DejaVuSans-30" x="159.033203"/>
      </g>
     </g>
    </g>
    <g id="ytick_4">
     <g id="line2d_19">
      <path d="M 51.01 193.55696 
L 368.353333 193.55696 
" clip-path="url(#p3d9cb58dcc)" style="fill: none; stroke: #e6e6e6; stroke-linecap: square"/>
     </g>
     <g id="line2d_20"/>
     <g id="text_11">
      <!-- 0.15 -->
      <g transform="translate(20.79125 198.116022) scale(0.12 -0.12)">
       <use xlink:href="#DejaVuSans-30"/>
       <use xlink:href="#DejaVuSans-2e" x="63.623047"/>
       <use xlink:href="#DejaVuSans-31" x="95.410156"/>
       <use xlink:href="#DejaVuSans-35" x="159.033203"/>
      </g>
     </g>
    </g>
    <g id="ytick_5">
     <g id="line2d_21">
      <path d="M 51.01 164.55837 
L 368.353333 164.55837 
" clip-path="url(#p3d9cb58dcc)" style="fill: none; stroke: #e6e6e6; stroke-linecap: square"/>
     </g>
     <g id="line2d_22"/>
     <g id="text_12">
      <!-- 0.20 -->
      <g transform="translate(20.79125 169.117433) scale(0.12 -0.12)">
       <use xlink:href="#DejaVuSans-30"/>
       <use xlink:href="#DejaVuSans-2e" x="63.623047"/>
       <use xlink:href="#DejaVuSans-32" x="95.410156"/>
       <use xlink:href="#DejaVuSans-30" x="159.033203"/>
      </g>
     </g>
    </g>
    <g id="ytick_6">
     <g id="line2d_23">
      <path d="M 51.01 135.559781 
L 368.353333 135.559781 
" clip-path="url(#p3d9cb58dcc)" style="fill: none; stroke: #e6e6e6; stroke-linecap: square"/>
     </g>
     <g id="line2d_24"/>
     <g id="text_13">
      <!-- 0.25 -->
      <g transform="translate(20.79125 140.118844) scale(0.12 -0.12)">
       <use xlink:href="#DejaVuSans-30"/>
       <use xlink:href="#DejaVuSans-2e" x="63.623047"/>
       <use xlink:href="#DejaVuSans-32" x="95.410156"/>
       <use xlink:href="#DejaVuSans-35" x="159.033203"/>
      </g>
     </g>
    </g>
    <g id="ytick_7">
     <g id="line2d_25">
      <path d="M 51.01 106.561192 
L 368.353333 106.561192 
" clip-path="url(#p3d9cb58dcc)" style="fill: none; stroke: #e6e6e6; stroke-linecap: square"/>
     </g>
     <g id="line2d_26"/>
     <g id="text_14">
      <!-- 0.30 -->
      <g transform="translate(20.79125 111.120254) scale(0.12 -0.12)">
       <defs>
        <path id="DejaVuSans-33" d="M 2597 2516 
Q 3050 2419 3304 2112 
Q 3559 1806 3559 1356 
Q 3559 666 3084 287 
Q 2609 -91 1734 -91 
Q 1441 -91 1130 -33 
Q 819 25 488 141 
L 488 750 
Q 750 597 1062 519 
Q 1375 441 1716 441 
Q 2309 441 2620 675 
Q 2931 909 2931 1356 
Q 2931 1769 2642 2001 
Q 2353 2234 1838 2234 
L 1294 2234 
L 1294 2753 
L 1863 2753 
Q 2328 2753 2575 2939 
Q 2822 3125 2822 3475 
Q 2822 3834 2567 4026 
Q 2313 4219 1838 4219 
Q 1578 4219 1281 4162 
Q 984 4106 628 3988 
L 628 4550 
Q 988 4650 1302 4700 
Q 1616 4750 1894 4750 
Q 2613 4750 3031 4423 
Q 3450 4097 3450 3541 
Q 3450 3153 3228 2886 
Q 3006 2619 2597 2516 
z
" transform="scale(0.015625)"/>
       </defs>
       <use xlink:href="#DejaVuSans-30"/>
       <use xlink:href="#DejaVuSans-2e" x="63.623047"/>
       <use xlink:href="#DejaVuSans-33" x="95.410156"/>
       <use xlink:href="#DejaVuSans-30" x="159.033203"/>
      </g>
     </g>
    </g>
    <g id="ytick_8">
     <g id="line2d_27">
      <path d="M 51.01 77.562603 
L 368.353333 77.562603 
" clip-path="url(#p3d9cb58dcc)" style="fill: none; stroke: #e6e6e6; stroke-linecap: square"/>
     </g>
     <g id="line2d_28"/>
     <g id="text_15">
      <!-- 0.35 -->
      <g transform="translate(20.79125 82.121665) scale(0.12 -0.12)">
       <use xlink:href="#DejaVuSans-30"/>
       <use xlink:href="#DejaVuSans-2e" x="63.623047"/>
       <use xlink:href="#DejaVuSans-33" x="95.410156"/>
       <use xlink:href="#DejaVuSans-35" x="159.033203"/>
      </g>
     </g>
    </g>
    <g id="ytick_9">
     <g id="line2d_29">
      <path d="M 51.01 48.564014 
L 368.353333 48.564014 
" clip-path="url(#p3d9cb58dcc)" style="fill: none; stroke: #e6e6e6; stroke-linecap: square"/>
     </g>
     <g id="line2d_30"/>
     <g id="text_16">
      <!-- 0.40 -->
      <g transform="translate(20.79125 53.123076) scale(0.12 -0.12)">
       <use xlink:href="#DejaVuSans-30"/>
       <use xlink:href="#DejaVuSans-2e" x="63.623047"/>
       <use xlink:href="#DejaVuSans-34" x="95.410156"/>
       <use xlink:href="#DejaVuSans-30" x="159.033203"/>
      </g>
     </g>
    </g>
    <g id="text_17">
     <!-- radians -->
     <g transform="translate(14.295625 187.504375) rotate(-90) scale(0.12 -0.12)">
      <defs>
       <path id="DejaVuSans-72" d="M 2631 2963 
Q 2534 3019 2420 3045 
Q 2306 3072 2169 3072 
Q 1681 3072 1420 2755 
Q 1159 2438 1159 1844 
L 1159 0 
L 581 0 
L 581 3500 
L 1159 3500 
L 1159 2956 
Q 1341 3275 1631 3429 
Q 1922 3584 2338 3584 
Q 2397 3584 2469 3576 
Q 2541 3569 2628 3553 
L 2631 2963 
z
" transform="scale(0.015625)"/>
       <path id="DejaVuSans-61" d="M 2194 1759 
Q 1497 1759 1228 1600 
Q 959 1441 959 1056 
Q 959 750 1161 570 
Q 1363 391 1709 391 
Q 2188 391 2477 730 
Q 2766 1069 2766 1631 
L 2766 1759 
L 2194 1759 
z
M 3341 1997 
L 3341 0 
L 2766 0 
L 2766 531 
Q 2569 213 2275 61 
Q 1981 -91 1556 -91 
Q 1019 -91 701 211 
Q 384 513 384 1019 
Q 384 1609 779 1909 
Q 1175 2209 1959 2209 
L 2766 2209 
L 2766 2266 
Q 2766 2663 2505 2880 
Q 2244 3097 1772 3097 
Q 1472 3097 1187 3025 
Q 903 2953 641 2809 
L 641 3341 
Q 956 3463 1253 3523 
Q 1550 3584 1831 3584 
Q 2591 3584 2966 3190 
Q 3341 2797 3341 1997 
z
" transform="scale(0.015625)"/>
       <path id="DejaVuSans-64" d="M 2906 2969 
L 2906 4863 
L 3481 4863 
L 3481 0 
L 2906 0 
L 2906 525 
Q 2725 213 2448 61 
Q 2172 -91 1784 -91 
Q 1150 -91 751 415 
Q 353 922 353 1747 
Q 353 2572 751 3078 
Q 1150 3584 1784 3584 
Q 2172 3584 2448 3432 
Q 2725 3281 2906 2969 
z
M 947 1747 
Q 947 1113 1208 752 
Q 1469 391 1925 391 
Q 2381 391 2643 752 
Q 2906 1113 2906 1747 
Q 2906 2381 2643 2742 
Q 2381 3103 1925 3103 
Q 1469 3103 1208 2742 
Q 947 2381 947 1747 
z
" transform="scale(0.015625)"/>
       <path id="DejaVuSans-6e" d="M 3513 2113 
L 3513 0 
L 2938 0 
L 2938 2094 
Q 2938 2591 2744 2837 
Q 2550 3084 2163 3084 
Q 1697 3084 1428 2787 
Q 1159 2491 1159 1978 
L 1159 0 
L 581 0 
L 581 3500 
L 1159 3500 
L 1159 2956 
Q 1366 3272 1645 3428 
Q 1925 3584 2291 3584 
Q 2894 3584 3203 3211 
Q 3513 2838 3513 2113 
z
" transform="scale(0.015625)"/>
      </defs>
      <use xlink:href="#DejaVuSans-72"/>
      <use xlink:href="#DejaVuSans-61" x="41.113281"/>
      <use xlink:href="#DejaVuSans-64" x="102.392578"/>
      <use xlink:href="#DejaVuSans-69" x="165.869141"/>
      <use xlink:href="#DejaVuSans-61" x="193.652344"/>
      <use xlink:href="#DejaVuSans-6e" x="254.931641"/>
      <use xlink:href="#DejaVuSans-73" x="318.310547"/>
     </g>
    </g>
   </g>
   <g id="PathCollection_1">
    <defs>
     <path id="m132c2935ae" d="M -3 3 
L 3 -3 
M -3 -3 
L 3 3 
" style="stroke: #008000; stroke-width: 1.5"/>
    </defs>
    <g clip-path="url(#p3d9cb58dcc)">
     <use xlink:href="#m132c2935ae" x="353.928636" y="66.038691" style="fill: #008000; stroke: #008000; stroke-width: 1.5"/>
    </g>
   </g>
   <g id="line2d_31">
    <path d="M 65.434697 280.552727 
L 65.72348 280.552727 
L 66.878611 279.200535 
L 87.093401 254.695548 
L 92.29149 247.916174 
L 97.778362 240.378678 
L 109.618453 223.912394 
L 112.795063 219.987502 
L 115.394108 217.10364 
L 117.70437 214.833004 
L 120.014631 212.861856 
L 122.324893 211.19843 
L 124.635155 209.836008 
L 126.945417 208.753305 
L 129.255679 207.915646 
L 131.854723 207.208159 
L 135.320116 206.515929 
L 141.962118 205.241094 
L 144.561163 204.493561 
L 146.871425 203.614114 
L 149.181686 202.493287 
L 151.491948 201.109957 
L 153.80221 199.459976 
L 156.401254 197.300429 
L 159.289082 194.568467 
L 162.465692 191.239825 
L 166.50865 186.664626 
L 172.573087 179.419257 
L 179.792655 170.463447 
L 184.990744 163.686268 
L 189.033702 158.074993 
L 192.787877 152.494322 
L 196.25327 146.964419 
L 199.718663 141.03857 
L 203.472838 134.171233 
L 207.515796 126.30765 
L 213.002668 115.097344 
L 221.088584 98.583668 
L 224.553977 92.014884 
L 226.864239 88.032226 
L 229.1745 84.526198 
L 231.195979 81.838159 
L 233.217459 79.483544 
L 235.238938 77.434792 
L 237.549199 75.426691 
L 239.859461 73.725875 
L 242.169723 72.283781 
L 244.768767 70.917208 
L 247.656595 69.658812 
L 250.833205 68.535082 
L 254.009815 67.64537 
L 257.475207 66.914968 
L 260.9406 66.416707 
L 264.694775 66.117256 
L 268.737733 66.038691 
L 353.928636 66.038691 
L 353.928636 66.038691 
" clip-path="url(#p3d9cb58dcc)" style="fill: none; stroke: #e1b8a0; stroke-width: 1.5; stroke-linecap: square"/>
   </g>
   <g id="line2d_32">
    <path d="M 65.434697 280.552727 
L 65.72348 280.545115 
L 68.033741 279.141077 
L 69.766438 277.829154 
L 71.499134 276.232418 
L 73.23183 274.322616 
L 74.964527 272.0887 
L 76.986006 269.074359 
L 79.007485 265.644014 
L 81.317747 261.264568 
L 83.916791 255.85398 
L 87.670967 247.453522 
L 93.735404 233.817348 
L 96.623231 227.90108 
L 98.933493 223.599583 
L 101.243755 219.80351 
L 103.842799 215.99426 
L 107.885757 210.503226 
L 111.928715 205.441733 
L 114.816542 202.153575 
L 117.70437 199.198451 
L 120.303414 196.847136 
L 122.613676 195.026673 
L 124.923938 193.47022 
L 127.522982 192.004155 
L 130.410809 190.663403 
L 134.453768 189.084127 
L 140.518205 186.721841 
L 143.406032 185.330524 
L 146.293859 183.689511 
L 148.892904 181.970034 
L 151.491948 179.967474 
L 154.668558 177.203777 
L 159.000299 173.103055 
L 162.754474 169.270529 
L 166.797432 164.804776 
L 170.262825 160.647296 
L 172.86187 157.18646 
L 176.904828 151.330649 
L 180.947786 145.101088 
L 184.701961 138.899251 
L 187.878571 133.223787 
L 191.343964 126.527607 
L 195.098139 118.785803 
L 198.852315 110.493017 
L 202.895273 100.966026 
L 210.692406 82.346099 
L 213.291451 76.848468 
L 215.601712 72.453474 
L 217.911974 68.520517 
L 220.222236 65.036142 
L 222.532498 61.981741 
L 224.84276 59.336228 
L 226.864239 57.338834 
L 228.885718 55.620933 
L 230.907197 54.166451 
L 232.928676 52.959205 
L 234.950155 51.983026 
L 237.260417 51.129608 
L 239.570678 50.53295 
L 241.88094 50.169361 
L 244.191202 50.015598 
L 246.790246 50.065217 
L 249.678074 50.360157 
L 252.854684 50.929191 
L 256.320076 51.784576 
L 260.363034 53.014032 
L 265.849906 54.937159 
L 284.332 61.622445 
L 289.818872 63.271642 
L 295.016961 64.605242 
L 300.21505 65.703094 
L 305.413139 66.566809 
L 310.611228 67.2089 
L 316.0981 67.668714 
L 322.162537 67.951953 
L 329.093322 68.041811 
L 337.179238 67.916867 
L 348.441765 67.503235 
L 353.928636 67.25774 
L 353.928636 67.25774 
" clip-path="url(#p3d9cb58dcc)" style="fill: none; stroke: #116496; stroke-width: 1.5; stroke-linecap: square"/>
   </g>
   <g id="patch_3">
    <path d="M 51.01 292.08 
L 368.353333 292.08 
" style="fill: none; stroke: #000000; stroke-width: 0.8; stroke-linejoin: miter; stroke-linecap: square"/>
   </g>
   <g id="text_18">
    <!-- joint-1 -->
    <g transform="translate(187.641979 32.48) scale(0.12 -0.12)">
     <defs>
      <path id="DejaVuSans-Bold-6a" d="M 538 3500 
L 1656 3500 
L 1656 63 
Q 1656 -641 1318 -1011 
Q 981 -1381 341 -1381 
L -213 -1381 
L -213 -647 
L -19 -647 
Q 300 -647 419 -503 
Q 538 -359 538 63 
L 538 3500 
z
M 538 4863 
L 1656 4863 
L 1656 3950 
L 538 3950 
L 538 4863 
z
" transform="scale(0.015625)"/>
      <path id="DejaVuSans-Bold-6f" d="M 2203 2784 
Q 1831 2784 1636 2517 
Q 1441 2250 1441 1747 
Q 1441 1244 1636 976 
Q 1831 709 2203 709 
Q 2569 709 2762 976 
Q 2956 1244 2956 1747 
Q 2956 2250 2762 2517 
Q 2569 2784 2203 2784 
z
M 2203 3584 
Q 3106 3584 3614 3096 
Q 4122 2609 4122 1747 
Q 4122 884 3614 396 
Q 3106 -91 2203 -91 
Q 1297 -91 786 396 
Q 275 884 275 1747 
Q 275 2609 786 3096 
Q 1297 3584 2203 3584 
z
" transform="scale(0.015625)"/>
      <path id="DejaVuSans-Bold-69" d="M 538 3500 
L 1656 3500 
L 1656 0 
L 538 0 
L 538 3500 
z
M 538 4863 
L 1656 4863 
L 1656 3950 
L 538 3950 
L 538 4863 
z
" transform="scale(0.015625)"/>
      <path id="DejaVuSans-Bold-6e" d="M 4056 2131 
L 4056 0 
L 2931 0 
L 2931 347 
L 2931 1631 
Q 2931 2084 2911 2256 
Q 2891 2428 2841 2509 
Q 2775 2619 2662 2680 
Q 2550 2741 2406 2741 
Q 2056 2741 1856 2470 
Q 1656 2200 1656 1722 
L 1656 0 
L 538 0 
L 538 3500 
L 1656 3500 
L 1656 2988 
Q 1909 3294 2193 3439 
Q 2478 3584 2822 3584 
Q 3428 3584 3742 3212 
Q 4056 2841 4056 2131 
z
" transform="scale(0.015625)"/>
      <path id="DejaVuSans-Bold-74" d="M 1759 4494 
L 1759 3500 
L 2913 3500 
L 2913 2700 
L 1759 2700 
L 1759 1216 
Q 1759 972 1856 886 
Q 1953 800 2241 800 
L 2816 800 
L 2816 0 
L 1856 0 
Q 1194 0 917 276 
Q 641 553 641 1216 
L 641 2700 
L 84 2700 
L 84 3500 
L 641 3500 
L 641 4494 
L 1759 4494 
z
" transform="scale(0.015625)"/>
      <path id="DejaVuSans-Bold-2d" d="M 347 2297 
L 2309 2297 
L 2309 1388 
L 347 1388 
L 347 2297 
z
" transform="scale(0.015625)"/>
      <path id="DejaVuSans-Bold-31" d="M 750 831 
L 1813 831 
L 1813 3847 
L 722 3622 
L 722 4441 
L 1806 4666 
L 2950 4666 
L 2950 831 
L 4013 831 
L 4013 0 
L 750 0 
L 750 831 
z
" transform="scale(0.015625)"/>
     </defs>
     <use xlink:href="#DejaVuSans-Bold-6a"/>
     <use xlink:href="#DejaVuSans-Bold-6f" x="34.277344"/>
     <use xlink:href="#DejaVuSans-Bold-69" x="102.978516"/>
     <use xlink:href="#DejaVuSans-Bold-6e" x="137.255859"/>
     <use xlink:href="#DejaVuSans-Bold-74" x="208.447266"/>
     <use xlink:href="#DejaVuSans-Bold-2d" x="256.25"/>
     <use xlink:href="#DejaVuSans-Bold-31" x="297.753906"/>
    </g>
   </g>
  </g>
  <g id="axes_2">
   <g id="patch_4">
    <path d="M 404.833333 292.08 
L 722.176667 292.08 
L 722.176667 38.48 
L 404.833333 38.48 
z
" style="fill: #ffffff"/>
   </g>
   <g id="matplotlib.axis_3">
    <g id="xtick_7">
     <g id="line2d_33">
      <path d="M 419.25803 292.08 
L 419.25803 38.48 
" clip-path="url(#pdc0ff0bbbb)" style="fill: none; stroke: #e6e6e6; stroke-linecap: square"/>
     </g>
     <g id="line2d_34">
      <g>
       <use xlink:href="#m7311a2fac7" x="419.25803" y="292.08" style="stroke: #000000; stroke-width: 0.8"/>
      </g>
     </g>
     <g id="text_19">
      <!-- 0 -->
      <g transform="translate(415.44053 308.198125) scale(0.12 -0.12)">
       <use xlink:href="#DejaVuSans-30"/>
      </g>
     </g>
    </g>
    <g id="xtick_8">
     <g id="line2d_35">
      <path d="M 477.014575 292.08 
L 477.014575 38.48 
" clip-path="url(#pdc0ff0bbbb)" style="fill: none; stroke: #e6e6e6; stroke-linecap: square"/>
     </g>
     <g id="line2d_36">
      <g>
       <use xlink:href="#m7311a2fac7" x="477.014575" y="292.08" style="stroke: #000000; stroke-width: 0.8"/>
      </g>
     </g>
     <g id="text_20">
      <!-- 2 -->
      <g transform="translate(473.197075 308.198125) scale(0.12 -0.12)">
       <use xlink:href="#DejaVuSans-32"/>
      </g>
     </g>
    </g>
    <g id="xtick_9">
     <g id="line2d_37">
      <path d="M 534.771119 292.08 
L 534.771119 38.48 
" clip-path="url(#pdc0ff0bbbb)" style="fill: none; stroke: #e6e6e6; stroke-linecap: square"/>
     </g>
     <g id="line2d_38">
      <g>
       <use xlink:href="#m7311a2fac7" x="534.771119" y="292.08" style="stroke: #000000; stroke-width: 0.8"/>
      </g>
     </g>
     <g id="text_21">
      <!-- 4 -->
      <g transform="translate(530.953619 308.198125) scale(0.12 -0.12)">
       <use xlink:href="#DejaVuSans-34"/>
      </g>
     </g>
    </g>
    <g id="xtick_10">
     <g id="line2d_39">
      <path d="M 592.527664 292.08 
L 592.527664 38.48 
" clip-path="url(#pdc0ff0bbbb)" style="fill: none; stroke: #e6e6e6; stroke-linecap: square"/>
     </g>
     <g id="line2d_40">
      <g>
       <use xlink:href="#m7311a2fac7" x="592.527664" y="292.08" style="stroke: #000000; stroke-width: 0.8"/>
      </g>
     </g>
     <g id="text_22">
      <!-- 6 -->
      <g transform="translate(588.710164 308.198125) scale(0.12 -0.12)">
       <use xlink:href="#DejaVuSans-36"/>
      </g>
     </g>
    </g>
    <g id="xtick_11">
     <g id="line2d_41">
      <path d="M 650.284208 292.08 
L 650.284208 38.48 
" clip-path="url(#pdc0ff0bbbb)" style="fill: none; stroke: #e6e6e6; stroke-linecap: square"/>
     </g>
     <g id="line2d_42">
      <g>
       <use xlink:href="#m7311a2fac7" x="650.284208" y="292.08" style="stroke: #000000; stroke-width: 0.8"/>
      </g>
     </g>
     <g id="text_23">
      <!-- 8 -->
      <g transform="translate(646.466708 308.198125) scale(0.12 -0.12)">
       <use xlink:href="#DejaVuSans-38"/>
      </g>
     </g>
    </g>
    <g id="xtick_12">
     <g id="line2d_43">
      <path d="M 708.040752 292.08 
L 708.040752 38.48 
" clip-path="url(#pdc0ff0bbbb)" style="fill: none; stroke: #e6e6e6; stroke-linecap: square"/>
     </g>
     <g id="line2d_44">
      <g>
       <use xlink:href="#m7311a2fac7" x="708.040752" y="292.08" style="stroke: #000000; stroke-width: 0.8"/>
      </g>
     </g>
     <g id="text_24">
      <!-- 10 -->
      <g transform="translate(700.405752 308.198125) scale(0.12 -0.12)">
       <use xlink:href="#DejaVuSans-31"/>
       <use xlink:href="#DejaVuSans-30" x="63.623047"/>
      </g>
     </g>
    </g>
    <g id="text_25">
     <!-- time (s) -->
     <g transform="translate(540.235313 323.811875) scale(0.12 -0.12)">
      <use xlink:href="#DejaVuSans-74"/>
      <use xlink:href="#DejaVuSans-69" x="39.208984"/>
      <use xlink:href="#DejaVuSans-6d" x="66.992188"/>
      <use xlink:href="#DejaVuSans-65" x="164.404297"/>
      <use xlink:href="#DejaVuSans-20" x="225.927734"/>
      <use xlink:href="#DejaVuSans-28" x="257.714844"/>
      <use xlink:href="#DejaVuSans-73" x="296.728516"/>
      <use xlink:href="#DejaVuSans-29" x="348.828125"/>
     </g>
    </g>
   </g>
   <g id="matplotlib.axis_4">
    <g id="ytick_10">
     <g id="line2d_45">
      <path d="M 404.833333 267.139377 
L 722.176667 267.139377 
" clip-path="url(#pdc0ff0bbbb)" style="fill: none; stroke: #e6e6e6; stroke-linecap: square"/>
     </g>
     <g id="line2d_46"/>
     <g id="text_26">
      <!-- −0.4 -->
      <g transform="translate(372.193958 271.69844) scale(0.12 -0.12)">
       <defs>
        <path id="DejaVuSans-2212" d="M 678 2272 
L 4684 2272 
L 4684 1741 
L 678 1741 
L 678 2272 
z
" transform="scale(0.015625)"/>
       </defs>
       <use xlink:href="#DejaVuSans-2212"/>
       <use xlink:href="#DejaVuSans-30" x="83.789062"/>
       <use xlink:href="#DejaVuSans-2e" x="147.412109"/>
       <use xlink:href="#DejaVuSans-34" x="179.199219"/>
      </g>
     </g>
    </g>
    <g id="ytick_11">
     <g id="line2d_47">
      <path d="M 404.833333 229.926907 
L 722.176667 229.926907 
" clip-path="url(#pdc0ff0bbbb)" style="fill: none; stroke: #e6e6e6; stroke-linecap: square"/>
     </g>
     <g id="line2d_48"/>
     <g id="text_27">
      <!-- −0.3 -->
      <g transform="translate(372.193958 234.485969) scale(0.12 -0.12)">
       <use xlink:href="#DejaVuSans-2212"/>
       <use xlink:href="#DejaVuSans-30" x="83.789062"/>
       <use xlink:href="#DejaVuSans-2e" x="147.412109"/>
       <use xlink:href="#DejaVuSans-33" x="179.199219"/>
      </g>
     </g>
    </g>
    <g id="ytick_12">
     <g id="line2d_49">
      <path d="M 404.833333 192.714436 
L 722.176667 192.714436 
" clip-path="url(#pdc0ff0bbbb)" style="fill: none; stroke: #e6e6e6; stroke-linecap: square"/>
     </g>
     <g id="line2d_50"/>
     <g id="text_28">
      <!-- −0.2 -->
      <g transform="translate(372.193958 197.273498) scale(0.12 -0.12)">
       <use xlink:href="#DejaVuSans-2212"/>
       <use xlink:href="#DejaVuSans-30" x="83.789062"/>
       <use xlink:href="#DejaVuSans-2e" x="147.412109"/>
       <use xlink:href="#DejaVuSans-32" x="179.199219"/>
      </g>
     </g>
    </g>
    <g id="ytick_13">
     <g id="line2d_51">
      <path d="M 404.833333 155.501965 
L 722.176667 155.501965 
" clip-path="url(#pdc0ff0bbbb)" style="fill: none; stroke: #e6e6e6; stroke-linecap: square"/>
     </g>
     <g id="line2d_52"/>
     <g id="text_29">
      <!-- −0.1 -->
      <g transform="translate(372.193958 160.061028) scale(0.12 -0.12)">
       <use xlink:href="#DejaVuSans-2212"/>
       <use xlink:href="#DejaVuSans-30" x="83.789062"/>
       <use xlink:href="#DejaVuSans-2e" x="147.412109"/>
       <use xlink:href="#DejaVuSans-31" x="179.199219"/>
      </g>
     </g>
    </g>
    <g id="ytick_14">
     <g id="line2d_53">
      <path d="M 404.833333 118.289495 
L 722.176667 118.289495 
" clip-path="url(#pdc0ff0bbbb)" style="fill: none; stroke: #e6e6e6; stroke-linecap: square"/>
     </g>
     <g id="line2d_54"/>
     <g id="text_30">
      <!-- 0.0 -->
      <g transform="translate(382.249583 122.848557) scale(0.12 -0.12)">
       <use xlink:href="#DejaVuSans-30"/>
       <use xlink:href="#DejaVuSans-2e" x="63.623047"/>
       <use xlink:href="#DejaVuSans-30" x="95.410156"/>
      </g>
     </g>
    </g>
    <g id="ytick_15">
     <g id="line2d_55">
      <path d="M 404.833333 81.077024 
L 722.176667 81.077024 
" clip-path="url(#pdc0ff0bbbb)" style="fill: none; stroke: #e6e6e6; stroke-linecap: square"/>
     </g>
     <g id="line2d_56"/>
     <g id="text_31">
      <!-- 0.1 -->
      <g transform="translate(382.249583 85.636087) scale(0.12 -0.12)">
       <use xlink:href="#DejaVuSans-30"/>
       <use xlink:href="#DejaVuSans-2e" x="63.623047"/>
       <use xlink:href="#DejaVuSans-31" x="95.410156"/>
      </g>
     </g>
    </g>
    <g id="ytick_16">
     <g id="line2d_57">
      <path d="M 404.833333 43.864553 
L 722.176667 43.864553 
" clip-path="url(#pdc0ff0bbbb)" style="fill: none; stroke: #e6e6e6; stroke-linecap: square"/>
     </g>
     <g id="line2d_58"/>
     <g id="text_32">
      <!-- 0.2 -->
      <g transform="translate(382.249583 48.423616) scale(0.12 -0.12)">
       <use xlink:href="#DejaVuSans-30"/>
       <use xlink:href="#DejaVuSans-2e" x="63.623047"/>
       <use xlink:href="#DejaVuSans-32" x="95.410156"/>
      </g>
     </g>
    </g>
   </g>
   <g id="PathCollection_2">
    <g clip-path="url(#pdc0ff0bbbb)">
     <use xlink:href="#m132c2935ae" x="707.75197" y="95.495676" style="fill: #008000; stroke: #008000; stroke-width: 1.5"/>
    </g>
   </g>
   <g id="line2d_59">
    <path d="M 419.25803 118.289495 
L 419.546813 118.299094 
L 420.990727 119.010353 
L 422.145858 119.912111 
L 423.300988 121.107378 
L 424.456119 122.586889 
L 425.900033 124.825545 
L 427.343947 127.485815 
L 429.076643 131.218369 
L 430.809339 135.520022 
L 432.830818 141.226007 
L 434.852297 147.631166 
L 437.162559 155.743729 
L 439.761604 165.776763 
L 442.649431 177.87726 
L 446.114823 193.385514 
L 456.799784 242.02866 
L 459.398829 252.404253 
L 461.420308 259.638063 
L 463.153004 265.134779 
L 464.8857 269.894133 
L 466.329614 273.244097 
L 467.773528 275.995288 
L 468.928659 277.745019 
L 470.083789 279.080415 
L 470.950138 279.804401 
L 471.816486 280.287246 
L 472.682834 280.527022 
L 473.549182 280.522692 
L 474.41553 280.274094 
L 475.281878 279.781915 
L 476.148227 279.047659 
L 477.303357 277.696158 
L 478.458488 275.925936 
L 479.613619 273.746654 
L 481.057533 270.465257 
L 482.501446 266.58978 
L 484.234143 261.198317 
L 485.966839 255.054625 
L 487.988318 247.022726 
L 490.29858 236.83915 
L 492.897624 224.310394 
L 496.074234 207.817998 
L 500.694758 182.4405 
L 508.491891 139.486994 
L 511.957284 121.67559 
L 514.845111 107.899757 
L 517.444156 96.51233 
L 519.754418 87.29739 
L 522.064679 79.009651 
L 524.086158 72.56301 
L 526.107637 66.898992 
L 527.840334 62.68398 
L 529.57303 59.070023 
L 531.016944 56.521866 
L 532.460857 54.396588 
L 533.904771 52.693706 
L 535.059902 51.634037 
L 536.215033 50.841255 
L 537.370164 50.312628 
L 538.525295 50.044721 
L 539.680425 50.033403 
L 540.835556 50.273877 
L 541.990687 50.760691 
L 543.145818 51.487763 
L 544.300949 52.448399 
L 545.744863 53.966482 
L 547.188776 55.82256 
L 548.921473 58.47209 
L 550.654169 61.552013 
L 552.675648 65.64258 
L 554.98591 70.898605 
L 557.584954 77.431989 
L 560.761564 86.082368 
L 572.02409 117.478918 
L 574.334352 122.929092 
L 576.355831 127.108562 
L 578.088527 130.165679 
L 579.532441 132.276183 
L 580.687572 133.62826 
L 581.842703 134.680341 
L 582.997834 135.43601 
L 584.152965 135.901325 
L 585.308096 136.084698 
L 586.463226 135.996747 
L 587.618357 135.650121 
L 588.773488 135.059304 
L 589.928619 134.240415 
L 591.372533 132.922904 
L 592.816446 131.313317 
L 594.549143 129.051355 
L 596.570622 126.045872 
L 599.458449 121.28478 
L 607.544365 107.585163 
L 609.854627 104.200711 
L 611.876106 101.607979 
L 613.608802 99.707453 
L 615.341499 98.136154 
L 616.785412 97.095317 
L 618.229326 96.309384 
L 619.673239 95.784945 
L 621.117153 95.525287 
L 623.138632 95.495676 
L 707.75197 95.495676 
L 707.75197 95.495676 
" clip-path="url(#pdc0ff0bbbb)" style="fill: none; stroke: #e1b8a0; stroke-width: 1.5; stroke-linecap: square"/>
   </g>
   <g id="line2d_60">
    <path d="M 419.25803 118.289495 
L 419.546813 118.308805 
L 421.568292 119.880117 
L 423.012206 121.393721 
L 424.456119 123.278067 
L 425.900033 125.530843 
L 427.632729 128.695668 
L 429.365426 132.354964 
L 431.386905 137.224638 
L 433.408384 142.701336 
L 435.718645 149.644329 
L 438.31769 158.222981 
L 441.205517 168.533571 
L 444.959693 182.798597 
L 457.088567 229.564529 
L 459.398829 237.393267 
L 461.131525 242.57757 
L 462.864221 247.106955 
L 464.308135 250.31669 
L 465.752049 252.946527 
L 466.907179 254.632318 
L 468.06231 255.913846 
L 468.928659 256.590876 
L 469.795007 257.009667 
L 470.661355 257.162227 
L 471.527703 257.05417 
L 472.394051 256.681315 
L 473.260399 256.03908 
L 474.126748 255.137978 
L 475.281878 253.564171 
L 476.437009 251.593567 
L 477.880923 248.606761 
L 479.324837 245.065881 
L 481.057533 240.120422 
L 482.790229 234.45943 
L 484.811708 226.998433 
L 487.12197 217.491015 
L 489.721014 205.714424 
L 493.186407 188.833236 
L 497.229365 167.914258 
L 502.716237 139.694821 
L 506.759195 119.948542 
L 509.647022 106.859571 
L 511.957284 97.291203 
L 514.267546 88.618452 
L 516.577808 80.789803 
L 518.888069 73.848912 
L 520.620766 69.317905 
L 522.642245 64.732252 
L 524.086158 61.905692 
L 525.530072 59.537068 
L 526.973986 57.601337 
L 528.417899 56.069177 
L 529.861813 54.90279 
L 531.305726 54.05404 
L 532.74964 53.483885 
L 534.193554 53.161886 
L 535.637467 53.06396 
L 537.081381 53.170665 
L 538.814077 53.545193 
L 540.546774 54.163398 
L 542.568253 55.156845 
L 544.589732 56.422236 
L 546.611211 57.960516 
L 548.921473 59.989887 
L 552.675648 63.640278 
L 556.141041 66.923431 
L 558.451302 68.826547 
L 561.050347 70.658728 
L 565.093305 73.476271 
L 567.403567 75.388078 
L 570.291394 78.108475 
L 576.067048 83.97654 
L 580.398789 88.222396 
L 583.864182 91.315134 
L 587.040792 93.845637 
L 589.928619 95.870765 
L 592.816446 97.627406 
L 595.704274 99.118386 
L 598.592101 100.35268 
L 601.479928 101.343609 
L 604.367755 102.107518 
L 607.544365 102.707524 
L 610.720975 103.081013 
L 614.186368 103.261471 
L 617.940543 103.228642 
L 621.983501 102.975282 
L 626.892808 102.433936 
L 632.957245 101.524632 
L 643.353423 99.690345 
L 654.615949 97.769698 
L 662.413082 96.662966 
L 669.63265 95.854779 
L 677.141001 95.242927 
L 684.938135 94.836677 
L 693.601616 94.616024 
L 703.709012 94.587452 
L 707.75197 94.624471 
L 707.75197 94.624471 
" clip-path="url(#pdc0ff0bbbb)" style="fill: none; stroke: #116496; stroke-width: 1.5; stroke-linecap: square"/>
   </g>
   <g id="patch_5">
    <path d="M 404.833333 292.08 
L 722.176667 292.08 
" style="fill: none; stroke: #000000; stroke-width: 0.8; stroke-linejoin: miter; stroke-linecap: square"/>
   </g>
   <g id="text_33">
    <!-- joint-2 -->
    <g transform="translate(541.465313 32.48) scale(0.12 -0.12)">
     <defs>
      <path id="DejaVuSans-Bold-32" d="M 1844 884 
L 3897 884 
L 3897 0 
L 506 0 
L 506 884 
L 2209 2388 
Q 2438 2594 2547 2791 
Q 2656 2988 2656 3200 
Q 2656 3528 2436 3728 
Q 2216 3928 1850 3928 
Q 1569 3928 1234 3808 
Q 900 3688 519 3450 
L 519 4475 
Q 925 4609 1322 4679 
Q 1719 4750 2100 4750 
Q 2938 4750 3402 4381 
Q 3866 4013 3866 3353 
Q 3866 2972 3669 2642 
Q 3472 2313 2841 1759 
L 1844 884 
z
" transform="scale(0.015625)"/>
     </defs>
     <use xlink:href="#DejaVuSans-Bold-6a"/>
     <use xlink:href="#DejaVuSans-Bold-6f" x="34.277344"/>
     <use xlink:href="#DejaVuSans-Bold-69" x="102.978516"/>
     <use xlink:href="#DejaVuSans-Bold-6e" x="137.255859"/>
     <use xlink:href="#DejaVuSans-Bold-74" x="208.447266"/>
     <use xlink:href="#DejaVuSans-Bold-2d" x="256.25"/>
     <use xlink:href="#DejaVuSans-Bold-32" x="297.753906"/>
    </g>
   </g>
  </g>
  <g id="axes_3">
   <g id="patch_6">
    <path d="M 758.656667 292.08 
L 1076 292.08 
L 1076 38.48 
L 758.656667 38.48 
z
" style="fill: #ffffff"/>
   </g>
   <g id="matplotlib.axis_5">
    <g id="xtick_13">
     <g id="line2d_61">
      <path d="M 773.081364 292.08 
L 773.081364 38.48 
" clip-path="url(#p7e002c615a)" style="fill: none; stroke: #e6e6e6; stroke-linecap: square"/>
     </g>
     <g id="line2d_62">
      <g>
       <use xlink:href="#m7311a2fac7" x="773.081364" y="292.08" style="stroke: #000000; stroke-width: 0.8"/>
      </g>
     </g>
     <g id="text_34">
      <!-- 0 -->
      <g transform="translate(769.263864 308.198125) scale(0.12 -0.12)">
       <use xlink:href="#DejaVuSans-30"/>
      </g>
     </g>
    </g>
    <g id="xtick_14">
     <g id="line2d_63">
      <path d="M 830.837908 292.08 
L 830.837908 38.48 
" clip-path="url(#p7e002c615a)" style="fill: none; stroke: #e6e6e6; stroke-linecap: square"/>
     </g>
     <g id="line2d_64">
      <g>
       <use xlink:href="#m7311a2fac7" x="830.837908" y="292.08" style="stroke: #000000; stroke-width: 0.8"/>
      </g>
     </g>
     <g id="text_35">
      <!-- 2 -->
      <g transform="translate(827.020408 308.198125) scale(0.12 -0.12)">
       <use xlink:href="#DejaVuSans-32"/>
      </g>
     </g>
    </g>
    <g id="xtick_15">
     <g id="line2d_65">
      <path d="M 888.594452 292.08 
L 888.594452 38.48 
" clip-path="url(#p7e002c615a)" style="fill: none; stroke: #e6e6e6; stroke-linecap: square"/>
     </g>
     <g id="line2d_66">
      <g>
       <use xlink:href="#m7311a2fac7" x="888.594452" y="292.08" style="stroke: #000000; stroke-width: 0.8"/>
      </g>
     </g>
     <g id="text_36">
      <!-- 4 -->
      <g transform="translate(884.776952 308.198125) scale(0.12 -0.12)">
       <use xlink:href="#DejaVuSans-34"/>
      </g>
     </g>
    </g>
    <g id="xtick_16">
     <g id="line2d_67">
      <path d="M 946.350997 292.08 
L 946.350997 38.48 
" clip-path="url(#p7e002c615a)" style="fill: none; stroke: #e6e6e6; stroke-linecap: square"/>
     </g>
     <g id="line2d_68">
      <g>
       <use xlink:href="#m7311a2fac7" x="946.350997" y="292.08" style="stroke: #000000; stroke-width: 0.8"/>
      </g>
     </g>
     <g id="text_37">
      <!-- 6 -->
      <g transform="translate(942.533497 308.198125) scale(0.12 -0.12)">
       <use xlink:href="#DejaVuSans-36"/>
      </g>
     </g>
    </g>
    <g id="xtick_17">
     <g id="line2d_69">
      <path d="M 1004.107541 292.08 
L 1004.107541 38.48 
" clip-path="url(#p7e002c615a)" style="fill: none; stroke: #e6e6e6; stroke-linecap: square"/>
     </g>
     <g id="line2d_70">
      <g>
       <use xlink:href="#m7311a2fac7" x="1004.107541" y="292.08" style="stroke: #000000; stroke-width: 0.8"/>
      </g>
     </g>
     <g id="text_38">
      <!-- 8 -->
      <g transform="translate(1000.290041 308.198125) scale(0.12 -0.12)">
       <use xlink:href="#DejaVuSans-38"/>
      </g>
     </g>
    </g>
    <g id="xtick_18">
     <g id="line2d_71">
      <path d="M 1061.864086 292.08 
L 1061.864086 38.48 
" clip-path="url(#p7e002c615a)" style="fill: none; stroke: #e6e6e6; stroke-linecap: square"/>
     </g>
     <g id="line2d_72">
      <g>
       <use xlink:href="#m7311a2fac7" x="1061.864086" y="292.08" style="stroke: #000000; stroke-width: 0.8"/>
      </g>
     </g>
     <g id="text_39">
      <!-- 10 -->
      <g transform="translate(1054.229086 308.198125) scale(0.12 -0.12)">
       <use xlink:href="#DejaVuSans-31"/>
       <use xlink:href="#DejaVuSans-30" x="63.623047"/>
      </g>
     </g>
    </g>
    <g id="text_40">
     <!-- time (s) -->
     <g transform="translate(894.058646 323.811875) scale(0.12 -0.12)">
      <use xlink:href="#DejaVuSans-74"/>
      <use xlink:href="#DejaVuSans-69" x="39.208984"/>
      <use xlink:href="#DejaVuSans-6d" x="66.992188"/>
      <use xlink:href="#DejaVuSans-65" x="164.404297"/>
      <use xlink:href="#DejaVuSans-20" x="225.927734"/>
      <use xlink:href="#DejaVuSans-28" x="257.714844"/>
      <use xlink:href="#DejaVuSans-73" x="296.728516"/>
      <use xlink:href="#DejaVuSans-29" x="348.828125"/>
     </g>
    </g>
   </g>
   <g id="matplotlib.axis_6">
    <g id="ytick_17">
     <g id="line2d_73">
      <path d="M 758.656667 269.383091 
L 1076 269.383091 
" clip-path="url(#p7e002c615a)" style="fill: none; stroke: #e6e6e6; stroke-linecap: square"/>
     </g>
     <g id="line2d_74"/>
     <g id="text_41">
      <!-- 1.4 -->
      <g transform="translate(736.072917 273.942153) scale(0.12 -0.12)">
       <use xlink:href="#DejaVuSans-31"/>
       <use xlink:href="#DejaVuSans-2e" x="63.623047"/>
       <use xlink:href="#DejaVuSans-34" x="95.410156"/>
      </g>
     </g>
    </g>
    <g id="ytick_18">
     <g id="line2d_75">
      <path d="M 758.656667 216.029686 
L 1076 216.029686 
" clip-path="url(#p7e002c615a)" style="fill: none; stroke: #e6e6e6; stroke-linecap: square"/>
     </g>
     <g id="line2d_76"/>
     <g id="text_42">
      <!-- 1.5 -->
      <g transform="translate(736.072917 220.588749) scale(0.12 -0.12)">
       <use xlink:href="#DejaVuSans-31"/>
       <use xlink:href="#DejaVuSans-2e" x="63.623047"/>
       <use xlink:href="#DejaVuSans-35" x="95.410156"/>
      </g>
     </g>
    </g>
    <g id="ytick_19">
     <g id="line2d_77">
      <path d="M 758.656667 162.676282 
L 1076 162.676282 
" clip-path="url(#p7e002c615a)" style="fill: none; stroke: #e6e6e6; stroke-linecap: square"/>
     </g>
     <g id="line2d_78"/>
     <g id="text_43">
      <!-- 1.6 -->
      <g transform="translate(736.072917 167.235344) scale(0.12 -0.12)">
       <use xlink:href="#DejaVuSans-31"/>
       <use xlink:href="#DejaVuSans-2e" x="63.623047"/>
       <use xlink:href="#DejaVuSans-36" x="95.410156"/>
      </g>
     </g>
    </g>
    <g id="ytick_20">
     <g id="line2d_79">
      <path d="M 758.656667 109.322878 
L 1076 109.322878 
" clip-path="url(#p7e002c615a)" style="fill: none; stroke: #e6e6e6; stroke-linecap: square"/>
     </g>
     <g id="line2d_80"/>
     <g id="text_44">
      <!-- 1.7 -->
      <g transform="translate(736.072917 113.88194) scale(0.12 -0.12)">
       <defs>
        <path id="DejaVuSans-37" d="M 525 4666 
L 3525 4666 
L 3525 4397 
L 1831 0 
L 1172 0 
L 2766 4134 
L 525 4134 
L 525 4666 
z
" transform="scale(0.015625)"/>
       </defs>
       <use xlink:href="#DejaVuSans-31"/>
       <use xlink:href="#DejaVuSans-2e" x="63.623047"/>
       <use xlink:href="#DejaVuSans-37" x="95.410156"/>
      </g>
     </g>
    </g>
    <g id="ytick_21">
     <g id="line2d_81">
      <path d="M 758.656667 55.969473 
L 1076 55.969473 
" clip-path="url(#p7e002c615a)" style="fill: none; stroke: #e6e6e6; stroke-linecap: square"/>
     </g>
     <g id="line2d_82"/>
     <g id="text_45">
      <!-- 1.8 -->
      <g transform="translate(736.072917 60.528536) scale(0.12 -0.12)">
       <use xlink:href="#DejaVuSans-31"/>
       <use xlink:href="#DejaVuSans-2e" x="63.623047"/>
       <use xlink:href="#DejaVuSans-38" x="95.410156"/>
      </g>
     </g>
    </g>
   </g>
   <g id="PathCollection_3">
    <g clip-path="url(#p7e002c615a)">
     <use xlink:href="#m132c2935ae" x="1061.575303" y="196.220112" style="fill: #008000; stroke: #008000; stroke-width: 1.5"/>
    </g>
   </g>
   <g id="line2d_83">
    <path d="M 773.081364 178.257436 
L 773.370146 178.205778 
L 775.391625 165.887822 
L 781.744845 127.08232 
L 784.632673 110.779733 
L 787.231717 97.381928 
L 789.253196 88.015871 
L 791.274675 79.734526 
L 793.007371 73.604424 
L 794.451285 69.239854 
L 795.895199 65.595903 
L 797.05033 63.224285 
L 798.20546 61.353415 
L 799.071809 60.287122 
L 799.938157 59.514854 
L 800.804505 59.040357 
L 801.670853 58.866385 
L 802.537201 58.994658 
L 803.403549 59.425817 
L 804.269898 60.15939 
L 805.136246 61.193769 
L 806.002594 62.526188 
L 807.157725 64.759398 
L 808.312856 67.502791 
L 809.756769 71.624518 
L 811.200683 76.478685 
L 812.933379 83.203608 
L 814.666076 90.820159 
L 816.687555 100.689854 
L 819.286599 114.649497 
L 822.463209 133.088049 
L 834.880866 206.818511 
L 837.768693 221.955666 
L 840.367738 234.400491 
L 842.678 244.401979 
L 844.699479 252.263847 
L 846.720958 259.243649 
L 848.453654 264.491141 
L 850.18635 269.033957 
L 851.630264 272.265266 
L 853.074178 274.980146 
L 854.518091 277.168115 
L 855.673222 278.532844 
L 856.828353 279.550261 
L 857.983484 280.21683 
L 858.849832 280.484752 
L 859.71618 280.552727 
L 860.582528 280.42004 
L 861.448877 280.086225 
L 862.315225 279.551086 
L 863.470356 278.524585 
L 864.625487 277.141373 
L 865.780617 275.403434 
L 867.224531 272.736831 
L 868.668445 269.528843 
L 870.112358 265.790181 
L 871.845055 260.622246 
L 873.577751 254.737473 
L 875.59923 247.01075 
L 877.620709 238.416172 
L 879.930971 227.623731 
L 882.530015 214.393016 
L 885.706625 196.93851 
L 889.749583 173.305735 
L 899.568196 115.24086 
L 902.456023 99.723045 
L 905.055068 87.000815 
L 907.076547 78.117357 
L 909.098026 70.262161 
L 910.830722 64.438592 
L 912.274636 60.279168 
L 913.718549 56.787639 
L 914.87368 54.495841 
L 916.028811 52.664241 
L 917.183942 51.303886 
L 918.05029 50.59821 
L 918.916638 50.165345 
L 919.782986 50.007273 
L 920.649335 50.125159 
L 921.515683 50.519337 
L 922.382031 51.189297 
L 923.248379 52.133682 
L 924.40351 53.815813 
L 925.558641 55.974256 
L 926.713772 58.598876 
L 928.157685 62.515741 
L 929.601599 67.111257 
L 931.334295 73.471888 
L 933.355774 81.9162 
L 936.243602 95.019814 
L 946.63978 143.181844 
L 949.238824 153.746296 
L 951.549086 162.248501 
L 953.570565 168.919944 
L 955.592044 174.828409 
L 957.32474 179.267598 
L 959.057437 183.126333 
L 960.790133 186.412504 
L 962.234047 188.726431 
L 963.67796 190.671024 
L 965.121874 192.266692 
L 966.565787 193.538212 
L 968.009701 194.514443 
L 969.453615 195.228016 
L 970.897528 195.714964 
L 972.630225 196.05528 
L 974.651704 196.207486 
L 979.849793 196.220112 
L 1061.575303 196.220112 
L 1061.575303 196.220112 
" clip-path="url(#p7e002c615a)" style="fill: none; stroke: #e1b8a0; stroke-width: 1.5; stroke-linecap: square"/>
   </g>
   <g id="line2d_84">
    <path d="M 773.081364 178.257436 
L 773.370146 178.20232 
L 775.391625 167.138054 
L 777.99067 151.577647 
L 783.477542 117.878102 
L 785.787803 105.025682 
L 787.809282 94.875684 
L 789.541979 87.127196 
L 791.274675 80.357865 
L 792.718589 75.523514 
L 794.162502 71.464309 
L 795.317633 68.794315 
L 796.472764 66.643532 
L 797.627895 65.021329 
L 798.494243 64.164035 
L 799.360591 63.616558 
L 800.22694 63.378318 
L 801.093288 63.435581 
L 801.959636 63.782896 
L 802.825984 64.413108 
L 803.692332 65.318204 
L 804.847463 66.936593 
L 806.002594 69.007531 
L 807.157725 71.579226 
L 808.601638 75.396014 
L 810.045552 79.804604 
L 811.778248 85.817867 
L 813.510945 92.574082 
L 815.532424 101.444166 
L 818.131468 114.001349 
L 821.019296 129.126611 
L 825.062254 151.65932 
L 831.704256 188.834482 
L 834.880866 205.167332 
L 837.479911 217.438652 
L 839.790172 227.405296 
L 842.100434 236.370019 
L 844.121913 243.296635 
L 845.85461 248.485517 
L 847.587306 252.947713 
L 849.03122 256.108469 
L 850.475133 258.730062 
L 851.630264 260.418278 
L 852.785395 261.73137 
L 853.940526 262.663546 
L 854.806874 263.1157 
L 855.673222 263.369564 
L 856.53957 263.425828 
L 857.405918 263.280743 
L 858.272267 262.932725 
L 859.138615 262.380118 
L 860.293746 261.316602 
L 861.448877 259.876442 
L 862.604007 258.065128 
L 864.047921 255.290821 
L 865.491835 251.977174 
L 866.935748 248.151501 
L 868.668445 242.903453 
L 870.401141 236.943885 
L 872.42262 229.144037 
L 875.021665 218.055289 
L 877.043144 208.517326 
L 884.840277 170.854438 
L 888.30567 155.469892 
L 891.193497 143.626123 
L 893.792541 133.895738 
L 896.102803 126.141756 
L 898.124282 120.124308 
L 900.145761 114.769597 
L 901.878458 110.772084 
L 903.322371 107.90901 
L 904.766285 105.521323 
L 905.921416 103.992551 
L 907.076547 102.831413 
L 907.942895 102.216209 
L 908.809243 101.830235 
L 909.675591 101.682725 
L 910.541939 101.78125 
L 911.408288 102.130422 
L 912.274636 102.730905 
L 913.140984 103.576448 
L 914.296115 105.061461 
L 915.451246 106.908325 
L 916.895159 109.612577 
L 918.916638 113.903813 
L 922.959596 123.18383 
L 935.377253 151.876141 
L 939.708994 161.183854 
L 943.46317 168.71025 
L 946.63978 174.613208 
L 949.81639 180.043802 
L 952.704217 184.545735 
L 955.592044 188.619706 
L 958.191089 191.916204 
L 960.790133 194.863535 
L 963.389178 197.467374 
L 965.988222 199.737019 
L 968.587267 201.684854 
L 971.186311 203.325811 
L 973.785356 204.676876 
L 976.3844 205.756602 
L 978.983445 206.584691 
L 981.582489 207.18159 
L 984.470316 207.599025 
L 987.358143 207.785487 
L 990.534753 207.757668 
L 994.000146 207.490863 
L 997.754321 206.974676 
L 1002.086062 206.154178 
L 1007.572934 204.880748 
L 1017.680329 202.248549 
L 1026.921376 199.93482 
L 1033.563379 198.493458 
L 1039.916599 197.345861 
L 1045.981036 196.47685 
L 1052.334256 195.799269 
L 1058.976259 195.324573 
L 1061.575303 195.196949 
L 1061.575303 195.196949 
" clip-path="url(#p7e002c615a)" style="fill: none; stroke: #116496; stroke-width: 1.5; stroke-linecap: square"/>
   </g>
   <g id="patch_7">
    <path d="M 758.656667 292.08 
L 1076 292.08 
" style="fill: none; stroke: #000000; stroke-width: 0.8; stroke-linejoin: miter; stroke-linecap: square"/>
   </g>
   <g id="text_46">
    <!-- joint-6 -->
    <g transform="translate(895.288646 32.48) scale(0.12 -0.12)">
     <defs>
      <path id="DejaVuSans-Bold-36" d="M 2316 2303 
Q 2000 2303 1842 2098 
Q 1684 1894 1684 1484 
Q 1684 1075 1842 870 
Q 2000 666 2316 666 
Q 2634 666 2792 870 
Q 2950 1075 2950 1484 
Q 2950 1894 2792 2098 
Q 2634 2303 2316 2303 
z
M 3803 4544 
L 3803 3681 
Q 3506 3822 3243 3889 
Q 2981 3956 2731 3956 
Q 2194 3956 1894 3657 
Q 1594 3359 1544 2772 
Q 1750 2925 1990 3001 
Q 2231 3078 2516 3078 
Q 3231 3078 3670 2659 
Q 4109 2241 4109 1563 
Q 4109 813 3618 361 
Q 3128 -91 2303 -91 
Q 1394 -91 895 523 
Q 397 1138 397 2266 
Q 397 3422 980 4083 
Q 1563 4744 2578 4744 
Q 2900 4744 3203 4694 
Q 3506 4644 3803 4544 
z
" transform="scale(0.015625)"/>
     </defs>
     <use xlink:href="#DejaVuSans-Bold-6a"/>
     <use xlink:href="#DejaVuSans-Bold-6f" x="34.277344"/>
     <use xlink:href="#DejaVuSans-Bold-69" x="102.978516"/>
     <use xlink:href="#DejaVuSans-Bold-6e" x="137.255859"/>
     <use xlink:href="#DejaVuSans-Bold-74" x="208.447266"/>
     <use xlink:href="#DejaVuSans-Bold-2d" x="256.25"/>
     <use xlink:href="#DejaVuSans-Bold-36" x="297.753906"/>
    </g>
   </g>
  </g>
  <g id="text_47">
   <!-- Movement in Joint Space using ANDPS -->
   <g transform="translate(366.69625 19.3575) scale(0.16 -0.16)">
    <defs>
     <path id="DejaVuSans-Bold-4d" d="M 588 4666 
L 2119 4666 
L 3181 2169 
L 4250 4666 
L 5778 4666 
L 5778 0 
L 4641 0 
L 4641 3413 
L 3566 897 
L 2803 897 
L 1728 3413 
L 1728 0 
L 588 0 
L 588 4666 
z
" transform="scale(0.015625)"/>
     <path id="DejaVuSans-Bold-76" d="M 97 3500 
L 1216 3500 
L 2088 1081 
L 2956 3500 
L 4078 3500 
L 2700 0 
L 1472 0 
L 97 3500 
z
" transform="scale(0.015625)"/>
     <path id="DejaVuSans-Bold-65" d="M 4031 1759 
L 4031 1441 
L 1416 1441 
Q 1456 1047 1700 850 
Q 1944 653 2381 653 
Q 2734 653 3104 758 
Q 3475 863 3866 1075 
L 3866 213 
Q 3469 63 3072 -14 
Q 2675 -91 2278 -91 
Q 1328 -91 801 392 
Q 275 875 275 1747 
Q 275 2603 792 3093 
Q 1309 3584 2216 3584 
Q 3041 3584 3536 3087 
Q 4031 2591 4031 1759 
z
M 2881 2131 
Q 2881 2450 2695 2645 
Q 2509 2841 2209 2841 
Q 1884 2841 1681 2658 
Q 1478 2475 1428 2131 
L 2881 2131 
z
" transform="scale(0.015625)"/>
     <path id="DejaVuSans-Bold-6d" d="M 3781 2919 
Q 3994 3244 4286 3414 
Q 4578 3584 4928 3584 
Q 5531 3584 5847 3212 
Q 6163 2841 6163 2131 
L 6163 0 
L 5038 0 
L 5038 1825 
Q 5041 1866 5042 1909 
Q 5044 1953 5044 2034 
Q 5044 2406 4934 2573 
Q 4825 2741 4581 2741 
Q 4263 2741 4089 2478 
Q 3916 2216 3909 1719 
L 3909 0 
L 2784 0 
L 2784 1825 
Q 2784 2406 2684 2573 
Q 2584 2741 2328 2741 
Q 2006 2741 1831 2477 
Q 1656 2213 1656 1722 
L 1656 0 
L 531 0 
L 531 3500 
L 1656 3500 
L 1656 2988 
Q 1863 3284 2130 3434 
Q 2397 3584 2719 3584 
Q 3081 3584 3359 3409 
Q 3638 3234 3781 2919 
z
" transform="scale(0.015625)"/>
     <path id="DejaVuSans-Bold-20" transform="scale(0.015625)"/>
     <path id="DejaVuSans-Bold-4a" d="M 588 4666 
L 1791 4666 
L 1791 453 
Q 1791 -419 1317 -850 
Q 844 -1281 -116 -1281 
L -359 -1281 
L -359 -372 
L -172 -372 
Q 203 -372 395 -162 
Q 588 47 588 453 
L 588 4666 
z
" transform="scale(0.015625)"/>
     <path id="DejaVuSans-Bold-53" d="M 3834 4519 
L 3834 3531 
Q 3450 3703 3084 3790 
Q 2719 3878 2394 3878 
Q 1963 3878 1756 3759 
Q 1550 3641 1550 3391 
Q 1550 3203 1689 3098 
Q 1828 2994 2194 2919 
L 2706 2816 
Q 3484 2659 3812 2340 
Q 4141 2022 4141 1434 
Q 4141 663 3683 286 
Q 3225 -91 2284 -91 
Q 1841 -91 1394 -6 
Q 947 78 500 244 
L 500 1259 
Q 947 1022 1364 901 
Q 1781 781 2169 781 
Q 2563 781 2772 912 
Q 2981 1044 2981 1288 
Q 2981 1506 2839 1625 
Q 2697 1744 2272 1838 
L 1806 1941 
Q 1106 2091 782 2419 
Q 459 2747 459 3303 
Q 459 4000 909 4375 
Q 1359 4750 2203 4750 
Q 2588 4750 2994 4692 
Q 3400 4634 3834 4519 
z
" transform="scale(0.015625)"/>
     <path id="DejaVuSans-Bold-70" d="M 1656 506 
L 1656 -1331 
L 538 -1331 
L 538 3500 
L 1656 3500 
L 1656 2988 
Q 1888 3294 2169 3439 
Q 2450 3584 2816 3584 
Q 3463 3584 3878 3070 
Q 4294 2556 4294 1747 
Q 4294 938 3878 423 
Q 3463 -91 2816 -91 
Q 2450 -91 2169 54 
Q 1888 200 1656 506 
z
M 2400 2772 
Q 2041 2772 1848 2508 
Q 1656 2244 1656 1747 
Q 1656 1250 1848 986 
Q 2041 722 2400 722 
Q 2759 722 2948 984 
Q 3138 1247 3138 1747 
Q 3138 2247 2948 2509 
Q 2759 2772 2400 2772 
z
" transform="scale(0.015625)"/>
     <path id="DejaVuSans-Bold-61" d="M 2106 1575 
Q 1756 1575 1579 1456 
Q 1403 1338 1403 1106 
Q 1403 894 1545 773 
Q 1688 653 1941 653 
Q 2256 653 2472 879 
Q 2688 1106 2688 1447 
L 2688 1575 
L 2106 1575 
z
M 3816 1997 
L 3816 0 
L 2688 0 
L 2688 519 
Q 2463 200 2181 54 
Q 1900 -91 1497 -91 
Q 953 -91 614 226 
Q 275 544 275 1050 
Q 275 1666 698 1953 
Q 1122 2241 2028 2241 
L 2688 2241 
L 2688 2328 
Q 2688 2594 2478 2717 
Q 2269 2841 1825 2841 
Q 1466 2841 1156 2769 
Q 847 2697 581 2553 
L 581 3406 
Q 941 3494 1303 3539 
Q 1666 3584 2028 3584 
Q 2975 3584 3395 3211 
Q 3816 2838 3816 1997 
z
" transform="scale(0.015625)"/>
     <path id="DejaVuSans-Bold-63" d="M 3366 3391 
L 3366 2478 
Q 3138 2634 2908 2709 
Q 2678 2784 2431 2784 
Q 1963 2784 1702 2511 
Q 1441 2238 1441 1747 
Q 1441 1256 1702 982 
Q 1963 709 2431 709 
Q 2694 709 2930 787 
Q 3166 866 3366 1019 
L 3366 103 
Q 3103 6 2833 -42 
Q 2563 -91 2291 -91 
Q 1344 -91 809 395 
Q 275 881 275 1747 
Q 275 2613 809 3098 
Q 1344 3584 2291 3584 
Q 2566 3584 2833 3536 
Q 3100 3488 3366 3391 
z
" transform="scale(0.015625)"/>
     <path id="DejaVuSans-Bold-75" d="M 500 1363 
L 500 3500 
L 1625 3500 
L 1625 3150 
Q 1625 2866 1622 2436 
Q 1619 2006 1619 1863 
Q 1619 1441 1641 1255 
Q 1663 1069 1716 984 
Q 1784 875 1895 815 
Q 2006 756 2150 756 
Q 2500 756 2700 1025 
Q 2900 1294 2900 1772 
L 2900 3500 
L 4019 3500 
L 4019 0 
L 2900 0 
L 2900 506 
Q 2647 200 2364 54 
Q 2081 -91 1741 -91 
Q 1134 -91 817 281 
Q 500 653 500 1363 
z
" transform="scale(0.015625)"/>
     <path id="DejaVuSans-Bold-73" d="M 3272 3391 
L 3272 2541 
Q 2913 2691 2578 2766 
Q 2244 2841 1947 2841 
Q 1628 2841 1473 2761 
Q 1319 2681 1319 2516 
Q 1319 2381 1436 2309 
Q 1553 2238 1856 2203 
L 2053 2175 
Q 2913 2066 3209 1816 
Q 3506 1566 3506 1031 
Q 3506 472 3093 190 
Q 2681 -91 1863 -91 
Q 1516 -91 1145 -36 
Q 775 19 384 128 
L 384 978 
Q 719 816 1070 734 
Q 1422 653 1784 653 
Q 2113 653 2278 743 
Q 2444 834 2444 1013 
Q 2444 1163 2330 1236 
Q 2216 1309 1875 1350 
L 1678 1375 
Q 931 1469 631 1722 
Q 331 1975 331 2491 
Q 331 3047 712 3315 
Q 1094 3584 1881 3584 
Q 2191 3584 2531 3537 
Q 2872 3491 3272 3391 
z
" transform="scale(0.015625)"/>
     <path id="DejaVuSans-Bold-67" d="M 2919 594 
Q 2688 288 2409 144 
Q 2131 0 1766 0 
Q 1125 0 706 504 
Q 288 1009 288 1791 
Q 288 2575 706 3076 
Q 1125 3578 1766 3578 
Q 2131 3578 2409 3434 
Q 2688 3291 2919 2981 
L 2919 3500 
L 4044 3500 
L 4044 353 
Q 4044 -491 3511 -936 
Q 2978 -1381 1966 -1381 
Q 1638 -1381 1331 -1331 
Q 1025 -1281 716 -1178 
L 716 -306 
Q 1009 -475 1290 -558 
Q 1572 -641 1856 -641 
Q 2406 -641 2662 -400 
Q 2919 -159 2919 353 
L 2919 594 
z
M 2181 2772 
Q 1834 2772 1640 2515 
Q 1447 2259 1447 1791 
Q 1447 1309 1634 1061 
Q 1822 813 2181 813 
Q 2531 813 2725 1069 
Q 2919 1325 2919 1791 
Q 2919 2259 2725 2515 
Q 2531 2772 2181 2772 
z
" transform="scale(0.015625)"/>
     <path id="DejaVuSans-Bold-41" d="M 3419 850 
L 1538 850 
L 1241 0 
L 31 0 
L 1759 4666 
L 3194 4666 
L 4922 0 
L 3713 0 
L 3419 850 
z
M 1838 1716 
L 3116 1716 
L 2478 3572 
L 1838 1716 
z
" transform="scale(0.015625)"/>
     <path id="DejaVuSans-Bold-4e" d="M 588 4666 
L 1931 4666 
L 3628 1466 
L 3628 4666 
L 4769 4666 
L 4769 0 
L 3425 0 
L 1728 3200 
L 1728 0 
L 588 0 
L 588 4666 
z
" transform="scale(0.015625)"/>
     <path id="DejaVuSans-Bold-44" d="M 1791 3756 
L 1791 909 
L 2222 909 
Q 2959 909 3348 1275 
Q 3738 1641 3738 2338 
Q 3738 3031 3350 3393 
Q 2963 3756 2222 3756 
L 1791 3756 
z
M 588 4666 
L 1856 4666 
Q 2919 4666 3439 4514 
Q 3959 4363 4331 4000 
Q 4659 3684 4818 3271 
Q 4978 2859 4978 2338 
Q 4978 1809 4818 1395 
Q 4659 981 4331 666 
Q 3956 303 3431 151 
Q 2906 0 1856 0 
L 588 0 
L 588 4666 
z
" transform="scale(0.015625)"/>
     <path id="DejaVuSans-Bold-50" d="M 588 4666 
L 2584 4666 
Q 3475 4666 3951 4270 
Q 4428 3875 4428 3144 
Q 4428 2409 3951 2014 
Q 3475 1619 2584 1619 
L 1791 1619 
L 1791 0 
L 588 0 
L 588 4666 
z
M 1791 3794 
L 1791 2491 
L 2456 2491 
Q 2806 2491 2997 2661 
Q 3188 2831 3188 3144 
Q 3188 3456 2997 3625 
Q 2806 3794 2456 3794 
L 1791 3794 
z
" transform="scale(0.015625)"/>
    </defs>
    <use xlink:href="#DejaVuSans-Bold-4d"/>
    <use xlink:href="#DejaVuSans-Bold-6f" x="99.511719"/>
    <use xlink:href="#DejaVuSans-Bold-76" x="168.212891"/>
    <use xlink:href="#DejaVuSans-Bold-65" x="233.398438"/>
    <use xlink:href="#DejaVuSans-Bold-6d" x="301.220703"/>
    <use xlink:href="#DejaVuSans-Bold-65" x="405.419922"/>
    <use xlink:href="#DejaVuSans-Bold-6e" x="473.242188"/>
    <use xlink:href="#DejaVuSans-Bold-74" x="544.433594"/>
    <use xlink:href="#DejaVuSans-Bold-20" x="592.236328"/>
    <use xlink:href="#DejaVuSans-Bold-69" x="627.050781"/>
    <use xlink:href="#DejaVuSans-Bold-6e" x="661.328125"/>
    <use xlink:href="#DejaVuSans-Bold-20" x="732.519531"/>
    <use xlink:href="#DejaVuSans-Bold-4a" x="767.333984"/>
    <use xlink:href="#DejaVuSans-Bold-6f" x="804.541016"/>
    <use xlink:href="#DejaVuSans-Bold-69" x="873.242188"/>
    <use xlink:href="#DejaVuSans-Bold-6e" x="907.519531"/>
    <use xlink:href="#DejaVuSans-Bold-74" x="978.710938"/>
    <use xlink:href="#DejaVuSans-Bold-20" x="1026.513672"/>
    <use xlink:href="#DejaVuSans-Bold-53" x="1061.328125"/>
    <use xlink:href="#DejaVuSans-Bold-70" x="1133.349609"/>
    <use xlink:href="#DejaVuSans-Bold-61" x="1204.931641"/>
    <use xlink:href="#DejaVuSans-Bold-63" x="1272.412109"/>
    <use xlink:href="#DejaVuSans-Bold-65" x="1331.689453"/>
    <use xlink:href="#DejaVuSans-Bold-20" x="1399.511719"/>
    <use xlink:href="#DejaVuSans-Bold-75" x="1434.326172"/>
    <use xlink:href="#DejaVuSans-Bold-73" x="1505.517578"/>
    <use xlink:href="#DejaVuSans-Bold-69" x="1565.039062"/>
    <use xlink:href="#DejaVuSans-Bold-6e" x="1599.316406"/>
    <use xlink:href="#DejaVuSans-Bold-67" x="1670.507812"/>
    <use xlink:href="#DejaVuSans-Bold-20" x="1742.089844"/>
    <use xlink:href="#DejaVuSans-Bold-41" x="1776.904297"/>
    <use xlink:href="#DejaVuSans-Bold-4e" x="1854.296875"/>
    <use xlink:href="#DejaVuSans-Bold-44" x="1937.988281"/>
    <use xlink:href="#DejaVuSans-Bold-50" x="2020.996094"/>
    <use xlink:href="#DejaVuSans-Bold-53" x="2094.287109"/>
   </g>
  </g>
  <g id="legend_1">
   <g id="patch_8">
    <path d="M 340.769375 355.82 
L 743.230625 355.82 
Q 745.630625 355.82 745.630625 353.42 
L 745.630625 337.00625 
Q 745.630625 334.60625 743.230625 334.60625 
L 340.769375 334.60625 
Q 338.369375 334.60625 338.369375 337.00625 
L 338.369375 353.42 
Q 338.369375 355.82 340.769375 355.82 
z
" style="fill: #4c4c4c; opacity: 0.5; stroke: #4c4c4c; stroke-linejoin: miter"/>
   </g>
   <g id="patch_9">
    <path d="M 338.769375 353.82 
L 741.230625 353.82 
Q 743.630625 353.82 743.630625 351.42 
L 743.630625 335.00625 
Q 743.630625 332.60625 741.230625 332.60625 
L 338.769375 332.60625 
Q 336.369375 332.60625 336.369375 335.00625 
L 336.369375 351.42 
Q 336.369375 353.82 338.769375 353.82 
z
" style="fill: #ffffff; stroke: #cccccc; stroke-linejoin: miter"/>
   </g>
   <g id="line2d_85">
    <path d="M 341.169375 342.324375 
L 353.169375 342.324375 
L 365.169375 342.324375 
" style="fill: none; stroke: #e1b8a0; stroke-width: 1.5; stroke-linecap: square"/>
   </g>
   <g id="text_48">
    <!-- Demonstrated trajectory -->
    <g transform="translate(374.769375 346.524375) scale(0.12 -0.12)">
     <defs>
      <path id="DejaVuSans-44" d="M 1259 4147 
L 1259 519 
L 2022 519 
Q 2988 519 3436 956 
Q 3884 1394 3884 2338 
Q 3884 3275 3436 3711 
Q 2988 4147 2022 4147 
L 1259 4147 
z
M 628 4666 
L 1925 4666 
Q 3281 4666 3915 4102 
Q 4550 3538 4550 2338 
Q 4550 1131 3912 565 
Q 3275 0 1925 0 
L 628 0 
L 628 4666 
z
" transform="scale(0.015625)"/>
      <path id="DejaVuSans-6f" d="M 1959 3097 
Q 1497 3097 1228 2736 
Q 959 2375 959 1747 
Q 959 1119 1226 758 
Q 1494 397 1959 397 
Q 2419 397 2687 759 
Q 2956 1122 2956 1747 
Q 2956 2369 2687 2733 
Q 2419 3097 1959 3097 
z
M 1959 3584 
Q 2709 3584 3137 3096 
Q 3566 2609 3566 1747 
Q 3566 888 3137 398 
Q 2709 -91 1959 -91 
Q 1206 -91 779 398 
Q 353 888 353 1747 
Q 353 2609 779 3096 
Q 1206 3584 1959 3584 
z
" transform="scale(0.015625)"/>
      <path id="DejaVuSans-6a" d="M 603 3500 
L 1178 3500 
L 1178 -63 
Q 1178 -731 923 -1031 
Q 669 -1331 103 -1331 
L -116 -1331 
L -116 -844 
L 38 -844 
Q 366 -844 484 -692 
Q 603 -541 603 -63 
L 603 3500 
z
M 603 4863 
L 1178 4863 
L 1178 4134 
L 603 4134 
L 603 4863 
z
" transform="scale(0.015625)"/>
      <path id="DejaVuSans-63" d="M 3122 3366 
L 3122 2828 
Q 2878 2963 2633 3030 
Q 2388 3097 2138 3097 
Q 1578 3097 1268 2742 
Q 959 2388 959 1747 
Q 959 1106 1268 751 
Q 1578 397 2138 397 
Q 2388 397 2633 464 
Q 2878 531 3122 666 
L 3122 134 
Q 2881 22 2623 -34 
Q 2366 -91 2075 -91 
Q 1284 -91 818 406 
Q 353 903 353 1747 
Q 353 2603 823 3093 
Q 1294 3584 2113 3584 
Q 2378 3584 2631 3529 
Q 2884 3475 3122 3366 
z
" transform="scale(0.015625)"/>
      <path id="DejaVuSans-79" d="M 2059 -325 
Q 1816 -950 1584 -1140 
Q 1353 -1331 966 -1331 
L 506 -1331 
L 506 -850 
L 844 -850 
Q 1081 -850 1212 -737 
Q 1344 -625 1503 -206 
L 1606 56 
L 191 3500 
L 800 3500 
L 1894 763 
L 2988 3500 
L 3597 3500 
L 2059 -325 
z
" transform="scale(0.015625)"/>
     </defs>
     <use xlink:href="#DejaVuSans-44"/>
     <use xlink:href="#DejaVuSans-65" x="77.001953"/>
     <use xlink:href="#DejaVuSans-6d" x="138.525391"/>
     <use xlink:href="#DejaVuSans-6f" x="235.9375"/>
     <use xlink:href="#DejaVuSans-6e" x="297.119141"/>
     <use xlink:href="#DejaVuSans-73" x="360.498047"/>
     <use xlink:href="#DejaVuSans-74" x="412.597656"/>
     <use xlink:href="#DejaVuSans-72" x="451.806641"/>
     <use xlink:href="#DejaVuSans-61" x="492.919922"/>
     <use xlink:href="#DejaVuSans-74" x="554.199219"/>
     <use xlink:href="#DejaVuSans-65" x="593.408203"/>
     <use xlink:href="#DejaVuSans-64" x="654.931641"/>
     <use xlink:href="#DejaVuSans-20" x="718.408203"/>
     <use xlink:href="#DejaVuSans-74" x="750.195312"/>
     <use xlink:href="#DejaVuSans-72" x="789.404297"/>
     <use xlink:href="#DejaVuSans-61" x="830.517578"/>
     <use xlink:href="#DejaVuSans-6a" x="891.796875"/>
     <use xlink:href="#DejaVuSans-65" x="919.580078"/>
     <use xlink:href="#DejaVuSans-63" x="981.103516"/>
     <use xlink:href="#DejaVuSans-74" x="1036.083984"/>
     <use xlink:href="#DejaVuSans-6f" x="1075.292969"/>
     <use xlink:href="#DejaVuSans-72" x="1136.474609"/>
     <use xlink:href="#DejaVuSans-79" x="1177.587891"/>
    </g>
   </g>
   <g id="line2d_86">
    <path d="M 547.18125 342.324375 
L 559.18125 342.324375 
L 571.18125 342.324375 
" style="fill: none; stroke: #116496; stroke-width: 1.5; stroke-linecap: square"/>
   </g>
   <g id="text_49">
    <!-- Evaluation -->
    <g transform="translate(580.78125 346.524375) scale(0.12 -0.12)">
     <defs>
      <path id="DejaVuSans-45" d="M 628 4666 
L 3578 4666 
L 3578 4134 
L 1259 4134 
L 1259 2753 
L 3481 2753 
L 3481 2222 
L 1259 2222 
L 1259 531 
L 3634 531 
L 3634 0 
L 628 0 
L 628 4666 
z
" transform="scale(0.015625)"/>
      <path id="DejaVuSans-76" d="M 191 3500 
L 800 3500 
L 1894 563 
L 2988 3500 
L 3597 3500 
L 2284 0 
L 1503 0 
L 191 3500 
z
" transform="scale(0.015625)"/>
      <path id="DejaVuSans-6c" d="M 603 4863 
L 1178 4863 
L 1178 0 
L 603 0 
L 603 4863 
z
" transform="scale(0.015625)"/>
      <path id="DejaVuSans-75" d="M 544 1381 
L 544 3500 
L 1119 3500 
L 1119 1403 
Q 1119 906 1312 657 
Q 1506 409 1894 409 
Q 2359 409 2629 706 
Q 2900 1003 2900 1516 
L 2900 3500 
L 3475 3500 
L 3475 0 
L 2900 0 
L 2900 538 
Q 2691 219 2414 64 
Q 2138 -91 1772 -91 
Q 1169 -91 856 284 
Q 544 659 544 1381 
z
M 1991 3584 
L 1991 3584 
z
" transform="scale(0.015625)"/>
     </defs>
     <use xlink:href="#DejaVuSans-45"/>
     <use xlink:href="#DejaVuSans-76" x="63.183594"/>
     <use xlink:href="#DejaVuSans-61" x="122.363281"/>
     <use xlink:href="#DejaVuSans-6c" x="183.642578"/>
     <use xlink:href="#DejaVuSans-75" x="211.425781"/>
     <use xlink:href="#DejaVuSans-61" x="274.804688"/>
     <use xlink:href="#DejaVuSans-74" x="336.083984"/>
     <use xlink:href="#DejaVuSans-69" x="375.292969"/>
     <use xlink:href="#DejaVuSans-6f" x="403.076172"/>
     <use xlink:href="#DejaVuSans-6e" x="464.257812"/>
    </g>
   </g>
   <g id="PathCollection_4">
    <g>
     <use xlink:href="#m132c2935ae" x="680.098125" y="343.374375" style="fill: #008000; stroke: #008000; stroke-width: 1.5"/>
    </g>
   </g>
   <g id="text_50">
    <!-- Target -->
    <g transform="translate(701.698125 346.524375) scale(0.12 -0.12)">
     <defs>
      <path id="DejaVuSans-54" d="M -19 4666 
L 3928 4666 
L 3928 4134 
L 2272 4134 
L 2272 0 
L 1638 0 
L 1638 4134 
L -19 4134 
L -19 4666 
z
" transform="scale(0.015625)"/>
      <path id="DejaVuSans-67" d="M 2906 1791 
Q 2906 2416 2648 2759 
Q 2391 3103 1925 3103 
Q 1463 3103 1205 2759 
Q 947 2416 947 1791 
Q 947 1169 1205 825 
Q 1463 481 1925 481 
Q 2391 481 2648 825 
Q 2906 1169 2906 1791 
z
M 3481 434 
Q 3481 -459 3084 -895 
Q 2688 -1331 1869 -1331 
Q 1566 -1331 1297 -1286 
Q 1028 -1241 775 -1147 
L 775 -588 
Q 1028 -725 1275 -790 
Q 1522 -856 1778 -856 
Q 2344 -856 2625 -561 
Q 2906 -266 2906 331 
L 2906 616 
Q 2728 306 2450 153 
Q 2172 0 1784 0 
Q 1141 0 747 490 
Q 353 981 353 1791 
Q 353 2603 747 3093 
Q 1141 3584 1784 3584 
Q 2172 3584 2450 3431 
Q 2728 3278 2906 2969 
L 2906 3500 
L 3481 3500 
L 3481 434 
z
" transform="scale(0.015625)"/>
     </defs>
     <use xlink:href="#DejaVuSans-54"/>
     <use xlink:href="#DejaVuSans-61" x="44.583984"/>
     <use xlink:href="#DejaVuSans-72" x="105.863281"/>
     <use xlink:href="#DejaVuSans-67" x="145.226562"/>
     <use xlink:href="#DejaVuSans-65" x="208.703125"/>
     <use xlink:href="#DejaVuSans-74" x="270.226562"/>
    </g>
   </g>
  </g>
 </g>
 <defs>
  <clipPath id="p3d9cb58dcc">
   <rect x="51.01" y="38.48" width="317.343333" height="253.6"/>
  </clipPath>
  <clipPath id="pdc0ff0bbbb">
   <rect x="404.833333" y="38.48" width="317.343333" height="253.6"/>
  </clipPath>
  <clipPath id="p7e002c615a">
   <rect x="758.656667" y="38.48" width="317.343333" height="253.6"/>
  </clipPath>
 </defs>
</svg>
